<?xml version="1.0" standalone="no"?>
<!DOCTYPE svg PUBLIC "-//W3C//DTD SVG 20010904//EN"
 "http://www.w3.org/TR/2001/REC-SVG-20010904/DTD/svg10.dtd">
<svg version="1.0" xmlns="http://www.w3.org/2000/svg"
 width="200.000000pt" height="200.000000pt" viewBox="0 0 200.000000 200.000000"
 preserveAspectRatio="xMidYMid meet">

<g transform="translate(0.000000,200.000000) scale(0.100000,-0.100000)"
fill="#000000" stroke="none">
<path d="M182 1733 c-42 -20 -69 -55 -82 -104 -7 -25 -10 -211 -8 -526 3 -541
1 -526 70 -575 31 -21 44 -23 196 -26 l162 -3 0 -38 c0 -21 12 -61 28 -92 62
-123 226 -156 328 -67 43 38 74 96 74 141 0 40 15 57 50 57 35 0 50 -17 50
-57 0 -99 107 -193 220 -193 40 0 127 38 152 66 28 32 58 106 58 146 l0 37
163 3 c151 3 164 5 195 26 69 50 67 30 67 597 0 567 2 547 -67 597 l-33 23
-795 2 c-718 3 -798 1 -828 -14z m1634 -76 c24 -28 24 -29 24 -263 l0 -234
-189 0 -189 0 -12 35 c-15 45 -56 95 -79 95 -9 0 -46 -29 -81 -65 l-64 -65
-103 0 c-102 0 -102 0 -125 -30 -12 -17 -26 -29 -30 -28 -5 2 -37 48 -71 103
-77 122 -90 127 -136 54 l-32 -52 -42 41 c-49 48 -65 51 -94 20 -56 -62 -76
-162 -48 -238 9 -25 19 -52 22 -62 3 -9 -7 -33 -21 -54 -20 -30 -26 -34 -26
-18 0 37 -50 589 -55 612 -4 17 -12 22 -28 20 -18 -2 -41 -40 -115 -185 l-92
-183 -35 0 -35 0 0 233 c0 250 3 267 54 287 11 5 371 8 799 7 l779 -2 24 -28z
m-1371 -601 c14 -158 28 -292 31 -297 16 -27 45 -5 91 71 l49 79 89 -89 c86
-86 88 -90 71 -108 -10 -12 -43 -25 -79 -32 -55 -10 -68 -18 -115 -67 l-54
-54 -160 3 -160 3 -24 28 c-24 28 -24 29 -24 262 l0 234 53 3 52 3 75 145 c46
90 75 137 77 125 2 -11 14 -150 28 -309z m439 52 c46 -73 73 -108 86 -108 11
0 30 18 47 45 28 44 29 45 83 45 l55 0 -78 -77 -77 -78 -110 110 c-60 60 -110
113 -110 118 0 9 32 59 35 55 1 -2 33 -51 69 -110z m46 -193 c289 -289 296
-295 335 -295 57 0 105 -29 132 -80 29 -54 29 -84 1 -140 -30 -59 -97 -95
-158 -85 -73 12 -130 79 -130 152 0 35 -12 50 -249 288 -237 238 -249 252
-261 302 -6 28 -9 62 -5 75 12 42 27 78 34 78 3 0 139 -133 301 -295z m458
268 c20 -53 22 -83 10 -130 -10 -41 -28 -65 -124 -163 l-113 -115 -58 57 -58
58 160 160 c88 88 163 160 166 160 4 0 11 -12 17 -27z m452 -327 c0 -234 0
-235 -24 -263 l-24 -28 -160 -3 -160 -3 -54 55 c-47 48 -60 56 -116 67 -34 7
-70 21 -79 31 -16 17 -11 24 89 126 104 106 139 156 153 220 l7 32 184 0 184
0 0 -234z m-940 -231 l54 -55 -32 -33 c-24 -25 -32 -42 -32 -70 0 -110 -112
-183 -213 -139 -152 67 -108 292 58 292 33 0 47 6 70 30 16 17 31 30 35 30 3
0 30 -25 60 -55z"/>
<path d="M1189 541 c-81 -81 18 -219 120 -167 33 17 61 62 61 96 0 87 -118
133 -181 71z m111 -51 c16 -30 -4 -60 -40 -60 -23 0 -31 5 -36 25 -4 15 -1 32
6 40 18 21 57 19 70 -5z"/>
<path d="M674 552 c-45 -36 -55 -82 -29 -132 34 -66 121 -76 169 -19 59 70 14
169 -76 169 -26 0 -52 -7 -64 -18z m96 -57 c16 -19 5 -61 -17 -67 -25 -7 -42
1 -53 23 -23 43 39 82 70 44z"/>
</g>
</svg>
