<?xml version="1.0" encoding="UTF-8"?>
<svg version="1.1" xmlns="http://www.w3.org/2000/svg" width="512" height="512">
<path d="M0 0 C5.49430542 3.09671944 8.46806337 6.81912342 11.72460938 12.12841797 C12.74336088 13.72266651 13.7629289 15.3163935 14.78320312 16.90966797 C15.31413574 17.75013672 15.84506836 18.59060547 16.39208984 19.45654297 C19.44455854 24.23295381 22.62593663 28.92356759 25.78710938 33.62841797 C26.98008254 35.40861892 28.17161078 37.18978949 29.36132812 38.97216797 C30.11869263 40.10428711 30.11869263 40.10428711 30.89135742 41.25927734 C33.38308853 45.11393351 33.71555344 48.61149484 33.09960938 53.12841797 C31.59960938 55.62841797 31.59960938 55.62841797 29.09960938 57.12841797 C24.21309902 58.08969869 24.21309902 58.08969869 21.09960938 57.12841797 C15.58300106 52.33478396 11.60936409 45.71026086 7.66210938 39.62841797 C7.12134766 38.80599609 6.58058594 37.98357422 6.0234375 37.13623047 C4.71005373 35.13709765 3.40225242 33.13455889 2.09960938 31.12841797 C2.05382838 67.93652374 2.01858836 104.74462523 1.99747872 141.55275372 C1.99497731 145.8986132 1.99238867 150.24447263 1.98974609 154.59033203 C1.98895916 155.88810173 1.98895916 155.88810173 1.98815633 157.212089 C1.9794545 171.21965603 1.96368574 185.22720663 1.94530378 199.23476392 C1.92659858 213.60855926 1.91549133 227.982346 1.91143239 242.35615301 C1.90868862 251.2250436 1.90002359 260.09388778 1.88377644 268.96276408 C1.87320191 275.04506334 1.87000982 281.12733862 1.87260662 287.2096464 C1.87388718 290.71843101 1.87192853 294.22713452 1.86119843 297.73590469 C1.85125566 301.54295472 1.85363827 305.34980577 1.85910034 309.15686035 C1.85036182 310.81446876 1.85036182 310.81446876 1.84144676 312.50556421 C1.8643325 318.40279918 2.38777094 323.47694817 4.09960938 329.12841797 C5.03478679 328.19267098 5.03478679 328.19267098 5.98885667 327.23802 C42.90346102 290.30105906 79.82065928 253.36669239 116.74124845 216.43571356 C121.16996589 212.00574536 125.59866155 207.57575538 130.02734375 203.14575195 C130.90905049 202.26378291 131.79075722 201.38181386 132.69918235 200.47311848 C146.99348124 186.17446302 161.28601368 171.87404311 175.57789914 157.5729754 C190.23232372 142.9092139 204.88863325 128.2473384 219.54671061 113.58722824 C228.59840256 104.53416114 237.64860419 95.47960938 246.6969315 86.42317938 C252.89381651 80.22102643 259.09252413 74.02069903 265.29269503 67.82183094 C268.87488826 64.24028101 272.45624659 60.65790609 276.03545189 57.07336998 C279.30743739 53.79654658 282.58168718 50.52200412 285.85781057 47.24931788 C287.04714047 46.06041329 288.23561199 44.87064932 289.42316966 43.6799745 C291.02862849 42.07054449 292.63709003 40.46417853 294.24638939 38.85859013 C295.14176993 37.96282987 296.03715047 37.06706961 296.95966375 36.1441651 C300.25272049 33.0422313 302.58455599 32.7681169 307.12304688 32.85888672 C309.09960938 33.12841797 309.09960938 33.12841797 311.59960938 34.62841797 C313.29623222 37.45612271 313.85562499 39.7103588 313.66161782 43.01780701 C311.44741523 51.33319856 300.34099741 59.02372918 294.28627014 65.06201172 C293.08794817 66.2607703 291.8898462 67.45974884 290.69194406 68.65892696 C287.4149449 71.93815335 284.13485075 75.21426828 280.85422599 78.48986697 C277.31126002 82.02850311 273.77119618 85.5700405 270.23077393 89.11122131 C264.10144205 95.24107682 257.97028603 101.36910284 251.83787727 107.49588013 C242.97151174 116.35410887 234.10791805 125.2151069 225.24499231 134.0767771 C210.86442173 148.45516058 196.48162072 162.83131079 182.09741211 177.20605469 C168.12683762 191.1674462 154.15731675 205.12989056 140.18920898 219.09375 C139.32780633 219.95488993 138.46640367 220.81602987 137.5788979 221.70326495 C133.25737854 226.02347925 128.93587985 230.34371424 124.61439145 234.6639595 C88.77933607 270.48865294 52.9406587 306.3097213 17.09960938 342.12841797 C24.0325823 344.25323236 30.45801698 344.4049621 37.67858887 344.368927 C38.93499129 344.37063585 40.19139371 344.3723447 41.48586893 344.37410533 C44.95672241 344.3785595 48.42745155 344.3706019 51.8982892 344.36054921 C55.64733138 344.35188905 59.39636689 344.35483668 63.14541626 344.35635376 C69.63542839 344.35740099 76.12540022 344.35114133 82.61540222 344.33987808 C91.99877802 344.32360408 101.38213439 344.31841313 110.76552278 344.3159021 C125.99050279 344.31152798 141.21546133 344.29822655 156.44042969 344.27929688 C171.22753797 344.26093075 186.01464042 344.24677783 200.80175781 344.23828125 C202.1696361 344.23749308 202.1696361 344.23749308 203.56514829 344.23668899 C208.14010899 344.23407886 212.71506972 344.23155145 217.29003048 344.22906518 C255.22657193 344.20834149 293.16308898 344.17312366 331.09960938 344.12841797 C330.45411133 343.6949707 329.80861328 343.26152344 329.14355469 342.81494141 C326.20910982 340.84070683 323.27933657 338.85964598 320.34960938 336.87841797 C319.33382813 336.19650391 318.31804687 335.51458984 317.27148438 334.81201172 C316.29179687 334.14814453 315.31210937 333.48427734 314.30273438 332.80029297 C313.40200195 332.19282227 312.50126953 331.58535156 311.57324219 330.95947266 C305.44316766 326.42181385 305.44316766 326.42181385 304.56835938 323.12841797 C304.62216061 319.68513914 304.79667847 317.63330281 306.59960938 314.62841797 C310.06284304 312.55047777 313.19991494 312.55022984 317.09960938 313.12841797 C319.87807069 314.25756435 322.25357722 315.81614112 324.72460938 317.50341797 C325.75666504 318.17800049 325.75666504 318.17800049 326.80957031 318.86621094 C332.57165806 322.66834187 338.19158891 326.67556799 343.76367188 330.74951172 C345.96362255 332.34508741 348.19375043 333.84789032 350.49804688 335.28857422 C360.93296047 341.84513615 360.93296047 341.84513615 363.09960938 348.12841797 C364.15443873 354.48872569 363.34219962 358.73970327 359.79223633 364.10522461 C356.62515961 367.89082461 352.5676942 370.29102101 348.41210938 372.87841797 C346.53688724 374.08510409 344.66189162 375.29214228 342.78710938 376.49951172 C341.84222656 377.10005371 340.89734375 377.7005957 339.92382812 378.31933594 C335.54168877 381.12635985 331.22954152 384.03577962 326.91210938 386.94091797 C325.44048783 387.92813921 323.96792186 388.91395501 322.49414062 389.89794922 C321.88417236 390.30634033 321.2742041 390.71473145 320.64575195 391.13549805 C316.93988602 393.51537437 313.40579382 393.71562494 309.09960938 393.12841797 C306.59960938 391.62841797 306.59960938 391.62841797 305.09960938 389.12841797 C304.13832865 384.24190761 304.13832865 384.24190761 305.09960938 381.12841797 C309.89324338 375.61180965 316.51776648 371.63817268 322.59960938 367.69091797 C323.42203125 367.15015625 324.24445313 366.60939453 325.09179688 366.05224609 C327.09092969 364.73886232 329.09346845 363.43106101 331.09960938 362.12841797 C330.43725586 362.12782088 329.77490234 362.12722379 329.0924775 362.12660861 C289.81957261 362.09069997 250.54674657 362.03403842 211.27391286 361.95049702 C206.55638818 361.94047979 201.83886316 361.93063562 197.12133789 361.92089844 C196.18217965 361.91895706 195.24302141 361.91701569 194.27540383 361.91501549 C179.07680162 361.88401035 163.87821449 361.86701899 148.67958661 361.85522375 C133.07966929 361.84280449 117.47983107 361.81528558 101.8799637 361.7738049 C92.25715202 361.7486917 82.63447155 361.7352991 73.01162664 361.7369884 C66.40923602 361.73701819 59.80697888 361.72235607 53.20464029 361.69625369 C49.39771815 361.68163334 45.59106972 361.67338265 41.78412437 361.68261528 C37.64949947 361.69247256 33.5155945 361.671336 29.38102722 361.6473999 C28.18741976 361.65516032 26.99381231 361.66292074 25.76403493 361.67091632 C14.00719513 361.55065993 4.66728357 358.3073886 -3.90039062 350.12841797 C-13.00070202 340.59561652 -15.50791041 330.36191068 -15.41937256 317.454422 C-15.42687381 316.22404117 -15.43437506 314.99366034 -15.44210362 313.72599524 C-15.4587886 310.34147965 -15.4578506 306.95782992 -15.4491961 303.5733422 C-15.44422501 299.9122409 -15.46236856 296.25124226 -15.47761536 292.59017944 C-15.50086714 286.25736392 -15.50967858 279.92466272 -15.50850677 273.59180641 C-15.50683371 264.43574035 -15.52721106 255.27982617 -15.55286208 246.12380072 C-15.5938914 231.26654186 -15.61724284 216.40931043 -15.62939453 201.55200195 C-15.64123241 187.12489183 -15.66144724 172.69783328 -15.69287109 158.27075195 C-15.6948072 157.38053023 -15.6967433 156.49030851 -15.69873807 155.57311038 C-15.70850302 151.10684974 -15.71843206 146.64058949 -15.72844267 142.1743294 C-15.81119609 105.15904958 -15.86522514 68.14377207 -15.90039062 31.12841797 C-16.55056152 32.09666504 -16.55056152 32.09666504 -17.21386719 33.08447266 C-19.18810176 36.01891752 -21.16916261 38.94869078 -23.15039062 41.87841797 C-23.83230469 42.89419922 -24.51421875 43.90998047 -25.21679688 44.95654297 C-25.88066406 45.93623047 -26.54453125 46.91591797 -27.22851562 47.92529297 C-27.83598633 48.82602539 -28.44345703 49.72675781 -29.06933594 50.65478516 C-33.60699474 56.78485969 -33.60699474 56.78485969 -36.90039062 57.65966797 C-40.34366945 57.60586674 -42.39550578 57.43134887 -45.40039062 55.62841797 C-47.47833083 52.1651843 -47.47857876 49.0281124 -46.90039062 45.12841797 C-45.77124425 42.34995666 -44.21266748 39.97445012 -42.52539062 37.50341797 C-42.07566895 36.81538086 -41.62594727 36.12734375 -41.16259766 35.41845703 C-37.36046672 29.65636929 -33.3532406 24.03643844 -29.27929688 18.46435547 C-27.68372118 16.2644048 -26.18091828 14.03427692 -24.74023438 11.72998047 C-19.08707796 2.73285678 -11.52674535 -5.28654688 0 0 Z " fill="#292B3C" transform="translate(86.900390625,78.87158203125)"/>
<path d="M0 0 C0.77300949 -0.0066568 1.54601898 -0.0133136 2.342453 -0.02017212 C3.97380201 -0.030268 5.60519205 -0.03499009 7.23657227 -0.03466797 C9.71245654 -0.03903076 12.18654126 -0.07535095 14.66210938 -0.11328125 C16.25390022 -0.11915247 17.84569944 -0.12311982 19.4375 -0.125 C20.1679805 -0.13937103 20.898461 -0.15374207 21.65107727 -0.16854858 C27.1358624 -0.12060953 31.32257653 1.32008817 35.91796875 4.3359375 C42.5273784 11.28429124 41.2082212 19.79810655 41.26806641 28.78540039 C41.28458774 30.60193731 41.31182725 32.41841025 41.35009766 34.23461914 C41.40521072 36.86638795 41.42679391 39.49663601 41.44140625 42.12890625 C41.46407562 42.9312822 41.486745 43.73365814 41.51010132 44.56034851 C41.48765692 50.62830578 39.82759013 54.68134227 35.91796875 59.3359375 C31.62651311 63.1400919 26.95370973 62.80342354 21.48828125 62.8046875 C20.57972382 62.81230103 19.67116638 62.81991455 18.7350769 62.82775879 C16.81706483 62.83854165 14.89899412 62.84142027 12.98095703 62.83691406 C10.05921557 62.8359429 7.14011182 62.87755972 4.21875 62.921875 C2.35026586 62.92708343 0.48177265 62.92977017 -1.38671875 62.9296875 C-2.25360321 62.94608276 -3.12048767 62.96247803 -4.01364136 62.97937012 C-9.19918753 62.92082434 -12.62377336 62.1449918 -16.66662598 58.79199219 C-21.3916511 53.93126777 -21.52869658 48.80919783 -21.48046875 42.4296875 C-21.48333893 41.58676147 -21.48620911 40.74383545 -21.48916626 39.87536621 C-21.49119987 38.10033493 -21.48571938 36.32528087 -21.47314453 34.55029297 C-21.45708038 31.84421341 -21.47301669 29.13962724 -21.4921875 26.43359375 C-21.49020494 24.70312173 -21.48636101 22.97265063 -21.48046875 21.2421875 C-21.48654144 20.43890015 -21.49261414 19.63561279 -21.49887085 18.8079834 C-21.43811192 13.91853963 -20.75206189 10.58550205 -18.08203125 6.3359375 C-12.53877545 1.08443201 -7.46485518 0.0225566 0 0 Z " fill="#272A3B" transform="translate(230.08203125,329.6640625)"/>
<path d="M0 0 C0.87078186 -0.00807175 1.74156372 -0.01614349 2.63873291 -0.02445984 C4.48472094 -0.03830382 6.3307346 -0.04902457 8.17675781 -0.05688477 C10.99073335 -0.07406676 13.80352452 -0.11794543 16.6171875 -0.16210938 C18.4114497 -0.17223915 20.20572189 -0.18075436 22 -0.1875 C23.25656403 -0.21376213 23.25656403 -0.21376213 24.53851318 -0.24055481 C29.94160304 -0.22064465 32.97230597 0.66119635 37.265625 4.23828125 C41.98273437 9.59283784 42.44284991 12.98168425 42.50390625 19.97265625 C42.511978 20.84343811 42.52004974 21.71421997 42.52836609 22.61138916 C42.54221007 24.45737719 42.55293082 26.30339085 42.56079102 28.14941406 C42.57797301 30.9633896 42.62185168 33.77618077 42.66601562 36.58984375 C42.6761454 38.38410595 42.68466061 40.17837814 42.69140625 41.97265625 C42.70891434 42.8103656 42.72642242 43.64807495 42.74446106 44.51116943 C42.7245509 49.91425929 41.8427099 52.94496222 38.265625 57.23828125 C32.91106841 61.95539062 29.522222 62.41550616 22.53125 62.4765625 C21.66046814 62.48463425 20.78968628 62.49270599 19.89251709 62.50102234 C18.04652906 62.51486632 16.2005154 62.52558707 14.35449219 62.53344727 C11.54051665 62.55062926 8.72772548 62.59450793 5.9140625 62.63867188 C4.1198003 62.64880165 2.32552811 62.65731686 0.53125 62.6640625 C-0.72531403 62.69032463 -0.72531403 62.69032463 -2.00726318 62.71711731 C-7.41035304 62.69720715 -10.44105597 61.81536615 -14.734375 58.23828125 C-19.45148437 52.88372466 -19.91159991 49.49487825 -19.97265625 42.50390625 C-19.980728 41.63312439 -19.98879974 40.76234253 -19.99711609 39.86517334 C-20.01096007 38.01918531 -20.02168082 36.17317165 -20.02954102 34.32714844 C-20.04672301 31.5131729 -20.09060168 28.70038173 -20.13476562 25.88671875 C-20.1448954 24.09245655 -20.15341061 22.29818436 -20.16015625 20.50390625 C-20.17766434 19.6661969 -20.19517242 18.82848755 -20.21321106 17.96539307 C-20.1933009 12.56230321 -19.3114599 9.53160028 -15.734375 5.23828125 C-10.37981841 0.52117188 -6.990972 0.06105634 0 0 Z " fill="#26293A" transform="translate(324.734375,320.76171875)"/>
<path d="M0 0 C1.81653692 -0.01652133 3.63300986 -0.04376084 5.44921875 -0.08203125 C8.08098756 -0.13714432 10.71123562 -0.15872751 13.34350586 -0.17333984 C14.14588181 -0.19600922 14.94825775 -0.21867859 15.77494812 -0.24203491 C21.84290539 -0.21959052 25.89594188 1.44047628 30.55053711 5.35009766 C34.35469151 9.6415533 34.01802315 14.31435668 34.01928711 19.77978516 C34.0307074 21.14262131 34.0307074 21.14262131 34.0423584 22.5329895 C34.05314126 24.45100158 34.05601988 26.36907228 34.05151367 28.28710938 C34.05054251 31.20885084 34.09215933 34.12795459 34.13647461 37.04931641 C34.14168304 38.91780055 34.14436978 40.78629376 34.14428711 42.65478516 C34.16888 43.95511185 34.16888 43.95511185 34.19396973 45.28170776 C34.13542395 50.46725394 33.35959141 53.89183976 30.0065918 57.93469238 C25.14586737 62.65971751 20.02379744 62.79676299 13.64428711 62.74853516 C12.80136108 62.75140533 11.95843506 62.75427551 11.08996582 62.75723267 C9.31493454 62.75926627 7.53988048 62.75378578 5.76489258 62.74121094 C3.05881302 62.72514678 0.35422685 62.7410831 -2.35180664 62.76025391 C-4.08227866 62.75827135 -5.81274976 62.75442741 -7.54321289 62.74853516 C-8.74814392 62.7576442 -8.74814392 62.7576442 -9.97741699 62.76693726 C-14.86686077 62.70617833 -18.19989834 62.02012829 -22.44946289 59.35009766 C-27.70096838 53.80684186 -28.7628438 48.73292158 -28.78540039 41.26806641 C-28.79205719 40.49505692 -28.79871399 39.72204742 -28.80557251 38.9256134 C-28.81566839 37.2942644 -28.82039048 35.66287435 -28.82006836 34.03149414 C-28.82443115 31.55560986 -28.86075134 29.08152515 -28.89868164 26.60595703 C-28.90455286 25.01416619 -28.90852021 23.42236696 -28.91040039 21.83056641 C-28.92477142 21.10008591 -28.93914246 20.36960541 -28.95394897 19.61698914 C-28.90600992 14.13220401 -27.46531222 9.94548988 -24.44946289 5.35009766 C-17.50110915 -1.259312 -8.98729384 0.0598452 0 0 Z " fill="#26293A" transform="translate(422.449462890625,256.64990234375)"/>
<path d="M0 0 C0.79803543 -0.00807175 1.59607086 -0.01614349 2.41828918 -0.02445984 C4.10867145 -0.03828627 5.79908146 -0.04901487 7.48950195 -0.05688477 C9.20898686 -0.06838146 10.92843673 -0.08879667 12.64770508 -0.1184082 C15.14038187 -0.16133164 17.6319983 -0.17728938 20.125 -0.1875 C20.88362839 -0.20500809 21.64225677 -0.22251617 22.4238739 -0.24055481 C27.95796883 -0.21839081 32.30623445 1.07211763 36.89453125 4.23828125 C41.39831089 9.89687618 42.05912704 14.38773132 42.09765625 21.4140625 C42.10335632 22.21684128 42.1090564 23.01962006 42.1149292 23.84672546 C42.12437164 25.54550868 42.13091018 27.24431015 42.13476562 28.94311523 C42.14445629 31.53076501 42.17547983 34.11761521 42.20703125 36.70507812 C42.21356326 38.35806822 42.21881296 40.01106397 42.22265625 41.6640625 C42.23500305 42.43301346 42.24734985 43.20196442 42.2600708 43.99421692 C42.23755117 49.47672565 41.23929191 53.72646385 37.359375 57.8828125 C31.93286181 62.03249905 28.66518642 62.41932008 21.94140625 62.4765625 C21.04842834 62.48463425 20.15545044 62.49270599 19.2354126 62.50102234 C17.34234562 62.51486695 15.44925363 62.52558741 13.55615234 62.53344727 C10.66976115 62.55063105 7.78452403 62.59450967 4.8984375 62.63867188 C3.05860217 62.64880145 1.2187571 62.65731672 -0.62109375 62.6640625 C-1.48067688 62.68157059 -2.34026001 62.69907867 -3.22589111 62.71711731 C-8.67106535 62.69754562 -11.8712038 61.980416 -16.10546875 58.23828125 C-20.46911919 53.27048904 -20.69703261 49.20408089 -20.63671875 42.89453125 C-20.64054565 42.00721313 -20.64437256 41.11989502 -20.64831543 40.20568848 C-20.65102786 38.33649557 -20.64371364 36.46726427 -20.62695312 34.59814453 C-20.60553316 31.74685561 -20.62677676 28.89808612 -20.65234375 26.046875 C-20.64970035 24.22525489 -20.64457513 22.40363634 -20.63671875 20.58203125 C-20.64481567 19.73499634 -20.6529126 18.88796143 -20.66125488 18.01525879 C-20.57618545 12.61076753 -19.67489283 9.53535652 -16.10546875 5.23828125 C-10.88351483 0.52578625 -6.82505331 0.0655821 0 0 Z " fill="#282A3B" transform="translate(332.10546875,233.76171875)"/>
<path d="M0 0 C7.02707432 7.50755804 9.92945883 15.92038398 9.828125 26.140625 C9.17618494 35.26778577 5.25059402 43.28186298 -1.484375 49.515625 C-9.13550932 55.43854257 -17.30978217 57.60268569 -26.8984375 56.95703125 C-36.14488462 55.69378425 -44.17023636 51.49419825 -49.92578125 44.04296875 C-55.39356085 35.69560616 -57.11166949 26.95919598 -55.609375 17.078125 C-53.55911418 8.48069795 -48.60348376 0.96890035 -41.171875 -3.859375 C-27.50455699 -11.40917234 -12.04040765 -10.30797489 0 0 Z " fill="#272A3A" transform="translate(311.171875,71.859375)"/>
<path d="M0 0 C6.74660916 7.20791577 10.22454712 16.03846818 10.0390625 25.90625 C9.20394662 34.75229231 5.42629447 42.86021521 -1.09375 48.9296875 C-8.96474941 55.12276068 -16.94628243 57.61544965 -26.90625 56.9609375 C-36.04463592 55.69601968 -43.22032387 51.91397008 -49.109375 44.765625 C-55.50735369 35.63643371 -56.14187696 27.07222017 -55.171875 16.140625 C-53.09450475 7.09174101 -48.10743306 0.82735164 -40.421875 -4.171875 C-27.06679831 -11.63794179 -11.69059321 -10.00849347 0 0 Z " fill="#272A3A" transform="translate(271.171875,151.859375)"/>
<path d="M0 0 C0.62132812 0.350625 1.24265625 0.70125 1.8828125 1.0625 C8.74365239 5.3393872 12.93905235 12.29262042 15 20 C16.02062303 31.34553041 15.12997765 40.97579925 8 50.25 C1.24517432 57.35048841 -7.4974637 60.78250857 -17.19140625 61.09765625 C-26.39740117 60.77755907 -33.91350008 57.55279864 -40.82421875 51.3671875 C-47.23443549 44.42413159 -50.38764531 35.63523072 -50.2109375 26.234375 C-49.37410383 17.37013685 -45.58059362 9.34350285 -39.11328125 3.2109375 C-28.17205534 -5.51624859 -12.17583161 -7.67936267 0 0 Z " fill="#272A3A" transform="translate(169,252)"/>
<path d="M0 0 C7.26983434 7.64185145 9.42979578 15.9810127 9.30712891 26.34155273 C9.06045841 32.07153123 7.871267 36.35699299 4.83203125 41.17578125 C4.48140625 41.79710937 4.13078125 42.4184375 3.76953125 43.05859375 C-0.50735595 49.91943364 -7.46058917 54.1148336 -15.16796875 56.17578125 C-26.51349916 57.19640428 -36.143768 56.3057589 -45.41796875 49.17578125 C-52.75419057 42.18181725 -56.02173923 33.27829432 -56.33203125 23.27734375 C-55.84281947 14.02891146 -52.0591686 5.72897135 -45.24609375 -0.61328125 C-31.40507705 -11.50369361 -13.67670843 -11.50814926 0 0 Z " fill="#272A3A" transform="translate(191.16796875,127.82421875)"/>
<path d="M0 0 C9.9 0 19.8 0 30 0 C30 9.9 30 19.8 30 30 C20.1 30 10.2 30 0 30 C0 20.1 0 10.2 0 0 Z " fill="#FF5A76" transform="translate(321,337)"/>
<path d="M0 0 C9.9 0 19.8 0 30 0 C30 9.9 30 19.8 30 30 C20.1 30 10.2 30 0 30 C0 20.1 0 10.2 0 0 Z " fill="#FF5A76" transform="translate(410,273)"/>
<path d="M0 0 C9.9 0 19.8 0 30 0 C30 9.57 30 19.14 30 29 C20.1 29 10.2 29 0 29 C0 19.43 0 9.86 0 0 Z " fill="#FF5A76" transform="translate(225,347)"/>
<path d="M0 0 C9.57 0 19.14 0 29 0 C29 9.57 29 19.14 29 29 C19.43 29 9.86 29 0 29 C0 19.43 0 9.86 0 0 Z " fill="#FF5A76" transform="translate(328,251)"/>
<path d="M0 0 C4.98669007 2.49334503 8.49675474 5.99350949 11 11 C11.54360446 15.95482094 11.56437074 19.87125852 9.3125 24.375 C6.14745126 27.96775803 2.78798338 31.69412413 -2.171875 32.23828125 C-8.01846537 32.40659218 -11.43192863 32.02425335 -16 28 C-20.39893104 23.00661882 -21.35676337 20.08984773 -21.28125 13.5390625 C-20.73016315 8.56397287 -17.99302299 5.87480597 -14.375 2.6875 C-9.71860985 -0.62098774 -5.60468123 -0.62082623 0 0 Z " fill="#FCCF32" transform="translate(293,80)"/>
<path d="M0 0 C4.98669007 2.49334503 8.49675474 5.99350949 11 11 C11.59057744 16.67862925 11.29370905 21.16922672 8 26 C4.00950931 29.92664284 0.88359358 32.15032079 -4.75 32.3125 C-9.6322451 32.25622052 -12.25873246 31.29587855 -16 28 C-20.48735572 23.14880463 -21.37944978 19.62737243 -21.28125 13.0234375 C-20.64340739 8.4345143 -17.71392374 5.62893282 -14.375 2.6875 C-9.71860985 -0.62098774 -5.60468123 -0.62082623 0 0 Z " fill="#FCCF32" transform="translate(253,160)"/>
<path d="M0 0 C5.54648833 1.98551333 9.38327402 5.76654805 12 11 C12.54360446 15.95482094 12.56437074 19.87125852 10.3125 24.375 C6.72054254 28.45235712 3.52833982 31.59004052 -2.05078125 32.23828125 C-7.58896758 32.42001793 -10.64755155 31.74513006 -15 28 C-19.3022759 23.23261319 -20.36282503 19.56252705 -20.28125 13.28125 C-19.69180611 8.50020514 -16.85179203 5.75038822 -13.375 2.6875 C-8.9477123 -0.45820442 -5.33698346 -0.62993903 0 0 Z " fill="#FCD032" transform="translate(156,264)"/>
<path d="M0 0 C5.67476113 1.96434039 9.31400331 5.62800662 12 11 C12.81262128 17.54093522 11.85964688 21.67994619 8 27 C3.30098915 31.35518079 -0.47091849 32.36239067 -6.71875 32.28125 C-11.49979486 31.69180611 -14.24961178 28.85179203 -17.3125 25.375 C-20.62098774 20.71860985 -20.62082623 16.60468123 -20 11 C-15.58213882 2.16427763 -9.40970949 -0.85831809 0 0 Z " fill="#FDD032" transform="translate(172,136)"/>
<path d="M0 0 C9.9 0 19.8 0 30 0 C30 9.9 30 19.8 30 30 C20.1 30 10.2 30 0 30 C0 20.1 0 10.2 0 0 Z M1 1 C1 9.25 1 17.5 1 26 C6.07375 26.12375 6.07375 26.12375 11.25 26.25 C12.83989746 26.30462402 12.83989746 26.30462402 14.46191406 26.36035156 C18.31419337 26.40601912 21.18470258 26.41244458 24.65625 24.65625 C26.84729514 20.32511425 26.41379342 16.01740312 26.25 11.25 C26.1675 7.8675 26.085 4.485 26 1 C17.75 1 9.5 1 1 1 Z " fill="#E14663" transform="translate(321,337)"/>
<path d="M0 0 C9.9 0 19.8 0 30 0 C30 9.9 30 19.8 30 30 C20.1 30 10.2 30 0 30 C0 20.1 0 10.2 0 0 Z M1 1 C1 9.25 1 17.5 1 26 C4.3825 26.061875 7.765 26.12375 11.25 26.1875 C12.83989746 26.22846802 12.83989746 26.22846802 14.46191406 26.27026367 C15.30463867 26.27775635 16.14736328 26.28524902 17.015625 26.29296875 C17.87446289 26.3086792 18.73330078 26.32438965 19.61816406 26.34057617 C22.57246955 25.91814319 23.88665335 25.09006801 26 23 C27.07411335 20.23205186 27.11871633 17.62028689 27.09765625 14.671875 C27.09515869 13.9509668 27.09266113 13.23005859 27.09008789 12.48730469 C27.08098389 11.58399414 27.07187988 10.68068359 27.0625 9.75 C27.0315625 5.41875 27.0315625 5.41875 27 1 C18.42 1 9.84 1 1 1 Z " fill="#DE4561" transform="translate(410,273)"/>
<path d="M0 0 C0.33 0 0.66 0 1 0 C1 8.58 1 17.16 1 26 C3.866875 25.87625 6.73375 25.7525 9.6875 25.625 C10.58170654 25.59100098 11.47591309 25.55700195 12.3972168 25.52197266 C16.60496969 25.31340175 20.22588621 25.06943517 24 23 C25.20270964 20.59458071 25.20316663 18.89633409 25.31640625 16.2109375 C25.35830078 15.26992188 25.40019531 14.32890625 25.44335938 13.359375 C25.48267578 12.37453125 25.52199219 11.3896875 25.5625 10.375 C25.60568359 9.38242187 25.64886719 8.38984375 25.69335938 7.3671875 C25.79961069 4.91160162 25.90164964 2.45591297 26 0 C27.32 0 28.64 0 30 0 C30 9.57 30 19.14 30 29 C20.1 29 10.2 29 0 29 C0 19.43 0 9.86 0 0 Z " fill="#ED4664" transform="translate(225,347)"/>
<path d="M0 0 C3.34335968 3.19799622 4.17907596 5.11527034 4.3125 9.75 C4.25622052 14.6322451 3.29587855 17.25873246 0 21 C-5.04900139 25.44792979 -7.91114492 26.27822978 -14.51171875 26.23046875 C-17.63958849 25.94076025 -19.59387054 25.00510788 -22 23 C-22 22.67 -22 22.34 -22 22 C-21.41992188 21.89042969 -20.83984375 21.78085938 -20.2421875 21.66796875 C-12.87342496 20.17232883 -7.35664388 18.53496583 -3 12 C-1.05131716 8.10263432 -0.50691304 4.3087608 0 0 Z " fill="#F2BD03" transform="translate(300,86)"/>
<path d="M0 0 C3.34335968 3.19799622 4.17907596 5.11527034 4.3125 9.75 C4.25622052 14.6322451 3.29587855 17.25873246 0 21 C-4.82674327 25.35584148 -8.43812151 26.28211157 -14.76953125 26.23046875 C-17.76033622 25.92143636 -19.67727388 24.87316622 -22 23 C-22 22.67 -22 22.34 -22 22 C-21.34773437 21.90203125 -20.69546875 21.8040625 -20.0234375 21.703125 C-13.06887007 20.51325801 -8.47517292 18.88770174 -3.75 13.375 C-1.49800535 9.03186747 -0.7219672 4.80678165 0 0 Z " fill="#F2BD02" transform="translate(164,270)"/>
<path d="M0 0 C3.86442642 3.69640788 3.86442642 3.69640788 4.203125 6.953125 C4.30786406 12.0853387 3.98121021 15.62755836 1 20 C-4.08225151 25.00093549 -7.525611 26.28101946 -14.51171875 26.23046875 C-17.63958849 25.94076025 -19.59387054 25.00510788 -22 23 C-22 22.67 -22 22.34 -22 22 C-21.34773437 21.90203125 -20.69546875 21.8040625 -20.0234375 21.703125 C-11.92437102 20.31744401 -6.876305 17.86294777 -2 11 C-0.85185003 8.70370006 -0.69230191 6.92301914 -0.4375 4.375 C-0.35371094 3.55773437 -0.26992188 2.74046875 -0.18359375 1.8984375 C-0.09271484 0.95871094 -0.09271484 0.95871094 0 0 Z " fill="#F3BE02" transform="translate(260,166)"/>
<path d="M0 0 C3.13225961 2.99607441 4.17024698 4.83755243 4.3125 9.1875 C4.24724792 14.26084903 2.97267758 16.9025255 0 21 C-4.75784454 25.40970957 -8.47184468 26.2818365 -14.76953125 26.23046875 C-17.76033622 25.92143636 -19.67727388 24.87316622 -22 23 C-22 22.67 -22 22.34 -22 22 C-21.34773437 21.90203125 -20.69546875 21.8040625 -20.0234375 21.703125 C-13.69590576 20.62053845 -8.80869339 19.43454354 -4.5625 14.2421875 C-1.31003577 9.52981035 -0.30466324 5.68704711 0 0 Z " fill="#F1BC02" transform="translate(180,142)"/>
<path d="M0 0 C0.99 0 1.98 0 3 0 C3 9.57 3 19.14 3 29 C-6.57 29 -16.14 29 -26 29 C-26 28.01 -26 27.02 -26 26 C-25.41508789 25.97494385 -24.83017578 25.9498877 -24.22753906 25.92407227 C-21.56815529 25.80777038 -18.90909597 25.68519933 -16.25 25.5625 C-15.32960938 25.52318359 -14.40921875 25.48386719 -13.4609375 25.44335938 C-12.57148438 25.40146484 -11.68203125 25.35957031 -10.765625 25.31640625 C-9.54020996 25.26141968 -9.54020996 25.26141968 -8.29003906 25.20532227 C-6.0965577 25.00865725 -4.11603587 24.59699406 -2 24 C-1.16628641 21.04491553 -0.82110466 18.29890387 -0.68359375 15.234375 C-0.64169922 14.34492188 -0.59980469 13.45546875 -0.55664062 12.5390625 C-0.51732422 11.61867188 -0.47800781 10.69828125 -0.4375 9.75 C-0.39431641 8.81414062 -0.35113281 7.87828125 -0.30664062 6.9140625 C-0.2008195 4.60951359 -0.09873443 2.30486161 0 0 Z " fill="#FF4766" transform="translate(354,251)"/>
<path d="M0 0 C0.66 0.33 1.32 0.66 2 1 C-0.31 3.31 -2.62 5.62 -5 8 C-5 5 -5 5 -2.5 2.3125 C-1.675 1.549375 -0.85 0.78625 0 0 Z " fill="#353743" transform="translate(71,80)"/>
</svg>
