<?xml version="1.0" standalone="no"?>
<!DOCTYPE svg PUBLIC "-//W3C//DTD SVG 20010904//EN"
 "http://www.w3.org/TR/2001/REC-SVG-20010904/DTD/svg10.dtd">
<svg version="1.0" xmlns="http://www.w3.org/2000/svg"
 width="512.000000pt" height="512.000000pt" viewBox="0 0 512.000000 512.000000"
 preserveAspectRatio="xMidYMid meet">

<g transform="translate(0.000000,512.000000) scale(0.100000,-0.100000)"
fill="#000000" stroke="none">
<path d="M1217 5033 c-3 -5 -15 -51 -27 -105 l-22 -96 -62 -22 c-33 -12 -94
-37 -134 -56 l-73 -33 -91 56 -90 56 -216 -216 -215 -215 56 -90 57 -89 -34
-74 c-18 -41 -44 -102 -56 -136 l-22 -62 -102 -23 -101 -23 0 -305 0 -305 102
-23 101 -24 22 -62 c12 -33 38 -94 56 -135 l34 -74 -57 -89 -56 -90 215 -215
215 -215 90 56 91 56 73 -34 c41 -19 102 -44 135 -56 l62 -22 24 -101 23 -102
313 -3 314 -2 -3 -748 -3 -747 30 -65 c115 -246 539 -427 1154 -494 527 -57
1128 -1 1520 144 246 91 400 206 469 350 l26 55 0 1030 0 1030 -29 59 c-101
206 -448 376 -926 455 -240 40 -320 45 -655 45 -289 1 -351 -2 -499 -22 -148
-21 -190 -22 -175 -8 2 2 49 15 104 28 l100 23 0 305 0 305 -102 23 -101 24
-22 62 c-12 33 -38 94 -56 135 l-34 74 57 89 56 90 -215 215 -215 215 -91 -56
-91 -57 -58 29 c-32 17 -92 42 -134 57 l-77 27 -24 101 -23 102 -302 3 c-166
1 -304 -1 -306 -5z m497 -230 c10 -43 22 -84 26 -92 4 -8 45 -24 91 -37 46
-13 136 -50 200 -82 l115 -58 77 48 77 48 125 -126 124 -125 -47 -76 -48 -76
58 -116 c32 -64 68 -154 81 -200 13 -46 30 -87 38 -91 8 -4 49 -16 92 -25 l77
-17 0 -178 0 -178 -77 -17 c-90 -20 -113 -30 -113 -50 0 -8 -11 -49 -25 -92
l-25 -79 -96 -27 c-54 -15 -99 -26 -101 -24 -2 2 13 38 32 81 60 129 79 220
79 386 0 160 -12 226 -65 359 -47 117 -114 217 -213 317 -199 198 -446 295
-721 281 -250 -13 -458 -106 -635 -286 -129 -130 -212 -278 -257 -457 -24 -95
-24 -333 0 -428 46 -182 128 -328 261 -462 134 -133 279 -215 462 -261 105
-26 333 -24 441 5 45 12 84 22 87 22 3 0 6 -83 6 -185 l0 -185 -248 0 -248 0
-18 78 c-10 42 -22 83 -26 91 -4 8 -45 24 -91 37 -46 13 -136 50 -200 82
l-115 58 -75 -47 -74 -47 -127 125 -126 126 47 75 47 75 -58 116 c-32 64 -68
154 -81 200 -13 46 -30 87 -38 91 -8 4 -49 16 -92 26 l-77 18 0 176 0 176 78
18 c42 10 83 22 91 26 8 4 25 45 38 91 13 46 49 136 81 200 l58 116 -49 78
-49 78 125 124 124 125 79 -49 79 -49 115 58 c63 32 153 69 199 82 46 13 87
29 91 37 4 8 16 49 26 92 l18 77 176 0 176 0 18 -77z m-4 -426 c209 -57 367
-171 481 -345 88 -134 124 -258 124 -432 0 -226 -75 -408 -231 -564 -156 -156
-338 -231 -564 -231 -226 0 -408 75 -564 231 -156 156 -231 338 -231 564 0
174 36 297 125 434 118 180 303 306 520 352 80 17 262 12 340 -9z m2150 -1277
c459 -57 820 -182 954 -331 94 -103 86 -182 -28 -286 -275 -251 -1115 -383
-1836 -288 -441 58 -795 196 -912 355 -172 234 315 491 1062 560 120 11 648 4
760 -10z m-1655 -866 c119 -58 205 -89 359 -128 441 -115 1068 -133 1557 -46
292 53 549 142 698 244 29 20 55 36 57 36 2 0 4 -82 4 -182 0 -213 -7 -235
-86 -309 -311 -289 -1292 -412 -2059 -258 -345 70 -610 190 -700 317 l-30 44
-3 205 -3 205 48 -37 c26 -20 98 -61 158 -91z m8 -648 c147 -67 301 -114 507
-155 728 -144 1647 -48 2065 214 48 30 89 55 91 55 9 0 3 -347 -6 -381 -19
-69 -116 -156 -246 -222 -28 -14 -103 -44 -165 -65 -647 -222 -1662 -191
-2194 68 -122 60 -190 110 -232 174 l-33 48 0 194 0 194 70 -46 c39 -25 103
-60 143 -78z m-110 -580 c200 -125 521 -216 922 -262 182 -21 613 -24 790 -5
437 45 777 141 993 280 34 23 65 41 68 41 2 0 2 -87 -2 -192 -6 -180 -8 -196
-31 -236 -152 -267 -1004 -446 -1768 -371 -341 33 -609 100 -824 206 -88 43
-128 70 -176 117 -82 81 -89 110 -80 326 4 88 10 158 14 156 3 -2 46 -29 94
-60z"/>
<path d="M1401 4064 c-253 -68 -410 -331 -346 -579 67 -256 329 -415 580 -350
256 67 415 329 350 578 -67 259 -333 419 -584 351z m270 -185 c67 -36 98 -68
137 -143 22 -43 26 -64 26 -136 1 -78 -2 -90 -33 -148 -38 -70 -70 -100 -145
-140 -43 -22 -64 -26 -136 -26 -72 0 -93 4 -136 26 -75 40 -107 70 -145 140
-31 58 -34 70 -33 148 0 100 24 160 89 225 100 100 249 121 376 54z"/>
<path d="M3085 2950 c-386 -34 -652 -112 -731 -215 -82 -107 -8 -225 186 -296
454 -165 1501 -153 1867 22 154 74 195 182 105 281 -81 90 -278 153 -602 194
-147 18 -672 27 -825 14z m671 -160 c163 -13 302 -35 425 -65 108 -27 209 -68
209 -85 0 -17 -98 -58 -202 -84 -402 -102 -1079 -100 -1496 4 -111 28 -198 66
-196 85 5 45 312 121 584 143 151 13 525 14 676 2z"/>
<path d="M4420 1970 c-47 -15 -55 -21 -52 -40 4 -38 33 -130 40 -130 4 0 39
10 79 23 l71 22 -22 70 c-25 80 -31 83 -116 55z"/>
<path d="M4136 1904 c-38 -7 -71 -16 -74 -19 -5 -5 13 -143 20 -150 4 -4 149
23 155 29 2 2 -4 37 -14 78 l-18 75 -69 -13z"/>
<path d="M3800 1861 c-35 -4 -55 -11 -54 -18 1 -7 2 -42 3 -78 l1 -65 48 0
c26 0 64 3 84 6 32 6 37 10 33 28 -2 11 -7 47 -10 79 -7 64 2 59 -105 48z"/>
<path d="M2332 1282 c-12 -38 -22 -73 -22 -79 0 -8 87 -36 149 -47 4 -1 40
128 41 145 0 3 -26 13 -57 22 -32 9 -65 18 -73 22 -12 4 -21 -10 -38 -63z"/>
<path d="M2641 1213 c-20 -100 -20 -99 58 -112 39 -6 74 -11 79 -11 5 0 12 26
16 57 4 31 9 67 12 78 5 19 -2 22 -66 33 -39 7 -74 12 -79 12 -4 0 -13 -26
-20 -57z"/>
<path d="M2965 1220 c-1 -3 -6 -37 -10 -77 -8 -82 -12 -78 96 -86 l57 -3 6 74
c4 41 5 77 2 80 -8 7 -147 19 -151 12z"/>
<path d="M4428 692 c-34 -10 -58 -22 -58 -29 0 -24 32 -143 39 -143 11 0 144
39 148 44 3 2 -6 36 -18 75 -25 79 -22 77 -111 53z"/>
<path d="M4136 623 c-38 -7 -71 -14 -73 -16 -2 -2 2 -39 8 -81 8 -53 15 -76
24 -72 6 2 37 7 67 11 81 10 82 11 67 86 -6 35 -15 69 -18 74 -4 8 -28 7 -75
-2z"/>
<path d="M3808 583 l-58 -4 0 -48 c0 -27 3 -63 6 -80 6 -29 10 -31 48 -31 22
0 58 3 79 7 l38 6 -6 56 c-10 89 -14 101 -33 99 -9 -1 -43 -3 -74 -5z"/>
<path d="M3805 4240 l-320 -320 -182 0 -183 0 0 -80 0 -80 218 0 217 0 320
320 320 320 422 0 423 0 0 80 0 80 -458 0 -457 0 -320 -320z"/>
<path d="M3965 3920 l-320 -320 -262 0 -263 0 0 -80 0 -80 298 0 297 0 320
320 320 320 182 0 183 0 0 80 0 80 -218 0 -217 0 -320 -320z"/>
<path d="M4880 4160 l0 -80 80 0 80 0 0 80 0 80 -80 0 -80 0 0 -80z"/>
<path d="M1200 1817 l0 -182 -320 -320 -320 -320 0 -457 0 -458 80 0 80 0 0
423 0 422 320 320 320 320 0 217 0 218 -80 0 -80 0 0 -183z"/>
<path d="M1520 1737 l0 -262 -320 -320 -320 -320 0 -217 0 -218 80 0 80 0 0
183 0 182 320 320 320 320 0 297 0 298 -80 0 -80 0 0 -263z"/>
<path d="M880 160 l0 -80 80 0 80 0 0 80 0 80 -80 0 -80 0 0 -80z"/>
</g>
</svg>
