<?xml version="1.0" encoding="UTF-8"?>
<svg version="1.1" xmlns="http://www.w3.org/2000/svg" width="512" height="512">
<path d="M0 0 C1.07122101 0.00182281 2.14244202 0.00364563 3.24612427 0.00552368 C19.98110578 0.05333213 36.38650764 0.63074736 52.9375 3.3125 C54.56703613 3.56990967 54.56703613 3.56990967 56.22949219 3.83251953 C78.45653879 7.45080076 99.70840294 13.33067518 119.9375 23.3125 C120.86925049 23.76906982 120.86925049 23.76906982 121.81982422 24.23486328 C129.17907652 27.88755804 135.66970379 32.01543322 141.9375 37.3125 C142.93330078 38.07433594 142.93330078 38.07433594 143.94921875 38.8515625 C154.33655383 47.13694176 160.6220863 58.66494292 163.6875 71.4375 C164.90330933 85.41930725 161.65715868 97.79587044 152.86328125 108.94140625 C150.63338348 111.49041678 148.330041 113.9159514 145.9375 116.3125 C145.26074219 117.00085938 144.58398438 117.68921875 143.88671875 118.3984375 C108.50092656 152.11823194 46.77613917 157.56657871 0.5625 157.5 C-0.22041412 157.49939575 -1.00332825 157.4987915 -1.80996704 157.49816895 C-31.02967565 157.43738952 -59.90349905 154.37832283 -88.0625 146.3125 C-88.79952148 146.10431641 -89.53654297 145.89613281 -90.29589844 145.68164062 C-107.75894019 140.63451873 -126.14408057 133.21861783 -140.0625 121.3125 C-141.32513672 120.30509766 -141.32513672 120.30509766 -142.61328125 119.27734375 C-152.88547666 110.68860374 -161.80201843 98.99277116 -163.27685547 85.32617188 C-164.44937337 69.44421595 -160.08677267 56.72482643 -149.69140625 44.53125 C-138.25053923 32.42739068 -124.25877659 24.75789115 -109.0625 18.3125 C-108.42795898 18.03954102 -107.79341797 17.76658203 -107.13964844 17.48535156 C-91.12976969 10.70775245 -73.95835001 6.97978467 -56.875 4.0625 C-55.99972656 3.91151855 -55.12445313 3.76053711 -54.22265625 3.60498047 C-36.20996523 0.71891527 -18.21567514 -0.06469075 0 0 Z " fill="#000000" transform="translate(163.0625,18.6875)"/>
<path d="M0 0 C1.42166308 1.03661897 2.83951774 2.0784772 4.25390625 3.125 C5.82406938 4.27364172 7.39438654 5.4220729 8.96484375 6.5703125 C10.16125488 7.44864746 10.16125488 7.44864746 11.38183594 8.34472656 C14.58942968 10.69027145 17.81739425 13.00685227 21.04589844 15.32348633 C24.64591652 17.91048132 28.23235422 20.51595221 31.81640625 23.125 C32.76773438 23.81464844 33.7190625 24.50429688 34.69921875 25.21484375 C44.24395226 32.34912761 49.41381021 40.02708219 53.81640625 51.125 C54.08582031 51.80175781 54.35523438 52.47851562 54.6328125 53.17578125 C60.20535845 70.75073387 52.00927946 88.83859412 46.24334717 105.22174072 C36.51808984 132.96237977 30.17604213 160.1581342 29.640625 189.6953125 C29.61677734 190.94054687 29.59292969 192.18578125 29.56835938 193.46875 C29.52472787 196.02846474 29.49384796 198.58842322 29.47460938 201.1484375 C29.43303711 202.99695313 29.43303711 202.99695313 29.390625 204.8828125 C29.37604248 205.9877002 29.36145996 207.09258789 29.34643555 208.23095703 C28.81640625 211.125 28.81640625 211.125 27.21801758 213.51513672 C23.87982548 215.75281474 21.7777271 215.53201396 17.81640625 215.125 C14.57275391 214.28979492 14.57275391 214.28979492 11.23046875 213.10546875 C10.3140435 212.78387283 10.3140435 212.78387283 9.37910461 212.45578003 C7.39507008 211.75404457 5.41809966 211.03463355 3.44140625 210.3125 C2.76320831 210.06845428 2.08501038 209.82440857 1.38626099 209.57296753 C-37.87900553 195.42958822 -37.87900553 195.42958822 -45.18359375 188.125 C-45.49263609 181.59004228 -44.72640094 175.89530656 -43.18359375 169.5625 C-42.9928125 168.74458984 -42.80203125 167.92667969 -42.60546875 167.08398438 C-42.14034248 165.09556956 -41.66323948 163.10996244 -41.18359375 161.125 C-42.04082031 161.93324219 -42.89804687 162.74148438 -43.78125 163.57421875 C-44.93599726 164.65386049 -46.09095657 165.73327545 -47.24609375 166.8125 C-47.80748047 167.34294922 -48.36886719 167.87339844 -48.94726562 168.41992188 C-50.66624808 170.02103124 -52.4142419 171.579815 -54.18359375 173.125 C-54.74933105 173.63498535 -55.31506836 174.1449707 -55.89794922 174.67041016 C-59.04935088 177.25794273 -60.72499968 178.09069001 -64.890625 178.40234375 C-70.94195501 177.15481192 -75.89717636 173.15542357 -80.87109375 169.6875 C-81.9389209 168.95756836 -83.00674805 168.22763672 -84.10693359 167.47558594 C-96.23838584 159.12678148 -107.579958 150.07507749 -118.67578125 140.40722656 C-120.07293219 139.21910533 -121.51736776 138.08720393 -122.96484375 136.9609375 C-125.94844118 134.49211568 -127.07061494 132.76521328 -127.74609375 128.9375 C-126.93297708 123.42637589 -124.05040255 120.94977827 -120.18359375 117.125 C-119.36890625 116.29742187 -118.55421875 115.46984375 -117.71484375 114.6171875 C-115.5540143 112.43584385 -113.37693431 110.27357851 -111.18359375 108.125 C-117.42769571 108.5525241 -123.57229603 109.14372844 -129.74609375 110.1875 C-133.893704 110.83478611 -137.98817556 111.37103125 -142.18359375 111.5625 C-143.02921875 111.60246094 -143.87484375 111.64242187 -144.74609375 111.68359375 C-148.32222787 110.86406301 -149.77508626 108.82982229 -152.18359375 106.125 C-153.31667969 104.93583984 -153.31667969 104.93583984 -154.47265625 103.72265625 C-160.6629076 97.00447377 -166.40873288 90.03658213 -171.93359375 82.76464844 C-173.08677768 81.25199545 -174.25934116 79.7541691 -175.43359375 78.2578125 C-178.28402487 74.4763938 -180.03474531 71.96396396 -180.87109375 67.25 C-180.05060348 63.52049879 -179.06876929 62.55455696 -176.18359375 60.125 C-173.62841797 58.97167969 -173.62841797 58.97167969 -170.73828125 58.046875 C-169.6704541 57.69512207 -168.60262695 57.34336914 -167.50244141 56.98095703 C-166.36597168 56.61599121 -165.22950195 56.25102539 -164.05859375 55.875 C-129.58225415 44.33545753 -97.90054335 25.71947559 -70.3203125 1.98754883 C-48.8988104 -16.43452783 -22.67405338 -16.03813696 0 0 Z " fill="#000000" transform="translate(369.18359375,277.875)"/>
<path d="M0 0 C1.4125079 0.93200501 2.82370749 1.86599299 4.234375 2.80078125 C5.02038086 3.32067627 5.80638672 3.84057129 6.61621094 4.3762207 C8.88047431 5.918582 11.0666222 7.53345844 13.25 9.1875 C35.48165798 24.68125548 61.72417694 33.39813744 88 39 C88.90443848 39.19432617 89.80887695 39.38865234 90.74072266 39.58886719 C155.95014819 53.17861108 236.73596516 50.91050102 296.29248047 18.91259766 C297.83066671 18.09050155 299.38518023 17.29913192 300.94140625 16.51171875 C307.10151416 13.328548 312.66344679 9.53558624 318.23095703 5.42626953 C321.07066038 3.33415657 323.82106584 1.5192962 327 0 C327.16257911 8.22349029 327.28676154 16.44630336 327.3626852 24.6710062 C327.39913561 28.49064168 327.4485286 32.30917352 327.52807617 36.12817383 C327.6044397 39.81762885 327.64605187 43.50602625 327.6641407 47.19621086 C327.67702149 48.6000934 327.70217677 50.00392148 327.7401104 51.40735054 C328.02439915 62.3664368 328.02439915 62.3664368 325.51095581 66.37451172 C323.76316106 68.15628487 322.04948638 69.58318956 320 71 C319.41517853 71.45417801 318.83035706 71.90835602 318.22781372 72.376297 C262.8731728 115.15839558 173.56532373 115.20036182 107.33813477 106.734375 C71.53999512 101.81619004 33.84551841 92.83603541 5 70 C4.12869949 69.42840149 3.25739899 68.85680298 2.35969543 68.2678833 C-0 66 -0 66 -0.60127258 63.0133667 C-0.59016953 61.84976624 -0.57906647 60.68616577 -0.56762695 59.48730469 C-0.56835709 58.84298492 -0.56908722 58.19866516 -0.56983948 57.53482056 C-0.56636616 55.41297101 -0.52752539 53.29333909 -0.48828125 51.171875 C-0.47895201 49.69786783 -0.47183642 48.22384513 -0.46684265 46.74981689 C-0.44778097 42.87618971 -0.39868918 39.00350474 -0.34332275 35.13024902 C-0.29211125 31.17550401 -0.26932467 27.22060625 -0.24414062 23.265625 C-0.19056804 15.5099878 -0.10526737 7.75512608 0 0 Z " fill="#000000" transform="translate(0,158)"/>
<path d="M0 0 C3.40223914 1.34141833 6.65212224 2.79080935 9.90234375 4.46875 C73.02857139 36.39062617 151.57743383 42.52239731 221.1015625 32.3671875 C223.77400133 32.02863056 226.31039692 31.93001033 229 32 C226.29932136 35.23487881 222.80119725 36.80798279 219.0625 38.5625 C217.98355469 39.07369385 217.98355469 39.07369385 216.8828125 39.59521484 C208.4517899 43.45251151 199.68060048 46.40793497 190.88696289 49.32250977 C180.07268841 53.00514304 170.31427748 57.84159066 164.78125 68.3046875 C160.26846967 78.1361018 159.1083629 88.58920217 162.75 99 C164.41811035 103.0451676 166.4560741 106.45667464 169 110 C169 110.66 169 111.32 169 112 C119.09975324 113.43483138 51.72018183 107.98276688 13.06640625 72.1640625 C3.65388121 62.30671114 -0.65202261 52.50135066 -0.390625 38.96484375 C-0.38496521 37.84557999 -0.37930542 36.72631622 -0.37347412 35.57313538 C-0.35123251 32.02747313 -0.30105731 28.48285252 -0.25 24.9375 C-0.22991929 22.52149905 -0.21167129 20.10548214 -0.1953125 17.68945312 C-0.15140784 11.79261835 -0.08461849 5.89638363 0 0 Z " fill="#000000" transform="translate(0,260)"/>
<path d="M0 0 C8.11689464 6.67278455 14.64758824 14.59984853 16.02050781 25.37255859 C17.40890151 43.35574734 11.08146467 53.87510455 0.53320312 67.86962891 C-2.34272876 71.70866722 -5.13738711 75.60551347 -7.9375 79.5 C-9.0246033 81.00530676 -10.11184026 82.51051701 -11.19921875 84.015625 C-13.89428095 87.75228551 -16.57575071 91.49842584 -19.25 95.25 C-25.76739496 104.39293615 -32.35677972 113.48392586 -38.93652344 122.58203125 C-40.60383766 124.88778828 -42.27080989 127.1937918 -43.9375 129.5 C-44.4739917 130.24233887 -45.0104834 130.98467773 -45.56323242 131.74951172 C-49.42567281 137.09823287 -53.26875794 142.46047838 -57.0925293 147.83691406 C-59.10922337 150.66940322 -61.14875312 153.47956621 -63.25 156.25 C-66.33425043 154.87091886 -68.44661514 153.270948 -70.875 150.9375 C-77.42397774 145.00047592 -84.68085001 140.02537977 -91.88476562 134.92578125 C-94.16274228 133.31182256 -96.43368287 131.6884292 -98.703125 130.0625 C-112.50885615 119.909578 -112.50885615 119.909578 -127.25 111.25 C-126.64192336 108.12951605 -125.64805546 106.10467005 -123.765625 103.5546875 C-123.24911377 102.84795898 -122.73260254 102.14123047 -122.20043945 101.41308594 C-121.63929443 100.65801758 -121.07814941 99.90294922 -120.5 99.125 C-119.31104247 97.50271808 -118.1222449 95.88031892 -116.93359375 94.2578125 C-116.32241699 93.42797852 -115.71124023 92.59814453 -115.08154297 91.74316406 C-112.21837307 87.84571125 -109.39073139 83.92283977 -106.5625 80 C-106.01948242 79.24831543 -105.47646484 78.49663086 -104.91699219 77.72216797 C-101.68074888 73.24129091 -98.45837091 68.75086738 -95.25 64.25 C-88.73260504 55.10706385 -82.14322028 46.01607414 -75.56347656 36.91796875 C-74.44697059 35.37393377 -73.33067674 33.82974538 -72.21459961 32.28540039 C-71.11984732 30.77099575 -70.02431628 29.25715373 -68.92797852 27.74389648 C-66.41100905 24.26519869 -63.91059816 20.77767396 -61.45703125 17.25390625 C-53.62745067 6.02262836 -46.78084814 -1.81902904 -33.359375 -6.39453125 C-21.48171049 -8.39613768 -9.99111775 -6.97852881 0 0 Z " fill="#000000" transform="translate(496.25,133.75)"/>
</svg>
