<?xml version="1.0" standalone="no"?>
<!DOCTYPE svg PUBLIC "-//W3C//DTD SVG 20010904//EN"
 "http://www.w3.org/TR/2001/REC-SVG-20010904/DTD/svg10.dtd">
<svg version="1.0" xmlns="http://www.w3.org/2000/svg"
 width="512.000000pt" height="512.000000pt" viewBox="0 0 512.000000 512.000000"
 preserveAspectRatio="xMidYMid meet">

<g transform="translate(0.000000,512.000000) scale(0.100000,-0.100000)"
fill="#000000" stroke="none">
<path d="M2669 5001 l-24 -19 -3 -691 -2 -691 -28 -6 c-203 -43 -397 -143
-542 -281 -457 -431 -466 -1147 -19 -1592 117 -116 275 -213 427 -262 l72 -23
0 -608 0 -608 -65 0 -65 0 0 505 c0 492 -1 506 -20 525 -19 19 -33 20 -265 20
-232 0 -246 -1 -265 -20 -19 -19 -20 -33 -20 -525 l0 -505 -65 0 -65 0 0 878
c0 839 -1 880 -18 895 -16 15 -50 17 -265 17 -234 0 -248 -1 -267 -20 -20 -20
-20 -33 -20 -895 l0 -875 -65 0 -65 0 0 1281 c0 863 -3 1287 -10 1300 -10 18
-24 19 -270 19 -256 0 -259 0 -274 -22 -14 -20 -16 -160 -16 -1300 l0 -1278
-115 0 -115 0 0 1525 c0 1512 0 1525 -20 1545 -25 25 -55 25 -80 0 -20 -20
-20 -33 -20 -1585 0 -1552 0 -1565 20 -1585 20 -20 33 -20 1665 -20 1632 0
1645 0 1665 20 25 25 25 55 0 80 -18 18 -33 20 -175 20 l-155 0 2 610 3 611
65 23 c36 12 93 37 127 54 34 18 67 32 72 32 6 0 156 -172 335 -382 179 -211
342 -394 361 -407 53 -36 104 -50 182 -51 140 0 252 70 315 198 30 60 33 75
32 152 0 93 -19 148 -72 207 -15 17 -121 111 -237 209 -115 97 -211 181 -213
186 -2 4 199 8 447 8 l450 0 15 22 c14 20 16 173 16 1437 l0 1416 -238 237
-237 238 -927 0 c-897 0 -927 -1 -949 -19z m1801 -304 c0 -145 3 -206 12 -215
9 -9 70 -12 215 -12 l203 0 0 -1345 0 -1345 -477 0 -478 0 -88 76 -87 75 34
62 c157 285 167 677 23 981 -59 123 -113 202 -211 304 -194 202 -450 318 -728
329 l-128 6 0 643 0 644 855 0 855 0 0 -203z m232 6 c60 -59 108 -111 108
-115 0 -5 -52 -8 -115 -8 l-115 0 0 115 c0 63 3 115 7 115 4 0 56 -48 115
-107z m-1647 -1232 c335 -82 609 -337 713 -661 91 -285 49 -597 -114 -842
-136 -204 -346 -355 -584 -420 -74 -20 -107 -23 -250 -22 -150 0 -173 3 -255
28 -178 54 -316 134 -436 255 -124 124 -211 273 -261 446 -20 70 -23 102 -23
250 0 203 17 282 95 440 143 289 422 493 748 545 85 13 275 3 367 -19z m-2147
-2008 l2 -1243 -170 0 -170 0 0 1245 0 1245 168 -2 167 -3 3 -1242z m699 155
c-4 -149 -7 -525 -7 -835 l0 -563 -165 0 -165 0 0 835 0 835 172 0 171 0 -6
-272z m2163 159 l33 -28 -113 -114 -113 -113 -43 51 -44 51 38 29 c20 17 68
63 106 103 76 80 68 78 136 21z m423 -361 c189 -161 273 -239 287 -266 26 -51
26 -131 0 -189 -54 -119 -212 -175 -316 -112 -24 15 -440 491 -493 564 -12 18
-4 29 105 138 102 102 120 117 134 105 8 -7 135 -115 283 -240z m-1193 -603
l0 -593 -165 0 -165 0 0 593 0 592 165 0 165 1 0 -593z m-700 -128 l0 -465
-165 0 -165 0 0 465 0 465 165 0 165 0 0 -465z"/>
<path d="M3060 4400 c-11 -11 -20 -29 -20 -40 0 -11 9 -29 20 -40 20 -20 33
-20 590 -20 557 0 570 0 590 20 11 11 20 29 20 40 0 11 -9 29 -20 40 -20 20
-33 20 -590 20 -557 0 -570 0 -590 -20z"/>
<path d="M3081 3967 c-39 -20 -48 -43 -31 -75 l16 -27 772 -3 c761 -2 772 -2
792 18 25 25 25 41 1 71 l-19 24 -754 2 c-585 2 -758 0 -777 -10z"/>
<path d="M3593 3504 c-15 -24 -15 -29 -2 -53 l15 -26 509 0 509 0 15 26 c13
24 13 29 -2 53 l-17 26 -505 0 -505 0 -17 -26z"/>
<path d="M3998 3078 c-30 -24 -31 -56 -4 -83 l25 -25 291 0 291 0 24 25 c30
29 31 49 5 75 -19 19 -33 20 -318 20 -223 0 -302 -3 -314 -12z"/>
<path d="M4085 2625 c-30 -29 -31 -49 -5 -75 19 -19 33 -20 275 -20 242 0 256
1 275 20 26 26 25 46 -5 75 l-24 25 -246 0 -246 0 -24 -25z"/>
<path d="M4036 2184 c-19 -18 -21 -65 -4 -82 9 -9 89 -12 300 -12 l288 0 17
26 c15 24 15 29 2 53 l-15 26 -286 3 c-250 2 -288 0 -302 -14z"/>
<path d="M2698 3300 c-260 -44 -488 -216 -598 -451 -50 -108 -72 -209 -73
-339 0 -143 18 -220 83 -355 79 -161 196 -280 355 -360 123 -62 220 -85 360
-85 369 0 675 235 776 595 18 63 23 106 23 200 0 151 -18 227 -86 365 -45 91
-64 118 -143 196 -94 95 -164 142 -279 188 -124 50 -287 68 -418 46z m358
-147 c170 -64 301 -179 378 -333 60 -119 80 -214 74 -344 -13 -253 -157 -473
-383 -581 -119 -57 -178 -70 -310 -69 -188 2 -335 65 -476 204 -137 136 -206
317 -196 510 14 260 157 475 392 586 115 55 164 64 310 60 116 -2 139 -6 211
-33z"/>
<path d="M2943 2548 l-243 -242 -133 132 c-140 139 -165 153 -200 114 -36 -39
-23 -59 140 -224 86 -87 165 -160 175 -164 9 -3 30 2 45 10 45 23 543 530 543
552 0 32 -29 64 -58 64 -21 0 -74 -48 -269 -242z"/>
</g>
</svg>
