<?xml version="1.0" encoding="UTF-8"?>
<svg version="1.1" xmlns="http://www.w3.org/2000/svg" width="512" height="512">
<path d="M0 0 C1.10204116 -0.00765109 2.20408232 -0.01530219 3.33951867 -0.02318513 C7.03367873 -0.04382906 10.72721614 -0.03586428 14.42141724 -0.02792358 C17.06940779 -0.03661752 19.71735261 -0.04685467 22.36532593 -0.05889893 C28.81222849 -0.08438599 35.25896442 -0.08798121 41.70590888 -0.0832984 C46.94694441 -0.07973083 52.1879294 -0.08323392 57.42895889 -0.09174728 C58.54829611 -0.09353285 58.54829611 -0.09353285 59.6902462 -0.09535449 C61.20626116 -0.09777802 62.7222761 -0.10020629 64.23829104 -0.10263924 C78.45286269 -0.12438781 92.66733943 -0.12006653 106.88191642 -0.10786955 C119.88043486 -0.09753233 132.87865348 -0.12003922 145.87711261 -0.15806599 C159.22959611 -0.19682844 172.5819378 -0.21333378 185.93447793 -0.20581949 C193.42865688 -0.20199609 200.92258069 -0.20696382 208.41671371 -0.23524857 C214.79693581 -0.25908573 221.17674574 -0.2618762 227.55697356 -0.23766823 C230.81089475 -0.22589609 234.06390731 -0.2269329 237.31780624 -0.24767303 C240.84928873 -0.26855924 244.37874682 -0.25245025 247.91015625 -0.22705078 C248.93331684 -0.24179935 249.95647743 -0.25654792 251.01064289 -0.27174342 C258.09233975 -0.16461181 261.94829208 1.6914222 267.08206177 6.52139282 C268.41271416 7.72633141 268.41271416 7.72633141 269.77024841 8.95561218 C270.95580574 10.13878273 270.95580574 10.13878273 272.16531372 11.34585571 C273.07598099 12.25021866 273.98664825 13.1545816 274.9249115 14.08634949 C275.89031106 15.05532797 276.85544876 16.02456742 277.82034302 16.99404907 C278.83276265 18.00511827 279.84547875 19.01589069 280.85847473 20.02638245 C282.9669449 22.13192319 285.07180379 24.24098975 287.17410278 26.35269165 C289.86159301 29.05161931 292.55802439 31.74140737 295.25719929 34.42864323 C297.34465843 36.50886214 299.42731469 38.59383715 301.5085659 40.68026543 C302.50101384 41.67404159 303.49493319 42.66635067 304.49038124 43.65712166 C305.88036762 45.04200241 307.26322494 46.43402727 308.64578247 47.82632446 C309.82537285 49.00830162 309.82537285 49.00830162 311.02879333 50.2141571 C316.75701035 56.65089313 317.23780926 62.74590823 317.20231628 71.11437988 C317.20359792 72.23075417 317.20359792 72.23075417 317.20490545 73.36968148 C317.20654672 75.85240567 317.20106112 78.33506162 317.19558716 80.81777954 C317.19530497 82.60189309 317.19546364 84.38600676 317.19602966 86.17012024 C317.1963164 91.00639775 317.19043967 95.84265043 317.18345571 100.67892218 C317.17720156 105.73579628 317.17661674 110.79267096 317.1754303 115.84954834 C317.17232307 125.42228997 317.16411786 134.99502017 317.15408081 144.56775677 C317.14290081 155.46732423 317.13740446 166.36689223 317.13238537 177.26646399 C317.12193475 199.68477994 317.10434706 222.10308574 317.08206177 244.52139282 C317.75261597 244.50044556 318.42317017 244.47949829 319.11404419 244.45791626 C322.16572957 244.37453255 325.21717494 244.32266267 328.26956177 244.27139282 C329.32465942 244.2378772 330.37975708 244.20436157 331.46682739 244.16983032 C339.33156941 244.07059068 339.33156941 244.07059068 343.2504425 246.42456055 C344.9213318 248.33738964 345.99036975 249.7658041 346.88284302 252.12295532 C347.13743286 252.77779907 347.39202271 253.43264282 347.65432739 254.10733032 C348.02074341 255.11666626 348.02074341 255.11666626 348.39456177 256.14639282 C348.65817505 256.82701782 348.92178833 257.50764282 349.19338989 258.20889282 C351.08206177 263.17340175 351.08206177 263.17340175 351.08206177 265.52139282 C351.74850708 265.67994751 352.41495239 265.8385022 353.10159302 266.00186157 C359.32434813 267.57713245 364.79296429 269.63847918 370.47659302 272.63076782 C376.757153 274.7776459 382.38185833 271.15442793 387.98440552 268.48233032 C391.90212131 267.26699856 394.0960806 267.54501342 398.08206177 268.52139282 C400.38932348 270.30544308 402.21949511 271.92918198 404.19924927 274.01748657 C404.74187408 274.5662294 405.2844989 275.11497223 405.84356689 275.68034363 C407.56264962 277.42623711 409.25944467 279.19214745 410.95706177 280.95889282 C412.11978398 282.14315293 413.28383434 283.32611061 414.44924927 284.50772095 C423.97972494 294.22722557 423.97972494 294.22722557 424.33596802 298.73233032 C424.05322582 302.95171386 422.97066173 305.42196966 421.01956177 309.14639282 C418.67911643 313.40304327 418.67911643 313.40304327 418.25003052 318.09170532 C419.50902999 321.7682202 421.17080101 325.18221901 422.86721802 328.67373657 C423.99716019 331.32237915 424.43257522 333.51910883 424.89456177 336.33389282 C425.6478087 338.8749668 426.36881752 340.12557439 428.70803833 341.42373657 C432.77061145 343.16684753 436.94688451 344.48911672 441.20681763 345.65933228 C443.96999429 346.92958053 445.27621496 348.03286279 447.08206177 350.52139282 C447.6736402 353.52127063 447.64264773 356.47162003 447.61331177 359.52139282 C447.61713867 360.39408813 447.62096558 361.26678345 447.62490845 362.16592407 C447.62762667 364.00838374 447.62027171 365.85088206 447.60354614 367.69326782 C447.58213424 370.51185216 447.60334978 373.32788767 447.62893677 376.14639282 C447.62629347 377.93806511 447.62116846 379.72973581 447.61331177 381.52139282 C447.62140869 382.36315063 447.62950562 383.20490845 447.6378479 384.07217407 C447.54466447 389.8930127 447.54466447 389.8930127 445.2739563 392.97744751 C442.21526466 395.13195474 438.93570922 396.46523401 435.45706177 397.77139282 C434.77643677 398.03951782 434.09581177 398.30764282 433.39456177 398.58389282 C428.3926485 400.52139282 428.3926485 400.52139282 426.08206177 400.52139282 C425.97893677 401.52815063 425.87581177 402.53490845 425.76956177 403.57217407 C425.19299328 407.60510824 423.7667729 410.99523872 422.08206177 414.70889282 C421.06251299 416.97101667 420.0598158 419.24089264 419.08206177 421.52139282 C418.79460083 422.18139282 418.50713989 422.84139282 418.21096802 423.52139282 C417.92923878 427.8924647 420.89282201 432.06915397 422.73440552 435.91592407 C424.2547468 439.98338785 424.84187811 442.23149806 424.08206177 446.52139282 C422.0950982 449.5361769 419.63732742 451.9835931 417.08206177 454.52139282 C416.34520142 455.28177856 415.60834106 456.04216431 414.84915161 456.82559204 C412.51090875 459.22589907 410.14482112 461.59524843 407.76956177 463.95889282 C406.95938599 464.77293579 406.14921021 465.58697876 405.31448364 466.4256897 C404.54040161 467.19848267 403.76631958 467.97127563 402.96878052 468.76748657 C402.26970581 469.46543335 401.5706311 470.16338013 400.85037231 470.88247681 C397.96544643 473.55630084 395.55267198 473.95563302 391.63284302 473.96279907 C387.10824595 473.17982898 383.2308981 470.81797436 379.23049927 468.63858032 C375.21750181 467.21461348 373.94996741 467.86167499 370.08206177 469.52139282 C368.63591219 469.96638807 367.18638123 470.4004797 365.73440552 470.82608032 C356.77405402 473.48208143 356.77405402 473.48208143 349.93753052 479.40420532 C348.74719327 482.41972635 347.88456761 485.38355251 347.08206177 488.52139282 C343.99399042 495.0654285 343.99399042 495.0654285 341.08206177 496.52139282 C338.13936652 496.65719512 335.22153051 496.73415033 332.27737427 496.75967407 C331.40184906 496.76774582 330.52632385 496.77581757 329.62426758 496.78413391 C327.7698871 496.79797504 325.91548114 496.80869707 324.06106567 496.81655884 C321.22512611 496.83378311 318.3903489 496.87766925 315.55471802 496.92178345 C313.75394535 496.93190938 311.95316276 496.94042579 310.15237427 496.94717407 C309.30434235 496.96468216 308.45631042 496.98219025 307.58258057 497.00022888 C301.71682708 496.97861794 301.71682708 496.97861794 298.59085083 494.72695923 C296.85868218 492.19485379 296.10736939 489.67804933 295.30911255 486.73330688 C293.81390392 481.39518166 292.69625675 477.53418264 287.86331177 474.50186157 C284.2972108 473.30173144 280.73562071 472.4106632 277.08206177 471.52139282 C274.71096802 470.25576782 274.71096802 470.25576782 272.76956177 469.02139282 C268.26678091 467.18975315 266.58798926 467.74093778 262.23831177 469.51358032 C260.32918539 470.40588939 258.42406549 471.30675948 256.51956177 472.20889282 C252.58539874 473.7110278 249.2156512 474.30548351 245.08206177 473.52139282 C242.53049006 472.02304872 240.65695332 470.05885031 238.64846802 467.90420532 C237.80335915 467.04567459 237.80335915 467.04567459 236.94117737 466.1697998 C235.15598975 464.34664466 233.40086759 462.49734121 231.64456177 460.64639282 C230.43869178 459.40894708 229.23102561 458.17324901 228.02151489 456.93936157 C218.20385983 446.86117149 218.20385983 446.86117149 217.83206177 442.77139282 C218.11813499 439.05244088 219.34921031 436.78644977 221.08206177 433.52139282 C219.89800216 433.51992626 218.71394255 433.5184597 217.49400234 433.5169487 C189.38107628 433.4812397 161.26824569 433.42498843 133.15541464 433.34347187 C129.69452205 433.33345452 126.23362898 433.32361037 122.7727356 433.31387329 C122.08373976 433.31193192 121.39474392 433.30999054 120.68486942 433.30799034 C109.53161178 433.27697693 98.37837472 433.25999154 87.22508209 433.2481986 C75.77908761 433.2357836 64.33322572 433.20797735 52.88729388 433.16677976 C46.45896917 433.14412965 40.03079849 433.12848428 33.60243034 433.12950897 C27.55232685 433.13025347 21.50256429 433.11238673 15.45254898 433.08022499 C13.23178855 433.07170378 11.01098998 433.06999106 8.79022026 433.07559013 C5.75757967 433.08221786 2.72602769 433.06433791 -0.3065033 433.04037476 C-1.62413205 433.05201538 -1.62413205 433.05201538 -2.96837956 433.06389117 C-8.7733407 432.98271273 -12.25648627 432.08127624 -16.91793823 428.52139282 C-20.27510523 423.56400686 -21.41810578 420.37618034 -21.4213028 414.27648926 C-21.42711656 413.57827631 -21.43293032 412.88006337 -21.43892026 412.16069245 C-21.45348744 409.82728297 -21.43965137 407.49493087 -21.4258728 405.16152954 C-21.43048304 403.46930339 -21.43683678 401.77708125 -21.44478178 400.08486748 C-21.46148142 395.43944283 -21.45322584 390.79434685 -21.44083691 386.14892101 C-21.43179136 381.13725239 -21.44575369 376.12564052 -21.45675659 371.11398315 C-21.47455167 361.29800171 -21.47069741 351.48214255 -21.45910603 341.66615629 C-21.45007588 333.6891603 -21.4488459 325.71219861 -21.45320129 317.73519897 C-21.45381423 316.60027036 -21.45442716 315.46534174 -21.45505866 314.29602134 C-21.45633755 311.99050219 -21.45763441 309.68498304 -21.45894903 307.37946391 C-21.47035773 285.75591198 -21.45723656 264.13242786 -21.43574756 242.50888705 C-21.41787633 223.95117272 -21.42098036 205.39355847 -21.43942261 186.83584595 C-21.46082419 165.29015772 -21.46925906 143.74452893 -21.45697355 122.19883156 C-21.45569934 119.90174994 -21.45444186 117.60466831 -21.45320129 115.30758667 C-21.45258419 114.17735136 -21.45196709 113.04711605 -21.45133129 111.88263118 C-21.44787625 103.91436454 -21.45371005 95.94613557 -21.46311951 87.97787476 C-21.47433293 78.26843366 -21.4713132 68.55912194 -21.44999653 58.84969568 C-21.43947734 53.89490545 -21.43537917 48.94033098 -21.44859314 43.9855423 C-21.46050476 39.45053434 -21.45397477 34.91594233 -21.43268293 30.38097215 C-21.42821166 28.7397529 -21.43049493 27.09849858 -21.44018608 25.45730186 C-21.45234938 23.226467 -21.43987752 20.99705696 -21.4213028 18.76629639 C-21.42065339 17.52726625 -21.42000398 16.28823612 -21.41933489 15.01165962 C-20.64008127 9.58720577 -18.38582816 5.89625955 -14.35030937 2.11647987 C-9.51122807 -0.13233169 -5.27715704 -0.03881599 0 0 Z M-3.91793823 16.52139282 C-3.91793823 148.19139282 -3.91793823 279.86139282 -3.91793823 415.52139282 C70.33206177 415.52139282 144.58206177 415.52139282 221.08206177 415.52139282 C217.94174411 401.05564986 217.94174411 401.05564986 211.11331177 397.13076782 C201.93761458 394.32520845 192.08516394 394.77300955 182.58206177 394.77139282 C179.70790659 394.74971381 176.83392503 394.72124492 173.95986938 394.6890564 C172.1836428 394.67140965 170.40732494 394.66102573 168.63101196 394.65890503 C167.8291748 394.65509827 167.02733765 394.6512915 166.20120239 394.64736938 C165.14962952 394.6466745 165.14962952 394.6466745 164.07681274 394.64596558 C161.91329322 394.51085318 160.11599135 394.28719406 158.08206177 393.52139282 C157.1170844 390.62646071 156.95216908 388.7870185 156.94161987 385.77700806 C156.93590973 384.80117767 156.93019958 383.82534729 156.92431641 382.81994629 C156.92263962 381.21616623 156.92263962 381.21616623 156.92092896 379.57998657 C156.91596405 378.45295319 156.91099915 377.3259198 156.90588379 376.16473389 C156.89125527 372.42944738 156.88446001 368.69420329 156.87893677 364.95889282 C156.87318717 362.36961872 156.86742942 359.78034463 156.86166382 357.19107056 C156.85249672 352.45485269 156.84619632 347.71865186 156.84316707 342.98242664 C156.83868192 336.00831908 156.82111016 329.03440708 156.79216647 322.060359 C156.76797043 316.02100007 156.76022409 309.98173392 156.75849152 303.94232178 C156.75545664 301.37140842 156.74740023 298.80049606 156.73430634 296.22961426 C156.71732718 292.64052324 156.71910601 289.05191351 156.72561646 285.46279907 C156.71640167 284.39361237 156.70718689 283.32442566 156.69769287 282.22283936 C156.7060466 280.75909378 156.7060466 280.75909378 156.71456909 279.26577759 C156.71310253 278.41701553 156.71163597 277.56825348 156.71012497 276.69377136 C157.16722694 274.02396693 157.98439595 273.17903447 160.08206177 271.52139282 C162.37207846 270.37638448 163.72117093 270.37151152 166.26882935 270.32852173 C167.13345291 270.3124588 167.99807648 270.29639587 168.88890076 270.27984619 C172.84496279 270.23538673 176.80085715 270.19433103 180.7571106 270.17129517 C182.84348708 270.15473533 184.92980683 270.12744504 187.01589966 270.08926392 C190.02393017 270.03449018 193.03063094 270.01262041 196.03909302 269.99795532 C196.96945877 269.97528595 197.89982452 269.95261658 198.85838318 269.92926025 C199.73246323 269.93211029 200.60654327 269.93496033 201.5071106 269.93789673 C202.2716304 269.92980988 203.03615021 269.92172302 203.82383728 269.91339111 C207.35505398 270.86413175 208.85838833 272.67839409 211.08206177 275.52139282 C211.72129822 278.66624451 211.72129822 278.66624451 211.7414856 282.2394104 C211.7519693 282.89362976 211.762453 283.54784912 211.77325439 284.22189331 C211.80190776 286.37039182 211.79572554 288.5172695 211.78909302 290.66592407 C211.80221419 292.16095489 211.81751971 293.655968 211.83491516 295.1509552 C211.87473016 299.0751889 211.88495324 302.99895851 211.88894653 306.92337036 C211.89828474 310.93209887 211.93570246 314.94055545 211.97073364 318.9491272 C212.03527363 326.80655412 212.06854295 334.66371323 212.08206177 342.52139282 C215.68613533 340.88272088 216.74294831 339.8602427 218.18753052 336.12686157 C218.70283325 334.81685181 218.70283325 334.81685181 219.22854614 333.4803772 C219.5720813 332.56578735 219.91561646 331.65119751 220.26956177 330.70889282 C220.62469849 329.80590454 220.97983521 328.90291626 221.34573364 327.9725647 C224.69110854 320.21237886 224.69110854 320.21237886 223.86721802 312.18154907 C223.29874146 310.99432251 222.73026489 309.80709595 222.14456177 308.58389282 C219.96707612 304.02555726 218.35664669 300.61338412 219.08206177 295.52139282 C220.54299927 293.25576782 220.54299927 293.25576782 222.45706177 291.27139282 C223.08354614 290.60623657 223.71003052 289.94108032 224.35549927 289.25576782 C225.5961794 288.00947376 226.8385715 286.76488309 228.08206177 285.52139282 C228.28874654 283.10985226 228.37257789 280.81057066 228.36917114 278.39712524 C228.37600418 277.66359329 228.38283722 276.93006134 228.38987732 276.17430115 C228.40348274 274.578855 228.41252482 272.98336501 228.41758728 271.38786888 C228.42586173 268.86160912 228.44635442 266.33571343 228.47012329 263.80955505 C228.51841727 258.44272157 228.5512908 253.07585161 228.58206177 247.70889282 C228.61773403 241.50039202 228.65971746 235.29206771 228.71800232 229.08373451 C228.73804765 226.59712499 228.74638712 224.11065109 228.75430298 221.62397766 C228.7672801 220.09392814 228.7808011 218.5638831 228.79495239 217.03384399 C228.79347954 215.99953751 228.79347954 215.99953751 228.79197693 214.94433594 C228.84198793 211.05464886 229.25227491 207.98074218 231.08206177 204.52139282 C233.46280856 203.33101942 234.91981884 203.39457079 237.57595825 203.39199829 C238.50709946 203.38884613 239.43824066 203.38569397 240.39759827 203.38244629 C241.40593216 203.38447052 242.41426605 203.38649475 243.45315552 203.38858032 C245.00305931 203.38714523 245.00305931 203.38714523 246.58427429 203.38568115 C248.77242087 203.38499978 250.96056945 203.38685109 253.14871216 203.39102173 C256.50219257 203.39636515 259.8555387 203.39107807 263.20901489 203.38467407 C265.33206206 203.38533497 267.45510915 203.38661637 269.57815552 203.38858032 C270.58446518 203.38655609 271.59077484 203.38453186 272.62757874 203.38244629 C273.5618721 203.38559845 274.49616547 203.38875061 275.45877075 203.39199829 C276.69215431 203.39319168 276.69215431 203.39319168 277.95045471 203.39440918 C280.08206177 203.52139282 280.08206177 203.52139282 283.08206177 204.52139282 C283.41206177 225.31139282 283.74206177 246.10139282 284.08206177 267.52139282 C290.71143338 266.38167051 290.71143338 266.38167051 292.46487427 263.70889282 C292.70979614 262.98701782 292.95471802 262.26514282 293.20706177 261.52139282 C294.37779758 258.14388952 295.80029003 255.33777832 297.66377258 252.30108643 C301.36672957 244.92221731 300.74068501 237.0891569 300.64968872 229.04629517 C300.64827635 227.29114828 300.64907391 225.53599845 300.65190125 223.78085327 C300.65332945 219.0416648 300.62403664 214.30311557 300.58903146 209.56407499 C300.5576682 204.60201521 300.55482938 199.63993902 300.54890442 194.67779541 C300.5333952 185.29275654 300.49240639 175.90801065 300.44215697 166.5231005 C300.3861724 155.83387523 300.35875411 145.1446356 300.3336798 134.45530009 C300.28148788 112.47716781 300.19360259 90.49929881 300.08206177 68.52139282 C299.5294014 68.51774719 298.97674103 68.51410156 298.40733337 68.51034546 C292.64801183 68.46849041 286.889485 68.39912433 281.13064575 68.31387329 C278.98228916 68.28567155 276.83382896 68.26445307 274.68533325 68.25039673 C271.59438058 68.22895659 268.50467254 68.18229971 265.41409302 68.13076782 C264.45557938 68.12953918 263.49706573 68.12831055 262.50950623 68.12704468 C258.19097472 68.03248587 255.73433778 67.92611488 251.99880981 65.60830688 C240.8954781 53.51923804 248.44673417 32.93165104 248.08206177 16.52139282 C164.92206177 16.52139282 81.76206177 16.52139282 -3.91793823 16.52139282 Z M265.08206177 30.52139282 C265.08206177 37.78139282 265.08206177 45.04139282 265.08206177 52.52139282 C272.34206177 52.52139282 279.60206177 52.52139282 287.08206177 52.52139282 C282.28706888 46.89123695 282.28706888 46.89123695 277.25003052 41.55654907 C276.59712036 40.90234985 275.94421021 40.24815063 275.27151489 39.5741272 C274.61087036 38.91734985 273.95022583 38.26057251 273.26956177 37.58389282 C272.5895813 36.90004517 271.90960083 36.21619751 271.20901489 35.5116272 C270.23931763 34.54386353 270.23931763 34.54386353 269.25003052 33.55654907 C268.66503784 32.97268433 268.08004517 32.38881958 267.47732544 31.78726196 C266.27261412 30.40940438 266.27261412 30.40940438 265.08206177 30.52139282 Z M245.08206177 219.52139282 C245.08206177 235.69139282 245.08206177 251.86139282 245.08206177 268.52139282 C248.05206177 268.85139282 251.02206177 269.18139282 254.08206177 269.52139282 C257.29690552 270.71279907 257.29690552 270.71279907 260.01956177 272.08389282 C263.40304757 273.92269157 263.40304757 273.92269157 267.08206177 274.52139282 C267.08206177 256.37139282 267.08206177 238.22139282 267.08206177 219.52139282 C259.82206177 219.52139282 252.56206177 219.52139282 245.08206177 219.52139282 Z M311.08206177 261.52139282 C310.68374146 262.56940063 310.28542114 263.61740845 309.87503052 264.69717407 C309.34029004 266.07624161 308.80511075 267.45513906 308.26956177 268.83389282 C307.87800903 269.86933228 307.87800903 269.86933228 307.47854614 270.9256897 C306.10612821 274.43297996 304.98529314 277.10116541 302.08206177 279.52139282 C299.31434733 280.52783444 296.58549057 281.42690569 293.76956177 282.27139282 C286.37559654 284.57698186 279.82290377 287.47316024 273.09768677 291.29873657 C265.8334817 294.24393888 257.86018067 289.21880749 251.08206177 286.52139282 C246.46206177 291.14139282 241.84206177 295.76139282 237.08206177 300.52139282 C238.63859453 305.19099112 240.35252453 309.49937432 242.37503052 313.95889282 C244.05903096 320.06223145 241.09041907 324.86133153 238.26956177 330.08389282 C235.02495134 336.27723285 232.7148789 342.15868425 230.96878052 348.94717407 C229.99205341 351.78269463 229.50178862 352.78725524 227.08206177 354.52139282 C224.51995106 355.67224255 222.01454455 356.7177065 219.39456177 357.70889282 C216.98143677 358.63701782 214.56831177 359.56514282 212.08206177 360.52139282 C212.08206177 367.12139282 212.08206177 373.72139282 212.08206177 380.52139282 C218.45489001 383.72057303 218.45489001 383.72057303 224.85549927 386.22061157 C228.3484261 387.76328346 229.76382746 389.01031917 231.24612427 392.54092407 C231.76589502 394.12821502 232.25159929 395.72696777 232.70706177 397.33389282 C233.25401012 399.04689897 233.80750004 400.75782899 234.36721802 402.46670532 C234.64194946 403.31780884 234.91668091 404.16891235 235.19973755 405.04580688 C236.95658449 409.97508967 239.50857657 414.53238743 241.99221802 419.12686157 C243.68827663 424.40956744 242.09858961 428.19591133 239.94143677 433.13076782 C239.19538975 434.57032334 238.44531629 436.00779859 237.69143677 437.44326782 C236.88668359 439.49253722 236.88668359 439.49253722 237.64456177 441.42373657 C239.62359261 444.31161581 241.90200355 446.82891324 244.33206177 449.33389282 C245.03008911 450.10636353 245.03008911 450.10636353 245.74221802 450.8944397 C247.31049791 452.5862228 247.31049791 452.5862228 250.08206177 454.52139282 C254.86352044 454.44867102 258.47552347 452.51667323 262.64065552 450.36123657 C267.48566695 448.69455264 271.06319455 449.08271388 275.73831177 451.09561157 C277.02590866 451.78836934 278.30697616 452.493368 279.58206177 453.20889282 C285.07596682 456.16933907 290.33129228 458.33082635 296.33206177 460.02139282 C302.56513825 461.990077 302.56513825 461.990077 304.76565552 464.25186157 C305.82904774 466.32485574 306.46022544 468.27737478 307.08206177 470.52139282 C307.81907283 472.35998625 308.5692936 474.19333488 309.33206177 476.02139282 C309.90956177 477.50639282 310.48706177 478.99139282 311.08206177 480.52139282 C317.68206177 480.52139282 324.28206177 480.52139282 331.08206177 480.52139282 C334.37851752 472.99377755 334.37851752 472.99377755 336.97659302 465.22061157 C338.08206177 462.52139282 338.08206177 462.52139282 340.00784302 461.45498657 C340.79546021 461.29127563 341.58307739 461.1275647 342.39456177 460.95889282 C350.63932759 458.92153017 358.61762274 456.13778847 365.89456177 451.70889282 C369.95642682 449.38677396 373.45409139 448.43489799 378.08206177 449.52139282 C380.99104088 450.7327922 383.77893154 452.0558856 386.56643677 453.52529907 C389.45007954 454.66711415 390.23213964 454.53250099 393.08206177 453.52139282 C395.31354572 451.65848945 397.3445962 449.81406314 399.39456177 447.77139282 C399.95723755 447.24545532 400.51991333 446.71951782 401.09963989 446.17764282 C402.92771264 444.43862943 402.92771264 444.43862943 405.08206177 441.52139282 C405.05675285 437.27582245 402.84902191 433.80582499 400.92190552 430.09561157 C399.24881451 424.96739308 399.3641099 420.50251803 401.69143677 415.69717407 C402.39194816 414.40227933 403.10599441 413.11463276 403.83206177 411.83389282 C407.5592673 404.87070202 410.02867486 398.16648869 412.08206177 390.52139282 C412.41206177 389.53139282 412.74206177 388.54139282 413.08206177 387.52139282 C414.86721802 386.67764282 414.86721802 386.67764282 417.14456177 386.02139282 C421.58321531 384.71085891 425.69198446 383.16767181 430.08206177 381.52139282 C430.08206177 374.59139282 430.08206177 367.66139282 430.08206177 360.52139282 C424.9604857 358.46521654 424.9604857 358.46521654 419.82107544 356.45449829 C416.21738295 354.94357867 414.41740606 354.02932016 412.21487427 350.69326782 C411.84104614 349.64654907 411.46721802 348.59983032 411.08206177 347.52139282 C410.50005005 345.92424438 410.50005005 345.92424438 409.90628052 344.29483032 C409.34360474 342.61260376 409.34360474 342.61260376 408.76956177 340.89639282 C407.09829645 336.06602842 405.19051772 331.64571662 402.76956177 327.14639282 C400.1634887 322.03551896 399.08783068 319.21562542 400.08206177 313.52139282 C401.3006281 310.61714306 402.61722799 307.82324552 404.08596802 305.03701782 C405.22740666 302.15432573 405.10830198 301.36749902 404.08206177 298.52139282 C402.88800468 296.91894875 402.88800468 296.91894875 401.35940552 295.50576782 C400.82122192 294.9772522 400.28303833 294.44873657 399.72854614 293.90420532 C399.1645813 293.3653772 398.60061646 292.82654907 398.01956177 292.27139282 C397.45172974 291.71709595 396.88389771 291.16279907 396.29885864 290.59170532 C394.89993707 289.22805068 393.49187063 287.87378866 392.08206177 286.52139282 C387.75717726 287.90417903 383.53327092 289.25650128 379.45706177 291.27139282 C375.03593943 292.90884554 371.61794712 292.57806735 367.2270813 290.7484436 C365.27904616 289.77620483 363.36697258 288.75396059 361.45706177 287.70889282 C355.27645286 284.44322887 349.46465359 282.18009796 342.65628052 280.50576782 C339.54093197 279.3144661 338.71606507 278.4040673 337.08206177 275.52139282 C336.15011531 273.31542708 335.27828066 271.08342801 334.45706177 268.83389282 C333.26435356 264.89053291 333.26435356 264.89053291 331.08206177 261.52139282 C329.59334317 261.4346985 328.10061677 261.41435789 326.60940552 261.42373657 C325.26072388 261.42857056 325.26072388 261.42857056 323.88479614 261.4335022 C322.9392688 261.4418811 321.99374146 261.45026001 321.01956177 261.45889282 C320.07016724 261.46340454 319.12077271 261.46791626 318.14260864 261.4725647 C315.78903112 261.48439172 313.43557699 261.50087257 311.08206177 261.52139282 Z M173.08206177 286.52139282 C173.08206177 316.88139282 173.08206177 347.24139282 173.08206177 378.52139282 C180.34206177 378.52139282 187.60206177 378.52139282 195.08206177 378.52139282 C195.08206177 348.16139282 195.08206177 317.80139282 195.08206177 286.52139282 C187.82206177 286.52139282 180.56206177 286.52139282 173.08206177 286.52139282 Z " fill="#000000" transform="translate(42.917938232421875,7.478607177734375)"/>
<path d="M0 0 C11.88692125 11.31658917 17.93647653 25.758923 18.5 41.9375 C18.22275862 57.8615515 12.34481012 70.46688602 1.60546875 81.92578125 C-10.53132514 93.29805269 -24.89004975 96.78039262 -40.96875 96.5234375 C-54.98788498 95.97968457 -68.24911191 89.07299491 -77.7734375 78.890625 C-88.66318954 65.20759084 -92.33119215 50.49894273 -90.875 33.25 C-88.79031009 19.42155693 -81.34000004 6.61401879 -70.16796875 -1.78515625 C-48.06282917 -16.34672372 -21.38725007 -16.80774778 0 0 Z M-63.609375 15.75 C-71.69631071 24.67351527 -74.39835218 33.77081755 -74.18359375 45.68359375 C-73.28372789 56.08330928 -68.41349118 64.53678069 -60.515625 71.2578125 C-55.47611879 74.99831556 -50.1582591 78.22206395 -43.875 79.25 C-42.39 78.755 -42.39 78.755 -40.875 78.25 C-41.349375 77.651875 -41.82375 77.05375 -42.3125 76.4375 C-43.875 74.25 -43.875 74.25 -44.875 71.25 C-46.5777781 70.26588709 -46.5777781 70.26588709 -48.625 69.5 C-53.16170233 67.34160482 -55.77741034 64.83959789 -57.875 60.25 C-58.75562338 57.18335857 -59.18916457 54.4347663 -58.875 51.25 C-56.88616787 48.19025826 -55.62432271 47.45436074 -52.125 46.5 C-51.3825 46.4175 -50.64 46.335 -49.875 46.25 C-50.29652344 45.77949219 -50.71804687 45.30898437 -51.15234375 44.82421875 C-51.70019531 44.20160156 -52.24804688 43.57898438 -52.8125 42.9375 C-53.35777344 42.32261719 -53.90304688 41.70773438 -54.46484375 41.07421875 C-58.1271023 36.33661558 -57.38249888 29.92074837 -56.875 24.25 C-55.55994598 19.60124216 -52.92103174 17.10313697 -48.8125 14.75 C-48.12027344 14.36457031 -47.42804688 13.97914062 -46.71484375 13.58203125 C-43.65795343 11.36886862 -42.98288435 8.78138136 -41.875 5.25 C-50.79753494 5.25 -57.31823316 9.73582666 -63.609375 15.75 Z M-31.875 5.25 C-31.215 5.58 -30.555 5.91 -29.875 6.25 C-29.66875 7.136875 -29.4625 8.02375 -29.25 8.9375 C-27.53612068 13.06639108 -25.41887801 14.25420562 -21.8515625 16.7578125 C-18.46553953 19.31405909 -16.24017395 22.04636411 -15.53515625 26.30078125 C-15.39893201 29.28136765 -15.48253806 31.60966736 -17.0625 34.1875 C-19.29998625 35.49912987 -21.31812331 35.90447612 -23.875 36.25 C-22.76125 37.301875 -22.76125 37.301875 -21.625 38.375 C-16.96114428 43.25084917 -14.23735903 47.17209344 -13.78125 53.9453125 C-13.96562633 58.47789725 -15.15909008 62.35709078 -18.23828125 65.75390625 C-20.51951205 67.72861508 -22.93284033 69.28228298 -25.5625 70.75 C-28.33249446 72.54675316 -29.32595377 74.37319986 -30.875 77.25 C-31.865 78.24 -31.865 78.24 -32.875 79.25 C-22.83854253 78.87126576 -14.46081207 73.85591351 -7.6640625 66.59765625 C-0.63307975 57.37141033 2.15691624 47.70427021 1.125 36.25 C-1.31766007 24.69886652 -7.16878585 16.62021431 -16.60546875 9.69140625 C-21.34621767 6.68050031 -26.15013257 4.71329368 -31.875 5.25 Z M-39.875 28.25 C-39.875 29.57 -39.875 30.89 -39.875 32.25 C-34.39878307 34.19679922 -34.39878307 34.19679922 -28.875 33.25 C-30.40291204 30.60832772 -30.40291204 30.60832772 -32.875 28.25 C-36.54299815 27.83228196 -36.54299815 27.83228196 -39.875 28.25 Z M-43.875 49.25 C-42.62523244 52.90316671 -42.20401247 54.03065836 -38.875 56.25 C-36.80589407 56.27749478 -36.80589407 56.27749478 -34.6875 55.875 C-32.8003125 55.565625 -32.8003125 55.565625 -30.875 55.25 C-30.875 54.26 -30.875 53.27 -30.875 52.25 C-32.28896902 51.74242138 -33.70631729 51.24425075 -35.125 50.75 C-35.91390625 50.4715625 -36.7028125 50.193125 -37.515625 49.90625 C-40.10912738 49.07135139 -40.10912738 49.07135139 -43.875 49.25 Z " fill="#000000" transform="translate(190.875,42.75)"/>
<path d="M0 0 C13.42476147 10.66923601 22.43954756 24.73949806 25.25488281 41.73193359 C27.07376171 61.08111113 23.04796084 77.79662196 11.12988281 93.35693359 C3.51000529 102.30645417 -5.75956084 108.64241992 -16.74511719 112.73193359 C-17.5353125 113.05033203 -18.32550781 113.36873047 -19.13964844 113.69677734 C-34.15128237 118.82673729 -52.8211244 116.8245196 -66.97949219 110.22412109 C-74.10106295 106.33798476 -80.01954595 101.44754731 -85.74511719 95.73193359 C-86.39351563 95.09513672 -87.04191406 94.45833984 -87.70996094 93.80224609 C-98.21663785 82.72080567 -102.82390229 67.12617037 -103.18261719 52.10693359 C-102.53449693 32.80510218 -95.12525748 16.26767047 -80.99511719 3.04443359 C-57.80507317 -16.12238642 -24.48921655 -17.79476647 0 0 Z M-74.44824219 20.81787109 C-82.99908024 31.66638332 -86.81953181 43.9862481 -85.74511719 57.73193359 C-83.77845686 70.78791391 -77.02356875 82.45317557 -66.43261719 90.48583984 C-54.27888723 98.25721525 -40.71093306 101.12986385 -26.56542969 98.03662109 C-23.82457619 97.11265065 -21.32465329 96.03792514 -18.74511719 94.73193359 C-17.88402344 94.29623047 -17.02292969 93.86052734 -16.13574219 93.41162109 C-4.31723945 86.85772412 3.63465488 76.85301325 7.69238281 63.85693359 C10.4254162 49.27051944 7.57021655 35.42463951 -0.76855469 23.23583984 C-9.27421049 12.46088852 -20.36721592 7.02681293 -33.74511719 4.73193359 C-49.33697014 2.99686459 -63.84682559 9.64249245 -74.44824219 20.81787109 Z " fill="#000000" transform="translate(402.7451171875,326.26806640625)"/>
<path d="M0 0 C1.35688431 -0.02398109 1.35688431 -0.02398109 2.74118042 -0.04844666 C3.71620514 -0.05380936 4.69122986 -0.05917206 5.69580078 -0.06469727 C7.20317307 -0.07823997 7.20317307 -0.07823997 8.74099731 -0.09205627 C10.86766578 -0.10656824 12.99437898 -0.11544785 15.12109375 -0.11914062 C18.37202344 -0.13103368 21.62105323 -0.18020824 24.87158203 -0.23071289 C26.93797902 -0.24017744 29.00438766 -0.24741232 31.07080078 -0.25219727 C32.04177704 -0.27172958 33.0127533 -0.2912619 34.01315308 -0.31138611 C35.37949387 -0.30226952 35.37949387 -0.30226952 36.7734375 -0.29296875 C37.57047089 -0.2980394 38.36750427 -0.30311005 39.18869019 -0.30833435 C43.01975724 0.70354658 44.25322091 2.02622701 46.51611328 5.30639648 C47.26279244 9.50967044 47.18837426 13.66830958 47.1472168 17.92773438 C47.1543721 19.20951065 47.1615274 20.49128693 47.16889954 21.81190491 C47.18739367 25.32029431 47.17448928 28.82792252 47.15480924 32.33628011 C47.13840799 36.00995706 47.14723751 39.68358638 47.15232849 43.35728455 C47.15684726 49.52509709 47.14099194 55.69260613 47.11303711 61.86035156 C47.08097168 68.98998093 47.08100695 76.11906341 47.09825188 83.24873167 C47.11411679 90.11040925 47.10738466 96.97188641 47.09031487 103.83355522 C47.08344438 106.75257137 47.08447664 109.67142687 47.09185982 112.59044075 C47.10094525 116.66542056 47.07698782 120.73955564 47.04956055 124.81445312 C47.05608643 126.02651428 47.0626123 127.23857544 47.06933594 128.48736572 C47.05661148 129.59630692 47.04388702 130.70524811 47.03077698 131.84779358 C47.02797006 132.81102571 47.02516314 133.77425783 47.02227116 134.76667881 C46.37008584 138.03910954 45.0574309 139.2161849 42.51611328 141.30639648 C40.2398775 142.44451438 38.95027226 142.44432988 36.42114258 142.4675293 C35.57653976 142.47713684 34.73193695 142.48674438 33.86174011 142.49664307 C32.94717545 142.50089294 32.03261078 142.50514282 31.09033203 142.50952148 C30.15059036 142.51522156 29.21084869 142.52092163 28.24263 142.52679443 C26.25120166 142.53625122 24.25975762 142.5427811 22.26831055 142.54663086 C19.22628315 142.55632425 16.18493479 142.58733621 13.14306641 142.61889648 C11.20882563 142.62542773 9.27458002 142.63067772 7.34033203 142.63452148 C6.43184006 142.64686829 5.52334808 142.65921509 4.58732605 142.67193604 C-0.24424135 142.65495828 -3.60396476 142.52262899 -7.48388672 139.30639648 C-9.70768209 135.97070342 -9.73476961 134.92603976 -9.737854 131.0372467 C-9.74349365 129.94506332 -9.7491333 128.85287994 -9.75494385 127.7276001 C-9.75089539 126.5290741 -9.74684692 125.3305481 -9.74267578 124.09570312 C-9.74618042 122.83372604 -9.74968506 121.57174896 -9.7532959 120.27153015 C-9.76242183 116.80870077 -9.7588746 113.34599042 -9.75253773 109.88315892 C-9.74747768 106.26019165 -9.7521693 102.63723464 -9.75531006 99.01426697 C-9.75895016 92.92876352 -9.75414996 86.84330859 -9.74462891 80.7578125 C-9.73374914 73.72264878 -9.73726625 66.68760103 -9.74828172 59.65244013 C-9.75735919 53.6132912 -9.75863747 47.57417718 -9.75340438 41.53502363 C-9.75028658 37.92769339 -9.74987001 34.32041764 -9.75647736 30.7130909 C-9.76332983 26.69081894 -9.75383052 22.66874667 -9.74267578 18.64648438 C-9.74672424 17.4499826 -9.75077271 16.25348083 -9.75494385 15.02072144 C-9.7493042 13.92571823 -9.74366455 12.83071503 -9.737854 11.70252991 C-9.73709995 10.75144883 -9.7363459 9.80036776 -9.735569 8.82046604 C-9.46651779 6.13289724 -8.95939891 4.55782506 -7.48388672 2.30639648 C-4.35075829 0.2176442 -3.57644123 0.04783833 0 0 Z M7.51611328 17.30639648 C7.51611328 52.94639648 7.51611328 88.58639648 7.51611328 125.30639648 C14.77611328 125.30639648 22.03611328 125.30639648 29.51611328 125.30639648 C29.51611328 89.66639648 29.51611328 54.02639648 29.51611328 17.30639648 C22.25611328 17.30639648 14.99611328 17.30639648 7.51611328 17.30639648 Z " fill="#000000" transform="translate(135.48388671875,260.693603515625)"/>
<path d="M0 0 C10.6515756 -0.72995706 10.6515756 -0.72995706 14.81347656 2.18505859 C17.50204126 5.98097276 17.36302046 8.73362523 16.85644531 13.15771484 C16.75444824 14.27678223 16.75444824 14.27678223 16.65039062 15.41845703 C16.43411196 17.66871643 16.17779389 19.91201492 15.91894531 22.15771484 C15.80164063 23.42099609 15.68433594 24.68427734 15.56347656 25.98583984 C14.99633647 30.90479747 14.48429058 34.30162059 11.73144531 38.47021484 C8.11477995 40.64021406 6.06870931 40.83676713 1.91894531 40.15771484 C-0.76763483 38.0520169 -2.18173352 36.00669659 -4.08105469 33.15771484 C-5.34961304 34.52585327 -5.34961304 34.52585327 -6.64379883 35.92163086 C-16.5549449 46.57323522 -26.63392284 57.05304415 -36.86303711 67.3996582 C-38.65299444 69.21660395 -40.43574457 71.04067456 -42.21166992 72.87133789 C-44.81687539 75.55533795 -47.44408935 78.21591333 -50.07714844 80.87255859 C-50.86375351 81.69215561 -51.65035858 82.51175262 -52.46080017 83.35618591 C-59.51536064 90.38542074 -59.51536064 90.38542074 -64.71958923 90.50392151 C-69.84219561 89.75291308 -74.69624645 88.04772324 -79.56547737 86.34376526 C-81.6507442 85.61438589 -83.74217632 84.90606426 -85.83628845 84.20251465 C-90.27840486 82.70595124 -94.71133837 81.18330394 -99.14355469 79.65771484 C-104.28684396 77.88890441 -109.43348181 76.13114258 -114.58877373 74.39759827 C-116.6421234 73.70137055 -118.68859969 72.98715608 -120.73536682 72.27185059 C-122.00272823 71.84296457 -123.27036871 71.414902 -124.53833008 70.98779297 C-126.18424889 70.42034363 -126.18424889 70.42034363 -127.86341858 69.84143066 C-132.19955934 68.92004368 -136.16151821 69.09125387 -140.09057617 71.27416992 C-140.62239502 71.73718506 -141.15421387 72.2002002 -141.70214844 72.67724609 C-142.31896484 73.19867188 -142.93578125 73.72009766 -143.57128906 74.25732422 C-144.21388672 74.82257813 -144.85648437 75.38783203 -145.51855469 75.97021484 C-146.93164223 77.16691923 -148.34707078 78.36086397 -149.76464844 79.55224609 C-150.48120605 80.15762207 -151.19776367 80.76299805 -151.93603516 81.38671875 C-155.22583571 84.10288233 -158.64507246 86.63082124 -162.08105469 89.15771484 C-167.53209024 93.18986909 -172.84369131 97.3518224 -178.08105469 101.65771484 C-183.55600521 106.15376343 -189.10387244 110.52767703 -194.76855469 114.78271484 C-195.42791016 115.27964844 -196.08726562 115.77658203 -196.76660156 116.28857422 C-205.97944343 123.15771484 -205.97944343 123.15771484 -210.64355469 123.15771484 C-214.08105469 122.15771484 -214.08105469 122.15771484 -216.58105469 120.03271484 C-218.59585219 116.17101964 -218.33780191 114.29758805 -217.08105469 110.15771484 C-213.45598833 106.13355861 -209.31943478 102.81425785 -205.08105469 99.47021484 C-204.41952393 98.94476074 -203.75799316 98.41930664 -203.07641602 97.87792969 C-197.94687168 93.81435247 -192.7704177 89.8140113 -187.57324219 85.83740234 C-183.49668818 82.7155891 -179.44536634 79.56153398 -175.39355469 76.40771484 C-174.63848633 75.82070801 -173.88341797 75.23370117 -173.10546875 74.62890625 C-169.14488781 71.54854728 -165.19059859 68.46051962 -161.24511719 65.36083984 C-160.05728638 64.43029785 -160.05728638 64.43029785 -158.84545898 63.48095703 C-157.34743905 62.30718587 -155.85134882 61.1309456 -154.35766602 59.95166016 C-152.28336822 58.32861226 -150.18602529 56.74070732 -148.08105469 55.15771484 C-147.34000488 54.57248047 -146.59895508 53.98724609 -145.83544922 53.38427734 C-145.08247559 52.82482422 -144.32950195 52.26537109 -143.55371094 51.68896484 C-142.88734619 51.17914063 -142.22098145 50.66931641 -141.53442383 50.14404297 C-134.50321491 47.31728568 -125.80260967 51.70876035 -119.09108925 53.99792862 C-117.09631716 54.67763006 -115.09832051 55.34694506 -113.09916687 56.01364136 C-107.42151936 57.90910104 -101.75013879 59.82298025 -96.08081055 61.74316406 C-92.59953734 62.92147546 -89.11452227 64.08810848 -85.62703514 65.24789047 C-84.30384265 65.69065934 -82.9821761 66.13801654 -81.66213417 66.59009171 C-79.81887404 67.22127856 -77.97019618 67.83657624 -76.12133789 68.45117188 C-75.07291214 68.80567413 -74.02448639 69.16017639 -72.94429016 69.52542114 C-69.7567515 70.22933133 -68.1402137 70.28009672 -65.08105469 69.15771484 C-62.50925183 67.16469746 -62.50925183 67.16469746 -60.01538086 64.54614258 C-59.53672577 64.06807159 -59.05807068 63.59000061 -58.56491089 63.09744263 C-56.99160894 61.52136308 -55.43293525 59.93161211 -53.87402344 58.34130859 C-52.78345343 57.24327506 -51.69199451 56.14612373 -50.59968567 55.04981995 C-47.73191488 52.16680175 -44.87636082 49.27197311 -42.02319336 46.37451172 C-39.10771269 43.41805936 -36.18082699 40.47294617 -33.25488281 37.52685547 C-27.51905586 31.74817338 -21.79608661 25.95696337 -16.08105469 20.15771484 C-17.04140625 19.53638672 -18.00175781 18.91505859 -18.99121094 18.27490234 C-23.23076399 15.36992415 -23.23076399 15.36992415 -24.08105469 12.15771484 C-23.93960556 8.76293577 -23.55047413 6.79143109 -21.51855469 4.04833984 C-18.26266852 1.52294096 -15.18664764 1.24564782 -11.20605469 0.90771484 C-10.45807617 0.83544678 -9.71009766 0.76317871 -8.93945312 0.6887207 C-5.96205189 0.42146139 -2.98066165 0.22589247 0 0 Z " fill="#000000" transform="translate(291.0810546875,162.84228515625)"/>
<path d="M0 0 C1.26690422 -0.01441132 1.26690422 -0.01441132 2.55940247 -0.02911377 C3.93124947 -0.03548859 3.93124947 -0.03548859 5.33081055 -0.04199219 C6.74042305 -0.0505423 6.74042305 -0.0505423 8.17851257 -0.05926514 C10.16994092 -0.06872193 12.16138496 -0.07525181 14.15283203 -0.07910156 C17.19485943 -0.08879495 20.23620779 -0.11980691 23.27807617 -0.15136719 C25.21231695 -0.15789843 27.14656256 -0.16314843 29.08081055 -0.16699219 C29.98930252 -0.17933899 30.89779449 -0.19168579 31.83381653 -0.20440674 C36.6339815 -0.18753933 40.09924897 -0.11192144 43.9050293 3.16113281 C46.39892391 6.81852222 46.19424804 10.61375573 46.1796875 14.87963867 C46.18479843 15.65247696 46.18990936 16.42531525 46.19517517 17.22157288 C46.20906101 19.77311982 46.2081152 22.32439635 46.20581055 24.87597656 C46.20969799 26.65190227 46.21403277 28.42782704 46.21879578 30.20375061 C46.22625578 33.92517105 46.22596827 37.64649661 46.22070312 41.36791992 C46.21490835 46.13396767 46.23184065 50.89962682 46.2550478 55.66561031 C46.26978817 59.33307664 46.27065643 63.00044944 46.26753807 66.66794014 C46.26805112 68.42499117 46.27328574 70.18204746 46.28334999 71.93906975 C46.29570327 74.39737999 46.28892977 76.85493405 46.27734375 79.31323242 C46.28880936 80.39893021 46.28880936 80.39893021 46.30050659 81.50656128 C46.25490379 85.88996273 45.68342426 88.72660619 42.9050293 92.16113281 C40.12304388 94.04057864 37.90252407 94.41512099 34.58300781 94.43579102 C33.73855606 94.44532303 32.89410431 94.45485504 32.02406311 94.4646759 C30.66769997 94.46330879 30.66769997 94.46330879 29.28393555 94.46191406 C27.87856789 94.46834175 27.87856789 94.46834175 26.44480896 94.47489929 C24.46533007 94.48063661 22.4858301 94.48114726 20.50634766 94.47680664 C17.48197366 94.4736479 14.45857919 94.4971091 11.43432617 94.52246094 C9.5091972 94.52473415 7.58406559 94.52543733 5.65893555 94.52441406 C4.75671768 94.53362381 3.85449982 94.54283356 2.92494202 94.55232239 C-1.88486014 94.51697658 -5.21579746 94.34390741 -9.0949707 91.16113281 C-10.6559018 88.03927062 -10.26003252 84.71464874 -10.27197266 81.28662109 C-10.27854385 80.47345428 -10.28511505 79.66028748 -10.29188538 78.82247925 C-10.31163278 76.12546706 -10.32328324 73.42851054 -10.33325195 70.73144531 C-10.33732748 69.81153683 -10.34140301 68.89162834 -10.34560204 67.94384384 C-10.36646746 63.07633437 -10.38076796 58.20885314 -10.39013672 53.34130859 C-10.4012111 48.30825806 -10.4356214 43.27564845 -10.47530842 38.24275398 C-10.50142269 34.37717859 -10.50982385 30.51170916 -10.5134182 26.64605331 C-10.51829646 24.79046521 -10.52994554 22.93488222 -10.54845619 21.07938004 C-10.57274106 18.48403968 -10.57190259 15.8898522 -10.56494141 13.29443359 C-10.58415649 12.14252533 -10.58415649 12.14252533 -10.60375977 10.96734619 C-10.56924917 7.44166012 -10.38821275 5.53775048 -8.19059753 2.71530151 C-5.24092155 0.52774883 -3.61214013 0.03313374 0 0 Z M6.9050293 17.16113281 C6.9050293 36.96113281 6.9050293 56.76113281 6.9050293 77.16113281 C14.1650293 77.16113281 21.4250293 77.16113281 28.9050293 77.16113281 C28.9050293 57.36113281 28.9050293 37.56113281 28.9050293 17.16113281 C21.6450293 17.16113281 14.3850293 17.16113281 6.9050293 17.16113281 Z " fill="#000000" transform="translate(64.094970703125,308.8388671875)"/>
<path d="M0 0 C1.10606598 -0.00540298 2.21213196 -0.01080597 3.35171509 -0.01637268 C7.01209169 -0.02889183 10.67168668 -0.01234682 14.33203125 0.00561523 C16.87264039 0.00546032 19.41324978 0.00397263 21.95385742 0.00120544 C27.28022594 -0.00017999 32.60631806 0.01197059 37.93261719 0.03515625 C44.08798555 0.06176565 50.24297697 0.06351288 56.39838314 0.05176789 C62.32297039 0.04098345 68.24744273 0.04728335 74.17202759 0.06132317 C76.69185998 0.06584492 79.21170345 0.06616817 81.73153687 0.06225777 C85.25094461 0.05935298 88.76973294 0.07581846 92.2890625 0.09765625 C93.33438141 0.0931546 94.37970032 0.08865295 95.45669556 0.08401489 C96.41562714 0.09391953 97.37455872 0.10382416 98.36254883 0.11402893 C99.61023796 0.11767377 99.61023796 0.11767377 100.88313293 0.12139225 C103.67975515 0.5917217 105.06499799 1.60720634 107.14453125 3.50170898 C108.20832028 6.15010042 108.3933116 8.66561298 108.14453125 11.50170898 C106.37989064 14.36164376 105.14887428 15.99953747 102.14453125 17.50170898 C100.67345487 17.60006809 99.19802961 17.63673787 97.72367859 17.64215088 C96.32943665 17.65071609 96.32943665 17.65071609 94.9070282 17.65945435 C93.3726989 17.66113113 93.3726989 17.66113113 91.80737305 17.6628418 C90.73246613 17.6678067 89.6575592 17.67277161 88.55007935 17.67788696 C84.98129647 17.69253506 81.41255805 17.69931513 77.84375 17.70483398 C75.36993915 17.7105834 72.89612832 17.71634116 70.4223175 17.72210693 C65.22954093 17.73262457 60.03677987 17.73846219 54.84399414 17.74194336 C48.18569044 17.74664237 41.52762025 17.77145429 34.86937237 17.79991531 C29.75732319 17.81852706 24.64532338 17.82374653 19.53324318 17.82527924 C17.0784169 17.82830976 14.62359157 17.83635169 12.16879845 17.84946442 C8.73566458 17.86649337 5.30303185 17.86465207 1.86987305 17.8581543 C0.34465279 17.87197647 0.34465279 17.87197647 -1.21138 17.88607788 C-9.92095176 17.83436433 -9.92095176 17.83436433 -13.85546875 14.50170898 C-15.42018108 11.37228433 -15.55248833 7.89088675 -14.85546875 4.50170898 C-11.29686075 -1.03634249 -5.90906338 -0.05465188 0 0 Z " fill="#000000" transform="translate(110.85546875,185.498291015625)"/>
<path d="M0 0 C1.09645844 -0.00700928 2.19291687 -0.01401855 3.32260132 -0.02124023 C6.94506185 -0.03883828 10.56674058 -0.0271911 14.18920898 -0.01367188 C16.70596975 -0.01636605 19.2227295 -0.02024785 21.73948669 -0.02526855 C27.01276628 -0.0311659 32.28584257 -0.02297352 37.55908203 -0.00390625 C43.65262484 0.01787289 49.74563251 0.01080155 55.83916241 -0.01121187 C61.70664367 -0.03155872 67.57392173 -0.0293959 73.4414196 -0.01768494 C75.93613701 -0.01501364 78.43086804 -0.01830149 80.92556953 -0.02760315 C84.40908325 -0.0377419 87.89156343 -0.02230404 91.375 0 C92.40939713 -0.00809692 93.44379425 -0.01619385 94.50953674 -0.02453613 C101.46317575 0.05810474 101.46317575 0.05810474 104.73204041 2.33508301 C106.73595144 5.47977996 107.12280273 7.79910294 107.12280273 11.51757812 C105.35639101 14.31947258 104.09230452 16.03282723 101.12280273 17.51757812 C99.63918885 17.62017695 98.15110891 17.66134274 96.66398621 17.67147827 C95.72607742 17.68007874 94.78816864 17.6886792 93.82183838 17.69754028 C92.27348297 17.70393021 92.27348297 17.70393021 90.69384766 17.71044922 C89.06685692 17.72271545 89.06685692 17.72271545 87.40699768 17.73522949 C83.8057613 17.76010943 80.20456436 17.7766053 76.60327148 17.79101562 C75.37569941 17.7963393 74.14812733 17.80166298 72.88335609 17.80714798 C67.05758356 17.83113008 61.23182736 17.85037102 55.40601939 17.86317003 C48.68251546 17.8782344 41.95949683 17.91332899 35.23617858 17.96517122 C29.41201239 18.00854814 23.58800933 18.02451613 17.76369667 18.03090286 C15.28651497 18.03763175 12.80934142 18.05289593 10.33226585 18.07679367 C6.86774845 18.10831334 3.40456378 18.10850123 -0.06005859 18.10107422 C-1.08622284 18.11747955 -2.11238708 18.13388489 -3.16964722 18.15078735 C-7.93516601 18.10889892 -10.13490873 18.08718621 -14.01176453 15.11221313 C-16.90254788 11.09141542 -16.64832131 9.3756596 -15.87719727 4.51757812 C-11.50280814 -0.6908913 -6.28608939 -0.04930194 0 0 Z " fill="#000000" transform="translate(111.877197265625,147.482421875)"/>
<path d="M0 0 C0.94166016 -0.01546875 1.88332031 -0.0309375 2.85351562 -0.046875 C7.18009312 -0.02244831 9.87634685 0.1088927 13.6875 2.28125 C16.22107966 5.27931927 16.2279478 6.82475861 15.99609375 10.59765625 C15.33907726 13.48024213 13.89712725 14.78336232 11.5625 16.5 C8.19936091 18.18156955 4.44483413 17.72674377 0.75 17.75 C-0.46139648 17.7809375 -0.46139648 17.7809375 -1.69726562 17.8125 C-6.43542792 17.84354447 -9.60145816 17.60500833 -13.4375 14.5 C-15.00221233 11.37057535 -15.13451958 7.88917777 -14.4375 4.5 C-11.08008133 -0.96779612 -5.74264258 -0.09394916 0 0 Z " fill="#000000" transform="translate(68.4375,185.5)"/>
<path d="M0 0 C0.88945313 -0.02384766 1.77890625 -0.04769531 2.6953125 -0.07226562 C7.24080594 -0.06208915 9.36237338 0.0858902 13.09375 2.875 C15.57951621 6.37952285 15.61272381 8.35002377 15 12.5625 C13.23984869 15.7475357 12.50109084 16.39546972 9 17.5625 C5.88020323 17.8625535 2.75754965 17.88576119 -0.375 17.9375 C-1.65117188 17.99357422 -1.65117188 17.99357422 -2.953125 18.05078125 C-7.40594573 18.11320397 -9.38498803 18.0182678 -13.0625 15.29296875 C-15.98791119 11.17026226 -15.78701224 9.52067712 -15 4.5625 C-10.72262193 -0.37830813 -6.08634338 -0.07497669 0 0 Z " fill="#000000" transform="translate(69,147.4375)"/>
</svg>
