<?xml version="1.0" encoding="UTF-8"?>
<svg version="1.1" xmlns="http://www.w3.org/2000/svg" width="512" height="512">
<path d="M0 0 C7.12168643 6.77611937 10.86934468 15.15514428 11.25463867 24.87866211 C11.43858181 36.94454902 8.76777517 44.67937505 0.2890625 53.5625 C-7.82652333 60.88473529 -16.77854865 63.24105185 -27.53515625 63.08203125 C-34.20051428 62.49115627 -40.15127025 60.39539177 -45.5234375 56.38671875 C-46.3896875 55.85046875 -47.2559375 55.31421875 -48.1484375 54.76171875 C-52.64523992 55.98811941 -56.2610678 58.73273319 -60.0234375 61.38671875 C-60.70470703 61.86109375 -61.38597656 62.33546875 -62.08789062 62.82421875 C-63.60660251 63.8823487 -65.12377184 64.942695 -66.63964844 66.00488281 C-70.31249129 68.57687358 -73.9948685 71.13510486 -77.67626953 73.69482422 C-79.66988611 75.081218 -81.66304489 76.46827031 -83.65576172 77.85595703 C-89.75939818 82.10585922 -95.87732796 86.33372542 -102.01171875 90.5390625 C-107.90910585 94.58675996 -113.77898415 98.67365591 -119.6484375 102.76171875 C-126.13588334 107.28021216 -132.62767828 111.79141594 -139.1484375 116.26171875 C-147.69505656 122.12187085 -156.1986419 128.04377556 -164.703125 133.96484375 C-165.60385742 134.59068359 -166.50458984 135.21652344 -167.43261719 135.86132812 C-169.29493273 137.16448025 -171.1494007 138.47889842 -172.99707031 139.80273438 C-173.89522461 140.44404297 -174.79337891 141.08535156 -175.71875 141.74609375 C-176.52328613 142.32584961 -177.32782227 142.90560547 -178.15673828 143.50292969 C-180.1484375 144.76171875 -180.1484375 144.76171875 -182.1484375 144.76171875 C-181.66503906 146.25251953 -181.66503906 146.25251953 -181.171875 147.7734375 C-178.71690867 156.41796054 -178.78581199 167.26931795 -182.69140625 175.453125 C-188.61053689 184.83169393 -196.38707113 191.81164215 -207.1484375 194.76171875 C-219.78298573 195.83540566 -230.14418713 194.6942943 -240.33203125 186.5234375 C-247.48535337 179.58548422 -251.23964313 171.28207893 -251.39501953 161.43164062 C-251.40347037 155.7575036 -251.24213915 150.35370946 -250.1484375 144.76171875 C-251.16679687 144.04628906 -252.18515625 143.33085937 -253.234375 142.59375 C-260.86873214 137.2215936 -268.47303725 131.81382353 -276.0234375 126.32421875 C-283.00368929 121.25409573 -290.08890703 116.35843731 -297.22705078 111.51391602 C-303.54077858 107.21421895 -309.71990796 102.75375594 -315.8515625 98.19921875 C-316.39103516 97.80347656 -316.93050781 97.40773438 -317.48632812 97 C-318.66633781 96.12088585 -319.8302803 95.22002042 -320.98242188 94.3046875 C-323.01528713 92.6929156 -323.01528713 92.6929156 -326.1484375 90.76171875 C-329.34718211 91.21857501 -331.6021301 92.52108925 -334.3359375 94.19921875 C-343.05135245 99.14271641 -352.05499102 99.92241207 -361.7109375 97.51171875 C-365.16574468 96.52258308 -368.00410319 95.38974951 -371.0234375 93.44921875 C-373.9073001 91.44615593 -373.9073001 91.44615593 -376.375 92.28125 C-380.20322231 94.32476585 -383.33704981 96.97502558 -386.6484375 99.76171875 C-388.07174624 100.94021708 -389.49624242 102.11728264 -390.921875 103.29296875 C-391.63053711 103.87820313 -392.33919922 104.4634375 -393.06933594 105.06640625 C-397.0643915 108.3239997 -401.17454995 111.42827676 -405.28125 114.54296875 C-408.30219549 116.88070313 -411.22780458 119.30041386 -414.1484375 121.76171875 C-413.6534375 123.27765625 -413.6534375 123.27765625 -413.1484375 124.82421875 C-410.31591915 136.4005981 -411.52839453 147.70121825 -417.43359375 158.00390625 C-423.01749995 166.24755607 -431.82796573 171.29272776 -441.484375 173.23046875 C-452.47090852 174.75541347 -462.09556549 172.12547948 -471.1484375 165.76171875 C-478.20419454 159.42593692 -482.78433499 151.50379441 -483.38671875 142.00390625 C-483.68709909 130.35315421 -482.61726481 122.50037308 -474.7734375 113.38671875 C-466.98322229 105.27931237 -459.49729519 101.68033677 -448.2734375 101.32421875 C-439.15651043 101.52112862 -432.15588428 104.69980171 -424.1484375 108.76171875 C-423.30023438 108.09527344 -422.45203125 107.42882812 -421.578125 106.7421875 C-420.73858276 106.08259033 -420.73858276 106.08259033 -419.88208008 105.40966797 C-418.62659639 104.4231576 -417.37122818 103.43650025 -416.1159668 102.44970703 C-412.90936725 99.92923925 -409.70125362 97.41077798 -406.48828125 94.8984375 C-399.30055577 89.27351874 -392.18400625 83.5768317 -385.1484375 77.76171875 C-385.365 77.15585937 -385.5815625 76.55 -385.8046875 75.92578125 C-389.51417846 64.76296124 -388.7391843 55.65107947 -384.1484375 44.76171875 C-379.48583681 36.38677566 -371.42680465 30.0889789 -362.2109375 27.32421875 C-350.99071215 25.2591466 -340.58773383 26.66771551 -330.9609375 32.82421875 C-322.94521524 38.8234071 -317.80339619 46.86205677 -316.1484375 56.76171875 C-315.53126462 63.78952609 -316.5143584 69.95134098 -318.1484375 76.76171875 C-308.03709558 84.11320164 -297.87410671 91.37959938 -287.61645508 98.52563477 C-282.06348711 102.40128339 -276.56178084 106.34052766 -271.0859375 110.32421875 C-264.70910549 114.95564026 -258.27150259 119.48937241 -251.7734375 123.94921875 C-250.970271 124.50230713 -250.16710449 125.05539551 -249.33959961 125.62524414 C-248.58815674 126.13821045 -247.83671387 126.65117676 -247.0625 127.1796875 C-246.4020166 127.63110107 -245.7415332 128.08251465 -245.06103516 128.54760742 C-243.14386998 129.7646182 -241.19620468 130.78340439 -239.1484375 131.76171875 C-238.57996094 131.35179687 -238.01148438 130.941875 -237.42578125 130.51953125 C-236.65363281 129.98070312 -235.88148438 129.441875 -235.0859375 128.88671875 C-234.33183594 128.35304688 -233.57773437 127.819375 -232.80078125 127.26953125 C-224.6599238 122.64159167 -214.13461065 122.24166955 -205.1640625 124.51953125 C-201.35825092 125.98419207 -198.10527784 127.70948122 -194.8359375 130.13671875 C-193.9490625 130.67296875 -193.0621875 131.20921875 -192.1484375 131.76171875 C-187.6513849 130.53739029 -184.0355647 127.79053325 -180.2734375 125.13671875 C-179.59216797 124.66234375 -178.91089844 124.18796875 -178.20898438 123.69921875 C-176.69027249 122.6410888 -175.17310316 121.5807425 -173.65722656 120.51855469 C-169.98438371 117.94656392 -166.3020065 115.38833264 -162.62060547 112.82861328 C-160.62698889 111.4422195 -158.63383011 110.05516719 -156.64111328 108.66748047 C-150.53747682 104.41757828 -144.41954704 100.18971208 -138.28515625 95.984375 C-132.38776915 91.93667754 -126.51789085 87.84978159 -120.6484375 83.76171875 C-114.16099166 79.24322534 -107.66919672 74.73202156 -101.1484375 70.26171875 C-92.60181844 64.40156665 -84.0982331 58.47966194 -75.59375 52.55859375 C-74.69301758 51.93275391 -73.79228516 51.30691406 -72.86425781 50.66210938 C-71.00194227 49.35895725 -69.1474743 48.04453908 -67.29980469 46.72070312 C-66.40165039 46.07939453 -65.50349609 45.43808594 -64.578125 44.77734375 C-63.77358887 44.19758789 -62.96905273 43.61783203 -62.14013672 43.02050781 C-60.1484375 41.76171875 -60.1484375 41.76171875 -58.1484375 41.76171875 C-58.47070312 40.75625 -58.79296875 39.75078125 -59.125 38.71484375 C-61.97184718 28.68789527 -60.90576621 17.97996941 -56.1484375 8.76171875 C-51.07552318 -0.08889772 -42.88729057 -5.51624157 -33.1484375 -8.23828125 C-20.86273857 -11.01994893 -9.71536601 -7.68326754 0 0 Z M-38.4609375 10.94921875 C-43.00999821 15.70986368 -45.34203408 20.11276457 -45.6484375 26.76171875 C-45.36578632 32.70651131 -43.57916862 37.1697069 -39.5 41.51953125 C-34.30301909 46.21723888 -29.68222546 48.32532995 -22.62109375 48.13671875 C-16.36405366 47.18778376 -10.85406287 44.25137884 -7.0859375 39.13671875 C-3.62672529 33.11099425 -3.37781957 27.59337659 -4.1484375 20.76171875 C-6.40472459 14.94780055 -10.41080629 10.48850437 -16.1015625 7.859375 C-24.37963045 4.53281806 -31.11508782 6.09818594 -38.4609375 10.94921875 Z M-369.1484375 49.76171875 C-372.28752233 54.93197612 -373.92470241 59.66249445 -373.1484375 65.76171875 C-371.38776376 72.81795737 -367.99799022 76.43026653 -362.3984375 81.01171875 C-357.54624936 83.62443544 -353.1836265 84.36382128 -347.74609375 83.28515625 C-340.86684269 81.20192215 -336.83575148 78.37767565 -333.3359375 72.01171875 C-330.74795455 66.41807205 -330.05053399 62.53979847 -331.8125 56.4765625 C-334.38096616 49.78738324 -338.40102722 45.93127207 -344.5234375 42.38671875 C-353.75072019 40.18974668 -362.77950868 42.34659701 -369.1484375 49.76171875 Z M-462.94140625 122.703125 C-468.16109666 129.43540978 -469.10354845 135.29449919 -468.1484375 143.76171875 C-465.85749163 149.66494441 -461.85194 153.92837457 -456.18359375 156.734375 C-450.15064729 159.18360282 -445.22866264 159.0626091 -439.1484375 156.76171875 C-433.8949969 153.98580435 -430.12546236 150.46690191 -427.7734375 144.96484375 C-426.16962524 139.31140554 -426.33268605 133.90654022 -428.7109375 128.51171875 C-431.54578253 123.54571363 -435.60061577 120.27663978 -440.4609375 117.38671875 C-448.85341588 115.43497959 -456.87754507 116.13724481 -462.94140625 122.703125 Z M-232.5859375 146.82421875 C-236.7584532 152.74759936 -236.94643331 158.68735141 -236.1484375 165.76171875 C-233.80480184 171.80071354 -229.66890801 175.53208743 -224.2734375 178.94921875 C-218.41689792 181.18848388 -212.92933247 181.15115534 -207.1484375 178.76171875 C-201.99643321 175.89949415 -198.13031204 172.50558157 -195.76953125 167.0390625 C-194.22713671 161.38361586 -194.39864136 155.89271832 -196.3359375 150.38671875 C-199.86648495 145.2735121 -204.1787736 140.85614117 -210.1484375 138.76171875 C-219.52260352 137.37451033 -226.71182174 139.26581861 -232.5859375 146.82421875 Z " fill="#000000" transform="translate(492.1484375,293.23828125)"/>
<path d="M0 0 C1.17393311 0.29801514 1.17393311 0.29801514 2.37158203 0.60205078 C43.42486438 11.27510471 78.26579696 36.65680301 100.17578125 73.078125 C121.67647851 109.96979273 127.87182482 153.79673775 116.99926758 195.19824219 C105.52033165 236.20673144 78.39631127 271.11314294 41.375 292.1875 C26.97802898 300.10739218 11.16031155 305.94343099 -5 309 C-5.90919189 309.17587646 -6.81838379 309.35175293 -7.75512695 309.53295898 C-16.92883252 311.13741219 -25.90629198 311.35901486 -35.1875 311.3125 C-35.9613504 311.31034485 -36.73520081 311.3081897 -37.53250122 311.30596924 C-48.92143188 311.25506209 -59.93683115 310.90339706 -71 308 C-72.17393311 307.70198486 -72.17393311 307.70198486 -73.37158203 307.39794922 C-113.96416726 296.84466757 -147.37819078 272.27602049 -170 237 C-170.37398926 236.41879395 -170.74797852 235.83758789 -171.13330078 235.23876953 C-193.01463325 200.65475306 -198.01009775 157.20969828 -189.49609375 117.65917969 C-180.19404246 77.22970863 -154.1168699 41.79746199 -119.08886719 19.79980469 C-104.09494082 10.66158383 -88.02405174 4.22920809 -71 0 C-69.09927734 -0.48146484 -69.09927734 -0.48146484 -67.16015625 -0.97265625 C-46.5015698 -5.54532795 -20.4633951 -5.37037462 0 0 Z M-136 53 C-136.76699219 53.69222656 -137.53398437 54.38445312 -138.32421875 55.09765625 C-162.1679312 77.31468814 -176.59387168 112.37339305 -178.1262207 144.65942383 C-179.10201244 180.20612268 -170.07490144 216.77077621 -146 244 C-145.27941406 244.82886719 -144.55882812 245.65773438 -143.81640625 246.51171875 C-141.57974955 249.04297841 -139.30146091 251.52761885 -137 254 C-136.32582031 254.73992187 -135.65164062 255.47984375 -134.95703125 256.2421875 C-109.35928213 283.2326847 -72.39802139 295.62462729 -36 297 C1.40011994 297.68844068 37.99884037 281.1938659 64.74511719 255.61083984 C91.92395056 228.77593071 107.01479702 192.12148177 107.375 154 C106.9960971 113.89944312 90.60199 79.35655757 63.125 50.8125 C7.22636989 -3.50657698 -81.09864206 0.14075266 -136 53 Z " fill="#000000" transform="translate(312,27)"/>
<path d="M0 0 C1.23363281 1.00353516 1.23363281 1.00353516 2.4921875 2.02734375 C24.23191629 20.41960565 38.36023331 48.96226647 41.71875 77.08984375 C44.02692256 109.17985393 37.48867135 140.48297342 17 166 C15.78957031 167.53140625 15.78957031 167.53140625 14.5546875 169.09375 C9.82365571 174.98979154 4.99781526 180.38158007 -1 185 C-1.99386719 185.76828125 -2.98773438 186.5365625 -4.01171875 187.328125 C-21.34381008 200.37465614 -41.20980442 209.7958701 -63 212 C-64.24394531 212.13277344 -65.48789062 212.26554688 -66.76953125 212.40234375 C-90.03201555 214.51131286 -112.09750182 210.17900652 -133 200 C-134.49853516 199.27296875 -134.49853516 199.27296875 -136.02734375 198.53125 C-163.06846537 184.56453008 -183.58949123 159.62962041 -193.375 131 C-200.8493069 107.48242098 -201.45790282 82.86430315 -195 59 C-194.82339844 58.3296875 -194.64679688 57.659375 -194.46484375 56.96875 C-190.08431863 40.87437624 -181.75700941 26.62726677 -171 14 C-170.35442139 13.22897949 -170.35442139 13.22897949 -169.69580078 12.44238281 C-149.36746564 -11.63203412 -119.77225199 -25.64345832 -88.63818359 -28.55053711 C-56.01851837 -31.0460817 -25.06876937 -20.82379109 0 0 Z M-156.59765625 20.2578125 C-176.42979947 42.89547842 -185.40667613 70.20150606 -184.19091797 100.16162109 C-182.32680864 127.87534881 -168.64396772 153.59674764 -148 172 C-126.29495433 190.37342012 -98.74735009 199.67211257 -70.33227539 197.73120117 C-41.68405262 195.11229638 -15.8059068 181.39988075 2.9140625 159.6875 C20.8076494 136.63359029 30.12496171 108.66233356 26.6953125 79.40039062 C22.43303365 50.76048628 8.7514779 26.12866765 -14 8 C-58.53855214 -24.72979197 -118.36521411 -19.52375614 -156.59765625 20.2578125 Z " fill="#000000" transform="translate(355,89)"/>
<path d="M0 0 C3.31041646 0.48276907 4.6909649 1.04294508 7 3.4375 C8.11962171 6.69458134 8.10323455 9.76579807 8.0625 13.1875 C8.05347656 14.17234375 8.04445313 15.1571875 8.03515625 16.171875 C8.02355469 16.91953125 8.01195312 17.6671875 8 18.4375 C8.9075 18.47875 9.815 18.52 10.75 18.5625 C18.96411516 19.76456563 27.25558255 24.50941518 32.78125 30.64453125 C34.80939475 33.6282442 35.19809295 35.8718269 35 39.4375 C33.5 42.375 33.5 42.375 31 44.4375 C27.6875 45.125 27.6875 45.125 24 44.4375 C22.18877261 43.11945019 20.62977935 41.63727641 18.99609375 40.10546875 C12.59794391 34.75906957 5.18305084 32.55362866 -3.0703125 32.9609375 C-9.63210723 34.02832278 -15.1331343 36.62819543 -19.125 42.0625 C-21.74912795 46.99324575 -21.9000085 51.99578192 -21 57.4375 C-17.91137834 63.72913672 -13.19986123 67.45033313 -6.62109375 69.80078125 C-3.86691262 70.46982972 -1.15114854 70.77815745 1.66699219 71.04931641 C12.9203599 72.13350162 23.24083989 75.76549753 31 84.4375 C37.82109906 93.52013993 38.89867084 102.22162109 38 113.4375 C36.3133374 121.68969487 31.30574904 128.02591921 25 133.4375 C19.97815734 136.54385938 14.80933943 139.20939736 9 140.4375 C8.97421875 141.25734375 8.9484375 142.0771875 8.921875 142.921875 C8.86515625 143.99953125 8.8084375 145.0771875 8.75 146.1875 C8.70359375 147.25484375 8.6571875 148.3221875 8.609375 149.421875 C7.88449524 153.0091005 6.87002218 154.22857982 4 156.4375 C0.09211332 157.18581873 -1.46217415 156.78409888 -4.8125 154.625 C-7.92099282 150.09548189 -7.89621797 145.82473098 -8 140.4375 C-8.68964844 140.22996094 -9.37929688 140.02242187 -10.08984375 139.80859375 C-19.07172741 136.86391584 -25.52681237 132.27576979 -32 125.4375 C-33.22766019 122.71910958 -33.07883335 121.69219236 -32.1875 118.8125 C-31 116.4375 -31 116.4375 -29 114.4375 C-24.48649298 113.6315166 -22.29014528 113.57609799 -18.42578125 116.15625 C-16.71809996 117.56527851 -15.03895158 119.00981828 -13.39453125 120.4921875 C-7.48951602 125.28941032 -1.29572299 125.016978 6 124.4375 C12.30506022 123.3618056 15.63462623 120.2072434 19.65234375 115.375 C22.63898632 111.08116024 22.4654769 106.4629265 22 101.4375 C19.76031307 94.96729331 15.53465212 91.70482606 9.625 88.75 C6.25642517 87.57357024 2.98180317 87.19942859 -0.56298828 86.87939453 C-11.86650205 85.82746914 -21.51425006 82.56496857 -29.625 74.125 C-36.44425096 65.40338289 -38.3583039 56.29964926 -37.31787109 45.38427734 C-36.10464511 37.95396708 -31.63956965 30.99861727 -26.12890625 25.96875 C-20.7729576 22.11639794 -14.50178743 18.77199575 -8 17.4375 C-7.97421875 16.54546875 -7.9484375 15.6534375 -7.921875 14.734375 C-7.86515625 13.56390625 -7.8084375 12.3934375 -7.75 11.1875 C-7.70359375 10.02734375 -7.6571875 8.8671875 -7.609375 7.671875 C-6.70990519 2.89776602 -4.84374451 0.70637941 0 0 Z " fill="#000000" transform="translate(276,102.5625)"/>
</svg>
