<?xml version="1.0" encoding="UTF-8"?>
<svg version="1.1" xmlns="http://www.w3.org/2000/svg" width="1200" height="1000">
<path d="M0 0 C396 0 792 0 1200 0 C1200 330 1200 660 1200 1000 C804 1000 408 1000 0 1000 C0 670 0 340 0 0 Z " fill="#FEFEFE" transform="translate(0,0)"/>
<path d="M0 0 C21.12 0 42.24 0 64 0 C64 21.12 64 42.24 64 64 C211.84 64 359.68 64 512 64 C512 85.12 512 106.24 512 128 C490.88 128 469.76 128 448 128 C448 148.79 448 169.58 448 191 C469.12 191 490.24 191 512 191 C512.5335139 229.81313588 511.43656377 258.59556138 485 289 C484.22462891 289.92039062 484.22462891 289.92039062 483.43359375 290.859375 C474.33214486 300.84007614 461.40008451 308.0431745 449 313 C448.05511719 313.38800781 447.11023438 313.77601563 446.13671875 314.17578125 C435.13553422 318.45488414 424.50550637 319.29558082 412.76998901 319.26742554 C411.3578022 319.27116925 409.94561746 319.27577362 408.53343594 319.28115618 C404.68034528 319.29331271 400.82734192 319.29313446 396.97423649 319.29076743 C392.8077265 319.29035739 388.6412438 319.30141625 384.4747467 319.31088257 C376.32171922 319.32745346 368.16872066 319.33299035 360.01567774 319.33410732 C353.38373995 319.33505971 346.75181165 319.33917953 340.11987686 319.34550858 C321.2902057 319.36311078 302.46055728 319.37234911 283.63087784 319.37084763 C282.11009721 319.37072776 282.11009721 319.37072776 280.55859375 319.37060547 C279.54349268 319.37052371 278.5283916 319.37044195 277.48252989 319.37035771 C261.04059786 319.36954523 244.59875752 319.38867587 228.15685199 319.4168822 C211.24803959 319.4456591 194.33927184 319.45941984 177.43043435 319.45769465 C167.94804835 319.45703238 158.46575847 319.46245297 148.98339462 319.48405075 C140.90843374 319.50232597 132.83361255 319.50655814 124.75863986 319.4930319 C120.64506827 319.48653392 116.5317642 319.48626911 112.41821861 319.5037384 C79.49774247 319.6345814 52.169771 313.76893337 27.97265625 290.10546875 C13.19736747 275.03722573 4.72505934 256.56333431 1 236 C0.82555642 235.13914984 0.65111284 234.27829967 0.47138309 233.39136314 C-0.12698263 229.08642415 -0.13466415 224.88742703 -0.12025452 220.54678345 C-0.12110894 219.60243986 -0.12196337 218.65809626 -0.12284368 217.6851362 C-0.12448896 214.52526022 -0.11899268 211.36543749 -0.11352539 208.20556641 C-0.11324329 205.93870037 -0.11340171 203.67183424 -0.1139679 201.40496826 C-0.11425497 195.25261921 -0.10837275 189.10028964 -0.10139394 182.94794512 C-0.09514544 176.51773712 -0.09455541 170.08752868 -0.09336853 163.65731812 C-0.09061292 152.86512881 -0.08436542 142.0729475 -0.07543945 131.28076172 C-0.06625642 120.16617875 -0.05917994 109.05159772 -0.05493164 97.93701172 C-0.05453756 96.90886276 -0.05453756 96.90886276 -0.05413551 95.85994311 C-0.05283044 92.42123054 -0.05156674 88.98251795 -0.05032361 85.54380536 C-0.03996173 57.02919759 -0.0215292 28.51460165 0 0 Z " fill="#F98413" transform="translate(344,437)"/>
<path d="M0 0 C1.19996729 -0.00322445 2.39993457 -0.00644889 3.6362645 -0.00977105 C5.60068685 -0.00744815 5.60068685 -0.00744815 7.6047945 -0.00507832 C9.01694036 -0.00694731 10.42908569 -0.00924837 11.84123021 -0.01194364 C15.71718311 -0.01805724 19.59311442 -0.01792856 23.46907103 -0.01674926 C27.65122251 -0.01654514 31.83336707 -0.02206515 36.01551533 -0.02680683 C44.20798557 -0.03511186 52.40044861 -0.03786162 60.59292271 -0.03841921 C67.25363265 -0.0388945 73.91434021 -0.04094991 80.5750494 -0.04411983 C99.46465166 -0.05292651 118.35424825 -0.05753927 137.24385258 -0.05678936 C138.26210968 -0.0567494 139.28036679 -0.05670945 140.32948017 -0.05666828 C141.34898261 -0.0566274 142.36848506 -0.05658652 143.41888151 -0.0565444 C159.93628701 -0.05613807 176.45366969 -0.0657043 192.97106858 -0.07980665 C209.93618945 -0.09417678 226.90129919 -0.10107646 243.86642629 -0.10021287 C253.38890757 -0.09988109 262.91136495 -0.1026198 272.43384075 -0.11339092 C280.54273237 -0.12250436 288.65158924 -0.12466428 296.76048376 -0.1178815 C300.89548161 -0.11462038 305.03041284 -0.11454482 309.16540432 -0.12323475 C312.95606416 -0.13111887 316.74660476 -0.12964887 320.53726176 -0.12095062 C322.54697181 -0.11869859 324.55668561 -0.1262293 326.56638116 -0.13419026 C337.33719971 -0.09335551 346.94845359 1.31767349 356.93568134 5.37863445 C358.10103413 5.84595989 358.10103413 5.84595989 359.28992939 6.32272625 C385.77992024 17.14763141 404.82970655 36.84950648 415.93568134 63.12863445 C417.12602622 66.43088153 418.06974138 69.73047611 418.93568134 73.12863445 C419.30693134 74.11863445 419.67818134 75.10863445 420.06068134 76.12863445 C436.86159278 133.73175937 421.93568134 196.12537933 421.93568134 256.12863445 C274.09568134 256.12863445 126.25568134 256.12863445 -26.06431866 256.12863445 C-26.06431866 235.00863445 -26.06431866 213.88863445 -26.06431866 192.12863445 C-47.18431866 192.12863445 -68.30431866 192.12863445 -90.06431866 192.12863445 C-90.10442747 166.8244323 -90.10442747 166.8244323 -90.11314678 156.00363445 C-90.11911485 148.63220782 -90.12616065 141.26079366 -90.13975811 133.88937664 C-90.15065659 127.94363424 -90.15661022 121.99790521 -90.1591959 116.05215359 C-90.16103762 113.78847194 -90.16463399 111.52479099 -90.17004871 109.26111507 C-90.17735158 106.08038301 -90.17830571 102.89970563 -90.17784405 99.71896648 C-90.18143932 98.79179317 -90.1850346 97.86461987 -90.18873882 96.9093504 C-90.1533898 74.27005218 -82.37560632 53.69621892 -68.06431866 36.12863445 C-67.40045147 35.30105633 -66.73658428 34.4734782 -66.05259991 33.62082195 C-50.22255841 14.95249206 -24.94814704 0.01700097 0 0 Z " fill="#0B47C5" transform="translate(434.0643186569214,244.87136554718018)"/>
<path d="M0 0 C84.48 0 168.96 0 256 0 C256 21.12 256 42.24 256 64 C234.88 64 213.76 64 192 64 C192 84.79 192 105.58 192 127 C213.12 127 234.24 127 256 127 C256 127.33 256 127.66 256 128 C213.76 128 171.52 128 128 128 C128 148.79 128 169.58 128 191 C85.76 191 43.52 191 0 191 C0 170.21 0 149.42 0 128 C-21.12 128 -42.24 128 -64 128 C-64 148.79 -64 169.58 -64 191 C-85.12 191 -106.24 191 -128 191 C-128 149.09 -128 107.18 -128 64 C-85.76 64 -43.52 64 0 64 C0 42.88 0 21.76 0 0 Z " fill="#FAA90E" transform="translate(600,501)"/>
<path d="M0 0 C1.23019226 -0.00085442 2.46038451 -0.00170885 3.72785532 -0.00258917 C7.13479287 -0.00395016 10.54167282 -0.00082991 13.94860339 0.0041889 C17.62542388 0.00851111 21.30224262 0.00704571 24.97906494 0.00628662 C31.34687089 0.00576251 37.71466658 0.00889754 44.08246994 0.01452446 C53.2892215 0.02265472 62.4959681 0.02525625 71.70272286 0.02651245 C86.64041058 0.02870057 101.57809284 0.03535415 116.51577759 0.04481506 C131.02554293 0.05399539 145.5353068 0.06107319 160.04507446 0.06532288 C160.9395968 0.0655856 161.83411913 0.06584832 162.7557482 0.06611901 C167.24334576 0.06742405 171.73094333 0.06868776 176.21854091 0.06993091 C213.44213637 0.08029604 250.66572173 0.09873033 287.88931274 0.12025452 C287.88931274 42.03025452 287.88931274 83.94025452 287.88931274 127.12025452 C226.51602369 127.75955961 226.51602369 127.75955961 205.38931274 127.89759827 C204.60458588 127.9027793 203.81985901 127.90796033 203.01135254 127.91329837 C144.0471153 128.29804565 85.0797384 128.20087081 26.11451721 128.18341303 C23.88291423 128.18275262 21.65131124 128.18210983 19.41970825 128.18146896 C-19.09042967 128.1702891 -57.60055883 128.14980285 -96.11068726 128.12025452 C-96.13559955 122.74916412 -96.15364686 117.37810813 -96.1656189 112.00697327 C-96.17061542 110.18372511 -96.1774149 108.36048089 -96.18612671 106.5372467 C-96.19839912 103.90084352 -96.20396251 101.26449378 -96.20834351 98.62806702 C-96.21350479 97.82660248 -96.21866608 97.02513794 -96.22398376 96.1993866 C-96.22614396 73.88973346 -88.17894942 53.38951705 -74.11068726 36.12025452 C-73.44682007 35.29267639 -72.78295288 34.46509827 -72.09896851 33.61244202 C-54.00178727 12.27047968 -27.86598601 -0.07059373 0 0 Z " fill="#1B0987" transform="translate(440.1106872558594,244.87974548339844)"/>
<path d="M0 0 C21.12 0 42.24 0 64 0 C64 21.12 64 42.24 64 64 C127.36 64 190.72 64 256 64 C256 85.12 256 106.24 256 128 C213.76 128 171.52 128 128 128 C128 169.91 128 211.82 128 255 C106.88 255 85.76 255 64 255 C64 234.21 64 213.42 64 192 C42.88 192 21.76 192 0 192 C0 128.64 0 65.28 0 0 Z " fill="#FC950C" transform="translate(344,437)"/>
<path d="M0 0 C42.24 0 84.48 0 128 0 C128 21.12 128 42.24 128 64 C191.36 64 254.72 64 320 64 C320 84.79 320 105.58 320 127 C383.36 127 446.72 127 512 127 C512 127.33 512 127.66 512 128 C364.16 128 216.32 128 64 128 C64 106.88 64 85.76 64 64 C42.88 64 21.76 64 0 64 C0 42.88 0 21.76 0 0 Z " fill="#37F6BE" transform="translate(344,373)"/>
<path d="M0 0 C42.24 0 84.48 0 128 0 C128 20.79 128 41.58 128 63 C149.12 63 170.24 63 192 63 C192 42.21 192 21.42 192 0 C213.12 0 234.24 0 256 0 C256 20.79 256 41.58 256 63 C298.24 63 340.48 63 384 63 C384 84.12 384 105.24 384 127 C320.64 127 257.28 127 192 127 C192 106.21 192 85.42 192 64 C128.64 64 65.28 64 0 64 C0 42.88 0 21.76 0 0 Z " fill="#1973EC" transform="translate(472,373)"/>
<path d="M0 0 C84.48 0 168.96 0 256 0 C256 21.12 256 42.24 256 64 C213.76 64 171.52 64 128 64 C128 84.79 128 105.58 128 127 C106.88 127 85.76 127 64 127 C64 106.21 64 85.42 64 64 C42.88 64 21.76 64 0 64 C0 42.88 0 21.76 0 0 Z " fill="#BAFC33" transform="translate(600,501)"/>
<path d="M0 0 C-2.75295009 1.83530006 -4.77691826 2.67166014 -7.875 3.6875 C-31.82625303 12.31121003 -50.99177867 30.20793723 -62.01171875 53.0625 C-69.17320968 68.58488006 -71.15219045 82.711696 -71.14044189 99.73684692 C-71.14303067 101.10763376 -71.14604524 102.47841984 -71.1494453 103.8492049 C-71.15745825 107.5924495 -71.15930165 111.33567488 -71.16004276 115.07892704 C-71.1619033 119.12545338 -71.16945551 123.17196996 -71.17617798 127.2184906 C-71.18972046 136.0554664 -71.19577943 144.89243764 -71.20018864 153.72942209 C-71.20295758 159.25373715 -71.20719606 164.77805047 -71.21169281 170.30236435 C-71.22387937 185.61682335 -71.23418039 200.93128096 -71.2375679 216.24574471 C-71.23778747 217.22458305 -71.23800703 218.20342139 -71.23823325 219.21192151 C-71.23845153 220.19301084 -71.23866981 221.17410017 -71.2388947 222.18491948 C-71.23933816 224.17275882 -71.23978472 226.16059816 -71.24023438 228.1484375 C-71.2404558 229.13446024 -71.24067723 230.12048297 -71.24090537 231.13638519 C-71.24485191 247.10698163 -71.26230427 263.07753241 -71.2855939 279.04811122 C-71.30934694 295.46984708 -71.32177152 311.89156006 -71.32293582 328.31331336 C-71.32385027 337.52347738 -71.32954474 346.73358186 -71.34775543 355.9437294 C-71.36320977 363.78705828 -71.36824551 371.63030919 -71.36001733 379.47365041 C-71.35612984 383.46958664 -71.35694661 387.46536612 -71.37107468 391.46128273 C-71.48640813 426.08492157 -66.16101134 454.2177891 -41.67578125 480.375 C-31.32086159 490.53340294 -16.82316646 499.99197348 -2.52928835 503.38771856 C-0.81678775 503.80227483 0.88600805 504.25876394 2.57731587 504.75272048 C10.60411672 507.01447273 18.06911398 507.42402507 26.37718201 507.38095093 C27.79308384 507.38441508 29.20898298 507.3891847 30.62487656 507.39513266 C34.48348092 507.40756855 38.34186052 507.4015064 42.20046532 507.39217401 C46.3743811 507.38535315 50.54825971 507.39587976 54.72216797 507.40411377 C62.88643835 507.41742139 71.05062578 507.41458654 79.21489935 507.40587585 C85.85352462 507.39908752 92.49212672 507.39818754 99.13075447 507.4014473 C100.0773241 507.401907 101.02389373 507.40236669 101.99914728 507.40284032 C103.92238538 507.40379955 105.84562346 507.40477219 107.76886154 507.4057581 C125.78395949 507.41430341 143.79901157 507.40449159 161.814102 507.388357 C177.25377652 507.37495678 192.69338335 507.37728114 208.13305664 507.39111328 C226.08424574 507.40718803 244.03539467 507.41347723 261.98658997 507.40427649 C263.90286989 507.4033209 265.81914983 507.40237778 267.73542976 507.4014473 C268.67815048 507.40098447 269.62087119 507.40052164 270.59215919 507.40004479 C277.21814627 507.39746042 283.84410775 507.40181399 290.47009087 507.40888596 C298.55171929 507.41732232 306.63326036 507.41497612 314.71487885 507.39904372 C318.83398862 507.39118935 322.95295303 507.3880207 327.07206154 507.39799118 C330.85031099 507.40699788 334.62828177 507.4019081 338.40650631 507.38605852 C340.40450789 507.38117419 342.40252916 507.39085352 344.40050977 507.40123022 C355.48065373 507.3297858 365.80859838 505.2058533 376.125 501.1875 C376.79893799 500.92743164 377.47287598 500.66736328 378.16723633 500.39941406 C403.60332086 490.34265285 421.22572794 471.16337662 432.6875 446.5625 C440.88093294 425.30824822 439.69217358 402.39437212 440 380 C418.88 380 397.76 380 376 380 C376 359.21 376 338.42 376 317 C397.12 317 418.24 317 440 317 C439.89444833 287.74216235 439.78545038 258.48434449 439.66888306 229.22654886 C439.65511409 225.7695223 439.6413869 222.31249558 439.62768555 218.85546875 C439.62359309 217.82315539 439.62359309 217.82315539 439.61941796 216.76998721 C439.57538701 205.6381601 439.53473821 194.5063231 439.49534739 183.37447871 C439.45482944 171.94546953 439.4105866 160.51648031 439.36312145 149.08749759 C439.33659023 142.67085725 439.31173908 136.25422039 439.29092598 129.83755875 C439.27127288 123.79495395 439.24710369 117.75238385 439.21950912 111.70981026 C439.21018446 109.49513825 439.20249295 107.28045866 439.19658089 105.06577492 C439.18824128 102.03454509 439.17394363 99.00339774 439.15821838 95.97219849 C439.15675122 94.66767752 439.15675122 94.66767752 439.15525442 93.3368026 C438.9739498 66.02823261 427.16654721 42.23075675 408 23 C401.64359731 17.14002265 394.64270564 12.87857276 387.1015625 8.76171875 C384.55210265 7.31359987 382.28310738 5.82761058 380 4 C395.61339831 4.26919652 409.35665096 15.45318358 420.1875 25.75 C435.61820792 41.79892539 446.10560321 63.96957379 446.13142776 86.4545126 C446.13526891 87.71608856 446.13911005 88.97766452 446.1430676 90.27747005 C446.1422875 91.66467064 446.14140874 93.05187118 446.14044189 94.43907166 C446.1430278 95.92276367 446.14604159 97.40645499 446.1494453 98.89014536 C446.1574923 102.95941175 446.15930359 107.02866048 446.16004276 111.09793389 C446.16189738 115.49011907 446.16944685 119.88229518 446.17617798 124.2744751 C446.18974636 133.87606708 446.19578394 143.47765489 446.20018864 153.07925487 C446.20295408 159.07911374 446.20719203 165.07897102 446.21169281 171.07882881 C446.22388445 187.70308169 446.23418337 204.32733329 446.2375679 220.95159054 C446.23778747 222.01512736 446.23800703 223.07866418 446.23823325 224.17442939 C446.23845153 225.24046157 446.23866981 226.30649374 446.2388947 227.40482992 C446.23933816 229.56488987 446.23978472 231.72494982 446.24023438 233.88500977 C446.2404558 234.95646622 446.24067723 236.02792268 446.24090537 237.13184751 C446.2448505 254.48000315 446.2622963 271.82811671 446.2855939 289.17625611 C446.30934101 307.00363228 446.32177131 324.83098738 446.32293582 342.65837961 C446.32385079 352.66112565 446.32955803 362.66381688 446.34775543 372.66654778 C446.36320194 381.18700697 446.3682502 389.70739443 446.36001733 398.22786497 C446.35612664 402.57009622 446.35696249 406.9121832 446.37107468 411.25439644 C446.38390935 415.24023227 446.38253331 419.22581686 446.37048396 423.21165282 C446.36854335 424.64308058 446.37152839 426.07452673 446.38032833 427.50592875 C446.52899096 453.3525733 438.32363766 476.4522748 420.44970703 495.54589844 C409.15143329 506.8784209 395.42554018 514.49805746 380.3125 519.4375 C379.56524658 519.6847583 378.81799316 519.9320166 378.0480957 520.18676758 C367.1241403 523.51320397 355.6014599 523.14769878 344.28787231 523.13371277 C342.83556302 523.13558499 341.38325424 523.13788732 339.93094623 523.14057809 C335.9717272 523.14665145 332.01252943 523.14656782 328.05330682 523.14538372 C323.77099809 523.14517858 319.48869598 523.15070912 315.20639038 523.15544128 C306.82924929 523.16372328 298.45211523 523.16649499 290.07497038 523.16705366 C283.2628279 523.16752988 276.45068774 523.16958989 269.63854599 523.17275429 C250.30155188 523.18155328 230.96456331 523.18617471 211.62756719 523.18542381 C210.58660771 523.18538386 209.54564823 523.1853439 208.47314453 523.18530273 C207.4309065 523.18526185 206.38866846 523.18522097 205.31484745 523.18517885 C188.42155853 523.18477234 171.5282919 523.19434516 154.63500942 523.2084411 C137.26626974 523.22281884 119.89754091 523.22971055 102.52879512 523.22884732 C92.78665466 523.22851589 83.04453758 523.23123946 73.3024025 523.24202538 C65.00928942 523.25114867 56.71621034 523.25329053 48.42309441 523.24651595 C44.19654668 523.2432603 39.9700641 523.24315945 35.74352264 523.2518692 C31.86597635 523.25977727 27.98854639 523.25825925 24.11100279 523.24958507 C22.71677385 523.24805954 21.32253603 523.24983004 19.92831756 523.25544515 C7.80917888 523.30097746 -4.26147541 522.5775679 -15.6875 518.25 C-16.40244629 517.98687012 -17.11739258 517.72374023 -17.85400391 517.45263672 C-41.62008563 508.45528582 -60.10263762 490.78118005 -70.67529297 467.74511719 C-75.34720248 456.96720816 -78.11784041 445.34074137 -78.13142776 433.57672215 C-78.13526891 432.32211298 -78.13911005 431.06750381 -78.1430676 429.77487618 C-78.1422875 428.39553609 -78.14140874 427.01619605 -78.14044189 425.63685608 C-78.14302783 424.16141366 -78.14604163 422.68597194 -78.1494453 421.21053118 C-78.15749196 417.16406791 -78.15930357 413.11762241 -78.16004276 409.07115209 C-78.16189744 404.70350698 -78.16944694 400.33587101 -78.17617798 395.9682312 C-78.18974612 386.42035652 -78.1957839 376.87248604 -78.20018864 367.32460332 C-78.20295412 361.35824638 -78.20719208 355.39189105 -78.21169281 349.4255352 C-78.22388443 332.89392861 -78.23418335 316.36232331 -78.2375679 299.83071232 C-78.23778747 298.77311072 -78.23800703 297.71550912 -78.23823325 296.62585899 C-78.23845153 295.56577671 -78.23866981 294.50569443 -78.2388947 293.41348845 C-78.23933816 291.26548644 -78.23978472 289.11748443 -78.24023438 286.96948242 C-78.2404558 285.9040072 -78.24067723 284.83853197 -78.24090537 283.74076962 C-78.24485047 266.48961176 -78.26229618 249.23849622 -78.2855939 231.9873547 C-78.30934144 214.25941961 -78.32177133 196.53150572 -78.32293582 178.80355448 C-78.32385077 168.85669966 -78.32955741 158.90989996 -78.34775543 148.96306038 C-78.36320252 140.49017821 -78.36824986 132.01736819 -78.36001733 123.54447461 C-78.35612684 119.22654625 -78.35696147 114.90876298 -78.37107468 110.59085274 C-78.38391061 106.62722151 -78.38253225 102.66384293 -78.37048396 98.70021158 C-78.36854356 97.27685913 -78.37152738 95.85348817 -78.38032833 94.4301616 C-78.45808479 80.98900109 -76.90081147 67.69612705 -71.375 55.3125 C-71.02800049 54.51706787 -70.68100098 53.72163574 -70.32348633 52.90209961 C-60.59167785 31.3756088 -42.90812607 13.94913756 -21 5 C-6.22821078 -0.40801381 -6.22821078 -0.40801381 0 0 Z " fill="#D7D7D8" transform="translate(416,248)"/>
<path d="M0 0 C0.85891846 0.00100708 1.71783691 0.00201416 2.6027832 0.00305176 C5.78989002 0.00825623 8.9769777 0.02221738 12.1640625 0.03515625 C19.3003125 0.05578125 26.4365625 0.07640625 33.7890625 0.09765625 C33.7890625 21.21765625 33.7890625 42.33765625 33.7890625 64.09765625 C54.9090625 64.09765625 76.0290625 64.09765625 97.7890625 64.09765625 C97.7890625 85.21765625 97.7890625 106.33765625 97.7890625 128.09765625 C34.4290625 128.09765625 -28.9309375 128.09765625 -94.2109375 128.09765625 C-94.2109375 63.10339239 -94.2109375 63.10339239 -72.2109375 36.09765625 C-71.54707031 35.27007812 -70.88320313 34.4425 -70.19921875 33.58984375 C-52.83073806 13.10723621 -26.94911454 -0.14996659 0 0 Z " fill="#1534E1" transform="translate(438.2109375,244.90234375)"/>
<path d="M0 0 C63.36 0 126.72 0 192 0 C192 20.79 192 41.58 192 63 C128.64 63 65.28 63 0 63 C0 42.21 0 21.42 0 0 Z " fill="#0005C3" transform="translate(536,245)"/>
<path d="M0 0 C19.14 0 38.28 0 58 0 C58.99 2.97 59.98 5.94 61 9 C61.37125 9.969375 61.7425 10.93875 62.125 11.9375 C64.29997856 19.54992497 64.14428473 27.63717196 64.11352539 35.49853516 C64.11364593 36.51078344 64.11376646 37.52303173 64.11389065 38.56595421 C64.11315079 41.80701352 64.10556526 45.04801362 64.09765625 48.2890625 C64.09618395 50.30428032 64.09516502 52.31949852 64.09460449 54.3347168 C64.08938494 61.76481707 64.07542369 69.19490913 64.0625 76.625 C64.041875 93.24875 64.02125 109.8725 64 127 C21.76 127 -20.48 127 -64 127 C-64 106.21 -64 85.42 -64 64 C-42.88 64 -21.76 64 0 64 C0 42.88 0 21.76 0 0 Z " fill="#0E5CFE" transform="translate(792,309)"/>
<path d="M0 0 C21.12 0 42.24 0 64 0 C64 20.79 64 41.58 64 63 C85.12 63 106.24 63 128 63 C128 84.12 128 105.24 128 127 C121.090625 127.0825 114.18125 127.165 107.0625 127.25 C103.84898804 127.30462402 103.84898804 127.30462402 100.57055664 127.36035156 C72.48348745 127.63838608 48.11417785 117.80278344 27.97265625 98.10546875 C13.19736747 83.03722573 4.72505934 64.56333431 1 44 C0.82509033 43.12770752 0.65018066 42.25541504 0.4699707 41.35668945 C-0.10607923 37.24234632 -0.1245261 33.24967476 -0.09765625 29.1015625 C-0.09614563 27.99010864 -0.09614563 27.99010864 -0.09460449 26.85620117 C-0.08940853 24.1124515 -0.0754475 21.36872404 -0.0625 18.625 C-0.041875 12.47875 -0.02125 6.3325 0 0 Z " fill="#FD4500" transform="translate(344,629)"/>
<path d="M0 0 C21.12 0 42.24 0 64 0 C64 41.91 64 83.82 64 127 C42.88 127 21.76 127 0 127 C0 106.21 0 85.42 0 64 C-21.12 64 -42.24 64 -64 64 C-64 63.67 -64 63.34 -64 63 C-42.88 63 -21.76 63 0 63 C0 42.21 0 21.42 0 0 Z " fill="#FD7300" transform="translate(408,565)"/>
<path d="M0 0 C42.24 0 84.48 0 128 0 C128 21.12 128 42.24 128 64 C85.76 64 43.52 64 0 64 C0 42.88 0 21.76 0 0 Z " fill="#46BAFB" transform="translate(344,373)"/>
<path d="M0 0 C21.12 0 42.24 0 64 0 C64 41.91 64 83.82 64 127 C42.88 127 21.76 127 0 127 C0 85.09 0 43.18 0 0 Z " fill="#FEFE80" transform="translate(472,565)"/>
<path d="M0 0 C42.24 0 84.48 0 128 0 C128 20.79 128 41.58 128 63 C85.76 63 43.52 63 0 63 C0 42.21 0 21.42 0 0 Z " fill="#FED000" transform="translate(536,565)"/>
<path d="M0 0 C42.24 0 84.48 0 128 0 C128 20.79 128 41.58 128 63 C85.76 63 43.52 63 0 63 C0 42.21 0 21.42 0 0 Z " fill="#F9BF04" transform="translate(408,501)"/>
<path d="M0 0 C42.24 0 84.48 0 128 0 C128 20.79 128 41.58 128 63 C85.76 63 43.52 63 0 63 C0 42.21 0 21.42 0 0 Z " fill="#22A2FE" transform="translate(664,437)"/>
<path d="M0 0 C42.24 0 84.48 0 128 0 C128 20.79 128 41.58 128 63 C85.76 63 43.52 63 0 63 C0 42.21 0 21.42 0 0 Z " fill="#0501B5" transform="translate(600,309)"/>
<path d="M0 0 C0.85891846 0.00100708 1.71783691 0.00201416 2.6027832 0.00305176 C5.78989002 0.00825623 8.9769777 0.02221738 12.1640625 0.03515625 C19.3003125 0.05578125 26.4365625 0.07640625 33.7890625 0.09765625 C33.7890625 21.21765625 33.7890625 42.33765625 33.7890625 64.09765625 C-6.4709375 64.09765625 -46.7309375 64.09765625 -88.2109375 64.09765625 C-77.51491004 38.42719034 -60.12904256 19.25199887 -34.984375 7.22265625 C-23.49858263 2.56363061 -12.41380206 -0.0690804 0 0 Z " fill="#580DC9" transform="translate(438.2109375,244.90234375)"/>
<path d="M0 0 C39.93 0 79.86 0 121 0 C116.69630728 12.91107816 109.94552166 22.83762429 101 33 C100.484375 33.61101563 99.96875 34.22203125 99.4375 34.8515625 C90.34796947 44.84057782 77.39671407 52.0445218 65 57 C64.05511719 57.38800781 63.11023438 57.77601563 62.13671875 58.17578125 C48.49600273 63.48157602 35.24190111 63.24749895 20.8125 63.125 C13.944375 63.08375 7.07625 63.0425 0 63 C0 42.21 0 21.42 0 0 Z " fill="#FDE304" transform="translate(728,693)"/>
<path d="M0 0 C-2.80241023 1.86827349 -5.03091173 2.79757495 -8.1875 3.875 C-12.30689752 5.33462904 -16.13129107 6.97759527 -19.98828125 9.01953125 C-22.19630691 10.0956758 -24.43320742 10.8734918 -26.75 11.6875 C-45.07139585 18.89222709 -58.84253052 37.02842215 -66.98046875 54.42578125 C-72.79769195 69.11371262 -74.30597018 84.16867335 -74.26069641 99.86325073 C-74.26372512 101.30761255 -74.26761817 102.75197275 -74.27228898 104.19633019 C-74.28248502 108.12438853 -74.28040884 112.05235475 -74.27610838 115.98042035 C-74.27362577 120.23274524 -74.2826742 124.48504882 -74.29014587 128.73736572 C-74.30285215 137.05207843 -74.30469169 145.36675878 -74.30234561 153.68147956 C-74.30055785 160.44397916 -74.30232188 167.206469 -74.30657005 173.96896744 C-74.30746284 175.41625745 -74.30746284 175.41625745 -74.30837366 176.89278565 C-74.30958549 178.85330247 -74.31079962 180.81381929 -74.31201603 182.77433611 C-74.32287572 201.13240787 -74.32073643 219.49046122 -74.31463119 237.848534 C-74.30946249 254.61749426 -74.32071904 271.38639642 -74.33972941 288.15534519 C-74.35913304 305.40438044 -74.36735944 322.65338824 -74.36360615 339.90243447 C-74.36169806 349.57419569 -74.36414343 359.24590748 -74.37832069 368.91765976 C-74.39026764 377.15066263 -74.3916023 385.38358561 -74.37953053 393.61658965 C-74.37366526 397.81102296 -74.37247678 402.00531037 -74.38453293 406.19973373 C-74.39547123 410.05021847 -74.39219536 413.90043689 -74.37827124 417.75090958 C-74.37441627 419.78040464 -74.38510597 421.80991189 -74.39656812 423.83937824 C-74.24581281 449.82966506 -65.12913024 473.26884113 -47 492 C-27.73364104 510.3893294 -3.00019037 517.51451307 23.17295837 517.38095093 C24.62658476 517.38441887 26.08020851 517.38919097 27.53382689 517.39513266 C31.4782844 517.40751667 35.4225208 517.40153063 39.36697853 517.39217401 C43.6404237 517.3853314 47.91383324 517.39589037 52.18727112 517.40411377 C60.53949527 517.41739852 68.89163819 517.41459683 77.24386542 517.40587585 C84.03729949 517.39907845 90.83071092 517.39819144 97.62414742 517.4014473 C98.59399844 517.401907 99.56384947 517.40236669 100.56308993 517.40284032 C102.53383196 517.40379958 104.50457398 517.40477222 106.475316 517.4057581 C124.92118681 517.41429671 143.36701278 517.40450215 161.81287623 517.388357 C177.61054346 517.37495734 193.40814452 517.37728199 209.20581055 517.39111328 C227.58775834 517.40719984 245.96966689 517.41347065 264.35162073 517.40427649 C266.31509276 517.40332093 268.27856478 517.40237781 270.24203682 517.4014473 C271.69081918 517.40075306 271.69081918 517.40075306 273.16886986 517.40004479 C279.94681235 517.39746396 286.72472977 517.4018063 293.50266838 517.40888596 C301.77329533 517.41733551 310.04383696 517.41494872 318.31445425 517.39904372 C322.52724852 517.39120691 326.739901 517.38799013 330.95269394 517.39799118 C363.19890366 517.46804363 390.90210058 514.5561855 415.6875 491.5 C416.8321875 490.2625 416.8321875 490.2625 418 489 C418.75990234 488.23042969 418.75990234 488.23042969 419.53515625 487.4453125 C427.65680421 478.82415544 433.46451962 468.41195896 437.4375 457.3125 C437.78953491 456.33518921 437.78953491 456.33518921 438.14868164 455.33813477 C441.7806259 444.46917542 442.29417498 433.47537184 442.26069641 422.1047821 C442.26372311 420.63256014 442.26761517 419.16033975 442.27228898 417.68812209 C442.28251102 413.67380413 442.28040206 409.65957606 442.27610838 405.64525092 C442.27363056 401.30361142 442.28266839 396.96199299 442.29014587 392.62036133 C442.30286572 384.12657108 442.30468995 375.63281249 442.30234561 367.13901433 C442.30055922 360.2315308 442.30231896 353.32405686 442.30657005 346.41657448 C442.30716524 345.43172724 442.30776043 344.44688 442.30837366 343.4321889 C442.30958547 341.43116428 442.3107996 339.43013966 442.31201603 337.42911503 C442.32288115 318.68241474 442.32073397 299.93573246 442.31463119 281.18903116 C442.30946316 264.06037645 442.3207163 246.93177864 442.33972941 229.80313518 C442.35912799 212.1914342 442.36736025 194.57976012 442.36360615 176.96804839 C442.36169715 167.0900506 442.3641523 157.21210122 442.37832069 147.33411217 C442.39026125 138.92463136 442.39160947 130.51522876 442.37953053 122.10574683 C442.37366054 117.82031542 442.37249002 113.53502689 442.38453293 109.24960518 C442.39545519 105.31705936 442.39221391 101.38477461 442.37827124 97.45224068 C442.37564163 96.03915217 442.37793543 94.62604277 442.38600711 93.21297487 C442.51440485 69.03252058 434.87246868 46.16283152 417.78125 28.74609375 C416.8634375 27.83988281 415.945625 26.93367188 415 26 C413.77796875 24.77990234 413.77796875 24.77990234 412.53125 23.53515625 C406.98339001 18.26649051 401.09841048 14.40498058 394.4921875 10.62890625 C393.66976563 10.09136719 392.84734375 9.55382812 392 9 C392 8.34 392 7.68 392 7 C403.00919074 10.24087124 411.94288191 18.07561862 420 26 C421.15822266 27.13888672 421.15822266 27.13888672 422.33984375 28.30078125 C436.81474639 43.4190129 446.107357 65.49657164 446.13142776 86.4545126 C446.13526891 87.71608856 446.13911005 88.97766452 446.1430676 90.27747005 C446.1422875 91.66467064 446.14140874 93.05187118 446.14044189 94.43907166 C446.1430278 95.92276367 446.14604159 97.40645499 446.1494453 98.89014536 C446.1574923 102.95941175 446.15930359 107.02866048 446.16004276 111.09793389 C446.16189738 115.49011907 446.16944685 119.88229518 446.17617798 124.2744751 C446.18974636 133.87606708 446.19578394 143.47765489 446.20018864 153.07925487 C446.20295408 159.07911374 446.20719203 165.07897102 446.21169281 171.07882881 C446.22388445 187.70308169 446.23418337 204.32733329 446.2375679 220.95159054 C446.23778747 222.01512736 446.23800703 223.07866418 446.23823325 224.17442939 C446.23845153 225.24046157 446.23866981 226.30649374 446.2388947 227.40482992 C446.23933816 229.56488987 446.23978472 231.72494982 446.24023438 233.88500977 C446.2404558 234.95646622 446.24067723 236.02792268 446.24090537 237.13184751 C446.2448505 254.48000315 446.2622963 271.82811671 446.2855939 289.17625611 C446.30934101 307.00363228 446.32177131 324.83098738 446.32293582 342.65837961 C446.32385079 352.66112565 446.32955803 362.66381688 446.34775543 372.66654778 C446.36320194 381.18700697 446.3682502 389.70739443 446.36001733 398.22786497 C446.35612664 402.57009622 446.35696249 406.9121832 446.37107468 411.25439644 C446.38390935 415.24023227 446.38253331 419.22581686 446.37048396 423.21165282 C446.36854335 424.64308058 446.37152839 426.07452673 446.38032833 427.50592875 C446.52899096 453.3525733 438.32363766 476.4522748 420.44970703 495.54589844 C409.15143329 506.8784209 395.42554018 514.49805746 380.3125 519.4375 C379.56524658 519.6847583 378.81799316 519.9320166 378.0480957 520.18676758 C367.1241403 523.51320397 355.6014599 523.14769878 344.28787231 523.13371277 C342.83556302 523.13558499 341.38325424 523.13788732 339.93094623 523.14057809 C335.9717272 523.14665145 332.01252943 523.14656782 328.05330682 523.14538372 C323.77099809 523.14517858 319.48869598 523.15070912 315.20639038 523.15544128 C306.82924929 523.16372328 298.45211523 523.16649499 290.07497038 523.16705366 C283.2628279 523.16752988 276.45068774 523.16958989 269.63854599 523.17275429 C250.30155188 523.18155328 230.96456331 523.18617471 211.62756719 523.18542381 C210.58660771 523.18538386 209.54564823 523.1853439 208.47314453 523.18530273 C207.4309065 523.18526185 206.38866846 523.18522097 205.31484745 523.18517885 C188.42155853 523.18477234 171.5282919 523.19434516 154.63500942 523.2084411 C137.26626974 523.22281884 119.89754091 523.22971055 102.52879512 523.22884732 C92.78665466 523.22851589 83.04453758 523.23123946 73.3024025 523.24202538 C65.00928942 523.25114867 56.71621034 523.25329053 48.42309441 523.24651595 C44.19654668 523.2432603 39.9700641 523.24315945 35.74352264 523.2518692 C31.86597635 523.25977727 27.98854639 523.25825925 24.11100279 523.24958507 C22.71677385 523.24805954 21.32253603 523.24983004 19.92831756 523.25544515 C7.80917888 523.30097746 -4.26147541 522.5775679 -15.6875 518.25 C-16.40244629 517.98687012 -17.11739258 517.72374023 -17.85400391 517.45263672 C-41.62008563 508.45528582 -60.10263762 490.78118005 -70.67529297 467.74511719 C-75.34720248 456.96720816 -78.11784041 445.34074137 -78.13142776 433.57672215 C-78.13526891 432.32211298 -78.13911005 431.06750381 -78.1430676 429.77487618 C-78.1422875 428.39553609 -78.14140874 427.01619605 -78.14044189 425.63685608 C-78.14302783 424.16141366 -78.14604163 422.68597194 -78.1494453 421.21053118 C-78.15749196 417.16406791 -78.15930357 413.11762241 -78.16004276 409.07115209 C-78.16189744 404.70350698 -78.16944694 400.33587101 -78.17617798 395.9682312 C-78.18974612 386.42035652 -78.1957839 376.87248604 -78.20018864 367.32460332 C-78.20295412 361.35824638 -78.20719208 355.39189105 -78.21169281 349.4255352 C-78.22388443 332.89392861 -78.23418335 316.36232331 -78.2375679 299.83071232 C-78.23778747 298.77311072 -78.23800703 297.71550912 -78.23823325 296.62585899 C-78.23845153 295.56577671 -78.23866981 294.50569443 -78.2388947 293.41348845 C-78.23933816 291.26548644 -78.23978472 289.11748443 -78.24023438 286.96948242 C-78.2404558 285.9040072 -78.24067723 284.83853197 -78.24090537 283.74076962 C-78.24485047 266.48961176 -78.26229618 249.23849622 -78.2855939 231.9873547 C-78.30934144 214.25941961 -78.32177133 196.53150572 -78.32293582 178.80355448 C-78.32385077 168.85669966 -78.32955741 158.90989996 -78.34775543 148.96306038 C-78.36320252 140.49017821 -78.36824986 132.01736819 -78.36001733 123.54447461 C-78.35612684 119.22654625 -78.35696147 114.90876298 -78.37107468 110.59085274 C-78.38391061 106.62722151 -78.38253225 102.66384293 -78.37048396 98.70021158 C-78.36854356 97.27685913 -78.37152738 95.85348817 -78.38032833 94.4301616 C-78.45808479 80.98900109 -76.90081147 67.69612705 -71.375 55.3125 C-71.02800049 54.51706787 -70.68100098 53.72163574 -70.32348633 52.90209961 C-60.59167785 31.3756088 -42.90812607 13.94913756 -21 5 C-6.22821078 -0.40801381 -6.22821078 -0.40801381 0 0 Z " fill="#EAEAEA" transform="translate(416,248)"/>
<path d="M0 0 C21.12 0 42.24 0 64 0 C64 21.12 64 42.24 64 64 C42.88 64 21.76 64 0 64 C0 42.88 0 21.76 0 0 Z " fill="#91FB58" transform="translate(792,501)"/>
<path d="M0 0 C21.12 0 42.24 0 64 0 C64 21.12 64 42.24 64 64 C42.88 64 21.76 64 0 64 C0 42.88 0 21.76 0 0 Z " fill="#D51E21" transform="translate(536,501)"/>
<path d="M0 0 C21.12 0 42.24 0 64 0 C64 21.12 64 42.24 64 64 C42.88 64 21.76 64 0 64 C0 42.88 0 21.76 0 0 Z " fill="#ACFA40" transform="translate(344,437)"/>
<path d="M0 0 C21.12 0 42.24 0 64 0 C64 21.12 64 42.24 64 64 C42.88 64 21.76 64 0 64 C0 42.88 0 21.76 0 0 Z " fill="#08059B" transform="translate(472,245)"/>
<path d="M0 0 C21.12 0 42.24 0 64 0 C64 21.12 64 42.24 64 64 C57.090625 64.0825 50.18125 64.165 43.0625 64.25 C40.92015869 64.28641602 38.77781738 64.32283203 36.57055664 64.36035156 C23.0696894 64.49250784 10.54945459 63.34249497 -2 58 C-1.01 57.505 -1.01 57.505 0 57 C0 38.19 0 19.38 0 0 Z " fill="#F94113" transform="translate(408,692)"/>
<path d="M0 0 C21.12 0 42.24 0 64 0 C64 20.79 64 41.58 64 63 C42.88 63 21.76 63 0 63 C0 42.21 0 21.42 0 0 Z " fill="#F94703" transform="translate(664,693)"/>
<path d="M0 0 C21.12 0 42.24 0 64 0 C64 20.79 64 41.58 64 63 C42.88 63 21.76 63 0 63 C0 42.21 0 21.42 0 0 Z " fill="#F8E40C" transform="translate(536,693)"/>
<path d="M0 0 C21.12 0 42.24 0 64 0 C64 20.79 64 41.58 64 63 C42.88 63 21.76 63 0 63 C0 42.21 0 21.42 0 0 Z " fill="#F58A0A" transform="translate(472,693)"/>
<path d="M0 0 C21.12 0 42.24 0 64 0 C64 20.79 64 41.58 64 63 C42.88 63 21.76 63 0 63 C0 42.21 0 21.42 0 0 Z " fill="#FC1909" transform="translate(728,629)"/>
<path d="M0 0 C21.12 0 42.24 0 64 0 C64 20.79 64 41.58 64 63 C42.88 63 21.76 63 0 63 C0 42.21 0 21.42 0 0 Z " fill="#FEDB08" transform="translate(664,629)"/>
<path d="M0 0 C21.12 0 42.24 0 64 0 C64 20.79 64 41.58 64 63 C42.88 63 21.76 63 0 63 C0 42.21 0 21.42 0 0 Z " fill="#FE5D00" transform="translate(536,629)"/>
<path d="M0 0 C21.12 0 42.24 0 64 0 C64 20.79 64 41.58 64 63 C42.88 63 21.76 63 0 63 C0 42.21 0 21.42 0 0 Z " fill="#FEFED5" transform="translate(472,629)"/>
<path d="M0 0 C21.12 0 42.24 0 64 0 C64 20.79 64 41.58 64 63 C42.88 63 21.76 63 0 63 C0 42.21 0 21.42 0 0 Z " fill="#FEB800" transform="translate(408,629)"/>
<path d="M0 0 C21.12 0 42.24 0 64 0 C64 20.79 64 41.58 64 63 C42.88 63 21.76 63 0 63 C0 42.21 0 21.42 0 0 Z " fill="#FEFED5" transform="translate(792,565)"/>
<path d="M0 0 C21.12 0 42.24 0 64 0 C64 20.79 64 41.58 64 63 C42.88 63 21.76 63 0 63 C0 42.21 0 21.42 0 0 Z " fill="#FED000" transform="translate(728,565)"/>
<path d="M0 0 C21.12 0 42.24 0 64 0 C64 20.79 64 41.58 64 63 C42.88 63 21.76 63 0 63 C0 42.21 0 21.42 0 0 Z " fill="#FEFE80" transform="translate(664,565)"/>
<path d="M0 0 C21.12 0 42.24 0 64 0 C64 20.79 64 41.58 64 63 C42.88 63 21.76 63 0 63 C0 42.21 0 21.42 0 0 Z " fill="#FEFE00" transform="translate(536,565)"/>
<path d="M0 0 C21.12 0 42.24 0 64 0 C64 20.79 64 41.58 64 63 C42.88 63 21.76 63 0 63 C0 42.21 0 21.42 0 0 Z " fill="#FEE700" transform="translate(344,565)"/>
<path d="M0 0 C21.12 0 42.24 0 64 0 C64 20.79 64 41.58 64 63 C42.88 63 21.76 63 0 63 C0 42.21 0 21.42 0 0 Z " fill="#F8D603" transform="translate(664,501)"/>
<path d="M0 0 C21.12 0 42.24 0 64 0 C64 20.79 64 41.58 64 63 C42.88 63 21.76 63 0 63 C0 42.21 0 21.42 0 0 Z " fill="#DAFE1E" transform="translate(600,501)"/>
<path d="M0 0 C21.12 0 42.24 0 64 0 C64 20.79 64 41.58 64 63 C42.88 63 21.76 63 0 63 C0 42.21 0 21.42 0 0 Z " fill="#FEFA0C" transform="translate(408,501)"/>
<path d="M0 0 C21.12 0 42.24 0 64 0 C64 20.79 64 41.58 64 63 C42.88 63 21.76 63 0 63 C0 42.21 0 21.42 0 0 Z " fill="#11D5FF" transform="translate(664,437)"/>
<path d="M0 0 C21.12 0 42.24 0 64 0 C64 20.79 64 41.58 64 63 C42.88 63 21.76 63 0 63 C0 42.21 0 21.42 0 0 Z " fill="#20FEE5" transform="translate(600,437)"/>
<path d="M0 0 C21.12 0 42.24 0 64 0 C64 20.79 64 41.58 64 63 C42.88 63 21.76 63 0 63 C0 42.21 0 21.42 0 0 Z " fill="#0DF0FE" transform="translate(472,437)"/>
<path d="M0 0 C21.12 0 42.24 0 64 0 C64 20.79 64 41.58 64 63 C42.88 63 21.76 63 0 63 C0 42.21 0 21.42 0 0 Z " fill="#23FED8" transform="translate(408,437)"/>
<path d="M0 0 C21.12 0 42.24 0 64 0 C64 20.79 64 41.58 64 63 C42.88 63 21.76 63 0 63 C0 42.21 0 21.42 0 0 Z " fill="#0064ED" transform="translate(728,373)"/>
<path d="M0 0 C21.12 0 42.24 0 64 0 C64 20.79 64 41.58 64 63 C42.88 63 21.76 63 0 63 C0 42.21 0 21.42 0 0 Z " fill="#0683F3" transform="translate(664,373)"/>
<path d="M0 0 C21.12 0 42.24 0 64 0 C64 20.79 64 41.58 64 63 C42.88 63 21.76 63 0 63 C0 42.21 0 21.42 0 0 Z " fill="#0F50FD" transform="translate(600,373)"/>
<path d="M0 0 C21.12 0 42.24 0 64 0 C64 20.79 64 41.58 64 63 C42.88 63 21.76 63 0 63 C0 42.21 0 21.42 0 0 Z " fill="#33B1FE" transform="translate(536,373)"/>
<path d="M0 0 C21.12 0 42.24 0 64 0 C64 20.79 64 41.58 64 63 C42.88 63 21.76 63 0 63 C0 42.21 0 21.42 0 0 Z " fill="#0C88FD" transform="translate(472,373)"/>
<path d="M0 0 C21.12 0 42.24 0 64 0 C64 20.79 64 41.58 64 63 C42.88 63 21.76 63 0 63 C0 42.21 0 21.42 0 0 Z " fill="#6EECFE" transform="translate(408,373)"/>
<path d="M0 0 C21.12 0 42.24 0 64 0 C64 20.79 64 41.58 64 63 C42.88 63 21.76 63 0 63 C0 42.21 0 21.42 0 0 Z " fill="#0203D2" transform="translate(600,309)"/>
<path d="M0 0 C21.12 0 42.24 0 64 0 C64 20.79 64 41.58 64 63 C42.88 63 21.76 63 0 63 C0 42.21 0 21.42 0 0 Z " fill="#0124F8" transform="translate(472,309)"/>
<path d="M0 0 C21.12 0 42.24 0 64 0 C64 20.79 64 41.58 64 63 C42.88 63 21.76 63 0 63 C0 42.21 0 21.42 0 0 Z " fill="#090CE4" transform="translate(664,245)"/>
<path d="M0 0 C21.12 0 42.24 0 64 0 C64 20.79 64 41.58 64 63 C42.88 63 21.76 63 0 63 C0 42.21 0 21.42 0 0 Z " fill="#830DFA" transform="translate(536,245)"/>
<path d="M0 0 C19.14 0 38.28 0 58 0 C58.99 2.97 59.98 5.94 61 9 C61.37125 9.969375 61.7425 10.93875 62.125 11.9375 C64.20905438 19.23169033 64.14641581 26.9696607 64.09765625 34.5078125 C64.09664917 35.26441162 64.09564209 36.02101074 64.09460449 36.80053711 C64.08944784 39.57537392 64.07548789 42.3501888 64.0625 45.125 C64.041875 51.35375 64.02125 57.5825 64 64 C42.88 64 21.76 64 0 64 C0 42.88 0 21.76 0 0 Z " fill="#0A54F4" transform="translate(792,309)"/>
<path d="M0 0 C6.868125 -0.04125 13.73625 -0.0825 20.8125 -0.125 C22.9572583 -0.14320801 25.1020166 -0.16141602 27.31176758 -0.18017578 C40.93858732 -0.25127454 51.02358787 0.80943515 64 6 C64 24.81 64 43.62 64 63 C42.88 63 21.76 63 0 63 C0 42.21 0 21.42 0 0 Z " fill="#0871F0" transform="translate(728,245)"/>
<path d="M0 0 C1.02814316 0.00222061 2.05628632 0.00444122 3.11558533 0.00672913 C4.88174194 0.0069104 4.88174194 0.0069104 6.68357849 0.00709534 C8.55439087 0.01476929 8.55439087 0.01476929 10.46299744 0.02259827 C11.60216614 0.02360535 12.74133484 0.02461243 13.9150238 0.02565002 C18.19013977 0.03090114 22.46524144 0.04486225 26.74034119 0.05775452 C36.28971619 0.07837952 45.83909119 0.09900452 55.67784119 0.12025452 C55.67784119 20.91025452 55.67784119 41.70025452 55.67784119 63.12025452 C34.55784119 63.12025452 13.43784119 63.12025452 -8.32215881 63.12025452 C-8.34278381 57.05650452 -8.36340881 50.99275452 -8.38465881 44.74525452 C-8.39376282 42.85242737 -8.40286682 40.95960022 -8.4122467 39.00941467 C-8.44407615 28.23406159 -8.42821053 17.96074389 -5.32215881 7.55775452 C-4.97153381 6.36021545 -4.62090881 5.16267639 -4.25965881 3.92884827 C-3.00008035 0.15536113 -3.00008035 0.15536113 0 0 Z " fill="#034FF1" transform="translate(352.32215881347656,308.87974548339844)"/>
<path d="M0 0 C21.12 0 42.24 0 64 0 C64.70103093 49.59793814 64.70103093 49.59793814 58 63 C38.86 63 19.72 63 0 63 C0 42.21 0 21.42 0 0 Z " fill="#F96A05" transform="translate(792,629)"/>
<path d="M0 0 C0.33 0 0.66 0 1 0 C1.17015625 1.01578125 1.3403125 2.0315625 1.515625 3.078125 C6.21578633 30.20004185 18.78350449 54.4351658 41.58984375 70.796875 C50.03663268 76.40616947 59.53904073 82.02828731 69.47071165 84.38771856 C71.18321225 84.80227483 72.88600805 85.25876394 74.57731587 85.75272048 C82.60411672 88.01447273 90.06911398 88.42402507 98.37718201 88.38095093 C99.79308384 88.38441508 101.20898298 88.3891847 102.62487656 88.39513266 C106.48348092 88.40756855 110.34186052 88.4015064 114.20046532 88.39217401 C118.3743811 88.38535315 122.54825971 88.39587976 126.72216797 88.40411377 C134.88643835 88.41742139 143.05062578 88.41458654 151.21489935 88.40587585 C157.85352462 88.39908752 164.49212672 88.39818754 171.13075447 88.4014473 C172.0773241 88.401907 173.02389373 88.40236669 173.99914728 88.40284032 C175.92238538 88.40379955 177.84562346 88.40477219 179.76886154 88.4057581 C197.78395949 88.41430341 215.79901157 88.40449159 233.814102 88.388357 C249.25377652 88.37495678 264.69338335 88.37728114 280.13305664 88.39111328 C298.08424574 88.40718803 316.03539467 88.41347723 333.98658997 88.40427649 C335.90286989 88.4033209 337.81914983 88.40237778 339.73542976 88.4014473 C340.67815048 88.40098447 341.62087119 88.40052164 342.59215919 88.40004479 C349.21814627 88.39746042 355.84410775 88.40181399 362.47009087 88.40888596 C370.55171929 88.41732232 378.63326036 88.41497612 386.71487885 88.39904372 C390.83398862 88.39118935 394.95295303 88.3880207 399.07206154 88.39799118 C402.85031099 88.40699788 406.62828177 88.4019081 410.40650631 88.38605852 C412.40450789 88.38117419 414.40252916 88.39085352 416.40050977 88.40123022 C427.48065373 88.3297858 437.80859838 86.2058533 448.125 82.1875 C448.79893799 81.92743164 449.47287598 81.66736328 450.16723633 81.39941406 C475.60332086 71.34265285 493.22572794 52.16337662 504.6875 27.5625 C508.22653925 18.80865127 509.46373987 9.27228762 511 0 C511.33 0 511.66 0 512 0 C512.85888102 24.49401438 505.68772701 45.87070473 489.5 64.375 C488.01897851 65.93490752 486.51964242 67.47769154 485 69 C484.32710937 69.68449219 483.65421875 70.36898437 482.9609375 71.07421875 C465.42396398 87.79017291 443.0037358 94.32535362 419.26972961 94.26742554 C417.80320779 94.27116877 416.33668797 94.27577296 414.87017125 94.28115618 C410.86693044 94.29331839 406.86377362 94.29313378 402.86051857 94.29076743 C398.53247249 94.29035754 394.20445273 94.30141478 389.87641907 94.31088257 C381.40689166 94.32745622 372.9373921 94.33299046 364.46784983 94.33410732 C357.57941996 94.33505951 350.69099923 94.33917833 343.80257225 94.34550858 C324.24844774 94.36311097 304.69434513 94.372349 285.14021263 94.37084763 C283.56079151 94.37072776 283.56079151 94.37072776 281.94946289 94.37060547 C280.89522152 94.37052371 279.84098014 94.37044195 278.75479206 94.37035771 C261.67523308 94.36954507 244.59576235 94.38867986 227.51622889 94.4168822 C209.95540441 94.44564917 192.3946229 94.4594204 174.83377427 94.45769465 C164.98421543 94.45703207 155.13474911 94.46246632 145.28521156 94.48405075 C136.8984104 94.50231277 128.51174369 94.50656878 120.12493119 94.4930319 C115.85149112 94.48652755 111.57830864 94.4862927 107.30489349 94.5037384 C103.38205878 94.51958725 99.45968337 94.51648683 95.53685906 94.49917014 C94.12843125 94.49612598 92.71996812 94.49963341 91.31158201 94.51089029 C65.92884311 94.70010221 42.7133132 84.27966657 24.59375 66.66015625 C9.07335451 50.26275211 -0.20070181 27.94036726 -0.25 5.3125 C-0.1882216 3.54078372 -0.11434052 1.76910186 0 0 Z " fill="#C8C4C0" transform="translate(344,667)"/>
<path d="M0 0 C12.71751447 5.08700579 22.75893597 10.94937812 33 20 C33.62390625 20.54011719 34.2478125 21.08023437 34.890625 21.63671875 C44.62809769 30.6689072 51.82686694 42.87225759 57 55 C57 55.66 57 56.32 57 57 C38.19 57 19.38 57 0 57 C0 38.19 0 19.38 0 0 Z " fill="#0806E4" transform="translate(792,251)"/>
<path d="M0 0 C0 18.81 0 37.62 0 57 C-18.81 57 -37.62 57 -57 57 C-48.58889872 31.76669615 -29.47377406 13.86775046 -6.25 1.9375 C-2.30976431 0 -2.30976431 0 0 0 Z " fill="#810FFC" transform="translate(408,251)"/>
<path d="M0 0 C18.81 0 37.62 0 57 0 C52.69630728 12.91107816 45.94552166 22.83762429 37 33 C36.484375 33.61101563 35.96875 34.22203125 35.4375 34.8515625 C26.40592619 44.77688581 13.37882073 52.18262641 1 57 C0.67 57 0.34 57 0 57 C0 38.19 0 19.38 0 0 Z " fill="#F7B404" transform="translate(792,693)"/>
<path d="M0 0 C18.81 0 37.62 0 57 0 C57 18.48 57 36.96 57 56 C46.17317125 54.19552854 37.241673 48.05582077 29 41 C28.20078125 40.34515625 27.4015625 39.6903125 26.578125 39.015625 C14.59866802 28.82192558 4.33631564 15.17710473 0 0 Z " fill="#FD0809" transform="translate(351,693)"/>
<path d="M0 0 C0.71875 1.67578125 0.71875 1.67578125 1 4 C-0.40625 6.48046875 -0.40625 6.48046875 -2.5 9.1875 C-3.24636719 10.15945313 -3.99273438 11.13140625 -4.76171875 12.1328125 C-5.50035156 13.07898438 -6.23898437 14.02515625 -7 15 C-7.56332031 15.78117188 -8.12664063 16.56234375 -8.70703125 17.3671875 C-20.63891011 33.68279801 -39.96693285 46.27468581 -60 50 C-60.99 49.67 -61.98 49.34 -63 49 C-62.45174561 48.78907715 -61.90349121 48.5781543 -61.33862305 48.36083984 C-35.07754849 38.20468406 -13.67981758 25.64965797 0 0 Z " fill="#BBB7AA" transform="translate(843,705)"/>
<path d="M0 0 C3.52493128 3.45556769 6.80565264 7.0363098 10.0625 10.75 C21.70055802 23.58499147 37.92928616 34.17220883 55 38 C56.54188894 38.39496663 58.08356921 38.79074912 59.625 39.1875 C60.73875 39.455625 61.8525 39.72375 63 40 C63 40.33 63 40.66 63 41 C45.10618661 41.70573564 25.95231506 29.99759364 13.18359375 18.2109375 C8.18269443 13.32986561 3.79746634 7.86244803 0 2 C0 1.34 0 0.68 0 0 Z " fill="#BCAAA9" transform="translate(361,714)"/>
<path d="M0 0 C-2.80241023 1.86827349 -5.03091173 2.79757495 -8.1875 3.875 C-12.30689752 5.33462904 -16.13129107 6.97759527 -19.98828125 9.01953125 C-22.19630691 10.0956758 -24.43320742 10.8734918 -26.75 11.6875 C-33.32621235 14.23870448 -38.54617902 18.61842953 -44 23 C-44.94230469 23.7528125 -45.88460938 24.505625 -46.85546875 25.28125 C-47.91701172 26.13203125 -47.91701172 26.13203125 -49 27 C-45.39781243 18.48573848 -38.72125726 14.45860643 -31 10 C-30.21625 9.54496094 -29.4325 9.08992188 -28.625 8.62109375 C-23.50479883 5.86206643 -18.21188281 3.95114685 -12.6875 2.1875 C-12.00534424 1.96819824 -11.32318848 1.74889648 -10.62036133 1.52294922 C-6.98696933 0.41482056 -3.80144898 -0.25735148 0 0 Z " fill="#EAEAEA" transform="translate(416,248)"/>
<path d="M0 0 C-2.78285774 1.8552385 -4.99437426 2.79578144 -8.125 3.875 C-13.2072155 5.67509231 -18.11134919 7.73070036 -23 10 C-23 8.68 -23 7.36 -23 6 C-7.65327696 -0.47832981 -7.65327696 -0.47832981 0 0 Z " fill="#D6C9E7" transform="translate(416,248)"/>
<path d="M0 0 C0.33 0 0.66 0 1 0 C1 5.28 1 10.56 1 16 C0.01 16 -0.98 16 -2 16 C-1.34 10.72 -0.68 5.44 0 0 Z " fill="#D1BAAA" transform="translate(855,667)"/>
<path d="M0 0 C0.66 0.33 1.32 0.66 2 1 C-0.75 5.875 -0.75 5.875 -3 7 C-3.66 6.34 -4.32 5.68 -5 5 C-3.35 3.35 -1.7 1.7 0 0 Z " fill="#D9D7D9" transform="translate(374,268)"/>
<path d="M0 0 C-0.33 0.99 -0.66 1.98 -1 3 C-4.5625 4.6875 -4.5625 4.6875 -8 6 C-8 4.68 -8 3.36 -8 2 C-2.25 0 -2.25 0 0 0 Z " fill="#E0DAE7" transform="translate(401,252)"/>
</svg>
