<?xml version="1.0" encoding="UTF-8"?>
<svg version="1.1" xmlns="http://www.w3.org/2000/svg" width="512" height="512">
<path d="M0 0 C0.70830294 -0.00581376 1.41660589 -0.01162753 2.14637256 -0.01761746 C4.53813725 -0.03230508 6.92888968 -0.01829243 9.32064819 -0.00457001 C11.0452712 -0.00917549 12.76989029 -0.01552602 14.49450111 -0.02347898 C19.24789506 -0.04024405 24.00096957 -0.03189352 28.75436497 -0.01953411 C33.87509435 -0.01051516 38.99576729 -0.02443761 44.1164856 -0.0354538 C54.15359074 -0.05327745 64.19057651 -0.04938194 74.22768641 -0.03780323 C82.38215779 -0.02878428 90.53659562 -0.02753823 98.69107056 -0.0318985 C99.84989892 -0.03251143 101.00872728 -0.03312436 102.20267165 -0.03375587 C104.55651586 -0.03503472 106.91036007 -0.03633157 109.26420426 -0.03764623 C131.35687945 -0.0490633 153.44948833 -0.03592067 175.54215264 -0.01444477 C194.51506328 0.00342722 213.48787604 0.00032343 232.46078491 -0.01811981 C254.47225495 -0.03950664 276.48366682 -0.04796456 298.4951458 -0.03567076 C300.84052403 -0.03439651 303.18590227 -0.03313903 305.53128052 -0.0318985 C307.26241701 -0.03097285 307.26241701 -0.03097285 309.02852595 -0.03002849 C317.17695992 -0.02656902 325.32535712 -0.03241677 333.4737854 -0.04181671 C343.3986319 -0.0530138 353.3233518 -0.050045 363.24818373 -0.02869374 C368.31586396 -0.01815241 373.3833328 -0.01411376 378.45101166 -0.02729034 C383.0846565 -0.03915653 387.71789282 -0.03274781 392.35150027 -0.01138014 C394.03314455 -0.00688943 395.71482292 -0.00923518 397.39644551 -0.01888329 C399.67224685 -0.03094493 401.94662567 -0.01867919 404.22235107 0 C405.48937048 0.00064941 406.75638988 0.00129882 408.06180382 0.00196791 C411.11117554 0.50336456 411.11117554 0.50336456 413.01795727 2.20803118 C414.30628536 4.91301935 414.48814287 6.73850571 414.49149227 9.73206329 C414.49993221 10.79651295 414.50837215 11.8609626 414.51706785 12.9576683 C414.5110578 14.12613674 414.50504776 15.29460518 414.49885559 16.49848175 C414.5069339 18.36147478 414.5069339 18.36147478 414.5151754 20.26210403 C414.52702418 23.7115895 414.52537544 27.16059306 414.51800859 30.61005974 C414.51328724 34.32927841 414.52577753 38.04844477 414.536026 41.76764679 C414.55323918 49.05434784 414.55404888 56.34096276 414.5488131 63.62767887 C414.54477515 69.54861133 414.54621047 75.46951829 414.55156136 81.39044952 C414.55230978 82.23246249 414.5530582 83.07447546 414.5538293 83.94200397 C414.55536074 85.65242291 414.55689909 87.36284185 414.55844427 89.07326078 C414.5721782 105.11991207 414.56672515 121.16651463 414.55525906 137.21316481 C414.54532378 151.9022048 414.55827084 166.59111888 414.58219325 181.28013945 C414.60655899 196.35466395 414.61619847 211.42912975 414.60954052 226.50367355 C414.60604292 234.97020123 414.608316 243.43663201 414.62579155 251.90314484 C414.64048194 259.10982884 414.64119051 266.31634772 414.62372064 273.52302837 C414.61518235 277.2015392 414.61312946 280.87975467 414.62837219 284.55825043 C414.64467473 288.54173557 414.63013161 292.5247603 414.61238098 296.50824738 C414.62198599 297.67671581 414.63159099 298.84518425 414.64148706 300.04906082 C414.63167277 301.11351048 414.62185848 302.17796013 414.61174679 303.27466583 C414.61163945 304.1944585 414.61153211 305.11425117 414.61142153 306.06191635 C413.95485705 309.26627622 412.61732511 310.4717423 410.11117554 312.50336456 C407.97916031 312.99555588 407.97916031 312.99555588 405.64395142 312.98438263 C404.31047417 312.99263062 404.31047417 312.99263062 402.95005798 313.00104523 C401.49888832 312.97947357 401.49888832 312.97947357 400.0184021 312.95746613 C398.99369308 312.95805023 397.96898407 312.95863434 396.91322327 312.95923615 C393.52573794 312.95644912 390.13913218 312.92532681 386.75180054 312.89398956 C384.40339641 312.8865294 382.05498606 312.88083541 379.70657349 312.87683868 C373.52504291 312.8615648 367.34388817 312.82226732 361.1625061 312.77802277 C354.85508305 312.73710822 348.54759929 312.71883579 342.24008179 312.69867706 C329.86361456 312.65577522 317.4874263 312.58750223 305.11117554 312.50336456 C305.32338745 313.80008087 305.32338745 313.80008087 305.53988647 315.12299347 C305.72325562 316.27203156 305.90662476 317.42106964 306.09555054 318.60492706 C306.36963745 320.30383087 306.36963745 320.30383087 306.64926147 322.03705597 C310.3933772 350.13375528 299.90071559 377.4652294 283.11117554 399.50336456 C267.82408124 419.42486218 243.54714227 431.9408102 219.09921265 436.12177277 C213.58893421 436.82547121 208.09770487 436.88561122 202.54867554 436.87836456 C201.3230188 436.87747833 200.09736206 436.8765921 198.83456421 436.87567902 C185.55968387 436.70384437 173.55202008 434.11108476 161.11117554 429.50336456 C160.56848022 430.34641144 160.02578491 431.18945831 159.46664429 432.05805206 C158.39349976 433.70160675 158.39349976 433.70160675 157.29867554 435.37836456 C156.59098022 436.46891144 155.88328491 437.55945831 155.15414429 438.68305206 C153.11117554 441.50336456 153.11117554 441.50336456 150.11117554 443.50336456 C146.7887723 443.17922766 145.50341251 442.89560153 143.11117554 440.50336456 C141.82259523 436.50941273 140.94783294 432.3994576 139.98617554 428.31586456 C139.7090271 427.19115753 139.43187866 426.0664505 139.14633179 424.90766144 C136.52586008 413.9287886 136.52586008 413.9287886 137.11117554 408.50336456 C140.80607225 404.80846785 146.78436872 404.63904633 151.80477905 403.62421417 C153.90955413 403.19375263 156.0068519 402.73495848 158.10531616 402.27484894 C159.44675003 401.99898927 160.78853791 401.72484439 162.13070679 401.45258331 C163.34862915 401.19823517 164.56655151 400.94388702 165.82138062 400.68183136 C169.65922183 400.47363381 171.16380166 401.09224946 174.11117554 403.50336456 C175.01227395 406.94392212 174.49504224 408.82634317 172.75570679 411.89398956 C171.2649577 414.14604757 169.72681459 416.33956226 168.11117554 418.50336456 C191.05904052 428.37238374 214.84657167 427.15375215 238.01156616 418.34760284 C261.62524709 408.85270649 278.35409831 390.43850211 288.53695679 367.42133331 C298.29305272 344.10373795 297.17921731 318.41094252 287.79086304 295.27289581 C285.07368585 288.95264521 281.5014946 283.11214711 277.70883179 277.38617706 C276.54867554 275.56586456 276.54867554 275.56586456 275.11117554 272.50336456 C275.72961277 269.9171725 276.23236456 268.38217554 278.11117554 266.50336456 C280.79867554 265.94086456 280.79867554 265.94086456 284.11117554 266.50336456 C286.6306656 268.81731728 288.31434621 271.61145269 290.11117554 274.50336456 C290.69125366 275.4095755 291.27133179 276.31578644 291.86898804 277.24945831 C302.11117554 293.94289378 302.11117554 293.94289378 302.11117554 301.50336456 C335.44117554 301.50336456 368.77117554 301.50336456 403.11117554 301.50336456 C403.11117554 271.14336456 403.11117554 240.78336456 403.11117554 209.50336456 C270.45117554 209.50336456 137.79117554 209.50336456 1.11117554 209.50336456 C1.11117554 239.86336456 1.11117554 270.22336456 1.11117554 301.50336456 C34.44117554 301.50336456 67.77117554 301.50336456 102.11117554 301.50336456 C103.10117554 298.20336456 104.09117554 294.90336456 105.11117554 291.50336456 C115.44687102 267.03785754 134.87118971 246.93483658 159.17367554 236.19086456 C187.72218581 224.6886188 215.48546629 224.9614367 244.11117554 235.50336456 C244.37414429 234.77762238 244.63711304 234.05188019 244.90805054 233.30414581 C246.8544843 228.77299967 249.58343394 224.95043015 253.11117554 221.50336456 C256.42367554 220.81586456 256.42367554 220.81586456 259.11117554 221.50336456 C262.75200564 225.14419466 263.08173635 230.78864076 264.23617554 235.69086456 C264.51332397 236.81557159 264.79047241 237.94027863 265.07601929 239.09906769 C267.76485244 250.36435143 267.76485244 250.36435143 267.11117554 255.50336456 C264.77322681 258.67175345 262.32854696 259.1551545 258.56039429 259.89008331 C257.46920288 260.10600128 256.37801147 260.32191925 255.25375366 260.54438019 C254.11357788 260.75772003 252.9734021 260.97105988 251.79867554 261.19086456 C250.67010132 261.41580597 249.5415271 261.64074738 248.37875366 261.87250519 C234.71412906 264.51856846 234.71412906 264.51856846 231.23617554 262.31586456 C229.7009097 259.84238071 229.83707728 258.39385528 230.11117554 255.50336456 C231.42367554 252.82758331 231.42367554 252.82758331 233.11117554 250.19086456 C233.66805054 249.30785675 234.22492554 248.42484894 234.79867554 247.51508331 C235.23180054 246.85121613 235.66492554 246.18734894 236.11117554 245.50336456 C211.68164926 236.72067274 186.4474815 236.89721684 162.66976929 247.72870636 C139.95094735 258.59858626 123.10132921 277.27584774 114.36117554 300.85102081 C106.65509809 323.36721586 106.65025731 348.82484034 117.10629272 370.57318878 C120.23815087 376.82191359 123.39017995 383.09987996 127.39633179 388.83930206 C129.11117554 391.50336456 129.11117554 391.50336456 129.04867554 394.25336456 C128.11117554 396.50336456 128.11117554 396.50336456 125.11117554 398.50336456 C122.17657974 398.32312955 120.60915306 397.93419905 118.37289429 395.99945831 C103.11276267 376.04390158 95.57932793 350.50623317 97.11117554 325.50336456 C97.43312862 323.25595114 97.77274584 321.01102977 98.12557983 318.76825714 C98.4008979 317.00932884 98.4008979 317.00932884 98.68177795 315.21486664 C98.82347916 314.32007095 98.96518036 313.42527527 99.11117554 312.50336456 C97.80460999 312.51224701 96.49804443 312.52112946 95.15188599 312.53028107 C82.85048277 312.6112991 70.54913355 312.6712975 58.24752426 312.71061325 C51.92282763 312.73150526 45.59834605 312.75985291 39.27377319 312.80512238 C33.17242565 312.84852173 27.07128519 312.87248951 20.96979523 312.88287354 C18.63971953 312.89027547 16.30965541 312.90472936 13.97966766 312.92628479 C10.72084383 312.95523943 7.46288033 312.95932379 4.20394897 312.95746613 C3.23650253 312.97184723 2.26905609 312.98622833 1.27229309 313.00104523 C-5.14027318 312.96138144 -5.14027318 312.96138144 -8.48451233 310.91513824 C-10.39688495 307.63081859 -10.4151783 305.26155898 -10.45059204 301.46088409 C-10.46250202 300.74026983 -10.474412 300.01965557 -10.48668289 299.27720451 C-10.52181925 296.81334125 -10.52759422 294.35027361 -10.53335571 291.88617706 C-10.5516074 290.05750862 -10.57130809 288.22885418 -10.59230042 286.40021515 C-10.64489895 281.24412322 -10.66927717 276.08821433 -10.6877594 270.93190002 C-10.70133161 267.62662522 -10.72186651 264.32146626 -10.74465942 261.01624298 C-11.09142548 209.80545378 -10.87012468 158.58908593 -10.67577046 107.3781153 C-10.64584258 99.3845766 -10.6223127 91.39103407 -10.60089111 83.39746857 C-10.57394965 73.5220976 -10.53518299 63.64684849 -10.48209733 53.77158237 C-10.45465443 48.6365082 -10.43193425 43.50152593 -10.42155266 38.36638641 C-10.41165931 33.60637567 -10.38779739 28.84664591 -10.35279119 24.08675551 C-10.34242317 22.34894081 -10.33713894 20.61108729 -10.3372885 18.87324166 C-10.33669779 16.51115142 -10.31784975 14.14989726 -10.29428101 11.78794098 C-10.28837322 10.46918283 -10.28246544 9.15042469 -10.27637863 7.79170418 C-9.46332177 0.89303735 -6.57739194 0.00337123 0 0 Z M1.11117554 11.50336456 C1.11117554 71.56336456 1.11117554 131.62336456 1.11117554 193.50336456 C8.73907562 189.05375618 16.25583162 184.58428346 23.67367554 179.81586456 C25.60450099 178.58123285 27.53549338 177.34686216 29.46664429 176.11273956 C30.41845581 175.50365753 31.37026733 174.8945755 32.35092163 174.26703644 C36.38811646 171.68745962 40.43529428 169.12388166 44.48617554 166.56586456 C45.24486938 166.08673615 46.00356323 165.60760773 46.7852478 165.11396027 C54.24499808 160.40927104 61.72693075 155.74014799 69.20834351 151.07001495 C75.35389563 147.23211029 81.48893358 143.37833417 87.61117554 139.50336456 C95.78223554 134.33163018 103.98109391 129.20513209 112.18466187 124.08515167 C117.76466583 120.60073028 123.33711131 117.10502332 128.89559937 113.58637238 C131.22303739 112.11372339 133.55370589 110.64629527 135.88461304 109.17914581 C138.59391895 107.47158463 141.2850069 105.74044165 143.96273804 103.98383331 C145.11636517 103.24031472 146.27000971 102.49682313 147.42367554 101.75336456 C148.38918335 101.11914581 149.35469116 100.48492706 150.34945679 99.83148956 C153.78818102 98.17778908 155.32567224 97.8481813 159.11117554 98.50336456 C162.51335742 100.15719758 165.63511417 102.18604371 168.79867554 104.25336456 C170.18482056 105.13592926 170.18482056 105.13592926 171.59896851 106.03632355 C173.51294021 107.25604343 175.42341047 108.48127441 177.33041382 109.71186066 C180.67318987 111.86544193 184.03734894 113.98356802 187.40414429 116.09931183 C191.31279652 118.55735977 195.21104281 121.03183084 199.11117554 123.50336456 C202.17292257 125.44205677 205.23547837 127.37946446 208.29867554 129.31586456 C209.06026978 129.79740997 209.82186401 130.27895538 210.60653687 130.77509308 C218.39035374 135.69055541 226.20075971 140.56342683 234.01620483 145.42841339 C235.4650708 146.33176422 235.4650708 146.33176422 236.94320679 147.25336456 C237.84893433 147.81539581 238.75466187 148.37742706 239.68783569 148.95648956 C241.70478058 150.24395308 243.62993491 151.59280682 245.56039429 153.00336456 C247.88268524 154.71171875 247.88268524 154.71171875 249.92147827 154.30219269 C252.76048875 153.26648723 255.12857059 151.81641144 257.69711304 150.22211456 C258.78669312 149.54857941 259.87627319 148.87504425 260.99887085 148.18109894 C261.56916016 147.82491486 262.13944946 147.46873077 262.72702026 147.10175323 C264.49327899 145.99892928 266.26410555 144.90377903 268.03598022 143.81000519 C272.97702934 140.75243036 277.90187998 137.67773423 282.72836304 134.44086456 C283.36080933 134.01869659 283.99325562 133.59652863 284.64486694 133.16156769 C286.23131379 132.09099815 287.80469183 131.00113046 289.37680054 129.90961456 C292.65414552 128.22412286 294.45710599 128.19430686 298.11117554 128.50336456 C300.69393921 129.689888 300.69393921 129.689888 303.27914429 131.36273956 C304.72740601 132.28506378 304.72740601 132.28506378 306.20492554 133.22602081 C307.22586304 133.89504425 308.24680054 134.56406769 309.29867554 135.25336456 C310.36730835 135.93785675 311.43594116 136.62234894 312.53695679 137.32758331 C314.71402699 138.72267484 316.88772169 140.12304838 319.05795288 141.52875519 C323.22103129 144.22114109 327.4150351 146.8629531 331.61117554 149.50336456 C333.14251193 150.47197799 334.67376024 151.44073068 336.20492554 152.40961456 C341.82781652 155.96091413 347.46968528 159.4817151 353.11117554 163.00336456 C360.43130964 167.57460712 367.74889557 172.14966794 375.04867554 176.75336456 C375.80591919 177.23063995 376.56316284 177.70791534 377.34335327 178.19965363 C381.24668172 180.66722175 385.13047954 183.16135123 388.99398804 185.69086456 C389.78039673 186.20487823 390.56680542 186.71889191 391.37704468 187.24848175 C392.87381904 188.22925322 394.36794106 189.21408819 395.85897827 190.20355988 C399.20354535 192.64950287 399.20354535 192.64950287 403.11117554 193.50336456 C403.11117554 133.44336456 403.11117554 73.38336456 403.11117554 11.50336456 C270.45117554 11.50336456 137.79117554 11.50336456 1.11117554 11.50336456 Z M149.39242554 112.36273956 C148.47026245 112.97794464 147.54809937 113.59314972 146.59799194 114.22699738 C145.61234253 114.89569855 144.62669312 115.56439972 143.61117554 116.25336456 C136.08436014 121.26808013 128.52498054 126.15514513 120.73617554 130.75336456 C113.99696139 134.74396659 107.37403671 138.86361125 100.82015991 143.15106964 C94.67565637 147.16222319 88.46349633 151.05975094 82.23617554 154.94086456 C74.91210588 159.50611505 67.59314985 164.07844065 60.29867554 168.69086456 C59.53514771 169.17345734 58.77161987 169.65605011 57.98495483 170.15326691 C54.1031366 172.60794001 50.22364498 175.0662507 46.34555054 177.52680206 C44.74674359 178.5400618 43.14778593 179.55308377 41.54867554 180.56586456 C40.77572144 181.05570831 40.00276733 181.54555206 39.20639038 182.05023956 C32.70439635 186.15761996 26.1433896 190.16509831 19.54452515 194.11493683 C17.7172796 195.21812886 15.9115709 196.35687624 14.11117554 197.50336456 C14.11117554 197.83336456 14.11117554 198.16336456 14.11117554 198.50336456 C107.83117554 198.50336456 201.55117554 198.50336456 298.11117554 198.50336456 C294.6187447 195.7094199 291.48143911 193.39476832 287.70883179 191.10492706 C286.1427417 190.14924835 286.1427417 190.14924835 284.54501343 189.174263 C283.43247192 188.49911652 282.31993042 187.82397003 281.17367554 187.12836456 C278.81795896 185.69078762 276.46427988 184.24990018 274.11117554 182.80805206 C273.51938004 182.44562408 272.92758453 182.08319611 272.31785583 181.70978546 C266.7323219 178.28298219 261.19562232 174.78167471 255.67367554 171.25336456 C254.77382935 170.67852325 253.87398315 170.10368195 252.9468689 169.5114212 C251.17967821 168.38190482 249.41266517 167.25211045 247.64584351 166.12201691 C235.48995 158.35919915 223.25941437 150.71477195 211.0249939 143.07660675 C202.48587226 137.74332902 193.96966608 132.3746133 185.46273804 126.99018097 C182.95126876 125.40226072 180.43769095 123.81771914 177.92367554 122.23383331 C177.06620728 121.69331329 176.20873901 121.15279327 175.32528687 120.59589386 C173.69266572 119.56684876 172.05971344 118.53832873 170.42636108 117.51044464 C169.68684204 117.04404572 168.947323 116.57764679 168.18539429 116.09711456 C167.48591675 115.65754425 166.78643921 115.21797394 166.06576538 114.76508331 C164.27717538 113.61052009 162.55097623 112.39537131 160.81820679 111.15961456 C156.16044881 108.30984634 153.56554308 109.53722559 149.39242554 112.36273956 Z M288.31430054 142.72992706 C287.48560455 143.24696701 287.48560455 143.24696701 286.64016724 143.77445221 C284.8729002 144.88083897 283.11713879 146.0041433 281.36117554 147.12836456 C280.19523112 147.86258567 279.02857069 148.59567105 277.86117554 149.32758331 C274.60331823 151.37386654 271.35763726 153.43904972 268.11117554 155.50336456 C265.44793326 157.17560981 262.78010914 158.84021136 260.11117554 160.50336456 C263.90389723 164.89827327 268.76213115 167.5379372 273.67367554 170.50336456 C275.57257463 171.66406807 277.47100226 172.8255432 279.36898804 173.98773956 C280.3283728 174.57361847 281.28775757 175.15949738 282.2762146 175.76313019 C286.55652541 178.39058932 290.80488824 181.06743436 295.04867554 183.75336456 C295.75516235 184.19938019 296.46164917 184.64539581 297.18954468 185.10492706 C297.8945813 185.55094269 298.59961792 185.99695831 299.32601929 186.45648956 C300.38330231 187.10899437 300.38330231 187.10899437 301.46194458 187.77468109 C304.11117554 189.50336456 304.11117554 189.50336456 307.04689026 191.7387619 C316.35781496 198.65097502 323.62367184 199.74685405 335.00961304 199.38227081 C336.58140369 199.36543309 338.15324238 199.3526464 339.72509766 199.34368134 C343.81324409 199.30971897 347.89839831 199.22168458 351.98538208 199.12134552 C356.17533914 199.02838989 360.36579166 198.98798661 364.55648804 198.94281769 C372.74273972 198.84700774 380.92658295 198.69391942 389.11117554 198.50336456 C385.84961749 195.86502579 382.60932778 193.4612977 379.04086304 191.25336456 C378.07213257 190.65137238 377.1034021 190.04938019 376.10531616 189.42914581 C375.07599976 188.793638 374.04668335 188.15813019 372.98617554 187.50336456 C370.80624827 186.14958391 368.62656332 184.79541299 366.44711304 183.44086456 C365.36913452 182.77184113 364.29115601 182.10281769 363.18051147 181.41352081 C358.97737706 178.79776169 354.79268623 176.15350262 350.61117554 173.50336456 C342.447493 168.33554491 334.25764044 163.21023596 326.0574646 158.10053253 C321.18925447 155.06438534 316.33200176 152.01375379 311.50180054 148.91742706 C310.63168335 148.36119659 309.76156616 147.80496613 308.86508179 147.23188019 C307.23969026 146.19097032 305.61711371 145.14564677 303.99789429 144.09516144 C303.27730835 143.63432159 302.55672241 143.17348175 301.81430054 142.69867706 C301.19200562 142.2966507 300.56971069 141.89462433 299.92855835 141.48041534 C294.9668829 138.81294824 293.08071663 139.7141158 288.31430054 142.72992706 Z M252.11117554 241.50336456 C249.63617554 245.95836456 249.63617554 245.95836456 247.11117554 250.50336456 C250.57617554 250.00836456 250.57617554 250.00836456 254.11117554 249.50336456 C255.09238017 246.45072792 255.09238017 244.55600121 254.11117554 241.50336456 C253.45117554 241.50336456 252.79117554 241.50336456 252.11117554 241.50336456 Z M149.11117554 415.50336456 C149.44117554 418.14336456 149.77117554 420.78336456 150.11117554 423.50336456 C153.07522059 420.69532188 155.55616573 418.32020683 157.11117554 414.50336456 C153.99859985 414.50336456 152.00351869 414.6769808 149.11117554 415.50336456 Z " fill="#000000" transform="translate(53.888824462890625,48.49663543701172)"/>
<path d="M0 0 C1.01513672 -0.02449219 2.03027344 -0.04898437 3.07617188 -0.07421875 C4.53700195 -0.08001953 4.53700195 -0.08001953 6.02734375 -0.0859375 C6.9205835 -0.09415527 7.81382324 -0.10237305 8.73413086 -0.11083984 C11.0625 0.375 11.0625 0.375 12.83276367 2.21484375 C14.41124763 4.9876105 14.81850556 7.62589863 15.4375 10.75 C17.09294986 16.25983688 18.8475769 18.75746124 23.875 21.625 C28.09892265 23.26022062 30.84884387 23.7398216 35.0390625 22.12890625 C37.68777926 20.92009592 40.15239063 19.50608193 42.65234375 18.01953125 C46.0625 16.375 46.0625 16.375 49.109375 16.28125 C53.10791694 17.76219146 55.4495816 20.02778826 58.375 23.0625 C59.1803418 23.83883789 59.1803418 23.83883789 60.00195312 24.63085938 C62.48425003 27.14445889 63.92831699 29.00307971 65.140625 32.36328125 C65.0085583 37.45445257 62.08292853 40.94936679 59.43359375 45.15625 C57.72391599 48.2972929 57.72391599 48.2972929 58.7734375 51.49609375 C59.19882812 52.44613281 59.62421875 53.39617187 60.0625 54.375 C60.24167969 55.16003906 60.42085937 55.94507813 60.60546875 56.75390625 C61.41873713 59.50916094 62.18041494 61.17178164 64.0625 63.375 C67.90116737 65.13492059 71.65737937 66.32270286 75.7265625 67.40234375 C79.0625 68.375 79.0625 68.375 81.0625 70.375 C81.54148442 74.00038878 81.4328783 77.6590478 81.4375 81.3125 C81.46199219 82.32763672 81.48648438 83.34277344 81.51171875 84.38867188 C81.51558594 85.36255859 81.51945313 86.33644531 81.5234375 87.33984375 C81.53165527 88.2330835 81.53987305 89.12632324 81.54833984 90.04663086 C81.0625 92.375 81.0625 92.375 79.22265625 94.14526367 C76.4498895 95.72374763 73.81160137 96.13100556 70.6875 96.75 C65.17766312 98.40544986 62.68003876 100.1600769 59.8125 105.1875 C58.17025655 109.42477538 57.70661703 112.18013308 59.30859375 116.38671875 C60.51769311 119.05417298 61.92847386 121.54394299 63.41796875 124.0625 C65.0625 127.375 65.0625 127.375 65.19140625 129.890625 C63.46738878 133.68465652 60.77319013 136.24205228 57.8125 139.125 C57.23886719 139.71410156 56.66523438 140.30320312 56.07421875 140.91015625 C53.66349415 143.29891525 51.65219583 145.11473301 48.53125 146.4921875 C44.92749063 146.32112297 42.82025881 144.68978648 39.8125 142.75 C35.38830197 140.07632118 35.38830197 140.07632118 30.42578125 139.5390625 C28.14324807 140.31542213 28.14324807 140.31542213 26.16015625 141.375 C23.50991575 142.63842937 20.95707252 142.97972409 18.0625 143.375 C17.88074219 144.17164063 17.69898438 144.96828125 17.51171875 145.7890625 C14.35915072 159.07834928 14.35915072 159.07834928 11.0625 162.375 C7.44593314 162.68195516 3.81549647 162.65335951 0.1875 162.6875 C-0.83214844 162.71650391 -1.85179687 162.74550781 -2.90234375 162.77539062 C-3.88074219 162.78376953 -4.85914063 162.79214844 -5.8671875 162.80078125 C-7.21659424 162.82265503 -7.21659424 162.82265503 -8.59326172 162.8449707 C-10.9375 162.375 -10.9375 162.375 -12.70996094 160.53735352 C-14.28473179 157.7633389 -14.69363686 155.12343867 -15.3125 152 C-16.54260802 147.73786791 -17.32258123 145.84681932 -20.875 143.12109375 C-27.18278797 139.89079687 -27.18278797 139.89079687 -34.0390625 140.07421875 C-37.62478181 141.68344318 -40.98277437 143.56807671 -44.375 145.546875 C-47.95751064 146.70463758 -49.57532876 145.99075846 -52.9375 144.375 C-55.640625 142.09765625 -55.640625 142.09765625 -58.1875 139.4375 C-59.03828125 138.56222656 -59.8890625 137.68695313 -60.765625 136.78515625 C-62.9375 134.375 -62.9375 134.375 -64.9375 131.375 C-64.66213383 126.54601765 -62.9167294 123.42353861 -60.5 119.3125 C-58.65615659 115.38646269 -57.84742178 113.1491628 -58.3515625 108.81640625 C-59.95515218 104.48277893 -61.5387377 100.76875785 -65.68798828 98.35791016 C-68.94024963 96.95309689 -72.22953796 96.02035205 -75.671875 95.20703125 C-78.9375 94.375 -78.9375 94.375 -80.9375 92.375 C-81.41648442 88.74961122 -81.3078783 85.0909522 -81.3125 81.4375 C-81.33699219 80.42236328 -81.36148438 79.40722656 -81.38671875 78.36132812 C-81.39058594 77.38744141 -81.39445313 76.41355469 -81.3984375 75.41015625 C-81.40665527 74.5169165 -81.41487305 73.62367676 -81.42333984 72.70336914 C-80.9375 70.375 -80.9375 70.375 -79.11352539 68.62060547 C-76.20332666 66.9547428 -73.23635437 66.29753441 -70 65.4375 C-65.78159803 63.9991085 -63.52172234 63.15940281 -60.83984375 59.55859375 C-58.21160653 53.85704212 -58.21160653 53.85704212 -58.67578125 47.80859375 C-60.39381039 44.49487191 -62.18156997 41.22568127 -64.01171875 37.97265625 C-65.23611663 34.53710946 -65.06603448 32.84877021 -63.9375 29.375 C-62.2711559 27.01770615 -60.32428759 25.06208335 -58.25 23.0625 C-57.73244141 22.52560547 -57.21488281 21.98871094 -56.68164062 21.43554688 C-54.18690549 18.97187943 -52.30622004 17.51156298 -48.984375 16.28125 C-45.60903214 16.3851067 -43.61099207 17.37477674 -40.73583984 19.08544922 C-36.19523445 21.77454562 -32.58720428 23.52687754 -27.24609375 23.03515625 C-22.9050898 21.41036637 -19.32184208 19.78435857 -16.92919922 15.62011719 C-15.52257371 12.3682674 -14.58205965 9.08370327 -13.76953125 5.640625 C-11.91662189 -1.63182677 -6.3441954 0.00802555 0 0 Z M-3.9375 10.375 C-4.24042969 11.42300781 -4.54335937 12.47101563 -4.85546875 13.55078125 C-5.27767409 14.92998535 -5.70090529 16.3088757 -6.125 17.6875 C-6.41987305 18.72293945 -6.41987305 18.72293945 -6.72070312 19.77929688 C-7.74728818 23.04857543 -8.55203646 25.06792484 -11.26171875 27.2265625 C-14.00475691 28.40386647 -16.7362464 29.47595091 -19.5625 30.4375 C-22.77433257 31.53304289 -25.09048218 32.47698812 -27.9375 34.375 C-35.2026611 35.61162317 -40.72071143 31.80495231 -46.9375 28.375 C-49.604008 30.54088845 -49.604008 30.54088845 -51.9375 33.375 C-51.64789199 37.33736416 -50.03883586 40.14385389 -48.125 43.5625 C-45.81082595 48.55097893 -45.81082595 48.55097893 -46.32421875 51.890625 C-47.3125 54.3125 -47.3125 54.3125 -48.59765625 56.7578125 C-50.05143177 59.38321655 -50.05143177 59.38321655 -50.80859375 62.4921875 C-53.10342774 70.28129209 -53.10342774 70.28129209 -56.61279297 72.37402344 C-60.91916833 74.22625113 -65.39172418 75.28290508 -69.9375 76.375 C-71.14311184 77.35767859 -71.14311184 77.35767859 -71.03515625 79.22265625 C-71.02355469 79.95355469 -71.01195312 80.68445313 -71 81.4375 C-70.979375 82.736875 -70.95875 84.03625 -70.9375 85.375 C-68.48035453 86.21198386 -66.02191143 87.04472424 -63.5625 87.875 C-62.86382812 88.11347656 -62.16515625 88.35195313 -61.4453125 88.59765625 C-57.77346921 89.91235912 -57.77346921 89.91235912 -53.9375 90.375 C-53.77894531 91.04144531 -53.62039062 91.70789063 -53.45703125 92.39453125 C-52.12566091 97.65381188 -50.59321108 102.16053222 -48 106.9375 C-46.50809331 110.05491696 -45.81264644 111.64896079 -46.40234375 115.078125 C-47.41857077 117.63978404 -48.58189649 119.9775901 -49.9375 122.375 C-50.52500462 123.58131072 -51.10908757 124.78930339 -51.6875 126 C-52.1 126.78375 -52.5125 127.5675 -52.9375 128.375 C-50.77161155 131.041508 -50.77161155 131.041508 -47.9375 133.375 C-43.16695408 133.00439561 -39.5225696 130.64655499 -35.4375 128.3359375 C-31.5219427 126.83089516 -29.05613455 127.91632684 -25.2890625 129.4609375 C-23.41295529 130.34792228 -21.53801949 131.23738763 -19.6640625 132.12890625 C-17.42764277 133.15099492 -15.26702385 133.92916564 -12.9375 134.6875 C-8.65933179 137.09396962 -8.24959259 139.85281923 -6.9375 144.375 C-6.39526987 145.71670433 -5.83398717 147.05093693 -5.25 148.375 C-4.816875 149.365 -4.38375 150.355 -3.9375 151.375 C-1.2975 151.375 1.3425 151.375 4.0625 151.375 C6.14385307 146.07701036 7.77541613 140.91936129 9.0625 135.375 C9.74054688 135.21644531 10.41859375 135.05789063 11.1171875 134.89453125 C17.19357645 133.37122599 22.35330067 131.41981834 27.7734375 128.265625 C30.70062356 127.12671984 32.08978505 127.42850962 35.0625 128.375 C37.65457541 129.6291012 40.14580387 131.01160401 42.66015625 132.4140625 C45.37660105 133.50064042 46.39082568 133.45060914 49.0625 132.375 C50.95911743 131.22853452 50.95911743 131.22853452 52.0625 129.375 C51.5163143 124.58160904 49.36225998 121.00993477 47.0234375 116.875 C45.51789091 112.95813082 46.57696056 110.50679751 48.18359375 106.76171875 C48.83521484 105.42560547 48.83521484 105.42560547 49.5 104.0625 C51.6309405 99.51731478 53.04410174 95.28182797 54.0625 90.375 C55.16658203 90.08496094 55.16658203 90.08496094 56.29296875 89.7890625 C57.26878906 89.52867187 58.24460937 89.26828125 59.25 89 C60.21292969 88.74476563 61.17585937 88.48953125 62.16796875 88.2265625 C64.88460207 87.42733704 67.45387175 86.4718638 70.0625 85.375 C70.0625 82.735 70.0625 80.095 70.0625 77.375 C69.41023437 77.12105469 68.75796875 76.86710937 68.0859375 76.60546875 C67.21195313 76.26128906 66.33796875 75.91710937 65.4375 75.5625 C64.57898438 75.22605469 63.72046875 74.88960938 62.8359375 74.54296875 C61.92070312 74.15753906 61.00546875 73.77210938 60.0625 73.375 C59.01707031 72.96121094 57.97164062 72.54742187 56.89453125 72.12109375 C52.39506055 69.34693733 51.8111976 65.54854876 50.1875 60.71484375 C49.17601728 57.47517944 49.17601728 57.47517944 47.875 54.94140625 C46.76935686 52.58759565 46.16317215 50.98372186 46.0625 48.375 C47.34895338 45.05131062 48.90049707 42.12377109 50.7421875 39.07421875 C52.25765518 36.54244044 52.25765518 36.54244044 51.91796875 34.16015625 C50.61669256 31.44470775 48.46742243 30.10161098 46.0625 28.375 C45.34964844 28.808125 44.63679688 29.24125 43.90234375 29.6875 C33.84961678 35.53242336 33.84961678 35.53242336 28.0625 34.375 C25.48415973 33.25176265 23.02814421 32.00934743 20.5625 30.65625 C18.24407007 29.46805466 16.12232201 28.76028115 13.625 28.0625 C9.55018703 26.13232544 9.55018703 26.13232544 8.25 22.6875 C7.84038994 21.2538648 7.44508808 19.81608176 7.0625 18.375 C6.5154379 16.86930105 5.95346169 15.36891711 5.375 13.875 C4.941875 12.72 4.50875 11.565 4.0625 10.375 C1.4225 10.375 -1.2175 10.375 -3.9375 10.375 Z " fill="#000000" transform="translate(255.9375,299.625)"/>
<path d="M0 0 C8.4887893 6.08363233 13.72063652 14.18677913 15.53125 24.4921875 C16.67602573 36.49643297 14.14418637 45.47492664 6.765625 55.0078125 C0.28357102 62.21513126 -7.79436493 65.75863907 -17.34765625 66.80859375 C-27.82571439 67.23208763 -37.36606971 64.43070356 -45.4296875 57.61328125 C-54.04564505 48.65070471 -56.98884791 39.28482698 -56.78125 27.0625 C-55.935224 17.39665293 -51.68251592 9.43094159 -44.69140625 2.80859375 C-31.68951366 -7.85348995 -14.25536812 -8.70660141 0 0 Z M-39.90625 13.8671875 C-45.25976411 20.94959852 -46.6377897 27.75222406 -45.46875 36.4921875 C-43.03277379 44.21152546 -38.66609983 49.6444729 -31.59375 53.51953125 C-25.09386081 56.36323277 -18.01751415 56.55614761 -11.28125 54.3671875 C-4.10882172 51.22925013 0.42942683 46.37944409 3.64453125 39.265625 C5.87128708 32.30088211 5.47308122 25.76464461 2.46875 19.1171875 C-1.43530765 12.26584125 -6.85683276 7.73832701 -14.46875 5.4921875 C-24.495918 4.21393662 -32.92995738 6.27382723 -39.90625 13.8671875 Z " fill="#000000" transform="translate(276.46875,350.5078125)"/>
<path d="M0 0 C0.76615128 -0.00365067 1.53230255 -0.00730133 2.32167053 -0.01106262 C4.85594807 -0.01917317 7.38958721 -0.00555417 9.92382812 0.0090332 C11.68355306 0.00955175 13.44327857 0.00903426 15.20300293 0.00752258 C18.89177086 0.00761233 22.58032035 0.01804651 26.26904297 0.03613281 C31.00050782 0.05882008 35.73165339 0.05936434 40.46315765 0.05261517 C44.09709518 0.04927578 47.73095973 0.0559047 51.36488342 0.0657444 C53.10962034 0.06959721 54.85436538 0.07074428 56.59910583 0.06915855 C59.03628032 0.06878824 61.47304348 0.08139847 63.91015625 0.09765625 C64.63336563 0.09517883 65.35657501 0.09270142 66.10169983 0.09014893 C69.77501068 0.12931287 71.31185366 0.27683148 74.45507812 2.37231445 C74.75740008 5.02300204 74.86456506 7.44138031 74.84326172 10.0949707 C74.84851868 10.89184296 74.85377563 11.68871521 74.85919189 12.50973511 C74.87242785 15.15162588 74.86364134 17.79291724 74.85351562 20.43481445 C74.85553533 22.26562618 74.8584459 24.09643713 74.86221313 25.92724609 C74.86664136 29.76741177 74.86018948 33.60736835 74.84619141 37.44750977 C74.82909919 42.37759544 74.83893772 47.30719122 74.8569088 52.23725891 C74.86773323 56.01871452 74.86430648 59.80005339 74.85652542 63.58151245 C74.8545197 65.39964862 74.85699568 67.21779527 74.86396408 69.03591919 C74.87155666 71.57411908 74.8600058 74.11151818 74.84326172 76.6496582 C74.84933441 77.40608612 74.8554071 78.16251404 74.86166382 78.94186401 C74.83602905 81.03222656 74.83602905 81.03222656 74.45507812 84.37231445 C71.45507812 86.37231445 71.45507812 86.37231445 68.33007812 86.05981445 C65.45507812 85.37231445 65.45507812 85.37231445 64.45507812 84.37231445 C64.36067834 82.10239559 64.33765586 79.82949478 64.34155273 77.55761719 C64.34140671 76.84546051 64.34126068 76.13330383 64.34111023 75.39956665 C64.34180942 73.03498333 64.34960207 70.67047784 64.35742188 68.3059082 C64.35928603 66.67065982 64.36070995 65.03541088 64.36170959 63.40016174 C64.36553495 59.0879666 64.37536537 54.77580493 64.38641357 50.46362305 C64.39662732 46.066655 64.40120714 41.66968156 64.40625 37.27270508 C64.41698763 28.63922614 64.43406426 20.00577446 64.45507812 11.37231445 C63.11203865 11.38230721 63.11203865 11.38230721 61.74186707 11.39250183 C53.31047963 11.45257345 44.87916391 11.49826873 36.44761181 11.52775097 C32.11268687 11.54341757 27.77793853 11.56467379 23.44311523 11.59863281 C19.26099724 11.6311911 15.07904928 11.64915998 10.89681435 11.65694618 C9.29997391 11.66249607 7.70314294 11.67333351 6.10637474 11.68950462 C3.87238719 11.71123254 1.63910524 11.71428341 -0.5949707 11.71289062 C-1.86738113 11.71955246 -3.13979156 11.72621429 -4.45075989 11.733078 C-7.54492188 11.37231445 -7.54492188 11.37231445 -9.45585632 10.00727844 C-11.0221062 7.6559396 -10.9593777 6.13535327 -10.54492188 3.37231445 C-7.99783734 -0.58188132 -4.24917001 -0.04491029 0 0 Z " fill="#000000" transform="translate(421.544921875,19.627685546875)"/>
<path d="M0 0 C0.76615128 -0.00511093 1.53230255 -0.01022186 2.32167053 -0.01548767 C4.85580237 -0.0293952 7.38966265 -0.02842625 9.92382812 -0.02612305 C11.68355409 -0.03000896 13.44327912 -0.03434341 15.20300293 -0.03910828 C18.89171387 -0.0465727 22.58032911 -0.04627733 26.26904297 -0.04101562 C31.00056638 -0.03521657 35.7316989 -0.05216132 40.46315765 -0.0753603 C44.09708962 -0.09007666 47.73092694 -0.09097228 51.36488342 -0.08785057 C53.10963211 -0.08836471 54.85438597 -0.09361969 56.59910583 -0.10366249 C59.03638286 -0.11597103 61.47289193 -0.10926967 63.91015625 -0.09765625 C64.63336563 -0.10529999 65.35657501 -0.11294373 66.10169983 -0.12081909 C68.98057024 -0.09043069 70.99323783 -0.02730254 73.43835449 1.57136536 C75.19242421 4.5099165 74.22044277 7.0954512 73.45507812 10.2746582 C70.51261085 11.74589184 67.90322791 11.39390585 64.61865234 11.38818359 C63.91610321 11.38832962 63.21355408 11.38847565 62.48971558 11.3886261 C60.16303439 11.38792835 57.83643286 11.38014239 55.50976562 11.37231445 C53.89836674 11.37044978 52.28696728 11.36902611 50.67556763 11.36802673 C46.4307906 11.3642054 42.1860477 11.35437838 37.94128418 11.34332275 C33.61125144 11.33310039 29.2812132 11.32852734 24.95117188 11.32348633 C16.45245829 11.31275578 7.95377245 11.29568395 -0.54492188 11.2746582 C-0.53826004 12.17001785 -0.53159821 13.0653775 -0.5247345 13.98786926 C-0.46466288 22.41925669 -0.4189676 30.85057242 -0.38948536 39.28212452 C-0.37381876 43.61704945 -0.35256254 47.9517978 -0.31860352 52.28662109 C-0.28604523 56.46873908 -0.26807635 60.65068705 -0.26029015 64.83292198 C-0.25474026 66.42976242 -0.24390281 68.02659339 -0.2277317 69.62336159 C-0.20600379 71.85734914 -0.20295292 74.09063109 -0.2043457 76.32470703 C-0.19768387 77.59711746 -0.19102203 78.86952789 -0.18415833 80.18049622 C-0.54492188 83.2746582 -0.54492188 83.2746582 -1.87089539 85.22465515 C-3.54492188 86.2746582 -3.54492188 86.2746582 -6.66992188 86.0246582 C-9.54492187 85.2746582 -9.54492187 85.2746582 -10.54492188 84.2746582 C-10.65592977 81.72964181 -10.70231001 79.21150444 -10.70605469 76.66552734 C-10.71101959 75.86880112 -10.7159845 75.07207489 -10.72109985 74.25120544 C-10.7357576 71.60406648 -10.74252907 68.95698741 -10.74804688 66.30981445 C-10.75379489 64.47757464 -10.75955266 62.64533485 -10.76531982 60.81309509 C-10.77583979 56.96702798 -10.78167608 53.12098183 -10.78515625 49.27490234 C-10.79064632 44.33698974 -10.81468103 39.39935215 -10.8431282 34.46152592 C-10.86171389 30.67580851 -10.86695798 26.89015792 -10.86849213 23.10439873 C-10.87152788 21.28345675 -10.87958723 19.46251619 -10.89267731 17.64161873 C-10.90965499 15.09859156 -10.90787827 12.55624379 -10.90136719 10.01318359 C-10.91058197 9.25518463 -10.91979675 8.49718567 -10.92929077 7.71621704 C-10.91241455 5.62147522 -10.91241455 5.62147522 -10.54492188 2.2746582 C-6.90298876 -0.15329721 -4.20950242 -0.01442002 0 0 Z " fill="#000000" transform="translate(26.544921875,19.725341796875)"/>
<path d="M0 0 C2.875 0.6875 2.875 0.6875 3.875 1.6875 C3.98067349 4.20213844 4.02178222 6.68945215 4.02026367 9.20483398 C4.02362228 9.99180664 4.0269809 10.7787793 4.03044128 11.58959961 C4.03997979 14.20428016 4.04189584 16.81889686 4.04296875 19.43359375 C4.04617931 21.24341356 4.04954322 23.05323311 4.05305481 24.86305237 C4.05905334 28.66204429 4.06089397 32.46101344 4.06030273 36.26000977 C4.06020107 41.13732773 4.0738546 46.01450025 4.09107494 50.89178371 C4.10217226 54.63117651 4.10422264 58.3705339 4.10369301 62.10994148 C4.10487651 63.90854456 4.10931885 65.70714845 4.11702538 67.5057354 C4.12677972 70.01751885 4.12396543 72.52898333 4.11791992 75.04077148 C4.12353943 75.78941971 4.12915894 76.53806793 4.13494873 77.30940247 C4.1033156 82.4591844 4.1033156 82.4591844 1.875 84.6875 C-0.70405273 84.88585567 -3.17571831 84.96027102 -5.75585938 84.94628906 C-6.54297806 84.9497937 -7.33009674 84.95329834 -8.1410675 84.95690918 C-10.75038396 84.96573243 -13.35943065 84.95987532 -15.96875 84.953125 C-17.77714083 84.95447148 -19.58553131 84.95641187 -21.3939209 84.95892334 C-25.18696534 84.9618754 -28.9799157 84.95757433 -32.77294922 84.94824219 C-37.64240762 84.9368476 -42.51164558 84.94340663 -47.38109589 84.95538712 C-51.11620758 84.9626035 -54.85126675 84.96031881 -58.58638 84.95513153 C-60.38218715 84.95379442 -62.17799902 84.95544489 -63.97380066 84.96009064 C-66.48070974 84.96515226 -68.98725848 84.95745093 -71.49414062 84.94628906 C-72.2412178 84.95033752 -72.98829498 84.95438599 -73.75801086 84.95855713 C-78.89647131 84.91602869 -78.89647131 84.91602869 -81.125 82.6875 C-81.375 79.6875 -81.375 79.6875 -81.125 76.6875 C-79.125 74.6875 -79.125 74.6875 -76.11312866 74.44699097 C-74.17453476 74.4536528 -74.17453476 74.4536528 -72.19677734 74.46044922 C-71.12832329 74.46001114 -71.12832329 74.46001114 -70.0382843 74.45956421 C-67.67904566 74.46095984 -65.32012111 74.47653173 -62.9609375 74.4921875 C-61.32711968 74.49591681 -59.69329962 74.49876417 -58.05947876 74.50076294 C-53.75547124 74.5084059 -49.45159832 74.52806001 -45.14764404 74.5501709 C-40.75730205 74.5706151 -36.36693835 74.5797616 -31.9765625 74.58984375 C-23.35931318 74.61130534 -14.74217332 74.64544919 -6.125 74.6875 C-6.13499275 73.32233749 -6.13499275 73.32233749 -6.14518738 71.92959595 C-6.20522252 63.36545114 -6.25093563 54.80137669 -6.28043652 46.23707008 C-6.29611294 41.83373689 -6.31738698 37.43057712 -6.35131836 33.02734375 C-6.38384175 28.78039209 -6.40183811 24.53360754 -6.40963173 20.28654099 C-6.41518792 18.66375471 -6.42603743 17.04097788 -6.44219017 15.41826248 C-6.46387178 13.1505459 -6.46697091 10.88352569 -6.46557617 8.61572266 C-6.47556892 6.67712875 -6.47556892 6.67712875 -6.48576355 4.69937134 C-6.36671158 3.7054538 -6.24765961 2.71153625 -6.125 1.6875 C-3.125 -0.3125 -3.125 -0.3125 0 0 Z " fill="#000000" transform="translate(492.125,304.3125)"/>
<path d="M0 0 C2.875 0.6875 2.875 0.6875 3.875 1.6875 C3.96939978 3.95741887 3.99242226 6.23031967 3.98852539 8.50219727 C3.98867142 9.21435394 3.98881744 9.92651062 3.9889679 10.6602478 C3.9882687 13.02483112 3.98047606 15.38933661 3.97265625 17.75390625 C3.97079209 19.38915463 3.96936818 21.02440357 3.96836853 22.65965271 C3.96454318 26.97184785 3.95471275 31.28400952 3.94366455 35.59619141 C3.9334508 39.99315946 3.92887099 44.39013289 3.92382812 48.78710938 C3.91309049 57.42058831 3.89601387 66.05404 3.875 74.6875 C4.78510834 74.68305878 5.69521667 74.67861755 6.63290405 74.67404175 C15.19706579 74.63401824 23.76119626 74.60354274 32.32542992 74.58387566 C36.72871251 74.57342482 41.13191802 74.55924204 45.53515625 74.53662109 C49.78209824 74.51493888 54.02896596 74.50294117 58.27595901 74.49774551 C59.89873042 74.49404142 61.52149762 74.48680854 63.14423752 74.47603989 C65.41184117 74.4615862 67.67913528 74.45951946 69.94677734 74.46044922 C71.23917328 74.456008 72.53156921 74.45156677 73.86312866 74.44699097 C76.875 74.6875 76.875 74.6875 78.875 76.6875 C79.125 79.6875 79.125 79.6875 78.875 82.6875 C76.38247164 85.18002836 74.90951019 84.93040464 71.50801086 84.95855713 C70.3873951 84.95248444 70.3873951 84.95248444 69.24414062 84.94628906 C68.45702194 84.9497937 67.66990326 84.95329834 66.8589325 84.95690918 C64.24961604 84.96573243 61.64056935 84.95987532 59.03125 84.953125 C57.22285917 84.95447148 55.41446869 84.95641187 53.6060791 84.95892334 C49.81303466 84.9618754 46.0200843 84.95757433 42.22705078 84.94824219 C37.35759238 84.9368476 32.48835442 84.94340663 27.61890411 84.95538712 C23.88379242 84.9626035 20.14873325 84.96031881 16.41362 84.95513153 C14.61781285 84.95379442 12.82200098 84.95544489 11.02619934 84.96009064 C8.51929026 84.96515226 6.01274152 84.95745093 3.50585938 84.94628906 C2.7587822 84.95033752 2.01170502 84.95438599 1.24198914 84.95855713 C-3.89647131 84.91602869 -3.89647131 84.91602869 -6.125 82.6875 C-6.32858768 80.10874658 -6.4082148 77.63692379 -6.3996582 75.05664062 C-6.4073246 73.8759626 -6.4073246 73.8759626 -6.41514587 72.6714325 C-6.42907892 70.06212828 -6.42808251 67.45308705 -6.42578125 64.84375 C-6.42966582 63.03535869 -6.43399999 61.2269683 -6.43876648 59.4185791 C-6.44623644 55.62553959 -6.44593158 51.83259315 -6.44067383 48.03955078 C-6.43487471 43.17002101 -6.45181702 38.30087105 -6.4750185 33.43140411 C-6.48972284 29.69628661 -6.49063212 25.96126131 -6.48750877 22.22612 C-6.48802354 20.43030545 -6.49329019 18.63448595 -6.50332069 16.83869934 C-6.51560576 14.33166534 -6.50894205 11.82538065 -6.49731445 9.31835938 C-6.50495819 8.5712822 -6.51260193 7.82420502 -6.52047729 7.05448914 C-6.4992218 4.98962402 -6.4992218 4.98962402 -6.125 1.6875 C-3.125 -0.3125 -3.125 -0.3125 0 0 Z " fill="#000000" transform="translate(22.125,304.3125)"/>
<path d="M0 0 C4.92036407 4.49781372 8.52232402 9.02306971 9.3359375 15.796875 C9.43889561 23.58050833 8.59101661 29.6564892 3.52734375 35.78125 C-1.52969707 40.65896313 -7.62019223 42.78134091 -14.58203125 43.12890625 C-21.52120864 42.77715071 -26.56847004 40.32675042 -31.53515625 35.51171875 C-36.97814818 29.37050045 -37.57107255 23.55020075 -37.4375 15.5859375 C-36.65544639 9.17589097 -33.93083823 4.42552129 -28.9609375 0.3125 C-19.99839565 -5.59539276 -9.07928924 -6.036046 0 0 Z M-24 11 C-26.37338028 14.85674295 -27.37373483 17.69247981 -26.5625 22.125 C-25.18049301 26.46483904 -22.87833776 28.58518592 -19 31 C-14.92891224 32.16316793 -12.80971865 32.28578305 -8.8125 30.875 C-5.64104911 28.76069941 -3.88340042 27.33216997 -2 24 C-1.30430961 19.70078975 -1.52279351 16.15534203 -3.1875 12.125 C-6.47859509 8.26647473 -8.86347688 7.12628035 -13.9375 6.5625 C-18.24529758 6.75757008 -20.76909056 8.06964027 -24 11 Z " fill="#000000" transform="translate(118,99)"/>
</svg>
