<?xml version="1.0" encoding="UTF-8"?>
<svg version="1.1" xmlns="http://www.w3.org/2000/svg" width="512" height="512">
<path d="M0 0 C0.88657646 -0.00297112 1.77315291 -0.00594224 2.68659532 -0.0090034 C5.66349941 -0.01768915 8.64036329 -0.01919856 11.61727905 -0.02069092 C13.7494007 -0.02531925 15.88152151 -0.03034393 18.01364136 -0.03573608 C23.81141138 -0.04886227 29.60916982 -0.05530569 35.40695238 -0.05974674 C39.02995364 -0.06267764 42.65295172 -0.06678252 46.27595139 -0.07125092 C57.61355469 -0.08492758 68.95115075 -0.09459292 80.28876173 -0.09845281 C93.37200447 -0.1029315 106.45514262 -0.12047002 119.53835356 -0.1494534 C129.65315865 -0.17108204 139.76793435 -0.18115775 149.88276231 -0.18249393 C155.92268224 -0.18354127 161.96250388 -0.18943404 168.00239944 -0.20731354 C173.68722919 -0.22381414 179.37188699 -0.22593996 185.05673218 -0.21717453 C187.13918901 -0.21640518 189.22165515 -0.22073341 191.30408859 -0.23063278 C194.15572821 -0.24338977 197.00676226 -0.23745503 199.85839844 -0.22705078 C200.67476827 -0.23510719 201.49113811 -0.24316359 202.33224642 -0.25146413 C219.17340794 -0.10859954 230.20388147 9.41078686 241.45077515 20.78497314 C242.5873048 21.9213474 243.72450469 23.05705169 244.86233521 24.19212341 C247.23188089 26.56029314 249.5943779 28.93520585 251.95175171 31.31549072 C254.95440169 34.34653865 257.97238063 37.36175137 260.99560928 40.37225819 C263.34173809 42.71139024 265.68037432 45.05790048 268.01680756 47.40671349 C269.12619941 48.52057993 270.2376287 49.63242141 271.35123444 50.74207497 C282.06891325 61.43949475 290.60022904 71.33204562 290.68341064 87.2230835 C290.67262482 88.04739868 290.66183899 88.87171387 290.65072632 89.7210083 C290.6511644 90.61979706 290.65160248 91.51858582 290.65205383 92.4446106 C290.64998533 95.37730628 290.62674697 98.30941019 290.6031189 101.24200439 C290.59751603 103.29037158 290.5932492 105.33874282 290.59025574 107.38711548 C290.57886135 112.74978956 290.54944117 118.11221564 290.5161438 123.47479248 C290.48532581 128.95836026 290.47172543 134.44196853 290.45663452 139.92559814 C290.42456591 150.6639877 290.37343562 161.40219408 290.31015015 172.14044189 C290.99939575 172.13396133 291.68864136 172.12748077 292.39877319 172.12080383 C293.30151978 172.1157634 294.20426636 172.11072296 295.1343689 172.10552979 C296.0298645 172.09904922 296.92536011 172.09256866 297.84799194 172.08589172 C307.39130582 172.29732794 313.91212893 178.77357987 320.31015015 185.14044189 C321.5012439 186.31026611 321.5012439 186.31026611 322.71640015 187.50372314 C324.5969947 189.36776317 326.46124031 191.24505108 328.31015015 193.14044189 C331.40234964 191.76370059 333.50888157 190.18799814 335.89074707 187.79362488 C336.58331604 187.10236008 337.27588501 186.41109528 337.98944092 185.69888306 C338.73867828 184.94088409 339.48791565 184.18288513 340.25985718 183.4019165 C341.45560364 182.20419868 341.45560364 182.20419868 342.67550659 180.98228455 C345.31094861 178.34034809 347.9393494 175.69151499 350.56796265 173.04278564 C352.39540648 171.20907283 354.22336547 169.37587328 356.05181885 167.54316711 C360.37357321 163.20946229 364.69120191 158.87169022 369.00651538 154.53157288 C377.19732778 146.29376702 385.39526352 138.063071 393.59722519 129.83636665 C396.29518609 127.12814879 398.98972725 124.41656181 401.68395996 121.70463562 C403.32893638 120.05283415 404.97402116 118.40114057 406.61923218 116.74957275 C407.37251801 115.98954956 408.12580383 115.22952637 408.9019165 114.44647217 C409.58884583 113.75802719 410.27577515 113.06958221 410.98352051 112.36027527 C411.58117785 111.7590985 412.17883518 111.15792173 412.79460335 110.53852749 C415.18299451 108.33524661 416.35704531 108.13609975 419.68515015 107.82794189 C423.31015015 108.14044189 423.31015015 108.14044189 425.74765015 109.64044189 C427.50656286 112.45470224 427.92452447 114.59992059 427.84107971 117.91027832 C426.72285131 122.60738394 422.87732655 125.60341692 419.50741577 128.85137939 C418.67836227 129.6816011 417.84930878 130.51182281 416.99513245 131.36720276 C414.25409259 134.10267561 411.48582509 136.80873517 408.71640015 139.51544189 C406.80671623 141.40575375 404.90305388 143.30208488 402.99923706 145.19830322 C398.4995631 149.67314455 393.9798944 154.12720849 389.45262957 158.5741148 C384.29789276 163.63933078 379.16594246 168.72737129 374.0357523 173.81742859 C363.48566473 184.28396897 352.90736871 194.72161497 342.31015015 205.14044189 C344.09215702 208.99072181 346.3869042 211.4203561 349.43515015 214.39044189 C350.34522827 215.28247314 351.2553064 216.17450439 352.19296265 217.09356689 C352.89163452 217.76903564 353.5903064 218.44450439 354.31015015 219.14044189 C358.311067 217.54210823 360.94608745 214.73256563 363.8855896 211.69683838 C364.43088318 211.1421991 364.97617676 210.58755981 365.53799438 210.01611328 C366.7192006 208.81393885 367.89821676 207.60960949 369.07528114 206.40337944 C370.9406501 204.49390986 372.81390768 202.59253053 374.68983459 200.69343567 C380.02196012 195.29417132 385.34583646 189.88699214 390.64877319 184.45904541 C393.89538704 181.13705292 397.15652564 177.82992749 400.42738914 174.53181648 C401.66928551 173.27383185 402.90560849 172.0103193 404.13613319 170.74120903 C405.85929985 168.96496394 407.60034984 167.20823856 409.3465271 165.45465088 C409.84806808 164.92839615 410.34960907 164.40214142 410.86634827 163.85993958 C414.47792692 160.28838508 417.25493196 159.25956445 422.31015015 159.14044189 C425.24765015 160.57794189 425.24765015 160.57794189 427.31015015 163.14044189 C427.9862084 166.52073318 428.21006625 167.95729573 427.31015015 171.14044189 C422.21421697 178.64118341 414.67408743 184.90487485 408.2515564 191.29669189 C407.09548852 192.45089084 405.93964409 193.60531362 404.78401184 194.75994873 C401.76631684 197.77385597 398.74562928 200.78474592 395.72427368 203.79498291 C392.63191868 206.87704264 389.54245147 209.96199422 386.45272827 213.04669189 C380.40799903 219.08074994 374.36010008 225.11161832 368.31015015 231.14044189 C369.66305713 233.95492914 370.87917627 235.92826743 373.1734314 238.05841064 C373.72869507 238.5863623 374.28395874 239.11431396 374.85604858 239.65826416 C375.4390271 240.20925781 376.02200562 240.76025146 376.62265015 241.32794189 C384.36521815 248.84509068 389.3475916 255.65940549 389.59335327 266.74005127 C389.60302124 267.42905518 389.61268921 268.11805908 389.62265015 268.82794189 C389.65165405 269.49760986 389.68065796 270.16727783 389.71054077 270.85723877 C389.82534597 280.10347267 384.68599344 287.53909262 379.93515015 295.14044189 C379.47882202 295.88294189 379.0224939 296.62544189 378.55233765 297.39044189 C376.2254289 301.15532796 373.83266648 304.85604475 371.3374939 308.51153564 C367.95392935 313.55741271 365.09903924 318.84326775 362.24765015 324.20294189 C361.09934132 326.34233388 359.95090014 328.48165483 358.80233765 330.62091064 C358.22193726 331.70549561 357.64153687 332.79008057 357.04354858 333.90753174 C354.3381042 338.95337604 351.60409235 343.98363997 348.87265015 349.01544189 C342.55136943 360.67942323 336.23668821 372.34758479 329.98471069 384.04888916 C328.81111774 386.2155618 327.61242271 388.36873754 326.39535522 390.5112915 C323.00685031 396.54656288 320.53949596 401.44387694 319.74765015 408.32794189 C318.1549481 419.08157767 312.96293402 427.4844543 304.31015015 434.14044189 C297.63019793 437.86490901 291.49395171 440.26051173 283.83106518 440.27466297 C282.71069809 440.27912082 281.590331 440.28357866 280.4360134 440.28817159 C278.58951012 440.28789505 278.58951012 440.28789505 276.70570374 440.28761292 C275.39796566 440.2912896 274.09022759 440.29496629 272.74286109 440.29875439 C269.10954939 440.30876717 265.47625421 440.31249005 261.84293067 440.3151437 C257.92515161 440.3190491 254.0073856 440.32862751 250.08961487 440.33735657 C240.62431329 440.35711799 231.15901066 440.36718839 221.69369361 440.37608436 C217.23316597 440.38046922 212.77263951 440.38583565 208.31211281 440.39107323 C193.47742681 440.40808787 178.64274155 440.42257989 163.80804729 440.42982197 C159.95840644 440.43173179 156.10876559 440.43365213 152.25912476 440.43560791 C150.82395281 440.43633352 150.82395281 440.43633352 149.3597875 440.43707379 C133.87634081 440.44536596 118.39297158 440.47068806 102.90955868 440.50318859 C87.0021735 440.53630583 71.09482761 440.55427508 55.18740779 440.55746621 C46.26053206 440.55962737 37.33376917 440.56831782 28.40692711 440.59392738 C20.80056228 440.61569849 13.1943377 440.62365356 5.58794525 440.6139606 C1.71161444 440.6094339 -2.16442742 440.61120602 -6.04071808 440.63072205 C-9.59987025 440.64848529 -13.15852552 440.64725124 -16.71768393 440.63182475 C-18.59332394 440.62836481 -20.46896997 440.64437647 -22.34453565 440.66142923 C-40.75768926 440.52392348 -55.64478503 434.11837945 -68.68984985 421.14044189 C-69.64697876 420.23552002 -69.64697876 420.23552002 -70.6234436 419.31231689 C-81.85722388 407.80332151 -85.11384758 392.06511606 -85.05337524 376.57647705 C-84.75317171 360.53093158 -78.88398983 346.92461224 -67.8500061 335.16778564 C-58.53607028 326.42649687 -44.83531618 318.14044189 -31.68984985 318.14044189 C-31.69353703 317.07215275 -31.6972242 316.0038636 -31.7010231 314.90320206 C-31.78974839 288.93156582 -31.85551817 262.9599492 -31.89709854 236.98819351 C-31.91774 224.42853668 -31.94589094 211.86897986 -31.99160767 199.30938721 C-32.03142684 188.36480766 -32.05727113 177.42030052 -32.06620383 166.47565055 C-32.0714269 160.67838057 -32.08373602 154.88131777 -32.11277008 149.08411407 C-32.13986137 143.6307896 -32.14830754 138.17775824 -32.14228058 132.72437286 C-32.14338363 130.72001555 -32.15137474 128.71564873 -32.16667175 126.71134949 C-32.18650127 123.97985113 -32.18181487 121.24946715 -32.17086792 118.51794434 C-32.18251929 117.72027846 -32.19417065 116.92261258 -32.20617509 116.100775 C-32.16792116 112.58235231 -31.97177989 110.52898195 -29.87853622 107.64419174 C-26.69192618 105.45481256 -24.46607017 105.66841435 -20.68984985 106.14044189 C-17.50481416 107.9005932 -16.85688013 108.63935106 -15.68984985 112.14044189 C-15.58622825 114.28358064 -15.54339284 116.42981407 -15.53163147 118.57542419 C-15.5242245 119.55932167 -15.5242245 119.55932167 -15.5166679 120.56309587 C-15.50128811 122.7649007 -15.492931 124.96667637 -15.48452759 127.16851807 C-15.47494944 128.74529782 -15.4649394 130.32207501 -15.45452881 131.89884949 C-15.42746682 136.18364272 -15.40646425 140.46844698 -15.38652682 144.75327849 C-15.36467526 149.22962824 -15.33728251 153.70594394 -15.31047058 158.18226624 C-15.26053247 166.66073028 -15.21559778 175.13921321 -15.17244822 183.61771423 C-15.12308541 193.26937594 -15.06816373 202.92100351 -15.01276863 212.57263219 C-14.8989314 232.42853694 -14.79209614 252.2844743 -14.68984985 272.14044189 C-13.56510254 270.90632568 -13.56510254 270.90632568 -12.41763306 269.64727783 C-11.42118736 268.55640732 -10.42468364 267.46558981 -9.4281311 266.37481689 C-8.93542725 265.83389404 -8.44272339 265.29297119 -7.93508911 264.73565674 C6.14997379 249.33176772 26.10309046 238.29751462 47.21444702 236.95587158 C66.17715346 236.15275879 83.38879244 237.94405184 100.31015015 247.14044189 C102.75744288 250.811381 103.13236331 253.87521112 102.31015015 258.14044189 C100.24765015 260.70294189 100.24765015 260.70294189 97.31015015 262.14044189 C91.39084035 262.26376085 86.18329197 259.63734327 80.78671265 257.39434814 C62.83934605 250.92119682 43.00430591 252.69933218 25.87557983 260.51837158 C8.76778198 268.73637238 -4.38439569 282.97211922 -11.04141235 300.74981689 C-12.02167963 303.8669258 -12.91699278 306.96605156 -13.68984985 310.14044189 C-13.8806311 310.89583252 -14.07141235 311.65122314 -14.26797485 312.42950439 C-17.35431783 332.26211575 -12.93703627 352.60252502 -1.34414673 369.04962158 C-0.89233032 369.6635376 -0.44051392 370.27745361 0.0249939 370.90997314 C2.31015015 374.14044189 2.31015015 374.14044189 2.93515015 377.26544189 C2.06869556 381.25113298 0.56470159 382.73490387 -2.68984985 385.14044189 C-5.68984985 385.76544189 -5.68984985 385.76544189 -8.68984985 385.14044189 C-10.8127098 383.50747271 -12.0734803 382.21728882 -13.68984985 380.14044189 C-14.23641235 379.44692627 -14.78297485 378.75341064 -15.34609985 378.03887939 C-23.21591701 367.44223963 -27.45715706 355.8380862 -30.68984985 343.14044189 C-30.91672485 342.26259033 -31.14359985 341.38473877 -31.37734985 340.48028564 C-31.82853185 338.70375654 -32.2620943 336.92275669 -32.68984985 335.14044189 C-48.16243163 340.23160391 -57.35124971 347.13046268 -65.02578735 361.67169189 C-69.29009181 371.47051915 -69.45024103 384.08944136 -66.06484985 394.20294189 C-60.87541161 406.02835169 -52.96858071 414.44861792 -41.3421936 420.13262939 C-33.38113425 423.15759746 -26.15659463 423.42951589 -17.70913696 423.40786743 C-16.40937644 423.41239854 -15.10961592 423.41692966 -13.77046871 423.42159808 C-10.17826216 423.43378811 -6.58614902 423.43357237 -2.99392653 423.43120933 C0.88616388 423.43080016 4.76622474 423.4418496 8.64630127 423.45132446 C16.24125509 423.46791198 23.83617786 423.47343293 31.43114829 423.47454922 C37.60461604 423.47550048 43.77807357 423.47961465 49.95153809 423.48595047 C67.46108681 423.50355444 84.97061106 423.51279032 102.4801687 423.51128952 C103.42340828 423.51120961 104.36664786 423.5111297 105.33847046 423.51104736 C106.28286346 423.5109656 107.22725646 423.51088384 108.20026743 423.5107996 C123.51359772 423.50998628 138.82682974 423.5291378 154.14013159 423.5573241 C169.87020312 423.58604882 185.6002267 423.59986471 201.33032513 423.59813654 C210.15910177 423.59747264 218.98777531 423.60296533 227.81652832 423.62449265 C235.33114411 423.64269871 242.84561002 423.6470563 250.36023831 423.6334738 C254.1931943 423.62694205 258.02586269 423.6268343 261.85879135 423.6441803 C266.01589118 423.66279984 270.17232457 423.65036259 274.32943726 423.63491821 C275.53799912 423.64520534 276.74656099 423.65549247 277.99174595 423.66609132 C284.95497233 423.60884266 289.33214968 422.73763923 295.31015015 419.14044189 C296.30015015 418.81044189 297.29015015 418.48044189 298.31015015 418.14044189 C299.42950088 416.49413996 299.42950088 416.49413996 300.31015015 414.14044189 C300.70073608 413.25098877 300.70073608 413.25098877 301.09921265 412.34356689 C303.62192982 406.26075353 304.21942003 401.25799295 301.93515015 394.95294189 C301.40469705 393.67738725 300.8642975 392.40588287 300.31015015 391.14044189 C299.84608765 389.96481689 299.84608765 389.96481689 299.37265015 388.76544189 C297.94762887 386.5859976 296.72477645 386.11934445 294.31015015 385.14044189 C293.31644409 384.63303467 292.32273804 384.12562744 291.29891968 383.60284424 C286.6448372 381.61516789 282.17009645 381.75354041 277.17733765 381.80450439 C275.21769886 381.79200024 273.25806342 381.77896351 271.2984314 381.76544189 C268.23271974 381.76150329 265.16733503 381.76552653 262.10165405 381.78009033 C259.12638823 381.78865499 256.1524835 381.76700034 253.17733765 381.74200439 C252.26265717 381.75534821 251.34797668 381.76869202 250.40557861 381.78244019 C245.93035492 381.73048638 243.91767446 381.59142797 240.22885132 378.85308838 C238.3869119 376.24896714 237.69736187 375.23646508 237.7437439 372.13653564 C237.73584839 371.40185059 237.72795288 370.66716553 237.71981812 369.91021729 C237.72900269 369.14056641 237.73818726 368.37091553 237.74765015 367.57794189 C237.40309677 353.20369626 232.69249105 340.98825136 222.18515015 330.82794189 C212.12590726 322.53885342 199.88259426 318.59406951 186.88827515 319.33575439 C173.98741077 321.00135895 165.22141644 325.88739143 155.68515015 334.51544189 C152.45049085 336.72862983 150.22271891 337.21030919 146.31015015 337.14044189 C143.37265015 335.14044189 143.37265015 335.14044189 141.31015015 332.14044189 C140.83600731 328.08440812 140.76873248 325.94538144 143.07577515 322.51544189 C158.11278173 308.14044189 158.11278173 308.14044189 165.31015015 308.14044189 C161.46442282 298.95137228 156.75324384 293.01929586 147.62265015 288.76544189 C144.52408991 287.53024071 141.64625273 286.47405215 138.31015015 286.14044189 C137.36268921 286.0456958 137.36268921 286.0456958 136.39608765 285.94903564 C127.47671641 285.46051885 119.00139217 288.7069653 112.0953064 294.30841064 C106.75759999 299.78627564 102.57391738 307.36679111 102.21981812 315.11773682 C102.26811262 317.8688696 102.39466416 320.60907811 102.5640564 323.35528564 C102.68334012 327.02501435 102.44034922 328.93529629 100.45077515 332.07012939 C97.92839644 334.50965625 96.81373381 335.14044189 93.31015015 335.14044189 C90.12265015 334.14044189 90.12265015 334.14044189 87.31015015 332.14044189 C83.14390228 323.42919636 84.74051132 312.05858791 87.26327515 303.06231689 C92.08515261 289.60424099 100.76548111 279.81147686 113.62265015 273.51934814 C121.58653117 270.14044189 121.58653117 270.14044189 124.31015015 270.14044189 C124.51640015 269.29481689 124.72265015 268.44919189 124.93515015 267.57794189 C130.08634567 254.69995309 144.97547403 249.09249129 156.55667114 243.03390503 C160.11368712 241.17280037 163.66244505 239.29604152 167.2124939 237.42169189 C167.91501282 237.05131302 168.61753174 236.68093414 169.34133911 236.29933167 C175.1502478 233.23400224 180.92634901 230.11144735 186.68515015 226.95294189 C194.46014344 222.69238242 202.25299485 218.46680154 210.06015015 214.26544189 C211.14497681 213.67996582 212.22980347 213.09448975 213.34750366 212.49127197 C218.88285509 209.50692082 224.42938166 206.54770606 230.0015564 203.63262939 C243.36028526 196.60770454 256.06854799 189.06389287 268.45443726 180.43048096 C270.0597636 179.31450353 271.68339536 178.22494508 273.31015015 177.14044189 C273.62601606 174.12291975 273.74749793 171.30650904 273.74252319 168.28448486 C273.75271484 167.36735718 273.76290649 166.45022949 273.77340698 165.50531006 C273.80367716 162.4643555 273.81282428 159.42371518 273.8218689 156.38262939 C273.83870519 154.27797385 273.85685399 152.17332843 273.87626648 150.06869507 C273.92388657 144.52192344 273.95361817 138.97519282 273.97970581 133.42828369 C274.00945087 127.77105607 274.05600188 122.11396996 274.10116577 116.45684814 C274.18733546 105.35145323 274.25461983 94.2460293 274.31015015 83.14044189 C272.61656372 83.15615234 272.61656372 83.15615234 270.88876343 83.17218018 C266.65816479 83.20866508 262.42757976 83.23144502 258.1968689 83.25030518 C256.37360283 83.26029832 254.55035253 83.27389741 252.72714233 83.2913208 C225.10713567 83.54846216 225.10713567 83.54846216 215.5874939 74.50372314 C209.02336829 67.32673077 207.86619843 60.85344343 208.0171814 51.39434814 C208.02142624 50.38323471 208.02567108 49.37212128 208.03004456 48.33036804 C208.04675261 45.12094789 208.08439062 41.91217024 208.12265015 38.70294189 C208.13770714 36.51870621 208.15139377 34.33446062 208.16366577 32.15020752 C208.19663024 26.81340209 208.24675072 21.47696792 208.31015015 16.14044189 C180.38117644 16.17759266 152.4523313 16.23743007 124.52346611 16.32434464 C111.55587428 16.36416965 98.58834343 16.39654458 85.62069702 16.41143799 C74.31931702 16.42443652 63.01807102 16.45135524 51.71676648 16.49505496 C45.73168934 16.51771011 39.74677773 16.53335014 33.7616539 16.53232574 C28.1293177 16.53158154 22.49734799 16.54943628 16.86510658 16.58160973 C14.79712024 16.59013466 12.72909291 16.59184114 10.66109657 16.58624458 C7.83827058 16.57962231 5.01661666 16.59748298 2.19390869 16.62145996 C1.37483186 16.61369954 0.55575502 16.60593913 -0.28814232 16.59794354 C-5.5368829 16.67691226 -8.50862323 17.69025917 -12.68984985 21.14044189 C-14.84934294 24.18837442 -14.94425958 26.78987739 -14.96109009 30.472229 C-14.9712767 31.53690903 -14.98146332 32.60158905 -14.99195862 33.6985321 C-14.99409866 34.84338577 -14.99623871 35.98823944 -14.9984436 37.16778564 C-15.02359932 39.5929183 -15.0489974 42.01804845 -15.07461548 44.44317627 C-15.10338444 48.26600521 -15.12740305 52.08879075 -15.14614868 55.91168213 C-15.16778184 59.60144349 -15.20721645 63.29069887 -15.2484436 66.98028564 C-15.24855942 68.12311508 -15.24867523 69.26594452 -15.24879456 70.44340515 C-15.26213333 71.51123734 -15.27547211 72.57906952 -15.28921509 73.67926025 C-15.29428574 74.61539658 -15.29935638 75.5515329 -15.30458069 76.51603699 C-15.76695626 79.66568103 -16.84042408 81.57061398 -18.68984985 84.14044189 C-20.55703735 84.98809814 -20.55703735 84.98809814 -22.56484985 85.20294189 C-23.22227173 85.29704346 -23.8796936 85.39114502 -24.55703735 85.48809814 C-27.80266488 84.95904897 -29.35757163 83.40495066 -31.68984985 81.14044189 C-32.31803894 78.4801178 -32.31803894 78.4801178 -32.32095337 75.41314697 C-32.33348648 74.26127396 -32.34601959 73.10940094 -32.3589325 71.92262268 C-32.34567429 70.68094833 -32.33241608 69.43927399 -32.3187561 68.15997314 C-32.32116806 66.87741135 -32.32358002 65.59484955 -32.32606506 64.27342224 C-32.32892233 61.55714246 -32.31424188 58.84168746 -32.28677368 56.12554932 C-32.25285906 52.66666236 -32.25865155 49.20926604 -32.27743626 45.75030994 C-32.2906437 42.42838775 -32.27225113 39.10688514 -32.2562561 35.78497314 C-32.26121597 34.55341995 -32.26617584 33.32186676 -32.27128601 32.05299377 C-32.131233 21.72670031 -29.66756841 14.47162945 -22.6234436 6.86700439 C-15.9363574 0.89590924 -8.65956731 -0.00904287 0 0 Z M224.31015015 28.14044189 C224.18596257 32.44535652 224.09554013 36.7493054 224.03549194 41.05548096 C224.01044485 42.51823096 223.97639622 43.98085701 223.93295288 45.44317627 C223.87185659 47.55351409 223.8438458 49.66218941 223.8218689 51.77325439 C223.79568481 53.04056396 223.76950073 54.30787354 223.74252319 55.61358643 C224.47360028 60.15601205 225.97475045 62.01602748 229.31015015 65.14044189 C233.58314744 67.153258 237.33743021 67.37872373 242.02108765 67.33575439 C243.26503296 67.32930908 244.50897827 67.32286377 245.7906189 67.31622314 C247.07581421 67.29946533 248.36100952 67.28270752 249.68515015 67.26544189 C251.6477478 67.25190674 251.6477478 67.25190674 253.6499939 67.23809814 C256.87023385 67.21459274 260.09009722 67.18173277 263.31015015 67.14044189 C259.00864493 62.00231364 254.50352989 57.18658669 249.7593689 52.45684814 C249.05995682 51.75647934 248.36054474 51.05611053 247.63993835 50.33451843 C246.17471005 48.86861427 244.70823681 47.40395351 243.24057007 45.94049072 C240.98329333 43.68861945 238.7314657 41.43139649 236.48007202 39.17364502 C235.05265861 37.74689154 233.62493549 36.32044783 232.1968689 34.89434814 C231.52089157 34.21634659 230.84491425 33.53834503 230.14845276 32.83979797 C229.52723038 32.22172775 228.906008 31.60365753 228.26596069 30.96685791 C227.71780197 30.41949478 227.16964325 29.87213165 226.60487366 29.30818176 C225.47697585 28.0288164 225.47697585 28.0288164 224.31015015 28.14044189 Z M275.31015015 195.14044189 C274.61921265 195.58774658 273.92827515 196.03505127 273.21640015 196.49591064 C271.90001045 197.35591052 270.60168269 198.24354429 269.31015015 199.14044189 C270.72980781 202.36719204 272.43961674 204.51743112 274.92944336 207.00024414 C275.6810524 207.75460251 276.43266144 208.50896088 277.20704651 209.28617859 C278.03207169 210.10401321 278.85709686 210.92184784 279.7071228 211.76446533 C281.00966255 213.06744316 281.00966255 213.06744316 282.33851624 214.39674377 C284.71697302 216.77404662 287.09977841 219.14682687 289.48462725 221.51770687 C291.97727609 223.99784654 294.46425595 226.48365756 296.95184326 228.96887207 C301.66164367 233.67245827 306.37651875 238.37092331 311.09323919 243.06756902 C316.46351333 248.41548234 321.82810421 253.76908115 327.19222569 259.12316465 C338.2252231 270.1352614 349.26533442 281.14019785 360.31015015 292.14044189 C364.61675142 290.70490814 365.78776156 287.45394486 367.93515015 283.70294189 C368.3424939 283.00878174 368.74983765 282.31462158 369.16952515 281.59942627 C372.58468043 275.86193527 372.58468043 275.86193527 373.62265015 269.45294189 C373.66003296 268.62407471 373.69741577 267.79520752 373.7359314 266.94122314 C372.67701822 259.97571172 367.70020593 255.09311021 362.89266968 250.33477783 C362.25798767 249.69483887 361.62330566 249.0548999 360.96939087 248.39556885 C358.88469309 246.2977459 356.78930738 244.21099627 354.69296265 242.12481689 C353.23287841 240.66271004 351.77323962 239.20015824 350.31402588 237.73718262 C347.26078283 234.67952655 344.20220474 231.62733744 341.13973999 228.57891846 C337.21999542 224.67628 333.31389387 220.76030704 329.41168404 216.84014511 C326.40249162 213.82010039 323.38617585 210.80725189 320.36767197 207.79651642 C318.92460953 206.35545118 317.48376112 204.91216524 316.04520035 203.46660614 C314.03278809 201.44655424 312.01097178 199.43640302 309.98641968 197.42852783 C309.10248032 196.53547943 309.10248032 196.53547943 308.20068359 195.62438965 C303.74922801 191.24044368 299.17227519 187.76065968 292.68515015 187.51544189 C285.87216839 187.70068913 280.81243151 191.44853759 275.31015015 195.14044189 Z M248.27108765 211.74591064 C247.22823608 212.31052002 246.18538452 212.87512939 245.1109314 213.45684814 C243.98042358 214.07430908 242.84991577 214.69177002 241.68515015 215.32794189 C240.50437507 215.96896217 239.32338249 216.60958197 238.1421814 217.24981689 C235.71095895 218.56840626 233.28100543 219.88928902 230.85214233 221.21221924 C226.6459335 223.50300675 222.43421828 225.78358679 218.22225952 228.06378174 C216.26751297 229.12211115 214.31309004 230.18103851 212.35897827 231.24053955 C204.97582912 235.24317467 197.58175292 239.22523512 190.18515015 243.20294189 C166.54649887 255.81288509 166.54649887 255.81288509 143.31015015 269.14044189 C146.3543529 271.1699104 148.99050624 272.13493875 152.43515015 273.32794189 C162.01321049 276.96760482 171.58696403 283.69406965 176.31015015 293.14044189 C181.84623591 291.24112202 186.47572068 287.9521605 191.33944702 284.77325439 C195.21861701 282.28764405 198.77281089 280.22834195 203.31015015 279.14044189 C206.12265015 279.89044189 206.12265015 279.89044189 208.31015015 281.14044189 C209.8560189 284.23217941 209.60374536 286.73473742 209.31015015 290.14044189 C206.41530874 293.63230095 202.85065093 295.88792146 199.06015015 298.32794189 C197.12734478 299.57409272 195.20554861 300.83810049 193.31015015 302.14044189 C193.31015015 302.47044189 193.31015015 302.80044189 193.31015015 303.14044189 C194.47417358 303.26999268 194.47417358 303.26999268 195.66171265 303.40216064 C207.82858733 304.98472549 218.60491306 308.03617001 228.22421265 315.88262939 C230.17201314 317.33764006 230.17201314 317.33764006 232.16741943 316.97186279 C235.01175284 315.8682065 236.53689659 314.26609217 238.67977905 312.09552002 C239.96098129 310.80913635 239.96098129 310.80913635 241.26806641 309.49676514 C242.6385463 308.09835388 242.6385463 308.09835388 244.03671265 306.67169189 C244.98954468 305.71072138 245.94311815 304.75048549 246.8973999 303.79095459 C249.4052557 301.26599433 251.90440492 298.73259753 254.40139771 296.19689941 C258.40300141 292.13605751 262.4173938 288.08786625 266.43232346 284.04020691 C267.83433283 282.62422006 269.23225383 281.204189 270.63012695 279.78411865 C271.47795746 278.92652954 272.32578796 278.06894043 273.1993103 277.18536377 C273.94669464 276.42671021 274.69407898 275.66805664 275.46411133 274.88641357 C278.58685426 271.93294333 281.11632687 271.78919056 285.39608765 271.86700439 C287.31015015 272.14044189 287.31015015 272.14044189 289.37265015 273.70294189 C290.71780423 277.20034251 290.13231369 279.51204361 289.31015015 283.14044189 C287.44355774 285.7285614 287.44355774 285.7285614 284.97396851 288.15777588 C283.59264992 289.53841469 283.59264992 289.53841469 282.1834259 290.94694519 C281.17260017 291.927137 280.1614485 292.90699278 279.1499939 293.88653564 C278.11878536 294.90654329 277.08890122 295.92789147 276.06028748 296.95051575 C273.35913104 299.62884431 270.64044453 302.28865935 267.91763306 304.94494629 C265.13851119 307.66251529 262.37645271 310.39730774 259.61288452 313.13067627 C254.1951416 318.48421335 248.75875282 323.81829639 243.31015015 329.14044189 C244.67172202 332.58583257 246.14699853 335.92451796 247.74765015 339.26544189 C251.57987976 347.67599891 253.55703456 355.95243172 254.31015015 365.14044189 C257.32388835 365.51385551 259.39368855 365.75839437 262.31015015 365.14044189 C264.67555936 363.102018 266.00926343 360.56485431 267.51327515 357.85528564 C268.45506416 356.28386816 269.39848776 354.71342943 270.34335327 353.14385986 C271.06905518 351.90838409 271.06905518 351.90838409 271.80941772 350.64794922 C274.27974595 346.52038722 276.94828293 342.52706916 279.60702515 338.51934814 C280.67926504 336.88889982 281.75087668 335.25803818 282.8218689 333.62677002 C283.35473511 332.8166748 283.88760132 332.00657959 284.43661499 331.17193604 C286.07437033 328.68131652 287.7098528 326.18921388 289.3453064 323.69708252 C304.43932639 300.72099107 304.43932639 300.72099107 308.31015015 298.14044189 C314.76298034 298.59327208 314.76298034 298.59327208 317.31015015 301.14044189 C318.17587638 308.21181638 316.26297051 311.77143752 312.24765015 317.45294189 C311.07486581 319.18409704 309.90307766 320.91592728 308.73202515 322.64825439 C308.05333374 323.63986572 307.37464233 324.63147705 306.67538452 325.65313721 C302.22634038 332.18272141 297.91989557 338.80879724 293.58435059 345.41397095 C292.00381689 347.81855995 290.41818859 350.21971965 288.83139038 352.62017822 C287.84898662 354.10996398 286.8666434 355.59978966 285.8843689 357.08966064 C285.42246155 357.78667084 284.9605542 358.48368103 284.48464966 359.20181274 C282.29689772 361.96211179 282.29689772 361.96211179 281.31015015 365.14044189 C282.0371814 365.21520752 282.76421265 365.28997314 283.51327515 365.36700439 C295.33420187 366.91281789 304.93746396 371.63336994 313.31015015 380.14044189 C313.66093628 379.48898193 314.01172241 378.83752197 314.37313843 378.1663208 C314.87055542 377.24254639 315.36797241 376.31877197 315.88046265 375.36700439 C316.44015747 374.32753662 316.99985229 373.28806885 317.57650757 372.21710205 C318.83176262 369.88598476 320.08711694 367.55492123 321.34262085 365.22393799 C324.55464646 359.2601047 327.76491407 353.29534437 330.9703064 347.32794189 C331.5566687 346.23739502 332.14303101 345.14684814 332.74716187 344.02325439 C333.91081607 341.85759167 335.07261156 339.69092915 336.23251343 337.52325439 C338.99315054 332.37782311 341.79250119 327.26436693 344.7046814 322.20294189 C345.22973267 321.28174561 345.75478394 320.36054932 346.29574585 319.41143799 C347.27931243 317.69293168 348.2758719 315.98177327 349.28744507 314.27960205 C349.71775024 313.52469482 350.14805542 312.7697876 350.59140015 311.99200439 C351.16471069 311.01481445 351.16471069 311.01481445 351.74960327 310.0178833 C352.52397082 308.12561226 352.52397082 308.12561226 351.58478546 306.2785759 C350.12820638 303.83524075 348.4875958 302.06609869 346.47653198 300.05285645 C345.67732834 299.24801315 344.87812469 298.44316986 344.05470276 297.61393738 C343.17671524 296.73999832 342.29872772 295.86605927 341.39413452 294.96563721 C340.47046585 294.0384639 339.54679718 293.11129059 338.59513855 292.15602112 C336.0647483 289.61651945 333.52808014 287.08337717 330.98996162 284.55160236 C328.33600582 281.90270998 325.68693299 279.2489416 323.03707886 276.59594727 C318.58856361 272.14379465 314.13585021 267.6958734 309.68075562 263.25030518 C304.5248571 258.10530413 299.37622126 252.9531195 294.23127317 247.79716992 C289.81622902 243.37306231 285.39731492 238.95284849 280.97511721 234.53589129 C278.33269526 231.89659251 275.69165546 229.25594883 273.05409241 226.61179352 C270.11714022 223.66801376 267.17211724 220.73244223 264.22616577 217.79766846 C263.34817825 216.91563248 262.47019073 216.0335965 261.56559753 215.12483215 C260.76639389 214.33126816 259.96719025 213.53770416 259.14376831 212.72009277 C258.44764687 212.02472538 257.75152542 211.32935799 257.03430939 210.61291885 C253.77917326 207.83294771 251.65244318 209.90637557 248.27108765 211.74591064 Z " fill="#000000" transform="translate(84.68984985351563,35.85955810546875)"/>
<path d="M0 0 C0.74380197 -0.00623996 1.48760393 -0.01247993 2.25394535 -0.01890898 C4.74766246 -0.03487087 7.24040641 -0.02222287 9.73413086 -0.00964355 C11.52131725 -0.01506328 13.30849917 -0.02218509 15.09567261 -0.03088379 C19.95103254 -0.04913796 24.80605296 -0.04204098 29.66141891 -0.02936745 C34.73913244 -0.01925063 39.81681661 -0.02862946 44.89453125 -0.03491211 C53.42217231 -0.04219236 61.94967488 -0.0325909 70.47729492 -0.0135498 C80.3408102 0.00821964 90.20399476 0.00116854 100.06750202 -0.02085543 C108.53129822 -0.03899866 116.99499477 -0.04157301 125.45880413 -0.03110075 C130.51597707 -0.0248599 135.57299448 -0.02404644 140.63015747 -0.0372467 C145.38431427 -0.04878892 150.13804409 -0.04080933 154.89215469 -0.01766968 C156.63848282 -0.01237386 158.3848468 -0.01391125 160.13116074 -0.02272034 C162.51224442 -0.0336254 164.89195352 -0.01997484 167.27294922 0 C167.96672196 -0.00892289 168.66049471 -0.01784577 169.37529087 -0.02703905 C172.73561053 0.02777378 174.3851305 0.3102913 177.06129456 2.41468048 C178.76085053 4.67321752 179.20442804 5.71578053 179.19897461 8.50793457 C179.22088867 9.16793457 179.24280273 9.82793457 179.26538086 10.50793457 C178.26624914 13.68529756 176.38519481 14.71397673 173.63647461 16.50793457 C170.23969269 17.00850582 170.23969269 17.00850582 166.27331543 17.00914001 C165.54161526 17.01467441 164.80991509 17.02020881 164.05604219 17.02591091 C161.60919808 17.03950225 159.16337672 17.02455729 156.71655273 17.00964355 C154.96039904 17.0134273 153.20424832 17.0189278 151.44810486 17.02601624 C146.68156145 17.03998091 141.9153786 17.02879396 137.14885521 17.01230502 C132.16104217 16.99845704 127.17325012 17.00491432 122.1854248 17.00843811 C113.80918567 17.01114043 105.43308981 16.99766273 97.05688477 16.9744873 C87.37234131 16.94787745 77.68803743 16.9461304 68.00346994 16.95787567 C58.68786459 16.9686543 49.37234591 16.9624657 40.05674744 16.94832039 C36.09193371 16.94256134 32.12718343 16.94264264 28.16236877 16.94738579 C23.49360992 16.95215756 18.82511344 16.94204555 14.1564045 16.92043114 C12.44274849 16.91486584 10.72906725 16.91439562 9.01540947 16.919384 C6.67652626 16.92533863 4.33844477 16.91282899 1.99963379 16.89561462 C0.69072929 16.89318473 -0.6181752 16.89075483 -1.96674347 16.8882513 C-5.58862839 16.48273118 -7.48448537 15.70014087 -10.36352539 13.50793457 C-11.90939415 10.41619706 -11.6571206 7.91363905 -11.36352539 4.50793457 C-8.24317171 0.11586371 -5.05050795 -0.06495659 0 0 Z " fill="#000000" transform="translate(116.363525390625,164.4920654296875)"/>
<path d="M0 0 C0.74057284 -0.00623996 1.48114568 -0.01247993 2.24416012 -0.01890898 C4.72095535 -0.03483966 7.19676653 -0.02223515 9.67356873 -0.00964355 C11.45105055 -0.01506462 13.22852789 -0.02218719 15.0059967 -0.03088379 C19.83030755 -0.04912068 24.65427628 -0.04204845 29.47859311 -0.02936745 C34.52560428 -0.01924327 39.57258608 -0.02863136 44.61959839 -0.03491211 C53.094185 -0.04218954 61.56863218 -0.03259758 70.04319763 -0.0135498 C79.84481839 0.00822612 89.64610644 0.0011627 99.44771916 -0.02085543 C107.8605807 -0.03899831 116.27334199 -0.0415734 124.68621677 -0.03110075 C129.71207602 -0.02486061 134.73777878 -0.02404464 139.76362801 -0.0372467 C144.48743037 -0.04878865 149.210803 -0.04080985 153.93455887 -0.01766968 C155.6695999 -0.01237402 157.404677 -0.01391099 159.13970375 -0.02272034 C161.50541033 -0.03362587 163.86973353 -0.01997444 166.23535156 0 C166.92455124 -0.00892289 167.61375092 -0.01784577 168.32383543 -0.02703905 C171.67436301 0.02796673 173.30910953 0.31499917 175.97621059 2.41468048 C177.67890607 4.67338417 178.12214088 5.71399339 178.11668396 8.50793457 C178.13859802 9.16793457 178.16051208 9.82793457 178.18309021 10.50793457 C177.18366121 13.68624294 175.30431575 14.71372098 172.55418396 16.50793457 C169.14178467 17.01409245 169.14178467 17.01409245 165.15306091 17.02259827 C164.04938533 17.03301656 164.04938533 17.03301656 162.92341328 17.04364532 C160.46278713 17.06191301 158.00312539 17.05165226 155.54246521 17.04138184 C153.77645649 17.04844041 152.01045382 17.05718516 150.24446106 17.06748962 C145.4510868 17.08999904 140.65804247 17.08704047 135.86463547 17.07816815 C131.86345456 17.07306005 127.86233575 17.0803493 123.86116123 17.08764023 C114.42316833 17.10464379 104.98533711 17.10106832 95.54734802 17.08435059 C85.80817921 17.06742257 76.06945837 17.08327213 66.33033848 17.11557347 C57.96926079 17.14225448 49.60832268 17.14954958 41.24720669 17.14105839 C36.253128 17.13612558 31.25931897 17.13836412 26.26527405 17.1588459 C21.57012768 17.17718003 16.87562681 17.17127225 12.18051529 17.1466465 C10.45717823 17.14163166 8.73379217 17.14514583 7.01049423 17.15779495 C4.65802037 17.17369676 2.30767976 17.15880511 -0.04469299 17.13612366 C-2.01911125 17.13524419 -2.01911125 17.13524419 -4.03341675 17.13434696 C-8.3250856 16.34652751 -9.80517062 14.9203687 -12.44581604 11.50793457 C-13.07081604 7.94543457 -13.07081604 7.94543457 -12.44581604 4.50793457 C-8.62270087 0.48312939 -5.32533059 -0.06916953 0 0 Z " fill="#000000" transform="translate(117.44581604003906,201.4920654296875)"/>
<path d="M0 0 C1.23300842 -0.00554901 2.46601685 -0.01109802 3.73638916 -0.01681519 C7.11078731 -0.0265932 10.48365001 -0.01402705 13.85788465 0.00946999 C17.39141333 0.02960269 20.92490889 0.02369826 24.45848083 0.0213623 C30.39091442 0.02141584 36.32302914 0.04115444 42.25537109 0.07324219 C49.11228358 0.11015078 55.96877873 0.11891514 62.82577759 0.11194468 C69.42581409 0.10563837 76.02570761 0.11639516 82.62571526 0.13591003 C85.43305436 0.14408091 88.24032036 0.14679418 91.04767036 0.1452179 C94.96683136 0.14417534 98.88561434 0.16835405 102.8046875 0.1953125 C103.96999496 0.1923819 105.13530243 0.18945129 106.33592224 0.18643188 C107.40279266 0.19778168 108.46966309 0.20913147 109.56886292 0.2208252 C110.95840353 0.22641827 110.95840353 0.22641827 112.37601566 0.23212433 C115.34066484 0.69352044 116.69975396 1.53051159 118.83764648 3.61523438 C119.94138027 7.58867599 120.25308231 9.70523209 118.52514648 13.49023438 C116.83764648 15.61523438 116.83764648 15.61523438 114.83764648 16.61523438 C113.16390584 16.71663257 111.48616345 16.75468539 109.80937195 16.7624054 C108.74525085 16.7695607 107.68112976 16.776716 106.58476257 16.78408813 C105.41226456 16.78677704 104.23976654 16.78946594 103.03173828 16.79223633 C101.80077423 16.79880753 100.56981018 16.80537872 99.30154419 16.81214905 C95.91919075 16.82850499 92.53689992 16.84011145 89.1545217 16.84835458 C87.04150189 16.85350432 84.92848646 16.85958007 82.81546974 16.86586571 C76.20480863 16.88491863 69.59415869 16.89914944 62.98347539 16.90747768 C55.35165623 16.91725097 47.72012705 16.94357213 40.08841008 16.98397857 C34.19024874 17.01413534 28.29217054 17.02894612 22.39393359 17.03225869 C18.87084107 17.03460974 15.34805829 17.04357656 11.82504845 17.06871986 C7.89385055 17.09632286 3.9630344 17.09217075 0.03173828 17.08520508 C-1.13468704 17.09801514 -2.30111237 17.1108252 -3.50288391 17.12402344 C-11.34883752 17.07322924 -11.34883752 17.07322924 -15.38542175 14.80070496 C-17.16235352 12.61523438 -17.16235352 12.61523438 -17.78735352 9.17773438 C-16.04318868 -0.76400517 -8.29716577 -0.09460064 0 0 Z " fill="#000000" transform="translate(122.162353515625,238.384765625)"/>
<path d="M0 0 C0.83150574 -0.0071553 1.66301147 -0.01431061 2.51971436 -0.02168274 C5.26110211 -0.03855535 8.00085116 -0.01917635 10.7421875 0.00219727 C12.6512058 0.00136843 14.56022403 -0.0010915 16.46923828 -0.00511169 C20.46734129 -0.00796871 24.46488379 0.00672207 28.46289062 0.03417969 C33.58443469 0.06826227 38.70497657 0.06224333 43.8265686 0.04351711 C47.76774428 0.03294207 51.70868726 0.04188954 55.64984131 0.05690193 C57.53805856 0.0620805 59.42630015 0.06160589 61.31451416 0.05535698 C63.95499817 0.04989867 66.59405381 0.07029881 69.234375 0.09765625 C70.01270691 0.09113037 70.79103882 0.08460449 71.59295654 0.07788086 C75.3146323 0.14335661 77.43566644 0.51504047 80.60180664 2.53944397 C82.6171875 4.63110352 82.6171875 4.63110352 83.24609375 6.63110352 C83.21322266 7.62110352 83.21322266 7.62110352 83.1796875 8.63110352 C83.18097656 9.29110352 83.18226563 9.95110352 83.18359375 10.63110352 C82.33072219 13.64262241 81.10873991 14.72554765 78.6171875 16.63110352 C75.6693348 17.02566139 73.09541467 17.17842666 70.1484375 17.14868164 C68.86972778 17.15919556 68.86972778 17.15919556 67.56518555 17.16992188 C64.7488543 17.1875192 61.93352886 17.17587312 59.1171875 17.16235352 C57.15950325 17.16504793 55.2018203 17.16892993 53.24414062 17.1739502 C49.14179743 17.17984759 45.03980268 17.17127445 40.9375 17.15258789 C35.67798122 17.12979827 30.41927886 17.14292005 25.15979004 17.16687775 C21.1174504 17.18132915 17.07530445 17.17673274 13.03295898 17.16636658 C11.09366764 17.16369747 9.15435873 17.16697549 7.21508789 17.17628479 C4.504897 17.18643953 1.79602975 17.17096479 -0.9140625 17.14868164 C-1.71626221 17.15677856 -2.51846191 17.16487549 -3.3449707 17.17321777 C-6.88354286 17.11929374 -8.97934979 16.92511077 -11.87695312 14.81359863 C-14.11804931 11.56549887 -13.99100968 9.48301897 -13.3828125 5.63110352 C-9.53333571 0.49545966 -6.10204835 -0.09166574 0 0 Z " fill="#000000" transform="translate(118.3828125,106.368896484375)"/>
<path d="M0 0 C2.4375 1.5 2.4375 1.5 4 4 C4.87473881 8.93034601 4.87473881 8.93034601 4 12 C-0.48703994 17.30326476 -7.25667038 21.08611688 -13 24.875 C-13.86367188 25.46796875 -14.72734375 26.0609375 -15.6171875 26.671875 C-20.50816187 29.89783682 -23.93116129 32.01405341 -30 31 C-33 28.9375 -33 28.9375 -35 26 C-35.06795273 22.12669453 -34.84391757 19.96130237 -32.25708008 17.01464844 C-28.07475571 13.28154507 -23.35603106 10.33513796 -18.6875 7.25 C-17.66720703 6.55261719 -16.64691406 5.85523438 -15.59570312 5.13671875 C-6.09380686 -1.14055209 -6.09380686 -1.14055209 0 0 Z " fill="#000000" transform="translate(345,279)"/>
</svg>
