<?xml version="1.0" standalone="no"?>
<!DOCTYPE svg PUBLIC "-//W3C//DTD SVG 20010904//EN"
 "http://www.w3.org/TR/2001/REC-SVG-20010904/DTD/svg10.dtd">
<svg version="1.0" xmlns="http://www.w3.org/2000/svg"
 width="512.000000pt" height="512.000000pt" viewBox="0 0 512.000000 512.000000"
 preserveAspectRatio="xMidYMid meet">

<g transform="translate(0.000000,512.000000) scale(0.100000,-0.100000)"
fill="#000000" stroke="none">
<path d="M613 4682 l-253 -147 1 -305 0 -305 252 -145 c139 -79 259 -144 267
-144 8 0 128 65 267 144 l252 145 1 305 0 305 -252 145 c-138 80 -258 146
-267 147 -9 1 -130 -64 -268 -145z"/>
<path d="M3963 4682 l-253 -147 1 -305 0 -305 260 -149 260 -148 222 128 c122
70 239 137 259 148 l38 21 0 305 0 306 -251 144 c-139 80 -259 146 -268 147
-9 1 -130 -64 -268 -145z"/>
<path d="M1898 4278 c-30 -24 -31 -56 -4 -83 l25 -25 636 0 636 0 25 25 c27
27 26 59 -4 83 -23 18 -1291 18 -1314 0z"/>
<path d="M2320 3698 c-197 -18 -439 -87 -614 -175 -164 -82 -369 -225 -380
-265 -11 -45 39 -86 79 -65 10 5 46 31 80 56 199 154 436 260 697 313 161 33
452 33 615 0 263 -53 511 -166 711 -325 64 -50 99 -61 127 -37 30 25 18 66
-32 110 -178 157 -491 305 -758 359 -188 38 -342 47 -525 29z"/>
<path d="M2325 3264 c-229 -35 -432 -114 -605 -235 -59 -42 -70 -54 -70 -79 0
-34 23 -60 53 -60 11 0 54 23 94 51 102 70 264 145 376 174 358 91 707 30
1005 -174 94 -65 119 -72 145 -43 39 43 16 78 -102 156 -133 87 -292 154 -457
191 -68 16 -374 29 -439 19z"/>
<path d="M836 2938 c-14 -19 -16 -73 -16 -385 0 -350 1 -364 20 -383 11 -11
29 -20 40 -20 11 0 29 9 40 20 19 19 20 33 20 383 0 400 -1 407 -60 407 -18 0
-34 -8 -44 -22z"/>
<path d="M4186 2938 c-14 -19 -16 -73 -16 -385 0 -350 1 -364 20 -383 11 -11
29 -20 40 -20 11 0 29 9 40 20 19 19 20 33 20 383 0 400 -1 407 -60 407 -18 0
-34 -8 -44 -22z"/>
<path d="M2340 2826 c-122 -22 -248 -71 -342 -134 -31 -20 -38 -31 -38 -56 0
-68 41 -72 146 -15 113 62 209 90 340 96 170 9 313 -26 453 -111 32 -20 68
-36 79 -36 31 0 54 28 50 64 -3 26 -13 37 -72 73 -176 108 -419 154 -616 119z"/>
<path d="M3120 2335 l0 -55 84 0 c69 0 88 -4 110 -21 l26 -20 0 -355 0 -354
50 0 49 0 3 356 3 356 24 19 c19 15 40 19 112 19 l89 0 0 55 0 55 -275 0 -275
0 0 -55z"/>
<path d="M1540 1955 l0 -425 45 0 45 0 0 425 0 425 -45 0 -45 0 0 -425z"/>
<path d="M2353 2339 c-145 -46 -257 -179 -282 -336 -36 -230 127 -450 357
-481 132 -18 253 20 347 109 100 94 140 196 133 334 -14 276 -286 459 -555
374z m254 -101 c78 -29 152 -103 182 -183 30 -78 26 -188 -8 -253 -94 -184
-322 -241 -483 -123 -113 83 -159 233 -114 368 29 88 122 175 216 204 51 15
148 9 207 -13z"/>
<path d="M613 1332 l-253 -146 0 -306 1 -305 260 -149 260 -148 187 108 c103
59 220 126 259 148 l73 41 0 306 0 306 -254 146 c-140 81 -260 147 -268 146
-7 0 -127 -66 -265 -147z"/>
<path d="M3962 1332 l-252 -147 2 -305 3 -305 255 -147 c146 -85 261 -145 270
-142 8 3 126 69 262 147 l247 142 1 306 0 306 -254 147 c-140 80 -260 146
-267 145 -8 0 -128 -66 -267 -147z"/>
<path d="M1898 928 c-30 -24 -31 -56 -4 -83 l25 -25 636 0 636 0 24 25 c30 29
31 49 5 75 -20 20 -33 20 -663 20 -499 0 -647 -3 -659 -12z"/>
</g>
</svg>
