<?xml version="1.0" encoding="UTF-8"?>
<svg version="1.1" xmlns="http://www.w3.org/2000/svg" width="512" height="512">
<path d="M0 0 C40.40235141 -0.7840639 77.5867317 14.51021755 106.796875 42.12109375 C107.60769531 42.86746094 108.41851562 43.61382812 109.25390625 44.3828125 C136.13184565 69.99092799 150.54074151 107.46000865 151.98046875 144.1328125 C152.54795853 178.21558114 141.96823438 211.60996653 120.83984375 238.47265625 C118.72005767 241.14796077 118.72005767 241.14796077 116.75390625 244.2578125 C115.04564631 246.75712296 113.61138829 248.41536248 111.296875 250.30859375 C108.33196172 252.78754519 105.50097867 255.34927736 102.71411133 258.02709961 C75.70428892 283.70002271 37.4280738 297.02750062 0.39453125 296.3046875 C-37.42465531 294.37471815 -70.7989994 280.71671621 -98.4140625 254.69921875 C-100.35414758 252.9058628 -102.26779691 251.24466548 -104.3203125 249.59765625 C-108.83548574 245.71876758 -111.84506897 241.00011654 -115.203125 236.12109375 C-116.00858866 234.99311385 -116.81459489 233.86552122 -117.62109375 232.73828125 C-133.22078867 210.56597164 -143.3100423 183.37953107 -144.203125 156.12109375 C-144.24308594 154.92742187 -144.28304687 153.73375 -144.32421875 152.50390625 C-145.11018893 116.66455433 -133.27549411 83.19412595 -111.203125 55.12109375 C-110.17998346 53.6852357 -109.15888486 52.24791783 -108.140625 50.80859375 C-105.56913131 47.38463228 -102.66375488 44.69131203 -99.37890625 41.95703125 C-97.04686147 39.98923763 -94.85788029 37.90450671 -92.640625 35.80859375 C-67.36015833 13.11012596 -33.62897523 1.27133931 0 0 Z " fill="#162182" transform="translate(252.203125,107.87890625)"/>
<path d="M0 0 C0.96163559 -0.0071553 1.92327118 -0.01431061 2.91404724 -0.02168274 C3.96759903 -0.02437164 5.02115082 -0.02706055 6.10662842 -0.02983093 C7.21748306 -0.03640213 8.32833771 -0.04297333 9.47285461 -0.04974365 C13.15644394 -0.06948689 16.83999247 -0.0811414 20.52362061 -0.09111023 C21.780877 -0.09518576 23.03813339 -0.09926128 24.33348846 -0.10346031 C30.30129196 -0.12217332 36.26908248 -0.13673822 42.2369082 -0.14507228 C49.11651504 -0.15483925 55.99579967 -0.18114647 62.87529302 -0.22157317 C68.84093524 -0.25542167 74.80649892 -0.26722138 80.77223969 -0.27127647 C83.30636531 -0.27614937 85.84048732 -0.28778323 88.37454987 -0.30631447 C91.92222266 -0.33064602 95.46905408 -0.32975129 99.01678467 -0.32279968 C100.58496696 -0.34201477 100.58496696 -0.34201477 102.18482971 -0.36161804 C108.45408362 -0.31687358 112.20135715 0.45466407 117.32049561 4.14717102 C121.26233311 8.48319227 121.44412971 12.29390181 121.434021 18.00532532 C121.43416702 18.69826691 121.43431305 19.3912085 121.4344635 20.10514832 C121.43376723 22.39392739 121.42598821 24.68262493 121.41815186 26.97138977 C121.41628666 28.55893916 121.41486324 30.14648913 121.41386414 31.73403931 C121.41004695 35.91139822 121.40022346 40.08872234 121.38916016 44.2660675 C121.37892888 48.52916493 121.37436283 52.79226798 121.36932373 57.05537415 C121.35860049 65.4193224 121.34153364 73.78324238 121.32049561 82.14717102 C122.9621167 82.08722961 122.9621167 82.08722961 124.63690186 82.02607727 C128.32049561 82.14717102 128.32049561 82.14717102 131.25799561 84.08467102 C134.09372271 88.29529612 134.25288581 91.31450067 133.32049561 96.14717102 C132.5390371 98.96214863 131.61771219 101.7097266 130.63299561 104.45967102 C130.38960449 105.15358948 130.14621338 105.84750793 129.89544678 106.56245422 C129.6399707 107.22591858 129.38449463 107.88938293 129.12127686 108.57295227 C128.7835022 109.46107605 128.7835022 109.46107605 128.43890381 110.36714172 C126.79480723 112.98384292 124.86247138 114.40115879 122.32049561 116.14717102 C119.54840851 116.64774227 119.54840851 116.64774227 116.47589111 116.64837646 C115.30667618 116.6582106 114.13746124 116.66804474 112.93281555 116.67817688 C111.6588945 116.66850891 110.38497345 116.65884094 109.07244873 116.64888 C107.71037742 116.65266514 106.34830997 116.65816678 104.98625183 116.66525269 C101.29401707 116.67919958 97.6022487 116.66804329 93.9100399 116.65154147 C90.04331483 116.63767681 86.17661645 116.64415266 82.30987549 116.64767456 C75.81675717 116.65037557 69.32382382 116.63691058 62.83074951 116.61372375 C55.32744813 116.58711461 47.82445599 116.58536727 40.3211236 116.59711212 C33.09853827 116.60789726 25.87606463 116.60169708 18.65348816 116.58755684 C15.58181615 116.58180339 12.51022605 116.58187465 9.43855286 116.58662224 C5.82035709 116.59140017 2.20249926 116.58125696 -1.41563225 116.55966759 C-3.37434653 116.55146298 -5.33310511 116.5579436 -7.29182434 116.56486511 C-8.46103928 116.55496048 -9.63025421 116.54505585 -10.8348999 116.53485107 C-12.35579601 116.53120623 -12.35579601 116.53120623 -13.9074173 116.52748775 C-18.31516833 115.92276596 -20.89150052 114.10755075 -23.67950439 110.70967102 C-28.01093152 103.59121906 -32.03626498 95.58923686 -30.67950439 87.14717102 C-28.80935345 84.7159748 -27.39812094 83.5064793 -24.67950439 82.14717102 C-23.13926443 82.07766561 -21.59615452 82.06264745 -20.05450439 82.08467102 C-19.23723877 82.09369446 -18.41997314 82.1027179 -17.57794189 82.11201477 C-16.95145752 82.12361633 -16.32497314 82.1352179 -15.67950439 82.14717102 C-15.68616623 81.25625259 -15.69282806 80.36533417 -15.69969177 79.44741821 C-15.75983492 71.04608631 -15.80549512 62.64482685 -15.83494091 54.24332905 C-15.85058828 49.92415485 -15.87180949 45.60515874 -15.90582275 41.28608704 C-15.93844949 37.11692749 -15.9563644 32.9479391 -15.96413612 28.77866173 C-15.9696737 27.18905633 -15.98048731 25.59946017 -15.99669456 24.00992775 C-16.0185134 21.78113786 -16.02146954 19.5530527 -16.02008057 17.32417297 C-16.03007332 15.42221916 -16.03007332 15.42221916 -16.04026794 13.48184204 C-15.51308629 8.60890692 -13.77037087 6.12895085 -10.17950439 2.89717102 C-6.70853954 0.46749562 -4.12935608 0.02110367 0 0 Z " fill="#172081" transform="translate(369.67950439453125,388.8528289794922)"/>
<path d="M0 0 C1.72786995 -0.01051392 1.72786995 -0.01051392 3.49064636 -0.02124023 C7.29283863 -0.03882445 11.09428473 -0.02719503 14.89648438 -0.01367188 C17.54154605 -0.01636664 20.18660676 -0.02024893 22.83166504 -0.02526855 C28.3730475 -0.03253626 33.9142164 -0.02298053 39.45556641 -0.00390625 C45.85298163 0.0178611 52.24988688 0.01080909 58.64728975 -0.01121187 C64.81324278 -0.03158286 70.97897053 -0.02938633 77.14494324 -0.01768494 C79.76360648 -0.01501706 82.38228275 -0.01828949 85.00093079 -0.02760315 C88.66112722 -0.03776439 92.32034517 -0.02227149 95.98046875 0 C97.60307869 -0.01214539 97.60307869 -0.01214539 99.25846863 -0.02453613 C105.1127077 0.04143874 109.04129546 0.2948378 113.49023438 4.51757812 C116.40554584 8.93024885 116.85912995 12.39486218 116.83081055 17.62451172 C116.83124863 18.30813782 116.83168671 18.99176392 116.83213806 19.69610596 C116.83006237 21.93637517 116.80679061 24.17587856 116.78320312 26.41601562 C116.7776028 27.97685335 116.77333476 29.53769637 116.77033997 31.09854126 C116.75892551 35.19214625 116.72948804 39.28542823 116.69622803 43.37890625 C116.6654535 47.56180452 116.6518189 51.74475535 116.63671875 55.92773438 C116.60461468 64.12449663 116.55345998 72.32099711 116.49023438 80.51757812 C118.49422201 80.70678711 120.49820964 80.89599609 122.50219727 81.08520508 C124.49023438 81.51757812 124.49023438 81.51757812 126.92773438 83.70507812 C128.93709796 87.32193257 129.92957274 90.35368457 129.0847168 94.51489258 C128.42375575 96.73872723 127.66748366 98.9033591 126.86523438 101.08007812 C126.61644531 101.82193359 126.36765625 102.56378906 126.11132812 103.328125 C124.20272234 108.65987698 121.77370596 112.87584233 116.49023438 115.51757812 C114.69199656 115.61734461 112.89004556 115.65266614 111.08905029 115.65802002 C109.36882408 115.66658524 109.36882408 115.66658524 107.61384583 115.67532349 C105.71719429 115.67700027 105.71719429 115.67700027 103.78222656 115.67871094 C102.44192874 115.68333849 101.10163224 115.68836307 99.76133728 115.6937561 C96.11447545 115.70689036 92.46763203 115.71332735 88.82075024 115.71776676 C86.54222299 115.72069655 84.26370079 115.72480123 81.98517609 115.72927094 C74.85605764 115.74295014 67.72695071 115.75261405 60.59782004 115.75647283 C52.36895398 115.76095123 44.14025421 115.77848715 35.9114387 115.80747342 C29.55126885 115.82909912 23.19114575 115.83917762 16.83093953 115.84051394 C13.03233658 115.84156158 9.23388986 115.84746001 5.43532562 115.86533356 C1.85989794 115.88182914 -1.71525634 115.88396269 -5.29070854 115.87519455 C-7.22424686 115.87405865 -9.15777617 115.88776559 -11.09126282 115.90194702 C-21.92945652 115.84982741 -21.92945652 115.84982741 -26.50976562 112.51757812 C-28.02052789 110.19665518 -29.1489402 108.19530883 -30.25976562 105.70507812 C-30.54980469 105.10115234 -30.83984375 104.49722656 -31.13867188 103.875 C-36.42499442 92.66268574 -36.42499442 92.66268574 -35.50976562 86.51757812 C-32.95952197 83.41593044 -31.33277316 81.79191397 -27.50976562 80.51757812 C-25.17676737 80.47803578 -22.84268374 80.4735608 -20.50976562 80.51757812 C-20.51642746 79.65393646 -20.52308929 78.7902948 -20.529953 77.90048218 C-20.59013835 69.74963732 -20.63577775 61.59886742 -20.66520214 53.44785118 C-20.68083823 49.25761792 -20.70203869 45.06756874 -20.73608398 40.87744141 C-20.76875116 36.83146996 -20.78663411 32.78567524 -20.79439735 28.73958206 C-20.79992769 27.19825078 -20.81072717 25.65692884 -20.8269558 24.11567307 C-20.84882855 21.95174228 -20.85172854 19.7885358 -20.8503418 17.62451172 C-20.85700363 16.39429291 -20.86366547 15.1640741 -20.87052917 13.89657593 C-20.31900659 8.73088328 -18.80510975 5.74706272 -15.04162598 2.17492676 C-9.99521491 -0.19313473 -5.51100172 -0.04125036 0 0 Z " fill="#172182" transform="translate(41.509765625,7.482421875)"/>
<path d="M0 0 C2.06442251 -0.00217537 4.12829911 -0.02036785 6.19262695 -0.03930664 C23.9454644 -0.11533337 42.10191799 1.46567199 56.08520508 13.49780273 C65.72307128 24.69856616 67.28294977 36.77084675 66.39770508 51.18530273 C65.11867245 58.401863 60.39032775 64.29294351 54.52661133 68.54077148 C48.71442163 72.00308664 43.82960952 72.33929387 37.19189453 72.36230469 C36.36695999 72.36887589 35.54202545 72.37544708 34.6920929 72.38221741 C31.96505637 72.4019088 29.23807486 72.41360469 26.51098633 72.42358398 C25.11013825 72.42969728 25.11013825 72.42969728 23.68099022 72.43593407 C18.73638507 72.45677862 13.79180752 72.47108646 8.84716797 72.48046875 C3.75413484 72.4915205 -1.33845988 72.52591085 -6.43133831 72.56564045 C-10.3597339 72.59185586 -14.28802587 72.60016503 -18.21650124 72.60375023 C-20.09307625 72.60860465 -21.969647 72.62018582 -23.84613609 72.63878822 C-36.07033546 72.75242484 -45.63693543 72.54545735 -55.09838867 63.89624023 C-61.94491286 56.10720753 -62.03616851 47.06163578 -61.60229492 37.18530273 C-60.63514821 27.55528473 -57.09645826 18.55534157 -49.60229492 12.18530273 C-48.84432617 11.53561523 -48.08635742 10.88592773 -47.30541992 10.21655273 C-33.91135449 0.15164807 -15.98404986 -0.0018754 0 0 Z " fill="#33C99F" transform="translate(437.602294921875,72.814697265625)"/>
<path d="M0 0 C2.13684352 -0.00217577 4.27316005 -0.02036686 6.40991211 -0.03930664 C24.24960034 -0.11306684 42.90945426 1.20358255 56.71655273 13.77514648 C64.51272353 22.03792102 66.15555741 32.58373472 66.28295898 43.49780273 C66.32646484 44.72273438 66.32646484 44.72273438 66.37084961 45.97241211 C66.44523421 53.15338664 64.58194264 58.18764774 59.85717773 63.61108398 C58.76856445 64.54500977 58.76856445 64.54500977 57.65795898 65.49780273 C56.93995117 66.13331055 56.22194336 66.76881836 55.48217773 67.42358398 C49.47783645 71.6350271 44.50473119 72.62718426 37.34814453 72.51342773 C36.51462463 72.51214371 35.68110474 72.51085968 34.82232666 72.50953674 C32.08358959 72.50069982 29.34571198 72.46915605 26.60717773 72.43530273 C24.69058217 72.41993825 22.77398134 72.40521876 20.8573761 72.39111328 C16.84516012 72.35765923 12.83329031 72.31219091 8.82128906 72.2590332 C3.70056244 72.19273727 -1.41964877 72.16267532 -6.54073811 72.14254761 C-10.49857678 72.12183097 -14.45593295 72.07842429 -18.41350365 72.02868652 C-20.30031815 72.00827115 -22.18723285 71.99552315 -24.07415199 71.99084473 C-44.97064799 71.91722999 -44.97064799 71.91722999 -52.91523743 64.40136719 C-54.48926483 62.72412158 -55.78098003 61.11843298 -57.02954102 59.18530273 C-57.56836914 58.35256836 -58.10719727 57.51983398 -58.66235352 56.66186523 C-60.59450609 51.74867726 -60.52086184 47.23271896 -60.46704102 41.99780273 C-60.45801758 40.9663916 -60.44899414 39.93498047 -60.43969727 38.87231445 C-60.19191748 28.01302135 -58.11646365 20.15630228 -50.42016602 12.18920898 C-36.35360111 0.39811782 -17.42415511 -0.0019762 0 0 Z " fill="#29AAF4" transform="translate(68.029541015625,432.814697265625)"/>
<path d="M0 0 C0.92548645 -0.00281982 1.8509729 -0.00563965 2.80450439 -0.00854492 C4.33962677 -0.00550858 4.33962677 -0.00550858 5.90576172 -0.00241089 C6.97719421 -0.00416321 8.04862671 -0.00591553 9.15252686 -0.00772095 C12.71351719 -0.01214189 16.27445833 -0.00920062 19.83544922 -0.00582886 C22.29785166 -0.00650183 24.76025404 -0.00747179 27.22265625 -0.00872803 C32.3911197 -0.01020533 37.5595659 -0.0080494 42.72802734 -0.00338745 C49.36985649 0.00230985 56.01164524 -0.00096898 62.6534729 -0.00695992 C67.74048164 -0.01056465 72.82748072 -0.00942734 77.91448975 -0.00683212 C80.36423752 -0.00616261 82.81398615 -0.00699211 85.26373291 -0.00931168 C88.68089132 -0.01183677 92.09798329 -0.00799962 95.51513672 -0.00241089 C96.53855164 -0.00443512 97.56196655 -0.00645935 98.61639404 -0.00854492 C100.00462372 -0.00431519 100.00462372 -0.00431519 101.42089844 0 C102.22985565 0.00037703 103.03881287 0.00075405 103.87228394 0.0011425 C105.71044922 0.12698364 105.71044922 0.12698364 106.71044922 1.12698364 C106.80466662 3.24379682 106.82787683 5.36379123 106.82397461 7.48269653 C106.82409514 8.15684569 106.82421568 8.83099485 106.82433987 9.52557278 C106.82359096 11.71696156 106.81596376 13.90826624 106.80810547 16.09963989 C106.80663598 17.44888264 106.80561531 18.79812595 106.80505371 20.14736938 C106.79980162 25.16141614 106.78584052 30.17545071 106.77294922 35.18948364 C106.75232422 46.38885864 106.73169922 57.58823364 106.71044922 69.12698364 C69.75044922 69.12698364 32.79044922 69.12698364 -5.28955078 69.12698364 C-5.31017578 57.92760864 -5.33080078 46.72823364 -5.35205078 35.18948364 C-5.36115479 31.64850952 -5.37025879 28.1075354 -5.37963867 24.45925903 C-5.38415527 20.14736938 -5.38415527 20.14736938 -5.38499451 18.13111877 C-5.38653375 16.71782619 -5.39005829 15.30453495 -5.39512634 13.89125061 C-5.40240626 11.75504258 -5.40345812 9.61891504 -5.40307617 7.48269653 C-5.40529678 6.27690445 -5.4075174 5.07111237 -5.4098053 3.82878113 C-5.21743297 -0.49331074 -3.90534284 0.00182014 0 0 Z " fill="#FCC209" transform="translate(39.28955078125,19.873016357421875)"/>
<path d="M0 0 C36.63 0 73.26 0 111 0 C111 22.77 111 45.54 111 69 C74.37 69 37.74 69 0 69 C0 46.23 0 23.46 0 0 Z " fill="#F2867E" transform="translate(367,402)"/>
<path d="M0 0 C1.90218311 2.30059312 3.54852054 4.52212947 5.1875 7 C5.90824707 8.07761597 5.90824707 8.07761597 6.64355469 9.17700195 C20.68644461 30.54994629 30 54.16163587 30 80 C11.19 80 -7.62 80 -27 80 C-27.66 70.76 -28.32 61.52 -29 52 C-30.65166377 39.76267295 -32.98785104 27.95361816 -36 16 C-36.33357536 14.6667272 -36.66696707 13.3334084 -37 12 C-36.46221924 11.81937012 -35.92443848 11.63874023 -35.37036133 11.45263672 C-25.4748395 8.11013996 -15.83117166 4.7655517 -6.53125 -0.03125 C-3.65864347 -1.13064262 -2.81663156 -1.05516067 0 0 Z " fill="#D4E5FD" transform="translate(361,170)"/>
<path d="M0 0 C4.26756007 1.3520348 8.29461405 2.97584172 12.375 4.8125 C20.07638488 8.16128595 27.94967492 10.63717732 36 13 C35.63648438 14.28003906 35.63648438 14.28003906 35.265625 15.5859375 C32.97978167 24.11389145 31.25809985 32.65459514 29.875 41.375 C29.71676758 42.33325684 29.55853516 43.29151367 29.39550781 44.27880859 C27.53352813 56.49878215 26.95457012 68.59058843 26 81 C7.19 81 -11.62 81 -31 81 C-31 50.75787552 -18.42846914 23.43849021 0 0 Z " fill="#D4E5FD" transform="translate(152,169)"/>
<path d="M0 0 C18.81 0 37.62 0 57 0 C57 30.34686124 44.19678269 57.41777244 26 81 C19.72886987 79.01910292 13.69172913 76.49231037 7.60742188 74.00976562 C2.13165682 71.79527115 -3.37218124 69.79404318 -9 68 C-8.29896577 61.38349716 -6.98286096 54.99572917 -5.5625 48.5 C-2.10240115 32.19656705 -0.84260903 16.85218054 0 0 Z " fill="#D4E5FD" transform="translate(334,262)"/>
<path d="M0 0 C18.81 0 37.62 0 57 0 C57.99 12.375 57.99 12.375 59 25 C60.47262398 36.11161729 62.27254578 46.98698571 64.72998047 57.91162109 C65.50572571 61.39074389 66 64.41515763 66 68 C65.42668945 68.18062988 64.85337891 68.36125977 64.26269531 68.54736328 C49.29671634 73.26872948 49.29671634 73.26872948 35.1796875 80.03125 C33 81 33 81 30 80 C28.15703217 77.65981791 26.46942129 75.34199704 24.8125 72.875 C24.32418701 72.14998291 23.83587402 71.42496582 23.33276367 70.67797852 C9.3102491 49.54189449 0 25.59981854 0 0 Z " fill="#D4E5FD" transform="translate(121,262)"/>
<path d="M0 0 C2.06442251 -0.00217537 4.12829911 -0.02036785 6.19262695 -0.03930664 C23.9454644 -0.11533337 42.10191799 1.46567199 56.08520508 13.49780273 C65.72307128 24.69856616 67.28294977 36.77084675 66.39770508 51.18530273 C65.11867245 58.401863 60.39032775 64.29294351 54.52661133 68.54077148 C48.71442163 72.00308664 43.82960952 72.33929387 37.19189453 72.36230469 C36.36695999 72.36887589 35.54202545 72.37544708 34.6920929 72.38221741 C31.96505637 72.4019088 29.23807486 72.41360469 26.51098633 72.42358398 C25.11013825 72.42969728 25.11013825 72.42969728 23.68099022 72.43593407 C18.73638507 72.45677862 13.79180752 72.47108646 8.84716797 72.48046875 C3.75413484 72.4915205 -1.33845988 72.52591085 -6.43133831 72.56564045 C-10.3597339 72.59185586 -14.28802587 72.60016503 -18.21650124 72.60375023 C-20.09307625 72.60860465 -21.969647 72.62018582 -23.84613609 72.63878822 C-36.07033546 72.75242484 -45.63693543 72.54545735 -55.09838867 63.89624023 C-61.94491286 56.10720753 -62.03616851 47.06163578 -61.60229492 37.18530273 C-60.63514821 27.55528473 -57.09645826 18.55534157 -49.60229492 12.18530273 C-48.84432617 11.53561523 -48.08635742 10.88592773 -47.30541992 10.21655273 C-33.91135449 0.15164807 -15.98404986 -0.0018754 0 0 Z M-43.16479492 23.11108398 C-47.34797304 29.1471372 -48.14778029 34.50512845 -48.16479492 41.68530273 C-48.2015332 42.5012793 -48.23827148 43.31725586 -48.27612305 44.15795898 C-48.31623991 49.71191567 -47.12615038 52.69384934 -43.38330078 56.79272461 C-38.91995671 60.28263751 -34.292547 60.48662773 -28.81787109 60.49169922 C-28.04970566 60.50002274 -27.28154022 60.50834625 -26.49009705 60.516922 C-23.95843387 60.54095577 -21.42702872 60.54978619 -18.89526367 60.55639648 C-17.12795436 60.56536829 -15.36064581 60.57449023 -13.59333801 60.58375549 C-9.89049436 60.60023035 -6.18774096 60.60794278 -2.48486328 60.61083984 C2.24632348 60.61622023 6.97665508 60.65389215 11.70760059 60.69958401 C15.35803785 60.7294136 19.00827069 60.73656469 22.6588192 60.73756599 C24.40225832 60.74175706 26.14569867 60.75414648 27.88901711 60.77508354 C40.63901031 61.23480726 40.63901031 61.23480726 51.39770508 55.18530273 C55.21899419 51.36401362 55.70148215 48.15973806 55.89770508 42.93530273 C55.63894177 35.10994342 53.46143524 29.40229386 49.27270508 22.87280273 C37.69982583 12.05467648 21.16242778 11.69280626 6.19262695 11.84912109 C3.76846211 11.87284426 1.34539546 11.86963804 -1.07885742 11.86303711 C-15.55540171 11.88879066 -32.45102198 12.04911342 -43.16479492 23.11108398 Z " fill="#151F81" transform="translate(437.602294921875,72.814697265625)"/>
<path d="M0 0 C2.13684352 -0.00217577 4.27316005 -0.02036686 6.40991211 -0.03930664 C24.24960034 -0.11306684 42.90945426 1.20358255 56.71655273 13.77514648 C64.51272353 22.03792102 66.15555741 32.58373472 66.28295898 43.49780273 C66.32646484 44.72273438 66.32646484 44.72273438 66.37084961 45.97241211 C66.44523421 53.15338664 64.58194264 58.18764774 59.85717773 63.61108398 C58.76856445 64.54500977 58.76856445 64.54500977 57.65795898 65.49780273 C56.93995117 66.13331055 56.22194336 66.76881836 55.48217773 67.42358398 C49.47783645 71.6350271 44.50473119 72.62718426 37.34814453 72.51342773 C36.51462463 72.51214371 35.68110474 72.51085968 34.82232666 72.50953674 C32.08358959 72.50069982 29.34571198 72.46915605 26.60717773 72.43530273 C24.69058217 72.41993825 22.77398134 72.40521876 20.8573761 72.39111328 C16.84516012 72.35765923 12.83329031 72.31219091 8.82128906 72.2590332 C3.70056244 72.19273727 -1.41964877 72.16267532 -6.54073811 72.14254761 C-10.49857678 72.12183097 -14.45593295 72.07842429 -18.41350365 72.02868652 C-20.30031815 72.00827115 -22.18723285 71.99552315 -24.07415199 71.99084473 C-44.97064799 71.91722999 -44.97064799 71.91722999 -52.91523743 64.40136719 C-54.48926483 62.72412158 -55.78098003 61.11843298 -57.02954102 59.18530273 C-57.56836914 58.35256836 -58.10719727 57.51983398 -58.66235352 56.66186523 C-60.59450609 51.74867726 -60.52086184 47.23271896 -60.46704102 41.99780273 C-60.45801758 40.9663916 -60.44899414 39.93498047 -60.43969727 38.87231445 C-60.19191748 28.01302135 -58.11646365 20.15630228 -50.42016602 12.18920898 C-36.35360111 0.39811782 -17.42415511 -0.0019762 0 0 Z M-42.02954102 21.18530273 C-45.95823414 25.83173787 -47.73325568 30.06207256 -48.02954102 36.18530273 C-48.11461914 37.27584961 -48.19969727 38.36639648 -48.28735352 39.48999023 C-48.81208779 47.50727576 -48.81208779 47.50727576 -45.34204102 54.43530273 C-40.74423043 59.04499397 -35.39391223 59.49988825 -29.15332031 59.59936523 C-28.37540131 59.61904861 -27.5974823 59.63873199 -26.79598999 59.65901184 C-24.23201764 59.72033064 -21.66809044 59.76665175 -19.10375977 59.81030273 C-18.22469278 59.82699005 -17.3456258 59.84367737 -16.43992043 59.86087036 C-11.78835837 59.9489705 -7.13677178 60.02575738 -2.48486328 60.09301758 C2.30734484 60.16439305 7.09793559 60.27305838 11.88920307 60.39056396 C15.58570777 60.47453321 19.2822752 60.53106911 22.9793911 60.58026123 C24.74531306 60.60843117 26.5111048 60.64674458 28.27657509 60.69561768 C40.3416948 61.33176176 40.3416948 61.33176176 50.6693573 55.87304688 C55.60338618 49.47279513 54.84868686 40.88767293 53.97045898 33.18530273 C52.25499887 26.79421646 48.9087477 22.10466175 43.40405273 18.43139648 C32.90072942 13.05329033 21.60742858 12.04649433 10.01733398 11.98217773 C9.19525452 11.97647766 8.37317505 11.97077759 7.52618408 11.96490479 C5.79847471 11.95552775 4.07074804 11.94895017 2.34301758 11.94506836 C-0.25936033 11.93537788 -2.86094182 11.90429079 -5.46313477 11.87280273 C-18.39345152 11.78987059 -31.98053839 11.8899753 -42.02954102 21.18530273 Z " fill="#151F81" transform="translate(68.029541015625,432.814697265625)"/>
<path d="M0 0 C2.89722209 10.92708637 5.23216255 21.83471082 7 33 C7.20753906 34.2684375 7.41507812 35.536875 7.62890625 36.84375 C9.02871466 46.16275424 9 54.35449021 9 64 C-10.8 64 -30.6 64 -51 64 C-51 44.53 -51 25.06 -51 5 C-35.8125 3.625 -35.8125 3.625 -31.10864258 3.20556641 C-23.62736605 2.51571897 -16.24744458 1.6659643 -8.83862305 0.38037109 C-5.86002218 -0.01875681 -3.00160097 -0.06394074 0 0 Z " fill="#D3E4FC" transform="translate(313,186)"/>
<path d="M0 0 C19.8 0 39.6 0 60 0 C60 17.32123162 60 17.32123162 58.6875 25.875 C58.55214844 26.8040918 58.41679687 27.73318359 58.27734375 28.69042969 C57.86675098 31.46288136 57.4375018 34.23167835 57 37 C56.87189941 37.81952148 56.74379883 38.63904297 56.61181641 39.48339844 C55.28761759 47.82325449 53.77272612 55.99645722 51 64 C49.24951008 63.88205919 47.4996282 63.75510056 45.75 63.625 C44.77546875 63.55539062 43.8009375 63.48578125 42.796875 63.4140625 C37.50151399 62.83658486 32.25427967 61.87571328 27 61 C18.09 60.34 9.18 59.68 0 59 C0 39.53 0 20.06 0 0 Z " fill="#D3E4FC" transform="translate(262,262)"/>
<path d="M0 0 C19.8 0 39.6 0 60 0 C60 19.47 60 38.94 60 59 C43.125 60.375 43.125 60.375 37.86376953 60.79443359 C30.79921447 61.37625101 23.91598657 62.04370674 16.98779297 63.61181641 C14.30778188 64.13517893 11.71941749 64.14312724 9 64 C5.43915159 50.40731976 2.46598885 36.84144922 0.8125 22.875 C0.7285498 22.1958252 0.64459961 21.51665039 0.55810547 20.81689453 C-0.2071616 13.79395766 0 7.19811016 0 0 Z " fill="#D3E4FC" transform="translate(190,262)"/>
<path d="M0 0 C8.500619 0.52008007 16.8734891 1.61573357 25.28955078 2.89575195 C33.91655971 4.14616935 42.17434827 4.48084402 51 5 C51 24.47 51 43.94 51 64 C31.2 64 11.4 64 -9 64 C-9 53.56814579 -8.81797387 44.21572613 -7.25 34.0625 C-7.07170654 32.86117432 -6.89341309 31.65984863 -6.7097168 30.42211914 C-5.13487354 20.15701073 -3.29099306 9.87297918 0 0 Z " fill="#D3E4FC" transform="translate(199,186)"/>
<path d="M0 0 C8.24356228 5.00250361 12.43959913 11.92726882 15.03515625 21.01171875 C15.95150449 29.71702707 14.64175331 37.46259725 9.53515625 44.69921875 C5.02528626 50.2249258 0.17943466 53.50117514 -6.71484375 55.38671875 C-17.27978528 56.27288487 -25.53596482 55.9393286 -33.90234375 49.26171875 C-39.93602926 43.65561726 -43.10481643 37.24698119 -43.953125 29.09765625 C-44.20591476 21.14143103 -42.33853113 13.45489867 -37.46484375 7.01171875 C-27.21586105 -2.7714011 -13.20546196 -6.11960432 0 0 Z " fill="#162082" transform="translate(84.71484375,368.61328125)"/>
<path d="M0 0 C6.31854722 4.96122967 10.36687373 11.67879353 11.921875 19.59375 C12.87437635 28.49417249 10.77540672 36.13707269 5.421875 43.34375 C-0.6791316 49.76505945 -8.43445626 52.94174412 -17.203125 53.21875 C-26.25070607 52.78933942 -33.71711632 50.10268912 -40.078125 43.59375 C-45.55995863 36.49332483 -48.18382688 28.62648379 -47.078125 19.59375 C-44.98404758 10.6213161 -40.64153695 3.89126375 -33.078125 -1.40625 C-23.03874912 -6.78448708 -9.45083852 -6.39530427 0 0 Z " fill="#162082" transform="translate(459.078125,12.40625)"/>
<path d="M0 0 C0 18.81 0 37.62 0 57 C-11.21454431 57 -21.1680843 56.7421648 -32.0625 55 C-33.9506543 54.71382812 -33.9506543 54.71382812 -35.87695312 54.421875 C-38.91987716 53.95907287 -41.96056943 53.48512189 -45 53 C-46.24770647 49.17752855 -45.49480603 47.26789416 -43.70117188 43.67016602 C-43.34603516 42.99526123 -42.99089844 42.32035645 -42.625 41.625 C-42.26212891 40.92109131 -41.89925781 40.21718262 -41.52539062 39.49194336 C-33.32803206 23.88368222 -20.0202898 0 0 0 Z " fill="#D2E3FC" transform="translate(250,122)"/>
<path d="M0 0 C0 18.81 0 37.62 0 57 C-12.79398895 55.17228729 -21.81722384 47.34734259 -29.5625 37.3125 C-46 14.62252582 -46 14.62252582 -46 5 C-37.99482715 3.22894406 -30.02111658 1.7511544 -21.875 0.8125 C-20.83980225 0.68705811 -20.83980225 0.68705811 -19.78369141 0.55908203 C-13.10174037 -0.16199182 -6.84290657 0 0 0 Z " fill="#D2E3FC" transform="translate(250,333)"/>
<path d="M0 0 C39.13043478 1.56521739 39.13043478 1.56521739 46 5 C42.28609625 17.67096573 36.20074034 28.70823423 28 39 C27.43539063 39.72960937 26.87078125 40.45921875 26.2890625 41.2109375 C20.4192583 48.40351447 12.81841618 54.0017385 4 57 C2.68 57 1.36 57 0 57 C0 38.19 0 19.38 0 0 Z " fill="#D3E4FC" transform="translate(262,333)"/>
<path d="M0 0 C12.73135788 1.81876541 21.75658108 9.59533001 29.5 19.5625 C46 42.30343264 46 42.30343264 46 52 C37.98942545 53.59785397 29.97396385 55.10857927 21.875 56.1875 C20.69679688 56.34605469 19.51859375 56.50460938 18.3046875 56.66796875 C12.22019405 57.13728086 6.10256621 57 0 57 C0 38.19 0 19.38 0 0 Z " fill="#D2E3FC" transform="translate(262,122)"/>
<path d="M0 0 C44.55 0 89.1 0 135 0 C134 5 134 5 132 10 C89.43 10 46.86 10 3 10 C0 2 0 2 0 0 Z " fill="#F5F5F9" transform="translate(354,483)"/>
<path d="M0 0 C44.55 0 89.1 0 135 0 C134 5 134 5 132 9 C89.43 9 46.86 9 3 9 C2.01 6.03 1.02 3.06 0 0 Z " fill="#FEFEFE" transform="translate(21,101)"/>
<path d="M0 0 C-0.47308594 0.54785156 -0.94617188 1.09570312 -1.43359375 1.66015625 C-11.88283839 14.18702847 -18.71236684 28.04331404 -25 43 C-30.96333375 41.81271031 -36.57707102 40.24481861 -42.25 38.0625 C-42.930625 37.81048828 -43.61125 37.55847656 -44.3125 37.29882812 C-48.12424114 35.85465101 -51.58065534 34.21992337 -55 32 C-46.55600443 20.90217725 -14.99872096 -4.99957365 0 0 Z " fill="#D3E3FC" transform="translate(217,128)"/>
<path d="M0 0 C10.47593966 2.15681111 20.11829706 5.99242048 30 10 C23.58081522 25.14791753 0.26713951 35.006896 -14 41 C-14.71816895 41.30437988 -15.43633789 41.60875977 -16.17626953 41.92236328 C-21.63313197 44.12228934 -21.63313197 44.12228934 -25 43 C-24.52691406 42.45214844 -24.05382812 41.90429688 -23.56640625 41.33984375 C-13.11716161 28.81297153 -6.28763316 14.95668596 0 0 Z " fill="#D3E4FC" transform="translate(320,341)"/>
<path d="M0 0 C0.4125 0.92039062 0.825 1.84078125 1.25 2.7890625 C6.60611952 14.59201367 12.27533576 26.06268257 20.5234375 36.15625 C22.251478 38.31401486 23.67151206 40.57746317 25 43 C18.37252177 41.7445455 12.74203559 39.82228344 6.6875 36.875 C5.85935791 36.47611572 5.03121582 36.07723145 4.17797852 35.66625977 C-8.44358051 29.45814954 -21.46666511 21.37777985 -30 10 C-8.04893438 -0.52755188 -8.04893438 -0.52755188 0 0 Z " fill="#D2E3FC" transform="translate(192,342)"/>
<path d="M0 0 C18.1377653 3.00588201 35.09842773 14.56055906 49 26 C49.56041992 26.44150391 50.12083984 26.88300781 50.69824219 27.33789062 C52.16923623 28.51365298 53.5892901 29.75254733 55 31 C55 31.66 55 32.32 55 33 C51.79282822 34.29456387 48.58406097 35.58512709 45.375 36.875 C44.47136719 37.23980469 43.56773437 37.60460937 42.63671875 37.98046875 C30.13352273 43 30.13352273 43 25 43 C24.74943848 42.4423999 24.49887695 41.8847998 24.24072266 41.31030273 C18.14918519 27.86333737 11.78968552 14.9932214 2.20703125 3.65234375 C0 1 0 1 0 0 Z " fill="#D3E4FD" transform="translate(295,127)"/>
<path d="M0 0 C3.99756557 2.22261504 6.72209078 4.82838606 8.5 9.125 C9.30640922 16.18108066 9.15040631 21.49900546 4.75 27.3125 C1.05931661 30.75324998 -2.69327704 32.60562526 -7.75 32.9375 C-13.50574537 32.56968898 -17.76924706 30.00289403 -21.63671875 25.80859375 C-24.55529878 21.5587316 -24.96083973 17.10376719 -24.765625 12.03515625 C-23.65798943 6.18650477 -20.12978641 2.6201775 -15.375 -0.6875 C-9.71036929 -2.50018183 -5.34792515 -2.4453338 0 0 Z " fill="#FAFAFC" transform="translate(78.25,380.6875)"/>
<path d="M0 0 C5.45087587 2.23208098 9.58362308 5.56315192 12 11 C12.7672132 16.28258255 12.81145633 21.21251614 10.25 26 C7.41716038 29.7771195 5.45296977 31.51567674 1 33 C-4.58648587 33.57171639 -10.19399523 34.11714444 -15.0625 30.9375 C-18.80183798 27.69066019 -20.5879055 23.94270296 -21.27734375 19.01953125 C-21.51575623 14.08916107 -20.42956441 10.35646032 -18 6 C-12.53614347 0.81634124 -7.46211609 -1.18854723 0 0 Z " fill="#FBFBFD" transform="translate(446,20)"/>
<path d="M0 0 C1.051875 -0.00515625 2.10375 -0.0103125 3.1875 -0.015625 C4.280625 -0.00015625 5.37375 0.0153125 6.5 0.03125 C8.1396875 0.00804687 8.1396875 0.00804687 9.8125 -0.015625 C10.864375 -0.01046875 11.91625 -0.0053125 13 0 C14.43859375 0.00676758 14.43859375 0.00676758 15.90625 0.01367188 C19.24921983 0.68075546 20.46738097 1.83310441 22.5 4.53125 C22.4375 8.15625 22.4375 8.15625 21.5 11.53125 C17.70836973 14.05900351 14.69125969 13.75568035 10.3125 13.65625 C9.56291016 13.64722656 8.81332031 13.63820313 8.04101562 13.62890625 C6.19387346 13.60537578 4.34689588 13.56950561 2.5 13.53125 C2.54640625 14.14613281 2.5928125 14.76101563 2.640625 15.39453125 C2.93555705 21.9989025 2.93555705 21.9989025 0.8125 24.59375 C-1.93303736 25.70680569 -3.57118358 26.056935 -6.5 25.53125 C-9.28758038 22.96479979 -9.51587788 21.38591731 -9.93359375 17.5625 C-9.95078653 16.05218063 -9.95160345 14.54160138 -9.9375 13.03125 C-9.95748047 12.27199219 -9.97746094 11.51273437 -9.99804688 10.73046875 C-9.99505479 7.31350679 -9.91701229 5.07865782 -7.81274414 2.31640625 C-4.98752593 0.13568256 -3.53667821 0.0166376 0 0 Z " fill="#FEFCFB" transform="translate(382.5,406.46875)"/>
<path d="M0 0 C1.00675781 -0.00515625 2.01351562 -0.0103125 3.05078125 -0.015625 C4.61892578 0.00757812 4.61892578 0.00757812 6.21875 0.03125 C7.26417969 0.01578125 8.30960938 0.0003125 9.38671875 -0.015625 C10.39347656 -0.01046875 11.40023437 -0.0053125 12.4375 0 C13.81325195 0.00676758 13.81325195 0.00676758 15.21679688 0.01367188 C18.4799668 0.68872264 19.68672936 1.9367323 21.71875 4.53125 C22.09375 7.65625 22.09375 7.65625 21.71875 10.53125 C19.71875 12.53125 19.71875 12.53125 16.0234375 12.7265625 C14.54674892 12.713259 13.07012642 12.68939835 11.59375 12.65625 C10.83964844 12.64722656 10.08554687 12.63820313 9.30859375 12.62890625 C7.44517746 12.6053187 5.58192407 12.56944719 3.71875 12.53125 C3.74066406 13.63597656 3.76257812 14.74070312 3.78515625 15.87890625 C3.71875 19.53125 3.71875 19.53125 2.65625 21.96875 C0.71875 23.53125 0.71875 23.53125 -2.78125 23.96875 C-6.28125 23.53125 -6.28125 23.53125 -7.97265625 22.5 C-10.02723592 19.40893088 -9.75405442 16.17875343 -9.71875 12.59375 C-9.7487207 11.51963867 -9.7487207 11.51963867 -9.77929688 10.42382812 C-9.77620284 7.08536308 -9.64917156 5.00785285 -7.58032227 2.32788086 C-4.81817465 0.16937557 -3.46864654 0.01706291 0 0 Z " fill="#FFFDF7" transform="translate(49.28125,25.46875)"/>
<path d="M0 0 C2.32749345 3.49124017 2.50299316 4.89222251 2 9 C0.4375 11.4375 0.4375 11.4375 -2 13 C-5.81153499 13 -8.05097421 12.80074051 -11 10.3125 C-12.38906225 7.10029355 -12.05521374 5.3063364 -11 2 C-7.74497881 -1.88098681 -4.6330741 -1.20116736 0 0 Z " fill="#141E81" transform="translate(336,438)"/>
<path d="M0 0 C2.32749345 3.49124017 2.50299316 4.89222251 2 9 C0.4375 11.4375 0.4375 11.4375 -2 13 C-5.81153499 13 -8.05097421 12.80074051 -11 10.3125 C-12.38906225 7.10029355 -12.05521374 5.3063364 -11 2 C-7.74497881 -1.88098681 -4.6330741 -1.20116736 0 0 Z " fill="#141E81" transform="translate(320,438)"/>
<path d="M0 0 C2.32749345 3.49124017 2.50299316 4.89222251 2 9 C0.4375 11.4375 0.4375 11.4375 -2 13 C-5.81153499 13 -8.05097421 12.80074051 -11 10.3125 C-12.38906225 7.10029355 -12.05521374 5.3063364 -11 2 C-7.74497881 -1.88098681 -4.6330741 -1.20116736 0 0 Z " fill="#141E81" transform="translate(304,438)"/>
<path d="M0 0 C2.32749345 3.49124017 2.50299316 4.89222251 2 9 C0.4375 11.4375 0.4375 11.4375 -2 13 C-5.81153499 13 -8.05097421 12.80074051 -11 10.3125 C-12.38906225 7.10029355 -12.05521374 5.3063364 -11 2 C-7.74497881 -1.88098681 -4.6330741 -1.20116736 0 0 Z " fill="#141E81" transform="translate(288,438)"/>
<path d="M0 0 C2.32749345 3.49124017 2.50299316 4.89222251 2 9 C0.4375 11.4375 0.4375 11.4375 -2 13 C-5.81153499 13 -8.05097421 12.80074051 -11 10.3125 C-12.38906225 7.10029355 -12.05521374 5.3063364 -11 2 C-7.74497881 -1.88098681 -4.6330741 -1.20116736 0 0 Z " fill="#141E81" transform="translate(272,438)"/>
<path d="M0 0 C2.32749345 3.49124017 2.50299316 4.89222251 2 9 C0.4375 11.4375 0.4375 11.4375 -2 13 C-5.81153499 13 -8.05097421 12.80074051 -11 10.3125 C-12.38906225 7.10029355 -12.05521374 5.3063364 -11 2 C-7.74497881 -1.88098681 -4.6330741 -1.20116736 0 0 Z " fill="#141E81" transform="translate(240,438)"/>
<path d="M0 0 C2.32749345 3.49124017 2.50299316 4.89222251 2 9 C0.4375 11.4375 0.4375 11.4375 -2 13 C-5.81153499 13 -8.05097421 12.80074051 -11 10.3125 C-12.38906225 7.10029355 -12.05521374 5.3063364 -11 2 C-7.74497881 -1.88098681 -4.6330741 -1.20116736 0 0 Z " fill="#141E81" transform="translate(224,438)"/>
<path d="M0 0 C2.32749345 3.49124017 2.50299316 4.89222251 2 9 C0.4375 11.4375 0.4375 11.4375 -2 13 C-5.81153499 13 -8.05097421 12.80074051 -11 10.3125 C-12.38906225 7.10029355 -12.05521374 5.3063364 -11 2 C-7.74497881 -1.88098681 -4.6330741 -1.20116736 0 0 Z " fill="#141E81" transform="translate(208,438)"/>
<path d="M0 0 C2.32749345 3.49124017 2.50299316 4.89222251 2 9 C0.4375 11.4375 0.4375 11.4375 -2 13 C-5.81153499 13 -8.05097421 12.80074051 -11 10.3125 C-12.38906225 7.10029355 -12.05521374 5.3063364 -11 2 C-7.74497881 -1.88098681 -4.6330741 -1.20116736 0 0 Z " fill="#141E81" transform="translate(192,438)"/>
<path d="M0 0 C2.32749345 3.49124017 2.50299316 4.89222251 2 9 C0.4375 11.4375 0.4375 11.4375 -2 13 C-5.81153499 13 -8.05097421 12.80074051 -11 10.3125 C-12.38906225 7.10029355 -12.05521374 5.3063364 -11 2 C-7.74497881 -1.88098681 -4.6330741 -1.20116736 0 0 Z " fill="#141E81" transform="translate(176,438)"/>
<path d="M0 0 C2.32749345 3.49124017 2.50299316 4.89222251 2 9 C0.4375 11.4375 0.4375 11.4375 -2 13 C-5.81153499 13 -8.05097421 12.80074051 -11 10.3125 C-12.38906225 7.10029355 -12.05521374 5.3063364 -11 2 C-7.74497881 -1.88098681 -4.6330741 -1.20116736 0 0 Z " fill="#141E81" transform="translate(160,438)"/>
<path d="M0 0 C2.4375 1.5625 2.4375 1.5625 4 4 C4 7.81153499 3.80074051 10.05097421 1.3125 13 C-1.89970645 14.38906225 -3.6936636 14.05521374 -7 13 C-8.9375 11.375 -8.9375 11.375 -10 9 C-9.875 5.375 -9.875 5.375 -9 2 C-5.50875983 -0.32749345 -4.10777749 -0.50299316 0 0 Z " fill="#151F81" transform="translate(447,354)"/>
<path d="M0 0 C2.4375 1.5625 2.4375 1.5625 4 4 C4 7.81153499 3.80074051 10.05097421 1.3125 13 C-1.89970645 14.38906225 -3.6936636 14.05521374 -7 13 C-8.9375 11.375 -8.9375 11.375 -10 9 C-9.875 5.375 -9.875 5.375 -9 2 C-5.50875983 -0.32749345 -4.10777749 -0.50299316 0 0 Z " fill="#151F81" transform="translate(447,338)"/>
<path d="M0 0 C2.4375 1.5625 2.4375 1.5625 4 4 C4 7.81153499 3.80074051 10.05097421 1.3125 13 C-1.89970645 14.38906225 -3.6936636 14.05521374 -7 13 C-8.9375 11.375 -8.9375 11.375 -10 9 C-9.875 5.375 -9.875 5.375 -9 2 C-5.50875983 -0.32749345 -4.10777749 -0.50299316 0 0 Z " fill="#151F81" transform="translate(447,322)"/>
<path d="M0 0 C2.4375 1.5625 2.4375 1.5625 4 4 C4 7.81153499 3.80074051 10.05097421 1.3125 13 C-1.89970645 14.38906225 -3.6936636 14.05521374 -7 13 C-8.9375 11.375 -8.9375 11.375 -10 9 C-9.875 5.375 -9.875 5.375 -9 2 C-5.50875983 -0.32749345 -4.10777749 -0.50299316 0 0 Z " fill="#151F81" transform="translate(447,306)"/>
<path d="M0 0 C2.4375 1.5625 2.4375 1.5625 4 4 C4 7.81153499 3.80074051 10.05097421 1.3125 13 C-1.89970645 14.38906225 -3.6936636 14.05521374 -7 13 C-8.9375 11.375 -8.9375 11.375 -10 9 C-9.875 5.375 -9.875 5.375 -9 2 C-5.50875983 -0.32749345 -4.10777749 -0.50299316 0 0 Z " fill="#151F81" transform="translate(447,290)"/>
<path d="M0 0 C2.4375 1.5625 2.4375 1.5625 4 4 C4 7.81153499 3.80074051 10.05097421 1.3125 13 C-1.89970645 14.38906225 -3.6936636 14.05521374 -7 13 C-8.9375 11.375 -8.9375 11.375 -10 9 C-9.875 5.375 -9.875 5.375 -9 2 C-5.50875983 -0.32749345 -4.10777749 -0.50299316 0 0 Z " fill="#151F81" transform="translate(447,274)"/>
<path d="M0 0 C2.4375 1.5625 2.4375 1.5625 4 4 C4 7.81153499 3.80074051 10.05097421 1.3125 13 C-1.89970645 14.38906225 -3.6936636 14.05521374 -7 13 C-8.9375 11.375 -8.9375 11.375 -10 9 C-9.875 5.375 -9.875 5.375 -9 2 C-5.50875983 -0.32749345 -4.10777749 -0.50299316 0 0 Z " fill="#151F81" transform="translate(447,258)"/>
<path d="M0 0 C2.4375 1.5625 2.4375 1.5625 4 4 C4 7.81153499 3.80074051 10.05097421 1.3125 13 C-1.89970645 14.38906225 -3.6936636 14.05521374 -7 13 C-8.9375 11.375 -8.9375 11.375 -10 9 C-9.875 5.375 -9.875 5.375 -9 2 C-5.50875983 -0.32749345 -4.10777749 -0.50299316 0 0 Z " fill="#151F81" transform="translate(447,242)"/>
<path d="M0 0 C2.4375 1.5625 2.4375 1.5625 4 4 C4 7.81153499 3.80074051 10.05097421 1.3125 13 C-1.89970645 14.38906225 -3.6936636 14.05521374 -7 13 C-8.9375 11.375 -8.9375 11.375 -10 9 C-9.875 5.375 -9.875 5.375 -9 2 C-5.50875983 -0.32749345 -4.10777749 -0.50299316 0 0 Z " fill="#151F81" transform="translate(447,226)"/>
<path d="M0 0 C2.4375 1.5625 2.4375 1.5625 4 4 C4 7.81153499 3.80074051 10.05097421 1.3125 13 C-1.89970645 14.38906225 -3.6936636 14.05521374 -7 13 C-8.9375 11.375 -8.9375 11.375 -10 9 C-9.875 5.375 -9.875 5.375 -9 2 C-5.50875983 -0.32749345 -4.10777749 -0.50299316 0 0 Z " fill="#151F81" transform="translate(447,210)"/>
<path d="M0 0 C2.4375 1.5625 2.4375 1.5625 4 4 C4 7.81153499 3.80074051 10.05097421 1.3125 13 C-1.89970645 14.38906225 -3.6936636 14.05521374 -7 13 C-8.9375 11.375 -8.9375 11.375 -10 9 C-9.875 5.375 -9.875 5.375 -9 2 C-5.50875983 -0.32749345 -4.10777749 -0.50299316 0 0 Z " fill="#151F81" transform="translate(447,194)"/>
<path d="M0 0 C2.4375 1.5625 2.4375 1.5625 4 4 C4 7.81153499 3.80074051 10.05097421 1.3125 13 C-1.89970645 14.38906225 -3.6936636 14.05521374 -7 13 C-8.9375 11.375 -8.9375 11.375 -10 9 C-9.875 5.375 -9.875 5.375 -9 2 C-5.50875983 -0.32749345 -4.10777749 -0.50299316 0 0 Z " fill="#151F81" transform="translate(447,178)"/>
<path d="M0 0 C2.4375 1.5625 2.4375 1.5625 4 4 C4 7.81153499 3.80074051 10.05097421 1.3125 13 C-1.89970645 14.38906225 -3.6936636 14.05521374 -7 13 C-8.9375 11.375 -8.9375 11.375 -10 9 C-9.875 5.375 -9.875 5.375 -9 2 C-5.50875983 -0.32749345 -4.10777749 -0.50299316 0 0 Z " fill="#151F81" transform="translate(447,162)"/>
<path d="M0 0 C1.9375 1.6875 1.9375 1.6875 3 4 C2.87177883 7.14141856 2.4995896 9.21117432 0.8125 11.875 C-1.94344924 13.58558918 -3.82625484 13.45339217 -7 13 C-9.375 11.375 -9.375 11.375 -11 9 C-11.4375 5.9375 -11.4375 5.9375 -11 3 C-7.79504038 -1.2247195 -4.98014497 -1.32126295 0 0 Z " fill="#141E82" transform="translate(73,337)"/>
<path d="M0 0 C1.9375 1.6875 1.9375 1.6875 3 4 C2.87177883 7.14141856 2.4995896 9.21117432 0.8125 11.875 C-1.94344924 13.58558918 -3.82625484 13.45339217 -7 13 C-9.375 11.375 -9.375 11.375 -11 9 C-11.4375 5.9375 -11.4375 5.9375 -11 3 C-7.79504038 -1.2247195 -4.98014497 -1.32126295 0 0 Z " fill="#141E82" transform="translate(73,321)"/>
<path d="M0 0 C1.9375 1.6875 1.9375 1.6875 3 4 C2.87177883 7.14141856 2.4995896 9.21117432 0.8125 11.875 C-1.94344924 13.58558918 -3.82625484 13.45339217 -7 13 C-9.375 11.375 -9.375 11.375 -11 9 C-11.4375 5.9375 -11.4375 5.9375 -11 3 C-7.79504038 -1.2247195 -4.98014497 -1.32126295 0 0 Z " fill="#141E82" transform="translate(73,305)"/>
<path d="M0 0 C1.9375 1.6875 1.9375 1.6875 3 4 C2.87177883 7.14141856 2.4995896 9.21117432 0.8125 11.875 C-1.94344924 13.58558918 -3.82625484 13.45339217 -7 13 C-9.375 11.375 -9.375 11.375 -11 9 C-11.4375 5.9375 -11.4375 5.9375 -11 3 C-7.79504038 -1.2247195 -4.98014497 -1.32126295 0 0 Z " fill="#141E82" transform="translate(73,289)"/>
<path d="M0 0 C1.9375 1.6875 1.9375 1.6875 3 4 C2.87177883 7.14141856 2.4995896 9.21117432 0.8125 11.875 C-1.94344924 13.58558918 -3.82625484 13.45339217 -7 13 C-9.375 11.375 -9.375 11.375 -11 9 C-11.4375 5.9375 -11.4375 5.9375 -11 3 C-7.79504038 -1.2247195 -4.98014497 -1.32126295 0 0 Z " fill="#141E82" transform="translate(73,273)"/>
<path d="M0 0 C1.9375 1.6875 1.9375 1.6875 3 4 C2.87177883 7.14141856 2.4995896 9.21117432 0.8125 11.875 C-1.94344924 13.58558918 -3.82625484 13.45339217 -7 13 C-9.375 11.375 -9.375 11.375 -11 9 C-11.4375 5.9375 -11.4375 5.9375 -11 3 C-7.79504038 -1.2247195 -4.98014497 -1.32126295 0 0 Z " fill="#141E82" transform="translate(73,257)"/>
<path d="M0 0 C1.9375 1.6875 1.9375 1.6875 3 4 C2.87177883 7.14141856 2.4995896 9.21117432 0.8125 11.875 C-1.94344924 13.58558918 -3.82625484 13.45339217 -7 13 C-9.375 11.375 -9.375 11.375 -11 9 C-11.4375 5.9375 -11.4375 5.9375 -11 3 C-7.79504038 -1.2247195 -4.98014497 -1.32126295 0 0 Z " fill="#141E82" transform="translate(73,241)"/>
<path d="M0 0 C1.9375 1.6875 1.9375 1.6875 3 4 C2.87177883 7.14141856 2.4995896 9.21117432 0.8125 11.875 C-1.94344924 13.58558918 -3.82625484 13.45339217 -7 13 C-9.375 11.375 -9.375 11.375 -11 9 C-11.4375 5.9375 -11.4375 5.9375 -11 3 C-7.79504038 -1.2247195 -4.98014497 -1.32126295 0 0 Z " fill="#141E82" transform="translate(73,225)"/>
<path d="M0 0 C1.9375 1.6875 1.9375 1.6875 3 4 C2.87177883 7.14141856 2.4995896 9.21117432 0.8125 11.875 C-1.94344924 13.58558918 -3.82625484 13.45339217 -7 13 C-9.375 11.375 -9.375 11.375 -11 9 C-11.4375 5.9375 -11.4375 5.9375 -11 3 C-7.79504038 -1.2247195 -4.98014497 -1.32126295 0 0 Z " fill="#141E82" transform="translate(73,209)"/>
<path d="M0 0 C1.9375 1.6875 1.9375 1.6875 3 4 C2.87177883 7.14141856 2.4995896 9.21117432 0.8125 11.875 C-1.94344924 13.58558918 -3.82625484 13.45339217 -7 13 C-9.375 11.375 -9.375 11.375 -11 9 C-11.4375 5.9375 -11.4375 5.9375 -11 3 C-7.79504038 -1.2247195 -4.98014497 -1.32126295 0 0 Z " fill="#141E82" transform="translate(73,193)"/>
<path d="M0 0 C1.9375 1.6875 1.9375 1.6875 3 4 C2.87177883 7.14141856 2.4995896 9.21117432 0.8125 11.875 C-1.94344924 13.58558918 -3.82625484 13.45339217 -7 13 C-9.375 11.375 -9.375 11.375 -11 9 C-11.4375 5.9375 -11.4375 5.9375 -11 3 C-7.79504038 -1.2247195 -4.98014497 -1.32126295 0 0 Z " fill="#141E82" transform="translate(73,177)"/>
<path d="M0 0 C1.9375 1.6875 1.9375 1.6875 3 4 C2.87177883 7.14141856 2.4995896 9.21117432 0.8125 11.875 C-1.94344924 13.58558918 -3.82625484 13.45339217 -7 13 C-9.375 11.375 -9.375 11.375 -11 9 C-11.4375 5.9375 -11.4375 5.9375 -11 3 C-7.79504038 -1.2247195 -4.98014497 -1.32126295 0 0 Z " fill="#141E82" transform="translate(73,161)"/>
<path d="M0 0 C1.9375 1.6875 1.9375 1.6875 3 4 C2.87177883 7.14141856 2.4995896 9.21117432 0.8125 11.875 C-1.94344924 13.58558918 -3.82625484 13.45339217 -7 13 C-9.375 11.375 -9.375 11.375 -11 9 C-11.4375 5.9375 -11.4375 5.9375 -11 3 C-7.79504038 -1.2247195 -4.98014497 -1.32126295 0 0 Z " fill="#141E82" transform="translate(73,145)"/>
<path d="M0 0 C2 2 2 2 2.375 5.9375 C2.28635216 8.80551846 2.21085143 9.72167611 0.4375 12.0625 C-3.0507008 13.40411569 -5.42525344 12.92678615 -9 12 C-11.46943529 8.29584707 -11.46913089 6.37855495 -11 2 C-7.87890362 -1.99500336 -4.5824922 -1.10319257 0 0 Z " fill="#141E82" transform="translate(362,62)"/>
<path d="M0 0 C2 2 2 2 2.375 5.9375 C2.28635216 8.80551846 2.21085143 9.72167611 0.4375 12.0625 C-3.0507008 13.40411569 -5.42525344 12.92678615 -9 12 C-11.46943529 8.29584707 -11.46913089 6.37855495 -11 2 C-7.87890362 -1.99500336 -4.5824922 -1.10319257 0 0 Z " fill="#141E82" transform="translate(346,62)"/>
<path d="M0 0 C2 2 2 2 2.375 5.9375 C2.28635216 8.80551846 2.21085143 9.72167611 0.4375 12.0625 C-3.0507008 13.40411569 -5.42525344 12.92678615 -9 12 C-11.46943529 8.29584707 -11.46913089 6.37855495 -11 2 C-7.87890362 -1.99500336 -4.5824922 -1.10319257 0 0 Z " fill="#141E82" transform="translate(330,62)"/>
<path d="M0 0 C2 2 2 2 2.375 5.9375 C2.28635216 8.80551846 2.21085143 9.72167611 0.4375 12.0625 C-3.0507008 13.40411569 -5.42525344 12.92678615 -9 12 C-11.46943529 8.29584707 -11.46913089 6.37855495 -11 2 C-7.87890362 -1.99500336 -4.5824922 -1.10319257 0 0 Z " fill="#141E82" transform="translate(314,62)"/>
<path d="M0 0 C2 2 2 2 2.375 5.9375 C2.28635216 8.80551846 2.21085143 9.72167611 0.4375 12.0625 C-3.0507008 13.40411569 -5.42525344 12.92678615 -9 12 C-11.46943529 8.29584707 -11.46913089 6.37855495 -11 2 C-7.87890362 -1.99500336 -4.5824922 -1.10319257 0 0 Z " fill="#141E82" transform="translate(298,62)"/>
<path d="M0 0 C2 2 2 2 2.375 5.9375 C2.28635216 8.80551846 2.21085143 9.72167611 0.4375 12.0625 C-3.0507008 13.40411569 -5.42525344 12.92678615 -9 12 C-11.46943529 8.29584707 -11.46913089 6.37855495 -11 2 C-7.87890362 -1.99500336 -4.5824922 -1.10319257 0 0 Z " fill="#141E82" transform="translate(282,62)"/>
<path d="M0 0 C2 2 2 2 2.375 5.9375 C2.28635216 8.80551846 2.21085143 9.72167611 0.4375 12.0625 C-3.0507008 13.40411569 -5.42525344 12.92678615 -9 12 C-11.46943529 8.29584707 -11.46913089 6.37855495 -11 2 C-7.87890362 -1.99500336 -4.5824922 -1.10319257 0 0 Z " fill="#141E82" transform="translate(250,62)"/>
<path d="M0 0 C2 2 2 2 2.375 5.9375 C2.28635216 8.80551846 2.21085143 9.72167611 0.4375 12.0625 C-3.0507008 13.40411569 -5.42525344 12.92678615 -9 12 C-11.46943529 8.29584707 -11.46913089 6.37855495 -11 2 C-7.87890362 -1.99500336 -4.5824922 -1.10319257 0 0 Z " fill="#141E82" transform="translate(234,62)"/>
<path d="M0 0 C2 2 2 2 2.375 5.9375 C2.28635216 8.80551846 2.21085143 9.72167611 0.4375 12.0625 C-3.0507008 13.40411569 -5.42525344 12.92678615 -9 12 C-11.46943529 8.29584707 -11.46913089 6.37855495 -11 2 C-7.87890362 -1.99500336 -4.5824922 -1.10319257 0 0 Z " fill="#141E82" transform="translate(218,62)"/>
<path d="M0 0 C2 2 2 2 2.375 5.9375 C2.28635216 8.80551846 2.21085143 9.72167611 0.4375 12.0625 C-3.0507008 13.40411569 -5.42525344 12.92678615 -9 12 C-11.46943529 8.29584707 -11.46913089 6.37855495 -11 2 C-7.87890362 -1.99500336 -4.5824922 -1.10319257 0 0 Z " fill="#141E82" transform="translate(202,62)"/>
<path d="M0 0 C2 2 2 2 2.375 5.9375 C2.28635216 8.80551846 2.21085143 9.72167611 0.4375 12.0625 C-3.0507008 13.40411569 -5.42525344 12.92678615 -9 12 C-11.46943529 8.29584707 -11.46913089 6.37855495 -11 2 C-7.87890362 -1.99500336 -4.5824922 -1.10319257 0 0 Z " fill="#141E82" transform="translate(186,62)"/>
<path d="M0 0 C1.8125 1 1.8125 1 3 3 C3.47093626 5.75670007 3.5093856 8.2470284 3 11 C1.375 13.0625 1.375 13.0625 -1 14 C-4.4803645 13.92897215 -6.29485909 13.61415498 -8.9375 11.3125 C-10.41325591 8.10056066 -10.06444212 6.33525198 -9 3 C-6.24170878 0.04468798 -3.98117593 -0.6124886 0 0 Z " fill="#141E82" transform="translate(254,437)"/>
<path d="M0 0 C1.9375 1.6875 1.9375 1.6875 3 4 C2.92897215 7.4803645 2.61415498 9.29485909 0.3125 11.9375 C-2.86221916 13.39615475 -4.69878201 13.00471852 -8 12 C-10.46943529 8.29584707 -10.46913089 6.37855495 -10 2 C-7.0239502 -1.66283052 -4.29996319 -1.37232868 0 0 Z " fill="#151E81" transform="translate(265,62)"/>
</svg>
