<?xml version="1.0" encoding="UTF-8"?>
<svg version="1.1" xmlns="http://www.w3.org/2000/svg" width="512" height="512">
<path d="M0 0 C2.53116581 3.27679337 2.41084682 5.47840432 2.47827148 9.59130859 C2.49480774 10.2737262 2.51134399 10.9561438 2.52838135 11.65924072 C2.57679487 13.82939713 2.59821513 15.99885331 2.61889648 18.16943359 C2.6470621 19.64472911 2.67699038 21.11999211 2.70874023 22.59521484 C2.78254873 26.20313558 2.83216542 29.81092331 2.86889648 33.41943359 C3.4526001 33.39985596 4.03630371 33.38027832 4.63769531 33.36010742 C12.53956924 33.20663356 19.7588481 34.80566384 26.24389648 39.60693359 C33.36322274 47.23478316 35.18498816 54.68282242 35.07983398 64.90380859 C34.66378355 71.83798249 32.35866288 76.7040513 27.68139648 81.81396484 C19.68630191 88.89582663 12.56571052 89.41943359 1.86889648 89.41943359 C1.86889648 98.98943359 1.86889648 108.55943359 1.86889648 118.41943359 C4.69838867 118.39623047 7.52788086 118.37302734 10.44311523 118.34912109 C13.19009961 118.33351389 15.937079 118.32137522 18.68408203 118.30957031 C20.59002908 118.29952622 22.49596078 118.28588844 24.40185547 118.26855469 C27.144814 118.24423641 29.88756839 118.23293447 32.63061523 118.22412109 C33.90433235 118.20863724 33.90433235 118.20863724 35.20378113 118.19284058 C39.49857409 118.19203006 43.0197369 118.26170768 46.86889648 120.41943359 C48.29651 123.27466062 48.10531844 125.22773721 47.86889648 128.41943359 C47.35708082 129.72321666 46.8132196 131.01471615 46.24389648 132.29443359 C44.70619336 136.12404661 44.75531075 138.67906238 46.00170898 142.59521484 C48.05538166 146.91532809 51.51370545 149.66447676 55.86889648 151.41943359 C60.53480555 151.51959622 65.85332925 150.8531107 69.86889648 148.41943359 C71.17957982 145.97654732 71.17957982 145.97654732 71.86889648 143.41943359 C72.19889648 142.75943359 72.52889648 142.09943359 72.86889648 141.41943359 C73.12177427 136.27758525 72.8195253 133.17409133 70.86889648 128.41943359 C70.43139648 124.79443359 70.43139648 124.79443359 70.86889648 121.41943359 C74.98297498 117.94624927 79.16668106 117.99470879 84.31030273 118.05615234 C85.51734108 118.05540459 85.51734108 118.05540459 86.74876404 118.05464172 C88.44402546 118.056975 90.13929083 118.06665937 91.83447266 118.08325195 C94.42634079 118.10688749 97.01718198 118.10380202 99.60913086 118.09716797 C101.2595276 118.10274394 102.90992003 118.10985331 104.56030273 118.11865234 C105.33330215 118.11774094 106.10630157 118.11682953 106.90272522 118.1158905 C113.78161153 118.20641538 113.78161153 118.20641538 116.86889648 120.41943359 C122.09678696 130.87521454 115.71072087 149.65911945 112.30639648 160.29443359 C106.71225926 176.76645857 97.94593725 190.84032025 86.67358398 203.97802734 C79.98225705 211.92874851 76.1641092 220.60004772 72.74389648 230.35693359 C69.9843749 238.09705512 66.02891734 243.27338455 58.86889648 247.41943359 C57.87889648 247.41943359 56.88889648 247.41943359 55.86889648 247.41943359 C55.88984375 248.16515625 55.91079102 248.91087891 55.93237305 249.67919922 C56.01606282 253.09247084 56.06772442 256.50552583 56.11889648 259.91943359 C56.15241211 261.09248047 56.18592773 262.26552734 56.22045898 263.47412109 C56.31197949 271.619446 55.52369127 277.29507203 50.04467773 283.47802734 C45.07956178 287.15242133 41.04937204 288.39082028 34.86889648 288.41943359 C34.90370117 289.16966797 34.93850586 289.91990234 34.97436523 290.69287109 C35.21370834 299.74231977 34.58330537 307.44267356 28.80639648 314.73193359 C20.39038834 323.08135404 12.00195873 324.12726542 0.61499023 324.10302734 C-0.24755371 324.09255371 -1.11009766 324.08208008 -1.9987793 324.07128906 C-4.62638526 324.04448173 -7.24972129 324.07112263 -9.87719727 324.10302734 C-21.26416576 324.12726542 -29.65259537 323.08135404 -38.06860352 314.73193359 C-44.33791332 306.82136579 -44.5832767 298.16627771 -44.13110352 288.41943359 C-44.96641602 288.41556641 -44.96641602 288.41556641 -45.81860352 288.41162109 C-51.38946991 288.12931368 -54.84414807 286.78063962 -59.30688477 283.47802734 C-65.67045054 276.29687282 -65.64661207 269.21223282 -65.38110352 259.91943359 C-65.36305664 258.71544922 -65.34500977 257.51146484 -65.32641602 256.27099609 C-65.27956905 253.31963755 -65.21398356 250.36996323 -65.13110352 247.41943359 C-66.30370728 247.21362671 -66.30370728 247.21362671 -67.5 247.00366211 C-72.59446102 245.87245257 -76.47388059 241.81034964 -79.39282227 237.59912109 C-81.42488492 233.75988809 -82.69325857 229.73759208 -84.00610352 225.60693359 C-87.2389928 215.72246751 -92.08270846 208.24262423 -98.88452148 200.45776367 C-110.07096671 187.52308124 -118.10314164 172.02196815 -123.00610352 155.66943359 C-123.19720703 155.03352295 -123.38831055 154.3976123 -123.58520508 153.74243164 C-132.1828398 122.86662454 -127.561828 88.73376073 -112.30175781 60.74169922 C-95.96003412 32.04853864 -69.00407047 11.43937616 -37.49951172 2.29907227 C-7.83249446 -5.80909258 -7.83249446 -5.80909258 0 0 Z M-83.38110352 44.23193359 C-102.56517738 64.17079069 -114.13110352 90.69921251 -114.13110352 118.41943359 C-108.19110352 118.41943359 -102.25110352 118.41943359 -96.13110352 118.41943359 C-96.06922852 116.64568359 -96.00735352 114.87193359 -95.94360352 113.04443359 C-95.29171913 105.26772829 -92.70395044 99.5339325 -87.75610352 93.54443359 C-80.04261677 87.30018242 -72.96385747 85.4817405 -63.13110352 86.41943359 C-56.07298116 88.27736566 -49.92239754 91.36902324 -45.69360352 97.50537109 C-41.46706358 104.92583042 -41.84521199 109.13602347 -41.13110352 118.41943359 C-31.23110352 118.41943359 -21.33110352 118.41943359 -11.13110352 118.41943359 C-11.10532227 115.42236328 -11.07954102 112.42529297 -11.05297852 109.33740234 C-11.01457764 106.43813641 -10.96941112 103.5390495 -10.92358398 100.63989258 C-10.89534012 98.6233778 -10.87414263 96.60675161 -10.86010742 94.59008789 C-10.83872506 91.69277769 -10.79209985 88.79681188 -10.74047852 85.89990234 C-10.73924988 84.99668747 -10.73802124 84.0934726 -10.73675537 83.16288757 C-10.59060445 76.9321781 -10.59060445 76.9321781 -8.24536133 74.31518555 C-5.41700619 73.11689051 -4.03747187 73.49790217 -1.13110352 74.41943359 C0.04452148 74.94537109 0.04452148 74.94537109 1.24389648 75.48193359 C5.19300173 76.89232833 8.73050136 77.20844311 12.73217773 75.73193359 C17.10105856 73.48668435 19.7687163 70.95582279 21.86889648 66.41943359 C22.76184739 61.32287419 22.64358136 56.9162093 19.80639648 52.48193359 C16.97317232 49.11549028 14.150735 47.58061014 9.86889648 46.41943359 C6.27324351 46.38576643 3.00986575 46.79708672 -0.19360352 48.54443359 C-3.30998215 49.9518304 -5.88871203 49.15355997 -9.13110352 48.41943359 C-10.6860605 45.30951963 -10.37187308 41.9859931 -10.44750977 38.56787109 C-10.46829086 37.79383942 -10.48907196 37.01980774 -10.51048279 36.22232056 C-10.57593799 33.74644967 -10.63484438 31.27047157 -10.69360352 28.79443359 C-10.73679258 27.11733911 -10.780407 25.44025553 -10.82446289 23.76318359 C-10.93161522 19.64871052 -11.03289397 15.53412945 -11.13110352 11.41943359 C-38.62515601 11.41943359 -63.98787356 25.8068524 -83.38110352 44.23193359 Z M-80.13110352 103.41943359 C-83.46217675 108.10375532 -83.579015 111.86533123 -83.13110352 117.41943359 C-82.48074537 118.76079727 -81.81480801 120.09475613 -81.13110352 121.41943359 C-80.80297852 127.76318359 -80.80297852 127.76318359 -82.13110352 130.41943359 C-97.97110352 130.91443359 -97.97110352 130.91443359 -114.13110352 131.41943359 C-110.16701433 157.1860133 -101.56469825 177.09337151 -84.50610352 196.79443359 C-77.63621016 205.05046472 -73.07289584 214.85905141 -70.00610352 225.10693359 C-68.41133096 230.32361181 -66.77236362 232.55567736 -62.13110352 235.41943359 C-59.22670591 236.38756613 -57.40292111 236.54088193 -54.38427734 236.53295898 C-53.42350784 236.53288345 -52.46273834 236.53280792 -51.47285461 236.5327301 C-50.43839706 236.52756882 -49.40393951 236.52240753 -48.33813477 236.51708984 C-47.27696945 236.5156749 -46.21580414 236.51425995 -45.1224823 236.51280212 C-41.72949416 236.50719966 -38.33657175 236.49464673 -34.94360352 236.48193359 C-32.64477634 236.47691891 -30.34594814 236.47235595 -28.04711914 236.46826172 C-22.4084219 236.45722942 -16.76977385 236.43996312 -11.13110352 236.41943359 C-11.13110352 229.81943359 -11.13110352 223.21943359 -11.13110352 216.41943359 C-13.39985352 216.21318359 -15.66860352 216.00693359 -18.00610352 215.79443359 C-26.09539019 214.81888087 -32.61253541 212.57970776 -38.03735352 206.16552734 C-43.5780502 198.23344506 -43.92058566 191.00901009 -43.13110352 181.41943359 C-42.16358328 178.15921137 -40.81700735 175.3605359 -39.13110352 172.41943359 C-38.83977539 171.72076172 -38.54844727 171.02208984 -38.24829102 170.30224609 C-36.84499157 167.93724493 -35.64461738 167.45903032 -33.13110352 166.41943359 C-32.47110352 166.07783203 -31.81110352 165.73623047 -31.13110352 165.38427734 C-30.47110352 165.04525391 -29.81110352 164.70623047 -29.13110352 164.35693359 C-28.47110352 164.01533203 -27.81110352 163.67373047 -27.13110352 163.32177734 C-21.54005166 160.799252 -17.68430362 161.41943359 -11.13110352 161.41943359 C-11.13110352 151.51943359 -11.13110352 141.61943359 -11.13110352 131.41943359 C-14.21196289 131.37044922 -17.29282227 131.32146484 -20.46704102 131.27099609 C-23.44235198 131.21702642 -26.41758066 131.15970318 -29.39282227 131.10205078 C-31.46470033 131.06370674 -33.5366462 131.02886354 -35.60864258 130.99755859 C-38.58252239 130.95202551 -41.55593313 130.89401242 -44.52954102 130.83349609 C-45.45979095 130.82194489 -46.39004089 130.81039368 -47.34848022 130.79849243 C-48.2092215 130.77862274 -49.06996277 130.75875305 -49.95678711 130.73828125 C-51.09596085 130.71829575 -51.09596085 130.71829575 -52.25814819 130.69790649 C-54.13110352 130.41943359 -54.13110352 130.41943359 -56.13110352 128.41943359 C-56.5855277 124.60227045 -56.02130646 121.89792412 -54.56860352 118.41943359 C-53.07321171 114.67383316 -52.84710007 112.35704416 -54.13110352 108.41943359 C-56.99978394 103.37451285 -59.59411389 100.2650968 -65.13110352 98.41943359 C-71.46469965 97.67430464 -75.39739154 99.37871999 -80.13110352 103.41943359 Z M1.86889648 131.41943359 C1.83151367 134.41650391 1.79413086 137.41357422 1.75561523 140.50146484 C1.70941816 143.40070949 1.65817789 146.29982409 1.60644531 149.19897461 C1.57316938 151.21549594 1.5451458 153.23211101 1.52246094 155.2487793 C1.48896392 158.14591459 1.43665104 161.04218877 1.38061523 163.93896484 C1.37103035 165.29378716 1.37103035 165.29378716 1.36125183 166.67597961 C1.34145767 167.5166246 1.32166351 168.35726959 1.30126953 169.22338867 C1.29016647 169.96285233 1.27906342 170.70231598 1.2676239 171.46418762 C0.75254933 173.98996699 -0.06081742 174.91209452 -2.13110352 176.41943359 C-5.61713185 176.22576535 -8.39120746 175.76092408 -11.56860352 174.29443359 C-15.23757963 173.04161248 -18.46200433 173.42661852 -22.13110352 174.41943359 C-26.46374009 176.70837367 -29.32732814 178.80978541 -31.13110352 183.41943359 C-31.81939958 188.49243049 -31.72518539 192.25248705 -29.38110352 196.85693359 C-25.59710217 201.16649068 -22.71682739 203.22053176 -16.88110352 203.66943359 C-13.04988589 203.62361314 -13.04988589 203.62361314 -9.50610352 201.85693359 C-5.96756526 200.34977841 -4.67325509 200.1037773 -1.13110352 201.41943359 C1.6989665 204.24950361 1.22135574 207.03896211 1.28295898 210.83349609 C1.30232513 211.56313568 1.32169128 212.29277527 1.34164429 213.04452515 C1.40148071 215.37770862 1.44784072 217.71094133 1.49389648 220.04443359 C1.53207262 221.62518442 1.57112414 223.20591436 1.61108398 224.78662109 C1.70718526 228.66405589 1.79120061 232.54158808 1.86889648 236.41943359 C8.59489671 236.49563372 15.32078517 236.54809651 22.04711914 236.58422852 C24.33427083 236.59929475 26.62139374 236.61975156 28.90844727 236.64575195 C32.20002356 236.68222966 35.49121711 236.69918193 38.78295898 236.71240234 C40.31141953 236.73562813 40.31141953 236.73562813 41.87075806 236.75932312 C47.30228815 236.76060442 51.19507199 236.51805795 55.86889648 233.41943359 C59.50411433 229.75870545 60.80065151 226.19737221 62.24389648 221.29443359 C65.95202741 209.49165408 71.92265025 200.83915595 79.86889648 191.41943359 C93.10592072 175.30088028 104.86889648 152.83667993 104.86889648 131.41943359 C98.92889648 131.41943359 92.98889648 131.41943359 86.86889648 131.41943359 C86.77608398 134.32755859 86.77608398 134.32755859 86.68139648 137.29443359 C85.98495293 145.95292104 83.44335651 152.31019437 77.11889648 158.35693359 C71.2607514 163.01707152 64.74094413 165.05909655 57.26342773 164.77099609 C49.91570845 163.69221186 42.91892365 160.95041573 37.86889648 155.41943359 C32.77848992 147.63818541 31.86889648 140.5205303 31.86889648 131.41943359 C21.96889648 131.41943359 12.06889648 131.41943359 1.86889648 131.41943359 Z M-52.13110352 249.41943359 C-52.13110352 256.34943359 -52.13110352 263.27943359 -52.13110352 270.41943359 C-47.29195036 275.56404298 -47.29195036 275.56404298 -41.17033386 276.09707642 C-40.01686211 276.08189468 -40.01686211 276.08189468 -38.84008789 276.06640625 C-38.01833572 276.07516785 -37.19658356 276.08392944 -36.34992981 276.09295654 C-33.64102955 276.11491398 -30.93376956 276.10041153 -28.22485352 276.08349609 C-26.33825366 276.0868653 -24.45165591 276.09171878 -22.56506348 276.09799194 C-18.61404727 276.1053583 -14.66359684 276.09466547 -10.71264648 276.07128906 C-5.65149655 276.04280134 -0.59167229 276.05920659 4.46942902 276.08915138 C8.36429814 276.10723082 12.25885366 276.10146338 16.1537323 276.08851242 C18.01962949 276.08518019 19.88555528 276.08925907 21.75141907 276.10091019 C24.36100528 276.11362979 26.96845367 276.0942282 29.57788086 276.06640625 C30.34686203 276.0765274 31.1158432 276.08664856 31.90812683 276.09707642 C37.9207542 275.97848834 38.13873245 275.14959763 42.86889648 270.41943359 C42.86889648 263.48943359 42.86889648 256.55943359 42.86889648 249.41943359 C11.51889648 249.41943359 -19.83110352 249.41943359 -52.13110352 249.41943359 Z M-31.13110352 288.41943359 C-31.49483771 299.55792468 -31.49483771 299.55792468 -26.13110352 307.73193359 C-22.38336792 310.8940855 -18.45203309 310.59390346 -13.79516602 310.62255859 C-13.07879974 310.62825867 -12.36243347 310.63395874 -11.62435913 310.63983154 C-10.10969514 310.64926896 -8.59501074 310.65581053 -7.08032227 310.65966797 C-4.77136149 310.66936948 -2.46329283 310.70040135 -0.15454102 310.73193359 C1.31941205 310.73846464 2.79337146 310.74371471 4.26733398 310.74755859 C5.29725967 310.7660788 5.29725967 310.7660788 6.34799194 310.78497314 C10.71403222 310.76483415 13.381898 310.05335579 16.86889648 307.41943359 C22.7845652 300.84646835 21.86889648 298.25129529 21.86889648 288.41943359 C4.37889648 288.41943359 -13.11110352 288.41943359 -31.13110352 288.41943359 Z " fill="#202020" transform="translate(231.131103515625,125.58056640625)"/>
<path d="M0 0 C0.73855225 0.05454346 1.47710449 0.10908691 2.23803711 0.1652832 C36.56462158 3.14190954 66.04314999 19.08683361 88.8671875 44.80859375 C108.00738857 67.9668902 116.00095459 96.60198283 116.8359375 126.16796875 C116.22812343 129.82000411 114.97967236 131.32583595 112.375 133.9375 C109.44238281 134.59692383 109.44238281 134.59692383 106.078125 134.64453125 C104.87285156 134.67353516 103.66757812 134.70253906 102.42578125 134.73242188 C101.17152344 134.73822266 99.91726563 134.74402344 98.625 134.75 C97.35527344 134.77513672 96.08554687 134.80027344 94.77734375 134.82617188 C91.64291799 134.88508965 88.50989042 134.9213375 85.375 134.9375 C85.39433594 136.15695313 85.41367187 137.37640625 85.43359375 138.6328125 C85.41517062 147.93854246 82.32949498 154.14787912 75.81640625 160.796875 C69.05404904 166.7261098 62.63861698 167.60198803 53.75 167.32421875 C46.36152846 166.47762305 40.56835949 163.24889039 35.375 157.9375 C31.24728699 151.69559251 29.22308792 146.69811442 29.3125 139.1875 C29.32152344 138.20265625 29.33054687 137.2178125 29.33984375 136.203125 C29.35144531 135.45546875 29.36304688 134.7078125 29.375 133.9375 C27.67972168 133.96106567 27.67972168 133.96106567 25.95019531 133.98510742 C21.75332783 134.03944595 17.55649139 134.07386431 13.359375 134.10229492 C11.54356658 134.11737262 9.72779453 134.13783798 7.91210938 134.16381836 C5.30068992 134.2002468 2.68975235 134.21723638 0.078125 134.23046875 C-1.13771271 134.25369453 -1.13771271 134.25369453 -2.37811279 134.27738953 C-5.53380864 134.27832979 -8.02875093 134.26022163 -10.84004211 132.73860168 C-13.20279938 130.3544748 -13.1261129 129.10048544 -13.12670898 125.77929688 C-13.13608994 124.72810669 -13.14547089 123.6769165 -13.15513611 122.59387207 C-13.14390213 121.45945679 -13.13266815 120.3250415 -13.12109375 119.15625 C-13.12254898 117.99121948 -13.12400421 116.82618896 -13.12550354 115.62585449 C-13.12384258 113.16118877 -13.11225944 110.69651289 -13.09155273 108.23193359 C-13.06261372 104.4523528 -13.07093754 100.67417497 -13.08398438 96.89453125 C-13.07774683 94.50259733 -13.06935577 92.11066785 -13.05859375 89.71875 C-13.06152939 88.58433472 -13.06446503 87.44991943 -13.06748962 86.28112793 C-13.05480545 85.22993774 -13.04212128 84.17874756 -13.02905273 83.09570312 C-13.02364975 82.16987427 -13.01824677 81.24404541 -13.01268005 80.29016113 C-12.55123633 77.48986045 -11.90707126 76.58491015 -9.625 74.9375 C-6.58203038 74.61377983 -4.47721749 74.48757151 -1.73828125 75.93359375 C2.12948145 77.77095977 6.19606632 77.46564328 10.375 76.9375 C14.20878636 75.12516463 15.90851018 73.63723473 18.25 70.125 C19.75465797 65.86180242 20.30670493 62.36694565 18.6484375 58.04296875 C16.57067984 54.03103832 14.61417116 51.50415021 10.375 49.9375 C5.10376972 49.40609142 1.08662923 49.43505792 -3.625 51.9375 C-8.90352144 52.47612464 -8.90352144 52.47612464 -11.28234863 50.70019531 C-12.98426117 48.46584518 -13.01560063 47.21314487 -13.04492188 44.421875 C-13.06083374 43.51083008 -13.07674561 42.59978516 -13.09313965 41.66113281 C-13.09334106 40.67983398 -13.09354248 39.69853516 -13.09375 38.6875 C-13.10517029 37.1730127 -13.10517029 37.1730127 -13.11682129 35.62792969 C-13.12762862 33.49286371 -13.13047284 31.35774484 -13.12597656 29.22265625 C-13.12500361 25.94962857 -13.16663214 22.67893939 -13.2109375 19.40625 C-13.21614381 17.33333824 -13.21883271 15.2604183 -13.21875 13.1875 C-13.23514526 12.20620117 -13.25154053 11.22490234 -13.26843262 10.21386719 C-13.2426498 7.68960677 -13.17497113 5.40108729 -12.625 2.9375 C-8.77244622 -0.60111492 -4.98343563 -0.41398718 0 0 Z M0.375 13.9375 C0.375 21.1975 0.375 28.4575 0.375 35.9375 C3.0665625 36.06125 3.0665625 36.06125 5.8125 36.1875 C13.64073525 36.84293007 20.78627626 39.19353394 26.375 44.9375 C31.52983176 52.86012494 33.28887223 59.47328894 32.375 68.9375 C30.16329236 77.05091456 26.35667255 83.45005368 19.078125 87.8671875 C13.14967761 90.21457852 6.66830107 90.36061407 0.375 90.9375 C0.375 100.8375 0.375 110.7375 0.375 120.9375 C22.155 121.4325 22.155 121.4325 44.375 121.9375 C45.40008843 129.11311898 45.0725032 129.89509283 42.375 135.9375 C41.75133663 140.92680692 42.4396377 144.21105971 45.12109375 148.359375 C47.7154747 151.62457719 50.36252863 153.58127788 54.515625 154.31640625 C59.16898335 154.56173637 62.94762623 153.92030688 66.86328125 151.328125 C69.74982967 148.6727988 71.35101397 145.7057686 72.375 141.9375 C72.51959437 138.30949583 72.01216901 135.10564319 70.25 131.875 C68.8426032 128.75862136 69.64087363 126.17989149 70.375 122.9375 C73.3278472 121.4610764 76.05948983 121.71477061 79.3515625 121.62109375 C80.03681 121.60031265 80.7220575 121.57953156 81.42807007 121.55812073 C83.61861069 121.49269815 85.80927189 121.43377446 88 121.375 C89.4843875 121.33180782 90.96876278 121.2881933 92.453125 121.24414062 C96.09362084 121.13702447 99.73425251 121.03573638 103.375 120.9375 C101.74967857 92.73954211 92.51903075 68.78701234 73.375 47.9375 C72.64539063 47.12539062 71.91578125 46.31328125 71.1640625 45.4765625 C55.32688355 28.69739521 31.42408371 16.44446203 8.375 13.9375 C5.735 13.9375 3.095 13.9375 0.375 13.9375 Z " fill="#65BB69" transform="translate(292.625,64.0625)"/>
</svg>
