<?xml version="1.0" encoding="UTF-8"?>
<svg version="1.1" xmlns="http://www.w3.org/2000/svg" width="330" height="330">
<path d="M0 0 C0.75934341 -0.0066568 1.51868683 -0.0133136 2.30104065 -0.02017212 C3.90387558 -0.03027737 5.50675239 -0.0349898 7.10961914 -0.03466797 C9.55490726 -0.03904193 11.99839029 -0.07538238 14.44335938 -0.11328125 C16.0039001 -0.11914986 17.56444937 -0.12311896 19.125 -0.125 C19.85222763 -0.13937103 20.57945526 -0.15374207 21.32872009 -0.16854858 C24.53657171 -0.13983509 26.93343532 0.24181467 29.83032227 1.63671875 C32.16121057 4.37387235 33.04566356 6.37742001 34.31835938 9.70068359 C36.9485661 16.37434147 39.64145181 22.53247975 45.12890625 27.3359375 C54.56927419 30.91318827 65.48088239 29.69635849 75.39807129 29.08734131 C80.56337609 28.79466426 85.73630219 28.68403128 90.90783691 28.55697632 C93.65600987 28.48932518 96.39395522 28.36962106 99.13806152 28.2069397 C108.34997097 27.80103404 108.34997097 27.80103404 112.32006836 30.52734375 C113.21544312 31.91759766 113.21544312 31.91759766 114.12890625 33.3359375 C114.6587915 34.12274902 115.18867676 34.90956055 115.73461914 35.72021484 C116.18571045 36.5292627 116.63680176 37.33831055 117.1015625 38.171875 C117.60880859 39.07164063 118.11605469 39.97140625 118.63867188 40.8984375 C119.15107422 41.8265625 119.66347656 42.7546875 120.19140625 43.7109375 C120.96581055 45.09152344 120.96581055 45.09152344 121.75585938 46.5 C122.76214484 48.29464924 123.76063391 50.09369691 124.75048828 51.89746094 C125.59737539 53.39563813 126.48176805 54.87420126 127.42529297 56.31347656 C129.38460086 59.32689041 130.14399187 61.02619317 129.96704102 64.65942383 C129.04351705 68.71050086 127.67148336 71.05269275 125.28515625 74.43359375 C124.52469876 75.57571727 123.76696681 76.71965937 123.01171875 77.86523438 C121.82664064 79.64015149 120.62976387 81.39724761 119.38183594 83.12866211 C116.60544194 87.01484188 114.34968865 90.65535778 113.12890625 95.3359375 C114.4870447 100.74149196 117.0301347 104.74890702 120.12890625 109.3359375 C120.93329143 110.74353711 121.7286705 112.1563972 122.5078125 113.578125 C123.23131041 114.79167651 123.95920436 116.00261764 124.69140625 117.2109375 C125.53287422 118.62611059 126.37399737 120.04148875 127.21484375 121.45703125 C128.79635092 124.10613982 130.3790803 126.75451587 131.96191406 129.40283203 C133.92096119 132.68861278 135.86915825 135.9806536 137.81640625 139.2734375 C138.45328369 140.33481934 139.09016113 141.39620117 139.74633789 142.48974609 C140.33020264 143.4792627 140.91406738 144.4687793 141.515625 145.48828125 C142.04373779 146.37507568 142.57185059 147.26187012 143.1159668 148.17553711 C143.45023682 148.88846924 143.78450684 149.60140137 144.12890625 150.3359375 C143.79890625 150.9959375 143.46890625 151.6559375 143.12890625 152.3359375 C142.13890625 151.3459375 141.14890625 150.3559375 140.12890625 149.3359375 C139.83902832 149.93744629 139.54915039 150.53895508 139.25048828 151.15869141 C136.12659548 157.53576702 132.68591651 163.64158892 129.00390625 169.7109375 C128.47925781 170.58621094 127.95460938 171.46148437 127.4140625 172.36328125 C124.54087149 177.1276866 124.54087149 177.1276866 123.12890625 179.3359375 C122.72776611 180.0789209 122.32662598 180.8219043 121.91333008 181.58740234 C119.66089928 183.79453183 117.990871 183.79057687 114.91011047 183.78912354 C114.22563339 183.76847839 113.54115631 183.74783325 112.8359375 183.7265625 C111.77689461 183.71807281 111.77689461 183.71807281 110.69645691 183.70941162 C108.44407999 183.68704161 106.19330122 183.63684949 103.94140625 183.5859375 C102.41343446 183.56587306 100.88543769 183.54762218 99.35742188 183.53125 C95.61396869 183.48717552 91.8717083 183.41814824 88.12890625 183.3359375 C87.85594727 184.05547607 87.58298828 184.77501465 87.30175781 185.51635742 C86.14829854 188.2893177 84.83151938 190.8307312 83.36328125 193.44921875 C82.80938721 194.43897705 82.25549316 195.42873535 81.68481445 196.44848633 C81.08886475 197.50447021 80.49291504 198.5604541 79.87890625 199.6484375 C79.26426514 200.74115967 78.64962402 201.83388184 78.01635742 202.9597168 C73.54386125 210.88639985 69.01519967 218.77974715 64.44140625 226.6484375 C63.85391602 227.66139893 63.26642578 228.67436035 62.66113281 229.71801758 C62.11038086 230.66056396 61.55962891 231.60311035 60.9921875 232.57421875 C60.51048096 233.39962158 60.02877441 234.22502441 59.5324707 235.07543945 C59.06929443 235.82140381 58.60611816 236.56736816 58.12890625 237.3359375 C57.57106445 238.45137939 57.57106445 238.45137939 57.00195312 239.58935547 C53.94502267 242.43988734 50.27092888 242.00709569 46.296875 242.04296875 C45.42750809 242.05865402 44.55814117 242.07433929 43.66242981 242.09049988 C41.82251054 242.11513139 39.98241503 242.12870732 38.14233398 242.13208008 C35.33472474 242.14833147 32.53465341 242.23373382 29.72851562 242.32226562 C16.96762847 242.53312422 16.96762847 242.53312422 12.88134766 239.87255859 C10.81202759 236.85622456 9.57567962 233.74735932 8.47366333 230.26593018 C6.52681145 224.41156149 4.33240407 218.95910034 -0.87109375 215.3359375 C-10.46881311 212.56463787 -21.10131765 213.53127871 -30.99255371 213.93823242 C-36.90612666 214.16182128 -42.8244701 214.22190434 -48.74132156 214.3056736 C-50.80139483 214.34704105 -52.85781806 214.42269503 -54.91659546 214.50553894 C-56.16534454 214.54069107 -57.41409363 214.5758432 -58.70068359 214.61206055 C-60.34754654 214.6756501 -60.34754654 214.6756501 -62.02767944 214.74052429 C-65.60272513 214.23183435 -66.64382995 213.10995516 -68.87109375 210.3359375 C-71.38742857 206.61281863 -73.66519641 202.74897588 -75.95385742 198.88305664 C-77.05355356 197.03192172 -78.17161967 195.19278669 -79.29101562 193.35351562 C-79.99985212 192.16474997 -80.70757184 190.97531755 -81.4140625 189.78515625 C-82.0536792 188.71612061 -82.6932959 187.64708496 -83.35229492 186.5456543 C-85.48074101 182.0475542 -86.57687365 178.37778019 -84.91479492 173.56933594 C-84.41955322 172.7034082 -83.92431152 171.83748047 -83.4140625 170.9453125 C-82.87845703 169.98882812 -82.34285156 169.03234375 -81.79101562 168.046875 C-81.21931641 167.06976563 -80.64761719 166.09265625 -80.05859375 165.0859375 C-79.21844727 163.59707031 -79.21844727 163.59707031 -78.36132812 162.078125 C-76.28925587 158.42414811 -74.20164239 154.83176046 -71.87109375 151.3359375 C-72.19307132 147.07943004 -74.01884839 143.88729582 -76.08203125 140.20703125 C-76.40640167 139.62406281 -76.73077209 139.04109436 -77.06497192 138.44046021 C-77.7598242 137.19360028 -78.45774 135.94844348 -79.15844727 134.7048645 C-80.25395262 132.75948183 -81.34004884 130.80911419 -82.42382812 128.85717773 C-85.7087898 122.94801148 -89.0243501 117.05748426 -92.37890625 111.1875 C-92.89018066 110.28330322 -93.40145508 109.37910645 -93.92822266 108.44750977 C-94.86463433 106.79318248 -95.81164724 105.14479446 -96.77099609 103.50366211 C-99.13205249 99.31973804 -100.75138195 96.25635436 -99.87109375 91.3359375 C-98.34332943 88.00733022 -96.63782285 84.99551218 -94.71191406 81.890625 C-92.45071605 78.21638776 -90.62707451 74.86747515 -89.34765625 70.734375 C-87.51799989 65.67909408 -85.83851146 61.85431147 -80.87109375 59.3359375 C-68.99681014 56.78953529 -55.87043973 58.39495425 -43.87109375 59.3359375 C-43.58008789 58.58481689 -43.28908203 57.83369629 -42.98925781 57.05981445 C-42.08444321 54.85566239 -41.13393814 52.8312569 -39.98046875 50.75390625 C-39.60760742 50.08101562 -39.23474609 49.408125 -38.85058594 48.71484375 C-38.44485352 47.99167969 -38.03912109 47.26851562 -37.62109375 46.5234375 C-37.1921582 45.75515625 -36.76322266 44.986875 -36.32128906 44.1953125 C-30.84079221 34.42992332 -25.20320133 24.75126473 -19.50195312 15.11328125 C-18.40235571 13.24067343 -17.32062481 11.35747396 -16.25585938 9.46484375 C-15.74216797 8.56636719 -15.22847656 7.66789062 -14.69921875 6.7421875 C-14.2496582 5.94103516 -13.80009766 5.13988281 -13.33691406 4.31445312 C-9.89033486 -0.33762513 -5.39759313 0.01647323 0 0 Z " fill="#FDFDFE" transform="translate(144.87109375,27.6640625)"/>
<path d="M0 0 C0.75934341 -0.0066568 1.51868683 -0.0133136 2.30104065 -0.02017212 C3.90387558 -0.03027737 5.50675239 -0.0349898 7.10961914 -0.03466797 C9.55490726 -0.03904193 11.99839029 -0.07538238 14.44335938 -0.11328125 C16.0039001 -0.11914986 17.56444937 -0.12311896 19.125 -0.125 C19.85222763 -0.13937103 20.57945526 -0.15374207 21.32872009 -0.16854858 C24.53657171 -0.13983509 26.93343532 0.24181467 29.83032227 1.63671875 C32.16121057 4.37387235 33.04566356 6.37742001 34.31835938 9.70068359 C36.9485661 16.37434147 39.64145181 22.53247975 45.12890625 27.3359375 C54.56927419 30.91318827 65.48088239 29.69635849 75.39807129 29.08734131 C80.56337609 28.79466426 85.73630219 28.68403128 90.90783691 28.55697632 C93.65600987 28.48932518 96.39395522 28.36962106 99.13806152 28.2069397 C108.34997097 27.80103404 108.34997097 27.80103404 112.32006836 30.52734375 C113.21544312 31.91759766 113.21544312 31.91759766 114.12890625 33.3359375 C114.6587915 34.12274902 115.18867676 34.90956055 115.73461914 35.72021484 C116.18571045 36.5292627 116.63680176 37.33831055 117.1015625 38.171875 C117.60880859 39.07164063 118.11605469 39.97140625 118.63867188 40.8984375 C119.15107422 41.8265625 119.66347656 42.7546875 120.19140625 43.7109375 C120.96581055 45.09152344 120.96581055 45.09152344 121.75585938 46.5 C122.76214484 48.29464924 123.76063391 50.09369691 124.75048828 51.89746094 C125.59737539 53.39563813 126.48176805 54.87420126 127.42529297 56.31347656 C129.38460086 59.32689041 130.14399187 61.02619317 129.96704102 64.65942383 C129.04351705 68.71050086 127.67148336 71.05269275 125.28515625 74.43359375 C124.52469876 75.57571727 123.76696681 76.71965937 123.01171875 77.86523438 C121.82664064 79.64015149 120.62976387 81.39724761 119.38183594 83.12866211 C116.60544194 87.01484188 114.34968865 90.65535778 113.12890625 95.3359375 C114.4870447 100.74149196 117.0301347 104.74890702 120.12890625 109.3359375 C120.93329143 110.74353711 121.7286705 112.1563972 122.5078125 113.578125 C123.23131041 114.79167651 123.95920436 116.00261764 124.69140625 117.2109375 C125.53287422 118.62611059 126.37399737 120.04148875 127.21484375 121.45703125 C128.79635092 124.10613982 130.3790803 126.75451587 131.96191406 129.40283203 C133.92096119 132.68861278 135.86915825 135.9806536 137.81640625 139.2734375 C138.45328369 140.33481934 139.09016113 141.39620117 139.74633789 142.48974609 C140.33020264 143.4792627 140.91406738 144.4687793 141.515625 145.48828125 C142.04373779 146.37507568 142.57185059 147.26187012 143.1159668 148.17553711 C143.45023682 148.88846924 143.78450684 149.60140137 144.12890625 150.3359375 C143.79890625 150.9959375 143.46890625 151.6559375 143.12890625 152.3359375 C142.13890625 151.3459375 141.14890625 150.3559375 140.12890625 149.3359375 C139.83902832 149.93744629 139.54915039 150.53895508 139.25048828 151.15869141 C136.12659548 157.53576702 132.68591651 163.64158892 129.00390625 169.7109375 C128.47925781 170.58621094 127.95460938 171.46148437 127.4140625 172.36328125 C124.54087149 177.1276866 124.54087149 177.1276866 123.12890625 179.3359375 C122.72776611 180.0789209 122.32662598 180.8219043 121.91333008 181.58740234 C119.66089928 183.79453183 117.990871 183.79057687 114.91011047 183.78912354 C114.22563339 183.76847839 113.54115631 183.74783325 112.8359375 183.7265625 C111.77689461 183.71807281 111.77689461 183.71807281 110.69645691 183.70941162 C108.44407999 183.68704161 106.19330122 183.63684949 103.94140625 183.5859375 C102.41343446 183.56587306 100.88543769 183.54762218 99.35742188 183.53125 C95.61396869 183.48717552 91.8717083 183.41814824 88.12890625 183.3359375 C87.85594727 184.05547607 87.58298828 184.77501465 87.30175781 185.51635742 C86.14829854 188.2893177 84.83151938 190.8307312 83.36328125 193.44921875 C82.80938721 194.43897705 82.25549316 195.42873535 81.68481445 196.44848633 C81.08886475 197.50447021 80.49291504 198.5604541 79.87890625 199.6484375 C79.26426514 200.74115967 78.64962402 201.83388184 78.01635742 202.9597168 C73.54386125 210.88639985 69.01519967 218.77974715 64.44140625 226.6484375 C63.85391602 227.66139893 63.26642578 228.67436035 62.66113281 229.71801758 C62.11038086 230.66056396 61.55962891 231.60311035 60.9921875 232.57421875 C60.51048096 233.39962158 60.02877441 234.22502441 59.5324707 235.07543945 C59.06929443 235.82140381 58.60611816 236.56736816 58.12890625 237.3359375 C57.72978027 238.08609131 57.3306543 238.83624512 56.91943359 239.60913086 C54.62809085 241.81893005 52.86403749 241.79054454 49.75764465 241.78912354 C49.05129379 241.76847839 48.34494293 241.74783325 47.6171875 241.7265625 C46.88896286 241.72090271 46.16073822 241.71524292 45.41044617 241.70941162 C43.08676127 241.68703779 40.76462418 241.63684419 38.44140625 241.5859375 C36.86525666 241.56587359 35.28908288 241.54762262 33.71289062 241.53125 C29.85096701 241.48717033 25.99019895 241.41813975 22.12890625 241.3359375 C27.51122609 230.45685767 33.0557621 219.67767721 38.75390625 208.9609375 C39.5460433 207.46796988 40.33811575 205.97496798 41.13012695 204.48193359 C46.93998347 193.5378419 52.79907581 182.62077603 58.6875 171.71875 C61.12806159 167.19846065 63.55656989 162.67194269 65.9765625 158.140625 C72.91870495 145.1441955 79.90815939 132.18037192 87.12890625 119.3359375 C87.78890625 119.3359375 88.44890625 119.3359375 89.12890625 119.3359375 C91.25907861 123.06217216 93.3821269 126.79241832 95.50390625 130.5234375 C96.1071875 131.57853516 96.71046875 132.63363281 97.33203125 133.72070312 C98.20214844 135.25307617 98.20214844 135.25307617 99.08984375 136.81640625 C99.62399902 137.75379639 100.1581543 138.69118652 100.70849609 139.65698242 C102.12890625 142.3359375 102.12890625 142.3359375 104.12890625 147.3359375 C114.68890625 147.3359375 125.24890625 147.3359375 136.12890625 147.3359375 C133.79828125 143.2521875 131.46765625 139.1684375 129.06640625 134.9609375 C128.29296875 133.60242676 127.51953125 132.24391602 126.72265625 130.84423828 C123.09423201 124.4759281 119.43116927 118.13176431 115.69140625 111.828125 C114.99065159 110.63999705 114.29020602 109.45168674 113.59008789 108.26318359 C112.25819701 106.00753344 110.91647322 103.75765573 109.56420898 101.51416016 C108.96552002 100.49628418 108.36683105 99.4784082 107.75 98.4296875 C107.21818115 97.53958984 106.6863623 96.64949219 106.13842773 95.73242188 C105.12890625 93.3359375 105.12890625 93.3359375 106.12890625 89.3359375 C111.07890625 80.7559375 116.02890625 72.1759375 121.12890625 63.3359375 C78.88890625 63.3359375 36.64890625 63.3359375 -6.87109375 63.3359375 C-5.35175125 59.53758125 -3.8664834 56.45952964 -1.796875 52.9921875 C-1.21228516 51.99316406 -0.62769531 50.99414062 -0.02539062 49.96484375 C1.20550023 47.87376513 2.44514766 45.78781706 3.69335938 43.70703125 C4.56444336 42.20849609 4.56444336 42.20849609 5.453125 40.6796875 C5.99026123 39.77412109 6.52739746 38.86855469 7.08081055 37.93554688 C8.34928047 34.78933962 8.20548766 33.52315242 7.12890625 30.3359375 C6.23791921 28.48623953 5.27394262 26.6707367 4.2578125 24.88671875 C3.39639648 23.36788086 3.39639648 23.36788086 2.51757812 21.81835938 C1.91494141 20.77228516 1.31230469 19.72621094 0.69140625 18.6484375 C0.09263672 17.59076172 -0.50613281 16.53308594 -1.12304688 15.44335938 C-4.05204442 10.05975292 -4.05204442 10.05975292 -7.87109375 5.3359375 C-8.29704834 6.03750977 -8.72300293 6.73908203 -9.16186523 7.46191406 C-10.45945991 9.59912883 -11.75706877 11.73633499 -13.0546875 13.87353516 C-14.56914435 16.36792002 -16.08345098 18.862396 -17.59765625 21.35693359 C-21.24522925 27.36575669 -24.89357336 33.37410432 -28.54615784 39.37988281 C-30.11181647 41.95431418 -31.67691552 44.52908552 -33.24197388 47.10388184 C-33.99403265 48.3407877 -34.74637185 49.57752311 -35.49899292 50.81408691 C-36.55081346 52.54229658 -37.60160361 54.27113324 -38.65234375 56 C-39.25111328 56.98436035 -39.84988281 57.9687207 -40.46679688 58.98291016 C-41.8578388 61.24746916 -41.8578388 61.24746916 -42.87109375 63.3359375 C-55.41109375 63.3359375 -67.95109375 63.3359375 -80.87109375 63.3359375 C-69.92074946 82.40727962 -69.92074946 82.40727962 -58.69848633 101.31835938 C-54.03211073 109.05273409 -49.41735201 116.81714953 -44.80859375 124.5859375 C-44.00163263 125.94588514 -43.19466646 127.30582979 -42.38769531 128.66577148 C-40.73467976 131.45171408 -39.08188418 134.23778706 -37.42919922 137.02392578 C-33.49809723 143.65077023 -29.56454889 150.27616242 -25.63088989 156.90148926 C-24.39563718 158.98209756 -23.16057251 161.06281739 -21.92553711 163.14355469 C-21.16781203 164.41992546 -20.41008122 165.69629283 -19.65234375 166.97265625 C-18.66331055 168.63880981 -18.66331055 168.63880981 -17.65429688 170.33862305 C-16.50240769 172.27478728 -15.33047987 174.19923218 -14.13476562 176.10864258 C-12.87109375 178.3359375 -12.87109375 178.3359375 -12.87109375 180.3359375 C-14.19330933 180.23998291 -14.19330933 180.23998291 -15.54223633 180.14208984 C-31.53571248 178.56779021 -31.53571248 178.56779021 -46.30615234 182.97265625 C-49.8898125 186.99601167 -51.86509746 191.61632837 -53.70414734 196.63085938 C-55.02744138 199.69836422 -56.67537102 202.34766415 -58.49609375 205.14697266 C-59.12773438 206.12300446 -59.759375 207.09903625 -60.41015625 208.10464478 C-60.89226562 208.84097137 -61.374375 209.57729797 -61.87109375 210.3359375 C-60.75594643 210.2747876 -60.75594643 210.2747876 -59.61827087 210.21240234 C-52.54449954 209.84655774 -45.4784469 209.60099669 -38.39688778 209.4835968 C-34.7557807 209.41916497 -31.12759653 209.31169077 -27.49194336 209.09814453 C-4.11244376 207.76983234 -4.11244376 207.76983234 2.93328857 213.69384766 C8.38323219 220.21480655 11.83160966 227.56720836 15.12890625 235.3359375 C16.11600661 237.34233549 17.11266345 239.34414168 18.12890625 241.3359375 C16.3671875 241.19921875 16.3671875 241.19921875 14.12890625 240.3359375 C12.234375 237.81640625 12.234375 237.81640625 10.31640625 234.5234375 C9.32706714 232.84870057 8.33607939 231.17484996 7.32788086 229.51139832 C6.12890625 227.3359375 6.12890625 227.3359375 4.88500977 224.36616516 C3.26300792 220.88282985 1.71717237 218.18699657 -0.87109375 215.3359375 C-5.6869834 213.6618818 -10.38396377 213.8876645 -15.4140625 214.0859375 C-16.82934156 214.09605267 -18.24467388 214.10026903 -19.6599884 214.09887695 C-23.37088127 214.10832401 -27.07700704 214.18582284 -30.78656006 214.28155518 C-36.73160306 214.42385291 -42.67804155 214.4639898 -48.624506 214.50036621 C-50.69727996 214.52311611 -52.76758417 214.57610099 -54.83964539 214.63378906 C-56.72729362 214.66230957 -56.72729362 214.66230957 -58.65307617 214.69140625 C-60.31351204 214.73237427 -60.31351204 214.73237427 -62.00749207 214.77416992 C-65.58042242 214.2273851 -66.63983294 213.11331756 -68.87109375 210.3359375 C-71.38742857 206.61281863 -73.66519641 202.74897588 -75.95385742 198.88305664 C-77.05355356 197.03192172 -78.17161967 195.19278669 -79.29101562 193.35351562 C-79.99985212 192.16474997 -80.70757184 190.97531755 -81.4140625 189.78515625 C-82.0536792 188.71612061 -82.6932959 187.64708496 -83.35229492 186.5456543 C-85.48074101 182.0475542 -86.57687365 178.37778019 -84.91479492 173.56933594 C-84.41955322 172.7034082 -83.92431152 171.83748047 -83.4140625 170.9453125 C-82.87845703 169.98882812 -82.34285156 169.03234375 -81.79101562 168.046875 C-81.21931641 167.06976563 -80.64761719 166.09265625 -80.05859375 165.0859375 C-79.21844727 163.59707031 -79.21844727 163.59707031 -78.36132812 162.078125 C-76.28925587 158.42414811 -74.20164239 154.83176046 -71.87109375 151.3359375 C-72.19307132 147.07943004 -74.01884839 143.88729582 -76.08203125 140.20703125 C-76.40640167 139.62406281 -76.73077209 139.04109436 -77.06497192 138.44046021 C-77.7598242 137.19360028 -78.45774 135.94844348 -79.15844727 134.7048645 C-80.25395262 132.75948183 -81.34004884 130.80911419 -82.42382812 128.85717773 C-85.7087898 122.94801148 -89.0243501 117.05748426 -92.37890625 111.1875 C-92.89018066 110.28330322 -93.40145508 109.37910645 -93.92822266 108.44750977 C-94.86463433 106.79318248 -95.81164724 105.14479446 -96.77099609 103.50366211 C-99.13205249 99.31973804 -100.75138195 96.25635436 -99.87109375 91.3359375 C-98.34332943 88.00733022 -96.63782285 84.99551218 -94.71191406 81.890625 C-92.45071605 78.21638776 -90.62707451 74.86747515 -89.34765625 70.734375 C-87.51799989 65.67909408 -85.83851146 61.85431147 -80.87109375 59.3359375 C-68.99681014 56.78953529 -55.87043973 58.39495425 -43.87109375 59.3359375 C-43.58008789 58.58481689 -43.28908203 57.83369629 -42.98925781 57.05981445 C-42.08444321 54.85566239 -41.13393814 52.8312569 -39.98046875 50.75390625 C-39.60760742 50.08101562 -39.23474609 49.408125 -38.85058594 48.71484375 C-38.44485352 47.99167969 -38.03912109 47.26851562 -37.62109375 46.5234375 C-37.1921582 45.75515625 -36.76322266 44.986875 -36.32128906 44.1953125 C-30.84079221 34.42992332 -25.20320133 24.75126473 -19.50195312 15.11328125 C-18.40235571 13.24067343 -17.32062481 11.35747396 -16.25585938 9.46484375 C-15.74216797 8.56636719 -15.22847656 7.66789062 -14.69921875 6.7421875 C-14.2496582 5.94103516 -13.80009766 5.13988281 -13.33691406 4.31445312 C-9.89033486 -0.33762513 -5.39759313 0.01647323 0 0 Z " fill="#4942B8" transform="translate(144.87109375,27.6640625)"/>
<path d="M0 0 C27.72 0 55.44 0 84 0 C82.48179758 3.79550605 81.08629982 6.67696545 78.9453125 10.0703125 C78.3366333 11.0394458 77.7279541 12.0085791 77.10083008 13.00708008 C76.44880615 14.03599365 75.79678223 15.06490723 75.125 16.125 C74.45170654 17.19451904 73.77841309 18.26403809 73.0847168 19.3659668 C71.06033031 22.57976111 69.03057792 25.79011516 67 29 C65.92024622 30.71203358 64.84079115 32.42425562 63.76171875 34.13671875 C60.29324098 39.63775955 56.81598074 45.1332229 53.3359375 50.62695312 C52.20561209 52.41147373 51.0756412 54.19621894 49.94604492 55.98120117 C48.87933882 57.66679131 47.81182885 59.35187307 46.7434082 61.03637695 C46.02930786 62.16499146 46.02930786 62.16499146 45.30078125 63.31640625 C44.87966064 63.98099854 44.45854004 64.64559082 44.0246582 65.33032227 C42.95108838 67.02560183 42.95108838 67.02560183 42 69 C41.34 69 40.68 69 40 69 C39.60844727 68.31711914 39.21689453 67.63423828 38.81347656 66.93066406 C31.32545942 53.882368 23.77833664 40.87887419 16.0078125 27.99609375 C12.56288765 22.28343333 9.15196741 16.55082538 5.75 10.8125 C5.17620605 9.84860352 4.60241211 8.88470703 4.01123047 7.89160156 C3.22449951 6.56273926 3.22449951 6.56273926 2.421875 5.20703125 C1.95362305 4.4178833 1.48537109 3.62873535 1.00292969 2.81567383 C0 1 0 1 0 0 Z " fill="#5F56E0" transform="translate(126,132)"/>
<path d="M0 0 C4.20889164 4.86522871 7.40609415 10.34098812 10.75 15.8125 C11.65298828 17.28106445 11.65298828 17.28106445 12.57421875 18.77929688 C14.05246819 21.18438524 15.52761975 23.59131572 17 26 C16.01 26.33 15.02 26.66 14 27 C10.02068327 21.38214109 6.4803836 15.53292942 3.0625 9.5625 C2.44193726 8.49708984 2.44193726 8.49708984 1.80883789 7.41015625 C0.80861725 5.64143452 -0.10395669 3.82371167 -1 2 C-0.67 1.34 -0.34 0.68 0 0 Z " fill="#524CBD" transform="translate(146,242)"/>
</svg>
