<?xml version="1.0" standalone="no"?>
<svg xmlns="http://www.w3.org/2000/svg" version="1.1" width="300" height="300">
	<!-- Created with https://api.qrserver.com (QR Code API, see goQR.me/api for information) -->
	<title>QR Code</title>
	<desc>https://wa.me/919217036208</desc>
	<rect style="fill:rgb(255, 255, 255);fill-opacity:1" x="0" y="0" width="300" height="300" />
	<g id="elements">
		<path style="fill:rgb(0, 0, 0)" d="M 0,0 l 12,0 0,12 -12,0 z M 12,0 l 12,0 0,12 -12,0 z M 24,0 l 12,0 0,12 -12,0 z M 36,0 l 12,0 0,12 -12,0 z M 48,0 l 12,0 0,12 -12,0 z M 60,0 l 12,0 0,12 -12,0 z M 72,0 l 12,0 0,12 -12,0 z M 120,0 l 12,0 0,12 -12,0 z M 144,0 l 12,0 0,12 -12,0 z M 168,0 l 12,0 0,12 -12,0 z M 192,0 l 12,0 0,12 -12,0 z M 216,0 l 12,0 0,12 -12,0 z M 228,0 l 12,0 0,12 -12,0 z M 240,0 l 12,0 0,12 -12,0 z M 252,0 l 12,0 0,12 -12,0 z M 264,0 l 12,0 0,12 -12,0 z M 276,0 l 12,0 0,12 -12,0 z M 288,0 l 12,0 0,12 -12,0 z M 0,12 l 12,0 0,12 -12,0 z M 72,12 l 12,0 0,12 -12,0 z M 96,12 l 12,0 0,12 -12,0 z M 120,12 l 12,0 0,12 -12,0 z M 156,12 l 12,0 0,12 -12,0 z M 180,12 l 12,0 0,12 -12,0 z M 216,12 l 12,0 0,12 -12,0 z M 288,12 l 12,0 0,12 -12,0 z M 0,24 l 12,0 0,12 -12,0 z M 24,24 l 12,0 0,12 -12,0 z M 36,24 l 12,0 0,12 -12,0 z M 48,24 l 12,0 0,12 -12,0 z M 72,24 l 12,0 0,12 -12,0 z M 144,24 l 12,0 0,12 -12,0 z M 156,24 l 12,0 0,12 -12,0 z M 192,24 l 12,0 0,12 -12,0 z M 216,24 l 12,0 0,12 -12,0 z M 240,24 l 12,0 0,12 -12,0 z M 252,24 l 12,0 0,12 -12,0 z M 264,24 l 12,0 0,12 -12,0 z M 288,24 l 12,0 0,12 -12,0 z M 0,36 l 12,0 0,12 -12,0 z M 24,36 l 12,0 0,12 -12,0 z M 36,36 l 12,0 0,12 -12,0 z M 48,36 l 12,0 0,12 -12,0 z M 72,36 l 12,0 0,12 -12,0 z M 96,36 l 12,0 0,12 -12,0 z M 108,36 l 12,0 0,12 -12,0 z M 120,36 l 12,0 0,12 -12,0 z M 144,36 l 12,0 0,12 -12,0 z M 156,36 l 12,0 0,12 -12,0 z M 168,36 l 12,0 0,12 -12,0 z M 180,36 l 12,0 0,12 -12,0 z M 216,36 l 12,0 0,12 -12,0 z M 240,36 l 12,0 0,12 -12,0 z M 252,36 l 12,0 0,12 -12,0 z M 264,36 l 12,0 0,12 -12,0 z M 288,36 l 12,0 0,12 -12,0 z M 0,48 l 12,0 0,12 -12,0 z M 24,48 l 12,0 0,12 -12,0 z M 36,48 l 12,0 0,12 -12,0 z M 48,48 l 12,0 0,12 -12,0 z M 72,48 l 12,0 0,12 -12,0 z M 108,48 l 12,0 0,12 -12,0 z M 180,48 l 12,0 0,12 -12,0 z M 216,48 l 12,0 0,12 -12,0 z M 240,48 l 12,0 0,12 -12,0 z M 252,48 l 12,0 0,12 -12,0 z M 264,48 l 12,0 0,12 -12,0 z M 288,48 l 12,0 0,12 -12,0 z M 0,60 l 12,0 0,12 -12,0 z M 72,60 l 12,0 0,12 -12,0 z M 96,60 l 12,0 0,12 -12,0 z M 108,60 l 12,0 0,12 -12,0 z M 132,60 l 12,0 0,12 -12,0 z M 144,60 l 12,0 0,12 -12,0 z M 156,60 l 12,0 0,12 -12,0 z M 168,60 l 12,0 0,12 -12,0 z M 180,60 l 12,0 0,12 -12,0 z M 216,60 l 12,0 0,12 -12,0 z M 288,60 l 12,0 0,12 -12,0 z M 0,72 l 12,0 0,12 -12,0 z M 12,72 l 12,0 0,12 -12,0 z M 24,72 l 12,0 0,12 -12,0 z M 36,72 l 12,0 0,12 -12,0 z M 48,72 l 12,0 0,12 -12,0 z M 60,72 l 12,0 0,12 -12,0 z M 72,72 l 12,0 0,12 -12,0 z M 96,72 l 12,0 0,12 -12,0 z M 120,72 l 12,0 0,12 -12,0 z M 144,72 l 12,0 0,12 -12,0 z M 168,72 l 12,0 0,12 -12,0 z M 192,72 l 12,0 0,12 -12,0 z M 216,72 l 12,0 0,12 -12,0 z M 228,72 l 12,0 0,12 -12,0 z M 240,72 l 12,0 0,12 -12,0 z M 252,72 l 12,0 0,12 -12,0 z M 264,72 l 12,0 0,12 -12,0 z M 276,72 l 12,0 0,12 -12,0 z M 288,72 l 12,0 0,12 -12,0 z M 108,84 l 12,0 0,12 -12,0 z M 120,84 l 12,0 0,12 -12,0 z M 132,84 l 12,0 0,12 -12,0 z M 156,84 l 12,0 0,12 -12,0 z M 0,96 l 12,0 0,12 -12,0 z M 12,96 l 12,0 0,12 -12,0 z M 24,96 l 12,0 0,12 -12,0 z M 36,96 l 12,0 0,12 -12,0 z M 48,96 l 12,0 0,12 -12,0 z M 72,96 l 12,0 0,12 -12,0 z M 84,96 l 12,0 0,12 -12,0 z M 96,96 l 12,0 0,12 -12,0 z M 108,96 l 12,0 0,12 -12,0 z M 132,96 l 12,0 0,12 -12,0 z M 168,96 l 12,0 0,12 -12,0 z M 180,96 l 12,0 0,12 -12,0 z M 204,96 l 12,0 0,12 -12,0 z M 228,96 l 12,0 0,12 -12,0 z M 252,96 l 12,0 0,12 -12,0 z M 276,96 l 12,0 0,12 -12,0 z M 0,108 l 12,0 0,12 -12,0 z M 24,108 l 12,0 0,12 -12,0 z M 36,108 l 12,0 0,12 -12,0 z M 60,108 l 12,0 0,12 -12,0 z M 84,108 l 12,0 0,12 -12,0 z M 120,108 l 12,0 0,12 -12,0 z M 144,108 l 12,0 0,12 -12,0 z M 156,108 l 12,0 0,12 -12,0 z M 192,108 l 12,0 0,12 -12,0 z M 228,108 l 12,0 0,12 -12,0 z M 276,108 l 12,0 0,12 -12,0 z M 0,120 l 12,0 0,12 -12,0 z M 24,120 l 12,0 0,12 -12,0 z M 48,120 l 12,0 0,12 -12,0 z M 60,120 l 12,0 0,12 -12,0 z M 72,120 l 12,0 0,12 -12,0 z M 84,120 l 12,0 0,12 -12,0 z M 120,120 l 12,0 0,12 -12,0 z M 180,120 l 12,0 0,12 -12,0 z M 192,120 l 12,0 0,12 -12,0 z M 216,120 l 12,0 0,12 -12,0 z M 228,120 l 12,0 0,12 -12,0 z M 240,120 l 12,0 0,12 -12,0 z M 252,120 l 12,0 0,12 -12,0 z M 276,120 l 12,0 0,12 -12,0 z M 288,120 l 12,0 0,12 -12,0 z M 48,132 l 12,0 0,12 -12,0 z M 84,132 l 12,0 0,12 -12,0 z M 144,132 l 12,0 0,12 -12,0 z M 180,132 l 12,0 0,12 -12,0 z M 192,132 l 12,0 0,12 -12,0 z M 204,132 l 12,0 0,12 -12,0 z M 216,132 l 12,0 0,12 -12,0 z M 228,132 l 12,0 0,12 -12,0 z M 288,132 l 12,0 0,12 -12,0 z M 12,144 l 12,0 0,12 -12,0 z M 48,144 l 12,0 0,12 -12,0 z M 72,144 l 12,0 0,12 -12,0 z M 108,144 l 12,0 0,12 -12,0 z M 120,144 l 12,0 0,12 -12,0 z M 144,144 l 12,0 0,12 -12,0 z M 168,144 l 12,0 0,12 -12,0 z M 216,144 l 12,0 0,12 -12,0 z M 228,144 l 12,0 0,12 -12,0 z M 240,144 l 12,0 0,12 -12,0 z M 264,144 l 12,0 0,12 -12,0 z M 276,144 l 12,0 0,12 -12,0 z M 288,144 l 12,0 0,12 -12,0 z M 0,156 l 12,0 0,12 -12,0 z M 12,156 l 12,0 0,12 -12,0 z M 36,156 l 12,0 0,12 -12,0 z M 48,156 l 12,0 0,12 -12,0 z M 84,156 l 12,0 0,12 -12,0 z M 96,156 l 12,0 0,12 -12,0 z M 108,156 l 12,0 0,12 -12,0 z M 156,156 l 12,0 0,12 -12,0 z M 180,156 l 12,0 0,12 -12,0 z M 228,156 l 12,0 0,12 -12,0 z M 252,156 l 12,0 0,12 -12,0 z M 276,156 l 12,0 0,12 -12,0 z M 0,168 l 12,0 0,12 -12,0 z M 36,168 l 12,0 0,12 -12,0 z M 48,168 l 12,0 0,12 -12,0 z M 60,168 l 12,0 0,12 -12,0 z M 72,168 l 12,0 0,12 -12,0 z M 84,168 l 12,0 0,12 -12,0 z M 120,168 l 12,0 0,12 -12,0 z M 132,168 l 12,0 0,12 -12,0 z M 144,168 l 12,0 0,12 -12,0 z M 180,168 l 12,0 0,12 -12,0 z M 204,168 l 12,0 0,12 -12,0 z M 228,168 l 12,0 0,12 -12,0 z M 240,168 l 12,0 0,12 -12,0 z M 252,168 l 12,0 0,12 -12,0 z M 276,168 l 12,0 0,12 -12,0 z M 288,168 l 12,0 0,12 -12,0 z M 0,180 l 12,0 0,12 -12,0 z M 24,180 l 12,0 0,12 -12,0 z M 108,180 l 12,0 0,12 -12,0 z M 120,180 l 12,0 0,12 -12,0 z M 132,180 l 12,0 0,12 -12,0 z M 180,180 l 12,0 0,12 -12,0 z M 228,180 l 12,0 0,12 -12,0 z M 240,180 l 12,0 0,12 -12,0 z M 288,180 l 12,0 0,12 -12,0 z M 0,192 l 12,0 0,12 -12,0 z M 72,192 l 12,0 0,12 -12,0 z M 84,192 l 12,0 0,12 -12,0 z M 96,192 l 12,0 0,12 -12,0 z M 108,192 l 12,0 0,12 -12,0 z M 120,192 l 12,0 0,12 -12,0 z M 132,192 l 12,0 0,12 -12,0 z M 156,192 l 12,0 0,12 -12,0 z M 168,192 l 12,0 0,12 -12,0 z M 180,192 l 12,0 0,12 -12,0 z M 192,192 l 12,0 0,12 -12,0 z M 204,192 l 12,0 0,12 -12,0 z M 216,192 l 12,0 0,12 -12,0 z M 228,192 l 12,0 0,12 -12,0 z M 240,192 l 12,0 0,12 -12,0 z M 264,192 l 12,0 0,12 -12,0 z M 96,204 l 12,0 0,12 -12,0 z M 144,204 l 12,0 0,12 -12,0 z M 156,204 l 12,0 0,12 -12,0 z M 180,204 l 12,0 0,12 -12,0 z M 192,204 l 12,0 0,12 -12,0 z M 240,204 l 12,0 0,12 -12,0 z M 252,204 l 12,0 0,12 -12,0 z M 0,216 l 12,0 0,12 -12,0 z M 12,216 l 12,0 0,12 -12,0 z M 24,216 l 12,0 0,12 -12,0 z M 36,216 l 12,0 0,12 -12,0 z M 48,216 l 12,0 0,12 -12,0 z M 60,216 l 12,0 0,12 -12,0 z M 72,216 l 12,0 0,12 -12,0 z M 96,216 l 12,0 0,12 -12,0 z M 108,216 l 12,0 0,12 -12,0 z M 120,216 l 12,0 0,12 -12,0 z M 192,216 l 12,0 0,12 -12,0 z M 216,216 l 12,0 0,12 -12,0 z M 240,216 l 12,0 0,12 -12,0 z M 264,216 l 12,0 0,12 -12,0 z M 276,216 l 12,0 0,12 -12,0 z M 288,216 l 12,0 0,12 -12,0 z M 0,228 l 12,0 0,12 -12,0 z M 72,228 l 12,0 0,12 -12,0 z M 108,228 l 12,0 0,12 -12,0 z M 120,228 l 12,0 0,12 -12,0 z M 144,228 l 12,0 0,12 -12,0 z M 180,228 l 12,0 0,12 -12,0 z M 192,228 l 12,0 0,12 -12,0 z M 240,228 l 12,0 0,12 -12,0 z M 252,228 l 12,0 0,12 -12,0 z M 276,228 l 12,0 0,12 -12,0 z M 288,228 l 12,0 0,12 -12,0 z M 0,240 l 12,0 0,12 -12,0 z M 24,240 l 12,0 0,12 -12,0 z M 36,240 l 12,0 0,12 -12,0 z M 48,240 l 12,0 0,12 -12,0 z M 72,240 l 12,0 0,12 -12,0 z M 96,240 l 12,0 0,12 -12,0 z M 120,240 l 12,0 0,12 -12,0 z M 144,240 l 12,0 0,12 -12,0 z M 180,240 l 12,0 0,12 -12,0 z M 192,240 l 12,0 0,12 -12,0 z M 204,240 l 12,0 0,12 -12,0 z M 216,240 l 12,0 0,12 -12,0 z M 228,240 l 12,0 0,12 -12,0 z M 240,240 l 12,0 0,12 -12,0 z M 264,240 l 12,0 0,12 -12,0 z M 276,240 l 12,0 0,12 -12,0 z M 0,252 l 12,0 0,12 -12,0 z M 24,252 l 12,0 0,12 -12,0 z M 36,252 l 12,0 0,12 -12,0 z M 48,252 l 12,0 0,12 -12,0 z M 72,252 l 12,0 0,12 -12,0 z M 96,252 l 12,0 0,12 -12,0 z M 204,252 l 12,0 0,12 -12,0 z M 216,252 l 12,0 0,12 -12,0 z M 240,252 l 12,0 0,12 -12,0 z M 252,252 l 12,0 0,12 -12,0 z M 264,252 l 12,0 0,12 -12,0 z M 288,252 l 12,0 0,12 -12,0 z M 0,264 l 12,0 0,12 -12,0 z M 24,264 l 12,0 0,12 -12,0 z M 36,264 l 12,0 0,12 -12,0 z M 48,264 l 12,0 0,12 -12,0 z M 72,264 l 12,0 0,12 -12,0 z M 96,264 l 12,0 0,12 -12,0 z M 108,264 l 12,0 0,12 -12,0 z M 132,264 l 12,0 0,12 -12,0 z M 144,264 l 12,0 0,12 -12,0 z M 252,264 l 12,0 0,12 -12,0 z M 264,264 l 12,0 0,12 -12,0 z M 288,264 l 12,0 0,12 -12,0 z M 0,276 l 12,0 0,12 -12,0 z M 72,276 l 12,0 0,12 -12,0 z M 96,276 l 12,0 0,12 -12,0 z M 108,276 l 12,0 0,12 -12,0 z M 132,276 l 12,0 0,12 -12,0 z M 180,276 l 12,0 0,12 -12,0 z M 192,276 l 12,0 0,12 -12,0 z M 204,276 l 12,0 0,12 -12,0 z M 228,276 l 12,0 0,12 -12,0 z M 240,276 l 12,0 0,12 -12,0 z M 252,276 l 12,0 0,12 -12,0 z M 288,276 l 12,0 0,12 -12,0 z M 0,288 l 12,0 0,12 -12,0 z M 12,288 l 12,0 0,12 -12,0 z M 24,288 l 12,0 0,12 -12,0 z M 36,288 l 12,0 0,12 -12,0 z M 48,288 l 12,0 0,12 -12,0 z M 60,288 l 12,0 0,12 -12,0 z M 72,288 l 12,0 0,12 -12,0 z M 96,288 l 12,0 0,12 -12,0 z M 108,288 l 12,0 0,12 -12,0 z M 132,288 l 12,0 0,12 -12,0 z M 144,288 l 12,0 0,12 -12,0 z M 204,288 l 12,0 0,12 -12,0 z M 216,288 l 12,0 0,12 -12,0 z M 228,288 l 12,0 0,12 -12,0 z M 240,288 l 12,0 0,12 -12,0 z M 252,288 l 12,0 0,12 -12,0 z M 264,288 l 12,0 0,12 -12,0 z M 276,288 l 12,0 0,12 -12,0 z M 288,288 l 12,0 0,12 -12,0 z " />
	</g>
	<!-- WhatsApp Logo Centerpiece -->
	<rect x="120" y="120" width="60" height="60" rx="10" ry="10" fill="#FFFFFF" stroke="#000000" stroke-width="6" />
	<path fill="#25D366" d="M150,132 A18,18 0 0,0 133.5,159 L130,170 L141.5,166.5 A18,18 0 1,0 150,132 Z" />
	<path fill="#FFFFFF" d="M150,137 C143.37,137 138,142.37 138,149 C138,151.13 138.56,153.13 139.53,154.87 L138,160.5 L143.78,159 C145.43,159.9 147.32,160.41 149.33,160.41 C155.96,160.41 161.33,155.04 161.33,148.41 C161.33,142.37 156.63,137 150,137 Z M144.82,143.51 C145.17,143.51 145.54,143.51 145.89,143.54 C146.3,143.57 146.59,143.83 146.73,144.22 C146.99,144.93 147.61,146.42 147.88,147.05 C147.99,147.31 147.85,147.59 147.65,147.79 C147.45,147.99 147.23,148.2 147.02,148.41 C146.83,148.61 146.8,148.91 146.97,149.13 C147.78,150.22 148.91,151.35 150,152.16 C150.22,152.33 150.52,152.3 150.72,152.11 C150.93,151.9 151.14,151.68 151.34,151.48 C151.54,151.28 151.82,151.14 152.08,151.25 C152.71,151.52 154.2,152.14 154.91,152.4 C155.3,152.54 155.56,152.83 155.59,153.24 C155.62,153.59 155.62,153.96 155.62,154.31 C155.62,155.24 154.82,155.97 153.94,155.85 C151.87,155.59 148.47,154.23 145.92,151.68 C143.37,149.13 142.01,145.73 141.75,143.66 C141.63,142.78 142.36,141.98 143.29,141.98 C143.64,141.98 144.01,141.98 144.36,141.98 L144.82,143.51 Z" />
</svg>
